<svg enable-background="new 0 0 490 100" viewBox="0 0 490 100" xmlns="http://www.w3.org/2000/svg" xmlns:xlink="http://www.w3.org/1999/xlink"><linearGradient id="a"><stop offset=".0307" stop-color="#fff"/><stop offset=".2515" stop-color="#fff"/><stop offset=".3369" stop-color="#fbfdfe"/><stop offset=".4244" stop-color="#eff5fa"/><stop offset=".5129" stop-color="#dae9f4"/><stop offset=".6021" stop-color="#bdd8eb"/><stop offset=".6919" stop-color="#98c2e0"/><stop offset=".7821" stop-color="#6ba7d2"/><stop offset=".871" stop-color="#3687c2"/><stop offset=".9509" stop-color="#0067b1"/></linearGradient><linearGradient id="b" gradientTransform="matrix(-.9066 -.4221 -.4221 .9066 -371.3998 522.0619)" gradientUnits="userSpaceOnUse" x1="-184.1723" x2="-151.3608" xlink:href="#a" y1="-583.2022" y2="-606.116"/><linearGradient id="c" gradientTransform="matrix(.8187 -.5741 -.5741 -.8187 12646.5312 9575.6494)" gradientUnits="userSpaceOnUse" x1="-4856.5649" x2="-4823.7485" xlink:href="#a" y1="15044.1738" y2="15021.2568"/><linearGradient id="d" gradientTransform="matrix(.0878 .9961 .9961 -.0878 -1643.0995 16457.5918)" gradientUnits="userSpaceOnUse" x1="-16193.3711" x2="-16160.5605" xlink:href="#a" y1="3135.4729" y2="3112.5593"/><path d="m44.5 97.8c-40.7-21.4-41-50.4-41-95.7h82c0 45.3-.2 74.3-41 95.7" fill="#fff"/><path d="m44.5 97.8c-40.7-21.4-41-50.4-41-95.7h82c0 45.3-.2 74.3-41 95.7z" fill="none" stroke="#0067b1" stroke-miterlimit="3.864" stroke-width="1.5"/><path d="m82.7 5.1h-76.5v3.9c0 17-.1 33 4.7 47.7 2.4 7.6 6.2 14.6 11.4 20.6 5.7 6.7 12.9 12.2 22.2 17l.1.1.1-.1c9.2-4.8 16.4-10.3 22-17 5.1-6.1 9-13.1 11.3-20.7 4.7-14.8 4.7-31 4.7-48.1z" fill="#0067b1"/><path d="m28.3 17.6c-.6-.3-1.3-.5-2-.6.5-.1.9-.3 1.4-.5.6-.3 1.1-.8 1.5-1.4s.6-1.3.6-1.9c0-1.3-.8-2.6-2.1-3-1-.3-2-.4-3-.4-.3 0-1.1 0-2.2.1-.4 0-1 0-1.8 0s-1.4 0-1.9 0l-1.6-.1c-.2 0-.6 0-.7 0v1.3c.6 0 1.2.1 1.8.2 0 0 .1.1.1.1.1.7.1 1.4.1 2.1 0 1.7.1 2.9.1 3.7v6.1c0 .5 0 .9-.1 1.3-.3.3-.7.5-1 .7v.9c1-.1 2-.1 2.6-.1l3.8.1c.9 0 1.8-.1 2.6-.4.7-.3 1.3-.6 1.9-1.1.5-.5 1-1 1.3-1.6.4-.7.5-1.4.5-2.2 0-.7-.2-1.4-.5-2.1-.3-.4-.8-.9-1.4-1.2zm-6.2-4.4c0-.7 0-1.2.1-1.7.4 0 .8-.1 1.2-.1.5 0 1 0 1.5.2.3.2.6.4.8.7.2.4.3.9.3 1.3 0 .5-.1.9-.3 1.4-.1.3-.4.6-.6.9-.3.2-.6.3-1 .4-.5.1-.9.1-1.4.1h-.5zm3.4 10.6c-.6.6-1.3.9-2.2.9-.4 0-.8 0-1.2-.1v-6.5h.7c.7 0 1.4.1 2 .3.5.2.9.5 1.1 1 .3.6.5 1.2.4 1.9.1.9-.2 1.8-.8 2.5z" fill="#fff"/><path d="m71.1 13.1c0-.5 0-1 .1-1.5 0-.1 0-.1.1-.1s.2-.1.3-.1 1.5-.1 1.5-.1v-1.5s-2.8.1-4.1.1c-1.2 0-3.5-.1-3.5-.1v1.4s1.5.1 1.6.1.1 0 .2.1c0 0 0 .1.1.1 0 .1.1.7.1 1.7v2.3 1.1c-.6 0-1.9.1-3.9.1-1.6 0-2.7 0-3.3-.1v-1.1c0-1.4 0-2.6.1-3.3 0-.2 0-.5.1-.7.1-.1.1-.1.2-.1s.6-.1 1.4-.1h.2v-1.5s-2.3.1-3.5.1c-1.4 0-2.7 0-4-.1l-3.5.1c-.3 0-1.3 0-2.7-.1v1.3c.9.1 1.5.1 1.6.1s.2.1.2.1c0 .1.1.2.1.2v.3c-.1.4-.4 1.7-.9 3.7l-1.2 4.6-1.2-2.8c-.2-.6-1-2.5-2.2-5.4-.3-.7-.6-1.5-.9-2.3h-1.3c-.2.4-.4.9-.5 1.3l-1.8 4.3-1.4 3.3c-.3.8-.5 1.3-.7 1.7l-.9-4c-.1-.6-.3-1.6-.6-3.2-.1-.8-.2-1.2-.2-1.3s0-.2 0-.3 0-.2.1-.2c.1-.1.2-.1.3-.1h1.3v-1.3l-3.9.1-3.4-.1v1.4c.4 0 .9 0 1.3.1.1.1.2.2.2.3.3.8.5 1.6.6 2.4l2.7 12.3h2l1.3-3.2c1.8-4.2 2.8-6.7 3.3-7.8l2.9 7.5 1.3 3.5h2.1c.1-.5.5-2.5 1.4-5.7.8-3.1 1.4-5.4 1.9-6.8.2-.8.5-1.6.8-2.3.1-.1.1-.2.2-.3.3-.1.5-.1.8-.1.1 0 2.3.1 2.3.1.1 0 .2 0 .3.1 0 0 .1.1.1.2.1.5.1 1 .1 1.6v2.2 5.4 2.3c0 .5 0 1-.1 1.5 0 .1 0 .1-.1.1-.1.1-.2.1-.3.1s-1.5.1-1.5.1v1.4c1.3-.1 2.8-.1 4.2-.1 1.2 0 2.5 0 3.5.1v-1.4c-1 0-1.5-.1-1.6-.1s-.1 0-.2-.1c0 0 0-.1-.1-.1 0-.1-.1-.4-.1-1.7 0-.3 0-1.1 0-2.3v-2.2h.5 3.5c1.6 0 2.6 0 3.1.1v2.2c0 1.5 0 2.6-.1 3.4 0 .2 0 .5-.1.7-.1.1-.1.1-.2.1s-1.6.1-1.6.1v1.4s2.3-.1 3.5-.1c1.4 0 4.1.1 4.1.1v-1.4s-1.4-.1-1.5-.1-.2 0-.3-.1c0 0-.1-.1-.1-.2-.1-.5-.1-1-.1-1.6v-2.2-5.3z" fill="#fff"/><path d="m25 73.4c1.1 1.5 2.4 2.9 3.6 4.3 5.9-1.2 11.4-3.9 15.9-7.9-11.3-9.8-15-25.8-9.2-39.7 0-.1.5-.9.5-1.1-7.5 2.2-12.1 4.5-17.4 10.6-4.2 11.2-.3 24.7 6.6 33.8z" fill="url(#b)"/><path d="m39.9 31.5c-1.9.2-3.7.6-5.5 1-1.9 5.7-2.3 11.8-1.2 17.7 14.2-4.9 29.9-.1 39 11.9.1.1.6.9.7 1 1.9-7.6 2.2-12.7-.5-20.3-7.5-9.4-21.1-12.8-32.5-11.3z" fill="url(#c)"/><path d="m68.8 65.4c.7-1.7 1.4-3.5 1.9-5.3-4-4.5-9.1-7.9-14.8-9.9-2.9 14.8-14.9 26-29.8 27.9-.1 0-1.1.1-1.2.1 5.7 5.4 9.9 8.3 17.9 9.8 11.8-2 21.5-12 26-22.6z" fill="url(#d)"/><path d="m127 61.7-4.8-12.4-6.6 16.2c-.5 1.2-1 2.5-1.4 3.8h-1.9c-.3-1.4-.6-2.5-.9-3.8l-4.5-18.9c-.4-1.6-1.1-1.8-1.9-1.8l-1.1-.1v-1.1c1.6 0 3.2.1 4.8.1s3.2-.1 4.8-.1v1.1l-1.6.1c-1 .1-1.8.3-1.3 2.4l3.8 16.4h.1l4.7-11.4c1.2-2.9 2.4-5.8 3.4-8.8h1.2c.4 1.6 1 3.1 1.6 4.6l5.9 15.9h.1l5-17.8c.2-.9-.3-1.1-1.8-1.2l-1.5-.1v-1.1c1.3 0 2.6.1 4 .1s2.7-.1 4-.1v1.1l-1.2.1c-.7 0-1.3.4-1.4 1.1l-5.8 19.7c-.3 1.1-.7 2.2-1 3.7h-1.9c-.9-3-1.9-5.2-2.8-7.7m26.7-17.2c-6.6 0-9.6 4.5-9.6 10.5 0 6.4 3.1 13.2 10.7 13.2 6.4 0 9.4-4.8 9.4-11.5-.1-7.4-3.4-12.2-10.5-12.2m-13.7 11.8c0-7.6 5.5-13.4 14.3-13.4 8.1 0 13.9 4.4 13.9 12.5 0 7.9-6.4 14.2-14.7 14.2-7.7.1-13.5-5.1-13.5-13.3zm59.8-8.2c-.1-.9 0-1.9.3-2.8.2-.4.7-.5 1.6-.6l1.6-.1v-1.1c-1.1 0-2.3.1-3.5.1s-2.4-.1-3.6-.1l-10 20.4-10-20.4c-1.2 0-2.4.1-3.6.1s-2.4-.1-3.6-.1v1.1l1.7.1c.9.1 1.4.2 1.6.6.3.9.4 1.8.3 2.8v16.5c.1.9 0 1.9-.3 2.8-.2.4-.7.5-1.6.5l-1.7.1v1c1.5 0 3-.1 4.4-.1 1.5 0 2.9.1 4.6.1v-1.1l-1.7-.1c-.9-.1-1.4-.2-1.6-.5-.3-.9-.4-1.8-.3-2.8v-16.6h.1l10.5 21.5h.8c.7-1.5 1.3-3.2 2-4.7l6.8-13.9c.5-1 1-2 1.6-3h.1v16.6c.1.9 0 1.9-.3 2.8-.2.4-.7.5-1.6.5l-1.3.1v1.2c1.4-.1 3.2-.1 5.1-.1 1.8 0 3.5 0 5.5.1v-1.1l-1.8-.1c-.9 0-1.4-.2-1.6-.5-.3-.9-.4-1.8-.3-2.8zm9.9 16.4c.1.9 0 1.9-.3 2.8-.2.4-.7.5-1.6.5l-1.4.1v1.1c1.4 0 2.6-.1 4.1-.1 2.4 0 5.4.1 8.3.1 2.8 0 5.8-.1 7.5-.1 0-2 .2-4 .6-6h-1.3c-.3 2.2-.8 3.8-1.3 4.1-.7.4-4.6.5-7.7.5-1.1 0-2.1-.1-3.2-.3v-10.3c1.2-.1 2.6-.1 4.4-.1 2.3 0 3.6.1 4 .4.2.1.3.4.3.9l.2 2.2h1.1c0-1.3-.1-2.7-.1-4.1s.1-2.8.1-4.3h-1.1l-.2 1.9c0 .5-.1.8-.3.9-.4.3-1.7.4-4 .4-1.8 0-3.2 0-4.4-.1v-9.8c1.1-.2 2.1-.3 3.2-.3 2.4 0 5.4 0 7.5.8.3.1.3.5.3 1v2.4h1.3c0-1.9.2-3.7.6-5.6-1.5-.1-3.2-.1-4.9-.1-2.2 0-5.7.1-9 .1-2.2 0-4.3-.1-6.4-.1v1.1l1.8.1c.9 0 1.4.2 1.6.6.3.9.4 1.8.3 2.8zm23.1 0c.1.9 0 1.9-.3 2.8-.2.4-.7.5-1.6.5l-1.7.1v1.1c1.5 0 3.1-.1 4.4-.1 1.5 0 2.9.1 4.6.1v-1.1l-1.7-.1c-.9-.1-1.4-.2-1.6-.5-.3-.9-.4-1.8-.3-2.8v-16.9h.1l17.9 21.5 3.4.6c0-.4-.1-.9-.1-1.4v-20.2c-.1-.9 0-1.9.3-2.8.2-.4.7-.5 1.6-.6l1.7-.1v-1.1c-1.7 0-3 .1-4.6.1-1.4 0-2.9-.1-4.4-.1v1.1l1.7.1c.9.1 1.4.2 1.6.6.3.9.4 1.8.3 2.8v17.1h-.1l-18.2-21.6c-.7 0-1.4.1-2.1.1-1.4 0-2.9-.1-4.6-.1v1.1l1.7.1c.9.1 1.4.2 1.6.6.3.9.4 1.8.3 2.8zm30.2-12.8c2-2.5 3.7-5.3 4.9-8.3l-.5-.5c-1.2.4-2.4.8-3.7 1.1-.3 2.9-1.3 5.8-3 8.2l.6.4zm22.5-2.1c0-1.7.2-3.5.5-5.2-2.2-1-4.5-1.5-6.9-1.5-4.6 0-9.7 2.6-9.7 8.3 0 3.8 2.4 5.6 8.3 6.3 3.9.4 6.7 1.4 6.7 4.9 0 3.6-3.4 5.6-6.8 5.6-3 0-6-1.4-6.2-2.9l-.3-2.5h-1.2c.1 1.9 0 3.8-.3 5.6 2.1.9 4.3 1.4 6.5 1.4 5.7 0 11.5-3 11.5-9.3 0-4.2-3.4-5.5-8.8-6-4.8-.5-6.3-2.1-6.3-4.6 0-3.6 3-5.4 5.6-5.4 1.4-.1 2.9.3 4.2.9 1.4.8 1.6 1.2 1.7 2.2l.2 2.1zm-173.9-42.5v8.9c.7 0 1.6.1 2.7.1 3.3 0 6.2-1.3 6.2-5 0-3.5-2.6-4.3-5.8-4.3-1 0-2.1.1-3.1.3m0 21.9c1 .2 2.1.3 3.2.3 4.2 0 6.9-2.3 6.9-6.3s-2.7-5.6-7.5-5.6c-1.1 0-1.9 0-2.5.1zm-3.6-19.1c.1-.9 0-1.9-.3-2.8-.2-.4-.7-.5-1.6-.6l-1.4-.1v-1.1c2.1 0 4.3.1 5.5.1 2.2 0 4.3-.1 7.3-.1 3.5-.1 6.8 1.2 6.8 5.1 0 3.3-3.2 5.5-6.4 6v.1c3.9.1 7.7 1.7 7.7 5.9 0 3.6-2.8 8.7-11.1 8.4-1.4 0-2.8-.1-4.2-.1s-2.8.1-4.1.1v-.8l1-.4c.7-.3.8-1.4.8-2.4zm52.2-2.8c.2-.4.7-.5 1.6-.6l1.8-.1v-1.1c-2 .1-3.8.1-5.5.1-1.9 0-3.7 0-5.6-.1v1.1l1.8.1c.9 0 1.4.2 1.6.6.3.9.4 1.8.3 2.8v16.5c.1.9 0 1.9-.3 2.8-.2.4-.7.5-1.6.5l-2.9.1c-.8 0-1.5-.3-2-.9l-8.6-10.9c3.7-.7 7.4-3.1 7.4-7.1 0-2.6-1.6-5.6-7.7-5.5-2.2 0-4.4.1-6.7.1-2.2 0-4.5-.1-6.5-.1v1.1l1.6.1c.9.1 1.4.2 1.6.6.3.9.4 1.8.3 2.8v16.5c.1.9 0 1.9-.3 2.8-.2.4-.7.5-1.6.5l-1.8.1v1.1c2-.1 3.8-.1 5.6-.1s3.5 0 5.5.1v-1.1l-1.8-.1c-.9 0-1.4-.2-1.6-.5-.3-.9-.4-1.8-.3-2.8v-19.3c1.3-.3 2.6-.5 3.9-.4 3 0 6 1.1 6 5.1 0 2.7-2.3 4.7-4.9 5.1-1.1.2-2.2.2-3.3.1l-.2.4c.6.8 1.4 1.5 2 2.3l7 9.1c.5.7 1.1 1.3 1.6 2h2.9c2.3 0 7.6-.1 8.7-.1 1.8 0 3.5 0 5.5.1v-1.1l-1.8-.1c-.9 0-1.4-.2-1.6-.5-.3-.9-.4-1.8-.3-2.8v-16.5c-.2-1-.1-1.9.2-2.8zm27.3 20c.1.5 0 1-.2 1.5-.2.7-2.4 1.3-5.3 1.3-7.8 0-12.3-5.2-12.3-12.5 0-6.5 3.8-11.1 11-11.1 1.8-.1 3.6.2 5.3.7 1.8.6 3.2 1.2 3.2 2.9v1.9h1.2c0-1.9.3-3.8.8-5.6-3-1-6.2-1.5-9.4-1.5-9.2 0-16.1 5.2-16.1 13.3 0 9.2 6.9 13.5 15.3 13.5 3.4-.2 6.8-.9 10-1.9v-6.2c0-1.1 0-1.2.4-1.4l1.1-.4-.1-.9c-1.6 0-3.1.1-4.7.1-1.5 0-3.1 0-4.6-.1v1.1l3.2.3c1 .1 1.3.4 1.3 1.3zm96.6 2.6v1.1c-2-.1-3.8-.1-5.5-.1-1.9 0-3.7 0-5.1.1v-1.1l1.3-.1c.9-.1 1.4-.2 1.6-.5.3-.9.4-1.8.3-2.8v-16.6h-.1c-.6 1-1.1 2-1.6 3l-6.8 13.9c-.7 1.5-1.4 3.1-2.1 4.7h-.8l-10.4-21.6h-.1v16.6c-.1.9 0 1.9.3 2.8.2.4.7.5 1.6.5l1.7.1v1.1c-1.7 0-3-.1-4.6-.1-1.4 0-1.7.1-3.3.1-1.7 0-3.3-.1-5.1-.1-1.3 0-3 .1-5.1.1v-1.1l1.8-.1c.8 0 1.6-.3 1.6-.7-.1-.8-.4-1.6-.8-2.3l-1.8-4.2h-11l-1.1 2.5c-.6 1.2-1 2.5-1.3 3.8 0 .8.6.9 1.8 1l1.4.1v1.1c-1.8 0-3.3-.1-4.4-.1-1.5 0-2.9.1-4.4.1-2-.1-2.1-.1-3.9-.1-1.9 0-3.6 0-5.6.1v-1.1l1.8-.1c.9 0 1.4-.2 1.6-.5.3-.9.4-1.8.3-2.8v-8.2c-.5 0-1.5-.1-3.2-.1h-8.9c-1.7 0-2.7 0-3.2.1v8.2c-.1.9 0 1.9.3 2.8.2.4.7.5 1.6.5l1.8.1v1.1c-2-.1-3.8-.1-5.5-.1-1.9 0-3.7 0-5.6.1v-1.1l1.8-.1c.9 0 1.4-.2 1.6-.5.3-.9.4-1.8.3-2.8v-16.5c.1-.9 0-1.9-.3-2.8-.2-.4-.7-.5-1.6-.6l-1.4-.1v-1.1c2 .1 3.8.1 5.6.1 1.7 0 3.5 0 5.5-.1v1.1l-1.8.1c-.9 0-1.4.2-1.6.6-.3.9-.4 1.8-.3 2.8v6.5c.5 0 1.5.1 3.2.1h8.9c1.7 0 2.7 0 3.2-.1v-6.5c.1-.9 0-1.9-.3-2.8-.2-.4-.7-.5-1.6-.6l-1.8-.1v-1.1c2 .1 3.8.1 5.6.1s3.5 0 5.5-.1v1.1l-1.8.1c-.9 0-1.4.2-1.6.6-.3.9-.4 1.8-.3 2.8v16.5c-.1.9 0 1.9.3 2.8.2.4 1.6.5 1.6.5h1.6c1-.2 1.8-.9 2.1-1.8l6.8-14.9c1.2-2.6 2.5-5.3 3.5-7.9h1.2l9.2 20.8c.4.9.8 1.7 1.2 2.5.4.7.8 1.2 1.5 1.3h1.8c.9-.1 1.4-.2 1.6-.5.3-.9.4-1.8.3-2.8v-16.5c.1-.9 0-1.9-.3-2.8-.2-.4-.7-.5-1.6-.6l-1.7-.1v-1.1c1.2 0 2.4.1 3.6.1s2.4-.1 3.6-.1l10 20.4 10-20.4c1.2 0 2.4.1 3.6.1s2.4-.1 3.5-.1v1.1l-1.6.1c-.9.1-1.4.2-1.6.6-.3.9-.4 1.8-.3 2.8v16.5c-.1.9 0 1.9.3 2.8.2.4.7.5 1.6.5zm-43.5-8.8-4.8-10.9-4.8 10.9zm136.3-4.4c0 6-3.6 11.2-8.2 13-2.6 1-5.4 1.4-8.1 1.3-1.5 0-3.2-.1-4.9-.1s-3.4.1-5.2.1v-.8l1.2-.6c.7-.5 1.1-1.3 1-2.2v-17.3c.1-.9 0-1.9-.3-2.8-.2-.4-.7-.5-1.6-.6l-1.5-.1-2 .1c-.9.1-1.4.2-1.6.6-.3.9-.4 1.8-.4 2.8v20.2c0 .4.1.9.1 1.4l-3.4-.6-18.1-21.5h-.1v16.9c-.1.9 0 1.9.3 2.8.2.4.7.5 1.6.5l1.7.1v1.1c-1.7 0-3.1-.1-4.6-.1-1.4 0-1.7.1-3.3.1-1.7 0-2.6-.1-4.4-.1-1.3 0-3 .1-5.1.1v-1.1l1.8-.1c.8 0 1.6-.3 1.6-.7-.1-.8-.4-1.6-.8-2.3l-1.7-4.2h-11l-1.1 2.5c-.6 1.2-1 2.5-1.3 3.8 0 .8.7.9 1.8 1l1.4.1v1.1c-1.8 0-3.3-.1-4.4-.1-1.5 0-2.9.1-4.4.1v-1.1l1.4-.1c1-.2 1.7-.9 2.1-1.8l6.8-14.9c1.2-2.6 2.5-5.3 3.5-7.9h1.2l9.2 20.8c.3.7.8 1.7 1.2 2.5.4.7.8 1.2 1.5 1.3h.5.6c.9-.1 1.4-.2 1.6-.5.3-.9.4-1.8.3-2.8v-16.5c.1-.9 0-1.9-.3-2.8-.2-.4-.7-.5-1.6-.6l-1.7-.1v-1.1c1.7 0 3.2.1 4.6.1.7 0 1.4-.1 2.1-.1l18.4 21.7h.1v-17.1c.1-.9 0-1.9-.4-2.8-.2-.4-.7-.5-1.6-.6l-1.7-.1v-1.1c1.5 0 3 .1 4.4.1 1.5 0 3.2-.1 4.9-.1 2.6 0 5 .1 7.5.1s4.9-.1 6.6-.1c7.9-.1 13.8 4.1 13.8 11.2zm-66.6 4.4-4.8-10.9-4.8 10.9zm62.5-3.3c0-9.1-5.4-10.7-12.3-10.7-1.5 0-2.9.1-4.3.3v21.8c1.4.2 2.9.3 4.3.3 2.1.1 4.2-.3 6.2-1.1 4.2-1.9 6.1-5.7 6.1-10.6zm-47.1 30.5c-.1-.9 0-1.9.3-2.8.2-.4.7-.5 1.6-.6l1.8-.1v-1.1c-2 .1-3.8.1-5.5.1-1.9 0-3.7 0-5.6-.1v1.1l1.8.1c.9 0 1.4.2 1.6.6.3.9.4 1.8.3 2.8v6.5c-.5 0-1.5.1-3.2.1h-8.9c-1.7 0-2.7 0-3.2-.1v-6.5c-.1-.9 0-1.9.3-2.8.2-.4.7-.5 1.6-.6l1.8-.1v-1.1c-2 .1-3.8.1-5.5.1-1.9 0-3.6 0-5.6-.1v1.1l1.8.1c.9 0 1.4.2 1.6.6.3.9.4 1.8.3 2.8v16.5c.1.9 0 1.9-.3 2.8-.2.4-.7.5-1.6.5l-1.8.1v1c2-.1 3.8-.1 5.6-.1s3.5 0 5.5.1v-1.1l-1.8-.1c-.9 0-1.4-.2-1.6-.5-.3-.9-.4-1.8-.3-2.8v-8.2c.5 0 1.5-.1 3.2-.1h8.9c1.7 0 2.7 0 3.2.1v8.2c.1.9 0 1.9-.3 2.8-.2.4-.7.5-1.6.5l-1.8.1v1.1c2-.1 3.8-.1 5.6-.1s3.5 0 5.5.1v-1.1l-1.8-.1c-.9 0-1.4-.2-1.6-.5-.3-.9-.4-1.8-.3-2.8zm19.1-3.6c-6.6 0-9.6 4.5-9.6 10.5 0 6.4 3.1 13.2 10.7 13.2 6.4 0 9.4-4.8 9.4-11.5-.1-7.4-3.5-12.2-10.5-12.2m-13.7 11.8c0-7.6 5.5-13.4 14.3-13.4 8.1 0 13.9 4.4 13.9 12.5 0 7.9-6.4 14.2-14.7 14.2-7.8.1-13.5-5.1-13.5-13.3zm47-6.7c0-1.7.2-3.5.5-5.2-2.2-1-4.5-1.5-6.9-1.5-4.6 0-9.7 2.6-9.7 8.3 0 3.8 2.4 5.6 8.3 6.3 3.9.4 6.7 1.4 6.7 4.9 0 3.6-3.4 5.6-6.8 5.6-3 0-6-1.4-6.2-2.9l-.3-2.5h-1.2c.1 1.9 0 3.8-.3 5.6 2.1.9 4.3 1.4 6.5 1.4 5.7 0 11.5-3 11.5-9.3 0-4.2-3.4-5.5-8.8-6-4.8-.5-6.3-2.1-6.3-4.6 0-3.6 3-5.4 5.6-5.4 1.4-.1 2.9.2 4.1.9 1.4.8 1.6 1.2 1.7 2.2l.2 2.1zm11.4-4.2c1.3-.3 2.6-.5 3.9-.4 3.8 0 6.2 1.7 6.2 5.5 0 3-2.3 5.4-5.3 5.5-.1 0-.1 0-.2 0-.9 0-1.7-.1-2.5-.4l.4 1.3c.8.1 1.5.2 2.3.2 5 0 9.1-3.3 9.1-7.9 0-4.1-4.2-5.7-7.9-5.6-2.1 0-4.3.1-6.5.1s-4.3-.1-6.8-.1v1.1l1.7.1c.9.1 1.4.3 1.6.6.3.9.5 1.8.4 2.7v16.5c.1.9 0 1.9-.3 2.8-.2.4-.7.5-1.6.5l-1.8.1v1c2-.1 3.8-.1 5.6-.1s3.5 0 5.5.1v-1.1l-1.8-.1c-.9 0-1.4-.2-1.6-.5-.3-.9-.4-1.8-.3-2.8v-19.1m23.1 2.7c-.1-.9 0-1.9.3-2.8.2-.4.7-.5 1.6-.6l1.8-.1v-1.1c-2 .1-3.8.1-5.5.1-1.9 0-3.7 0-5.6-.1v1.1l1.8.1c.9 0 1.4.2 1.6.6.3.9.4 1.8.3 2.8v16.5c.1.9 0 1.9-.3 2.8-.2.4-.7.5-1.6.5l-1.8.1v1c2-.1 3.8-.1 5.6-.1 1.7 0 3.5 0 5.5.1v-1.1l-1.8-.1c-.9 0-1.4-.2-1.6-.5-.3-.9-.4-1.8-.3-2.8zm15.5 16.4c.1.9 0 1.9-.3 2.8-.2.4-.7.5-1.6.5l-1.8.1v1.1c2-.1 3.8-.1 5.6-.1 1.7 0 3.5 0 5.5.1v-1.1l-1.8-.1c-.9 0-1.4-.2-1.6-.5-.3-.9-.4-1.8-.3-2.8v-15.5c0-1.2 0-2.4.2-3.7h5.9c1.1 0 1.5.3 1.5 1.2l.1 2.9h1.2c0-2 .1-4 .3-5.9-2.7 0-5.5.1-8.2.1h-5.5c-2.7 0-5.5-.1-8.2-.1.2 1.9.3 3.9.3 5.9h1.2l.1-2.9c.1-.9.4-1.2 1.5-1.2h5.9c.1 1.1.1 2.3.1 3.7zm59.1-1.9c-.2 2-.5 4.5-.8 6.3-1.7 0-4.7.1-7.5.1-3.4 0-5.9-.1-8.3-.1-1.1 0-3.2.1-4.4.1-.1 0-.2 0-.3 0s-.1 0-.2 0c-1.5 0-3-.1-4.6-.1-1.3 0-3 .1-5.1.1v-1.1l1.8-.1c.8 0 1.6-.3 1.6-.7-.1-.8-.4-1.6-.8-2.4l-1.7-4.2h-11l-1.1 2.5c-.6 1.2-1 2.5-1.3 3.8 0 .8.6.9 1.8 1l1.4.1v1.1c-1.8 0-3.3-.1-4.4-.1-1.5 0-2.9.1-4.4.1v-1.1l1.4-.1c1-.2 1.7-.9 2.1-1.8l6.8-14.9c1.2-2.6 2.5-5.3 3.5-7.9h1.2l9.2 20.8c.3.7.8 1.7 1.2 2.5.4.7.8 1.2 1.5 1.2l1.3.1c.8 0 1.6-.1 2.3-.3.7-.5 1.1-1.3 1-2.2v-17.2c.1-.9 0-1.9-.3-2.8-.2-.4-.7-.5-1.6-.6l-1.8-.1v-1.1c2 .1 3.8.1 5.6.1 1.7 0 3.5 0 5.5-.1v1.1l-1.8.1c-.9 0-1.4.2-1.6.6-.3.9-.4 1.8-.4 2.8v19.1c1 .2 2.1.3 3.2.3 3.1 0 7.8-.1 8.4-.7.4-.7.7-1.5.8-2.4l.5-1.8zm-31-3.5-4.8-10.9-4.8 10.9z" fill="#fff"/></svg>