<svg enable-background="new 0 0 110 60" viewBox="0 0 110 60" xmlns="http://www.w3.org/2000/svg"><path d="m42.7 53.6v4.3l.3.1c1 .2 2 .3 3 .4.9.1 1.8.1 2.6.1.8-.1 1.7-.2 2.5-.5.9-.3 1.8-.7 2.6-1.4.7-.6 1.2-1.3 1.5-2.1.5-1.4.5-2.9 0-4.3-.3-.7-.8-1.4-1.3-1.9-.6-.5-1.2-.9-2-1.1l-3.2-1.2c-.4-.2-.7-.5-.9-.8-.1-.3-.1-.7 0-1 .1-.1.1-.2.2-.3s.3-.3.5-.3c.4-.2.8-.3 1.2-.3.7-.1 1.4-.1 2.1 0 .8.1 1.6.2 2.4.4h.2v-4l-.3-.1c-.8-.2-1.6-.3-2.4-.4-1.1-.1-2.1-.1-3.2 0-1.4.1-2.6.6-3.7 1.5-.7.6-1.3 1.3-1.6 2.2-.5 1.3-.5 2.7 0 4 .2.7.6 1.2 1.1 1.7.4.4.9.8 1.5 1.1.7.4 1.5.7 2.2.9.3.1.5.2.8.2l.4.1h.1c.4.1.7.3 1 .6.2.2.4.4.5.7.1.2.1.5 0 .7-.1.4-.4.7-.7.9-.4.2-.8.3-1.2.4-.6.1-1.3.1-1.9.1-.8-.1-1.7-.2-2.5-.3-.4-.1-.9-.2-1.3-.3zm-17.7 4.2v-5h-.1c-1.1.5-2.4.9-3.6.9-1.3.1-2.6-.3-3.6-1.1-.7-.6-1.3-1.4-1.6-2.2-.3-1-.4-2-.1-3 .2-1 .8-1.9 1.6-2.6.7-.6 1.6-1 2.5-1.1 1.6-.2 3.3.1 4.8.9l.1.1v-5l-.2-.1c-1.5-.5-3-.7-4.6-.6-1.4 0-2.8.4-4.1.9-1.3.6-2.4 1.5-3.3 2.6-2.8 3.6-2.9 8.5-.2 12.2 1.3 1.7 3.2 2.9 5.3 3.4 2.2.5 4.5.5 6.7-.2zm6.5.3h4.7v-18.8h-4.7zm-30.5-33.8c.1 1.3 1.2 2.3 2.5 2.2.5 0 1-.3 1.4-.6.4-.4.7-1 .7-1.5v-5.2c0-1.3-1.1-2.3-2.4-2.3s-2.3 1-2.3 2.3v5.1m13 0c.1 1.2 1.1 2.2 2.3 2.2s2.2-.9 2.3-2.2v-11.7c0-1.3-1.1-2.3-2.4-2.3-1.2 0-2.2 1-2.3 2.3v11.7m13 4.7c.1 1.3 1.2 2.3 2.5 2.2 1.2-.1 2.1-1 2.2-2.2v-25.3c-.1-1.3-1.2-2.3-2.5-2.2-1.2.1-2.2 1-2.2 2.2zm13-4.7c.1 1.3 1.2 2.3 2.5 2.2 1.2-.1 2.1-1 2.2-2.2v-11.7c-.1-1.3-1.1-2.2-2.3-2.2-1.3 0-2.3 1-2.3 2.2v11.7m12.8 0c.1 1.3 1.2 2.3 2.5 2.2.5 0 1-.3 1.4-.6.4-.4.7-1 .7-1.5v-5.2c-.1-1.3-1.1-2.3-2.4-2.2-.6 0-1.1.3-1.5.6-.4.4-.7 1-.7 1.6zm12.9 0c.1 1.3 1.2 2.3 2.5 2.2 1.1-.1 2.1-1 2.2-2.2v-11.7c-.1-1.3-1.2-2.3-2.4-2.2s-2.2 1-2.2 2.2v11.7m12.8 4.7c.1 1.3 1.2 2.3 2.5 2.2 1.2-.1 2.1-1 2.2-2.2v-25.3c-.1-1.3-1.1-2.3-2.4-2.2-.6 0-1.1.3-1.5.7s-.7 1-.7 1.6zm12.9-4.7c.1 1.3 1.2 2.3 2.5 2.2 1.2-.1 2.1-1 2.2-2.2v-11.7c-.1-1.3-1.1-2.2-2.3-2.2-1.3 0-2.3 1-2.3 2.2zm12.9 0c.1 1.3 1.2 2.3 2.5 2.2 1.2-.1 2.1-1 2.2-2.2v-5.2c-.1-1.3-1.1-2.2-2.3-2.2-1.3 0-2.3 1-2.3 2.2zm-29.8 33.5v-5h-.1c-1.1.5-2.4.9-3.6.9-1.3.1-2.6-.3-3.6-1.1-.7-.6-1.3-1.4-1.6-2.2-.3-1-.4-2-.1-3 .2-1 .8-1.9 1.6-2.6.7-.6 1.6-1 2.5-1.1 1.6-.2 3.3.1 4.8.9l.1.1v-5l-.2-.1c-1.5-.5-3-.7-4.6-.6-1.4 0-2.8.4-4.1.9-1.3.6-2.4 1.5-3.3 2.6-2.8 3.6-2.9 8.5-.2 12.2 1.3 1.7 3.2 2.9 5.3 3.4 2.2.5 4.5.5 6.7-.2zm11.8-12.9c2.1-1.7 5.2-1.4 6.9.7s1.4 5.2-.7 6.9c0 0-.1 0-.1.1-2.2 1.7-5.3 1.3-6.9-.9-1.6-2.1-1.2-5.1.8-6.8m-6.9 3.8c.1 5.5 4.6 9.8 10 9.7.7 0 1.3-.1 2-.2 5.2-1 8.7-6 7.7-11.2-.5-2.7-2.2-5.1-4.5-6.5-4.7-2.9-10.8-1.4-13.7 3.2-.9 1.5-1.4 3.3-1.5 5" fill="#ffffff"/></svg>
