<svg enable-background="new 0 0 368.5 70.9" viewBox="0 0 368.5 70.9" xmlns="http://www.w3.org/2000/svg"><path d="m10.5 25.9h12v2.4h-9.4v6h8.7v2.4h-8.7v8.2h-2.6zm17.6 0h2.6v19h-2.6zm9.7 0h6.6c1.3 0 2.5.2 3.5.5s1.9.7 2.6 1.2 1.4 1.1 1.9 1.8.9 1.3 1.2 2 .5 1.4.6 2.1.2 1.3.2 1.9c0 1.2-.2 2.4-.7 3.5-.4 1.1-1.1 2.2-2 3-.9.9-2 1.6-3.3 2.1s-2.8.8-4.5.8h-6.2v-18.9zm2.6 16.6h3.3c1.1 0 2.1-.1 3.1-.4s1.8-.7 2.6-1.3c.7-.6 1.3-1.3 1.7-2.2s.6-1.9.6-3.1c0-.6-.1-1.3-.3-2.1s-.6-1.6-1.1-2.3-1.3-1.4-2.3-1.9-2.2-.8-3.8-.8h-3.9v14.1zm20.2-16.6h12.3v2.4h-9.7v5.7h9v2.4h-9v6.1h10.2v2.4h-12.8zm18.8 0h2.6v16.6h8.7v2.4h-11.3zm16.5 0h2.6v19h-2.6zm13.9 2.4h-6.1v-2.4h14.8v2.4h-6.1v16.6h-2.6zm19.8 8.5-7.2-10.9h3.3l5.2 8.4 5.3-8.4h3.1l-7.2 10.9v8.1h-2.6v-8.1zm24.5-10.9h12.8v3.9h-8.6v3.9h7.9v3.9h-7.9v7.4h-4.2zm16.9 9.5c0-1.5.3-2.9.8-4.1s1.2-2.3 2.1-3.2 2-1.5 3.3-2 2.6-.7 4.1-.7 2.9.2 4.1.7c1.3.5 2.3 1.1 3.3 2 .9.9 1.6 1.9 2.1 3.2.5 1.2.8 2.6.8 4.1s-.3 2.9-.8 4.1-1.2 2.3-2.1 3.2-2 1.5-3.3 2-2.6.7-4.1.7-2.9-.2-4.1-.7c-1.3-.5-2.3-1.1-3.3-2-.9-.9-1.6-1.9-2.1-3.2-.5-1.2-.8-2.5-.8-4.1zm4.4 0c0 .9.1 1.7.4 2.5.3.7.7 1.4 1.2 1.9s1.1 1 1.9 1.3c.7.3 1.5.5 2.4.5s1.7-.2 2.4-.5 1.3-.7 1.9-1.3.9-1.2 1.2-1.9.4-1.6.4-2.5-.1-1.7-.4-2.4c-.3-.8-.7-1.4-1.2-1.9s-1.1-1-1.9-1.3c-.7-.3-1.5-.5-2.4-.5s-1.7.2-2.4.5-1.3.7-1.9 1.3c-.5.5-.9 1.2-1.2 1.9s-.4 1.6-.4 2.4zm37.5 2.2c0 1.1-.2 2.2-.5 3.1-.3 1-.8 1.8-1.5 2.5s-1.5 1.2-2.5 1.6-2.2.6-3.5.6-2.5-.2-3.5-.6-1.8-.9-2.5-1.6-1.2-1.5-1.5-2.5c-.3-.9-.5-2-.5-3.1v-11.7h4.2v11.5c0 .6.1 1.1.3 1.6s.5.9.8 1.3.7.7 1.2.9 1 .3 1.5.3c.6 0 1.1-.1 1.5-.3.5-.2.9-.5 1.2-.9s.6-.8.8-1.3.3-1 .3-1.6v-11.5h4.2zm6.5-11.7h5.7l8.1 13.2h.1v-13.2h4.2v19h-5.5l-8.3-13.5h-.1v13.5h-4.2zm24.5 0h6.3c1.5 0 3 .2 4.3.5 1.4.3 2.6.9 3.6 1.7s1.8 1.8 2.4 3 .9 2.7.9 4.4c0 1.5-.3 2.9-.9 4.1s-1.4 2.2-2.4 3-2.1 1.4-3.4 1.8-2.6.6-4.1.6h-6.9v-19.1zm4.2 15.2h2.2c1 0 1.9-.1 2.7-.3s1.6-.5 2.2-1 1.1-1.1 1.4-1.8.5-1.7.5-2.7c0-.9-.2-1.7-.5-2.4s-.8-1.3-1.4-1.7-1.3-.8-2.1-1-1.6-.3-2.5-.3h-2.5zm24-15.2h3.5l8.3 19h-4.7l-1.6-4h-7.4l-1.6 4h-4.6zm1.6 5.6-2.3 5.9h4.6zm16.4-1.9h-5.4v-3.7h15v3.7h-5.4v15.3h-4.2zm14.2-3.7h4.2v19h-4.2zm9.7 9.5c0-1.5.3-2.9.8-4.1s1.2-2.3 2.1-3.2 2-1.5 3.3-2 2.6-.7 4.1-.7 2.9.2 4.1.7c1.3.5 2.3 1.1 3.3 2 .9.9 1.6 1.9 2.1 3.2.5 1.2.8 2.6.8 4.1s-.3 2.9-.8 4.1-1.2 2.3-2.1 3.2-2 1.5-3.3 2-2.6.7-4.1.7-2.9-.2-4.1-.7c-1.3-.5-2.3-1.1-3.3-2s-1.6-1.9-2.1-3.2c-.6-1.2-.8-2.5-.8-4.1zm4.3 0c0 .9.1 1.7.4 2.5.3.7.7 1.4 1.2 1.9s1.1 1 1.9 1.3c.7.3 1.5.5 2.4.5s1.7-.2 2.4-.5 1.3-.7 1.9-1.3c.5-.5.9-1.2 1.2-1.9s.4-1.6.4-2.5-.1-1.7-.4-2.4c-.3-.8-.7-1.4-1.2-1.9s-1.1-1-1.9-1.3c-.7-.3-1.5-.5-2.4-.5s-1.7.2-2.4.5-1.3.7-1.9 1.3c-.5.5-.9 1.2-1.2 1.9-.2.7-.4 1.6-.4 2.4zm21.7-9.5h5.7l8.1 13.2h.1v-13.2h4.2v19h-5.5l-8.3-13.5h-.1v13.5h-4.2z" fill="#fff"/></svg>