<svg viewBox="0 0 1000 1000" xmlns="http://www.w3.org/2000/svg"><path fill="#ffffff" d="m152.89 300.9747v91.62h126.5179v-91.2918h22.82v205.7622h-22.7296v-93.5623h-126.3362v93.6205h-22.6865v-206.1486zm715.013 112.5007v-20.1977h-88.913v-72.1951h91.5718v-19.7963h-114.2349v205.9131h116.9031v-19.6648h-94.2829v-74.0592zm-92.9475-172.1038-64.18-74.4976h-6.3519v86.7426h6.7987v-76.0491l65.7 76.053h5.5492v-86.8052h-6.6306v74.2778zm-316.88 328.6553 64.9906 75.1946h5.6662v-86.7383h-6.7723v75.5016l-65.0283-75.486h-6.2631v86.6512h6.5341v-74.8152zm375.1128-403.4491c-15.9246 3.5617-27.5433 12.778-32.7866 28.4321-5.4052 16.1381-2.955 31.3834 8.525 44.37 11.9467 13.5143 27.3948 17.4818 44.8005 14.9257 7.8784-1.157 15.5684-3.082 22.4457-6.7992v-33.2322h-24.8136v5.6025h17.9332v23.3838c-9.2957 3.6134-18.7121 6.299-28.62 5.3572-15.41-1.4647-26.97-9.2043-32.379-23.8526-5.4579-14.779-3.6384-29.0585 7.4257-41.0363 10.5654-11.4378 24.2166-13.52 38.7023-10.7234 6.8667 1.3256 13.43 4.2218 20.1014 6.3968v-6.5847c-13.2321-6.4937-26.8937-9.4695-41.3346-6.2397zm-96.6417 390.8322c-39.2621 5.87-48.8352 45.88-32.2087 69.8519 16.4784 23.758 49.6242 23.557 69.5789 10.7324v-6.4815c-2.9684 1.3217-5.4444 2.4882-7.9694 3.5372a57.2 57.2 0 0 1 -28.1888 4.518c-18.427-1.8971-31.2714-15.3341-33.1127-34.7136-1.7473-18.3891 9.13-34.7657 26.535-39.6466 12.15-3.4072 23.901-1.6625 35.2978 3.3458 2.0383.8958 4.0692 1.8078 6.2135 2.7613a6.364 6.364 0 0 0 .6466-1.6191c.0593-1.62.0238-3.2438.0238-5.0214-10.1126-5.7973-24.5877-9.0926-36.816-7.2644zm-446.532 1.12c-16.9517 4.5891-28.91 15.0969-32.8655 32.7034-3.7191 16.5554-.1339 31.6023 12.8015 43.2645 13.1474 11.8534 28.8906 14.3732 45.7215 10.4845 6.0627-1.4007 11.8538-3.9768 17.7689-6.0165l-.5065-1.0306v-6.3143c-2.9756 1.3142-5.4677 2.4763-8.0067 3.5251a57.081 57.081 0 0 1 -28.1809 4.4133c-16.1513-1.7061-29.24-13.4893-32.1636-29.0353-3.48-18.5043 3.8386-35.1423 19.0957-42.6433 14.0571-6.9112 28.1255-5.1985 42.0432.6995 2.0381.8637 4.0329 1.83 6.57 2.9863v-7.3824c-13.6016-6.1575-27.6052-9.6261-42.2776-5.6542zm24.5754-393.0556c-27.1863 1.6559-49.7326 25.4448-41.6967 56.9037 4.5035 17.63 19.631 30.1339 38.3433 32.236 13.35 1.5 25.79-1.4324 37.2644-7.7061v-6.9811c-1.851.8424-3.3083 1.5154-4.7734 2.171-10.5937 4.7409-21.4939 7.4836-33.2425 5.6659-16.7173-2.5863-28.8506-15.14-31.1309-32.4531-2.3062-17.51 6.5954-33.7818 22.2412-40.136 12.4432-5.0535 24.878-3.9452 37.1487.8563 2.8556 1.1174 5.6408 2.4145 8.6854 3.7268a14.9758 14.9758 0 0 0 .3843-2.0843c.0466-1.6131.0159-3.2284.0159-4.9746-10.6841-5.0303-21.6049-7.9332-33.2397-7.2245zm141.4632 46.9024h39.554c-.1813-2.0948-.3159-3.6472-.4847-5.596h-39.1754v-34.4875h40.1321v-5.39h-47.1912v86.6h48.405v-5.2166h-41.24zm131.6026 390.1v-5.7078h-33.8272v-32.7537h37.5v-5.6017h-44.37v86.6679h6.6535v-42.6045zm46.1292-430.4015h32.356c-.1387-2.1182-.24-3.6639-.3453-5.2722h-71.6729v5.7669h32.5356v81.1h7.1267zm152.9528 386.3947.3576 5.8422h32.65v80.9031h6.8113v-81.2393h32.3025v-5.506zm-179.325 86.6491h49.6808c-.1111-1.9-.2011-3.443-.3254-5.5682h-43.1121v-81.2343h-6.2433zm-396.0489-34.4379-44.5939-51.7712h-4.1745v59.4808l4.5183-.2876v-51.689c2.3767 2.7309 3.9771 4.5581 5.565 6.3962q18.5434 21.465 37.0741 42.941c1.6364 1.8989 3.1545 3.9009 6.2493 2.0934v-58.4148a6.371 6.371 0 0 0 -1.5053-.6423c-.7845-.091-1.5874-.0254-3.1327-.0254zm461.0868 34.6055h6.4293v-86.9712h-6.4291zm13.6156-478.4h-6.3589v86.75h6.3589zm160.3363 567.6776c1.3479 1.4308 2.0075 2.0841 2.6149 2.783q11.5476 13.288 23.0783 26.591c1.5064 1.7391 2.8867 3.7276 5.8288 1.9754v-38.8h-4.3454v31.9243c-9.0642-10.4554-17.281-19.9384-25.505-29.4152-1.4723-1.6965-2.8176-3.7588-5.6829-2.2272v38.9944h4.0113zm-411.2086 61.7117c9.0434 10.4486 17.2489 19.9257 25.4494 29.4069 1.4955 1.729 2.86 3.7344 5.9508 2.2921v-39.0961l-4.3383.4353v31.2873c-1.734-1.8842-2.8334-3.0215-3.87-4.2135-7.1693-8.246-14.2645-16.5577-21.542-24.7068-1.3-1.4559-3.3386-2.2528-5.8426-3.8773v40.3884h4.1922zm180.0163-60.93c.5315.5562 1.0871 1.0914 1.591 1.6716q11.7087 13.4865 23.3973 26.9907c1.5341 1.7764 2.9788 3.5872 5.7455 1.96v-39.0622c-1.4741.0932-2.5493.161-4.1543.2623v31.9468c-1.6652-1.8768-2.5033-2.8044-3.3231-3.7478q-11.2333-12.9277-22.4484-25.871c-1.53-1.7737-2.9439-3.5614-5.6345-2.0915v39.1415l3.865-.295v-30.5214q.4812-.1921.9612-.3839zm184.5536 84.8976c-.6158-.72-1.2268-1.4448-1.8478-2.1606q-11.5478-13.3117-23.0888-26.629c-1.5331-1.7746-2.9773-3.5787-5.8033-1.9913v38.8446l4.2557-.1932v-31.8041c1.34 1.53 1.9682 2.24 2.5893 2.9573q11.5417 13.319 23.07 26.6493c1.544 1.7919 3.0148 3.4991 5.824 1.94v-38.86l-4.0817.2234v30.6123zm-273.5547-90.8484c-1.5381-1.935-3.0986-3.3475-5.9718-2.0027v38.9207h4.104v-31.0921l.9346-.2522c4.2262 5.1938 8.4525 10.3876 12.9272 15.8866l12.87-15.8594q.5458.184 1.0919.3681v31.1336l3.9533-.1847v-39.3311c-1.2775 0-2.6963-.4169-3.1379.0638-5.0118 5.4572-9.8743 11.0517-14.9689 16.8274-4.0075-4.9007-7.9604-9.6453-11.8024-14.478zm-86.7419-2.481-4.2006.2927v39.0414h4.5155v-17.4012h23.91v17.6443l4.2456-.2444v-39.1007h-4.5592v17.1042h-23.9113zm-97.7657 90.7932v-7.76h-12.487c.1876 1.4179.3228 2.44.4638 3.5049l7.0566.5235v9.5533c-3.924.4627-7.5952 1.3459-11.2362 1.2349-8.68-.2646-15.0188-7.3156-15.0047-16.1331.014-8.7254 6.5275-16.0935 15.1249-15.9683 4.5643.0663 9.1025 1.9081 13.6542 2.9406.4135.0939.84.13 1.3677.2081v-3.83c-6.1238-3.147-10.29-4.0518-16.1379-3.5664a20.32 20.32 0 0 0 -18.8414 19.1569 19.8868 19.8868 0 0 0 15.2807 20.6214 29.2106 29.2106 0 0 0 20.7593-2.8134zm490.1226-29.26a20.1908 20.1908 0 0 0 -18.1513 16.5c-1.58 9.5854 2.8825 18.45 11.4943 22.0237 8.15 3.3827 16.1486 2.3478 23.69-1.34v-15.5946h-12.2379c.3428 1.5145.5747 2.5389.7875 3.4795l7.1926.4535v9.349c-3.7316.5342-7.3632 1.519-10.9842 1.4806-8.9538-.0946-15.544-7.184-15.5016-16.1349.0428-8.9729 6.66-16.2014 15.5571-16.05 4.7585.0809 9.4922 1.6077 14.44 2.5194.0432-.5877.1341-1.8208.2384-3.2357a28.467 28.467 0 0 0 -16.5249-3.4509zm-325.4991-56.28c-.02 6.188.1259 12.3822-.1079 18.5621-.2951 7.7964-4.9683 12.3129-12.2617 12.2583-7.3632-.0552-11.8927-4.6113-12.1394-12.3765-.1291-4.0673-.0465-8.1415-.0525-12.2127-.0055-3.7066-.0012-7.4132-.0012-11.4915l-4.5846.344c0 7.6337-.0252 14.9354.0193 22.2365a28.0521 28.0521 0 0 0 .43 4.8529c1.3892 7.5923 7.4 12.4309 15.6619 12.6976 8.3214.2687 15.87-4.065 16.6018-11.3012.9532-9.4275.2333-19.0242.2333-28.7841l-3.798.1938c-.0001 1.8345.0039 3.4276-.001 5.0207zm82.3112 96.1839 4.3137-.358v-17.3455h23.9688v17.53h4.0578v-38.9721h-4.2936v16.8855h-23.87v-16.8837l-4.1764-.3022zm274.5061-3.9185v-13.972h17.0415l-.84-4.2692h-16.0989v-13.51h17.1629c-.09-1.4705-.1519-2.4787-.221-3.6076h-21.452v39.1408h21.6377a10.38 10.38 0 0 0 .4464-1.6088 16.2618 16.2618 0 0 0 -.1541-2.1728zm-103.95-14.0016c-.2169-1.699-.349-2.7335-.533-4.1743h-16.2673v-13.6188h17.5388c-.4284-1.7224-.6754-2.716-.8579-3.45h-21.223v39.0333h21.943c.0553-1.1916.1026-2.2093.1725-3.7133h-17.5277v-14.077zm-195.1952 14.03c-8.1364.194-14.2016-5.7163-15.2167-13.6669a15.8461 15.8461 0 0 1 11.1245-17.405c6.1847-1.9967 11.8733-.2281 17.4755 2.2743a4.3084 4.3084 0 0 0 1.3311.1024v-3.856c-11.5889-5.9878-23.5538-4.3118-30.4083 4.13a20.2953 20.2953 0 0 0 .2173 25.6954c6.9634 8.1533 19.62 9.6172 30.6568 3.38v-3.3468c-5.1557.9664-10.1506 2.5728-15.1807 2.6927zm117.9508-93.3826v35.1934h4.6891v-35.6h13.9179c-.243-1.5488-.4038-2.5738-.5459-3.479h-32.0228v3.8856zm-536.57-112.8878h4.2469v-59.58l-4.2469.46zm529.6845 210.0028h22.609v-3.7515h-18.3225v-35.4072h-4.2865zm35.6859-3.79v-35.509l-4.1595.3256v38.9728h22.4165c.08-1.1709.1425-2.0807.26-3.7894zm-56.13-57.8723 4.0483-.3588v-39.01h-4.0483zm130.5748-.0147 3.97-.3126v-39.0224h-3.97zm80.6047-178.3027v11.8742h7.7672v-11.8742zm.0891 56.9764h7.5879v-12.2648h-7.5879zm-378.777-140.7792c-35.834 11.4005-70.5208 7.6629-101.8567-14.0357-29.2151-20.23-43.8978-48.9466-44.4807-84.4228-.904-55.0272 37.42-99.0431 92.1761-106.3732 5.9667-.7988 12.0066-1.0507 15.8166-1.3713 37.1457.5435 67.1709 12.1534 89.52 39.7935 42.9147 53.0761 26.9068 141.5674-51.1753 166.4095zm48-118.2411c-8.8876-39.9071-42.2016-66.148-83.9447-66.4552-5.1846.4967-10.4243.67-15.5445 1.5429-31.9458 5.4481-54.4726 23.1236-65.2273 53.688-11.072 31.4656-6.4768 61.2016 16.3835 86.2072 22.1882 24.2705 50.5445 31.543 82.4753 25.452a83.4528 83.4528 0 0 0 65.8577-100.4349zm188.8424-8.802c-6.3667 18.7287-20.1025 29.3645-38.6968 33.7519-8.6481 2.0406-17.7164 2.7108-26.6335 3.0982-11.7057.5086-23.45.1248-36.0165.1248v92.8491h-22.6342v-205.884c1.4007-.1063 2.7958-.3028 4.1913-.3043 18.4439-.02 36.888-.0806 55.3314.0114 11.476.0572 22.7942 1.3411 33.59 5.5646 20.592 8.0555 31.5957 23.328 33.59 45.1692a61.4543 61.4543 0 0 1 -2.722 25.6191zm-21.7876-25.1836c-.8461-12.5-7.0885-21.4367-18.6924-26.4021a59.7285 59.7285 0 0 0 -23.368-4.53c-11.0955-.0717-22.1917-.0507-33.2876-.0364-1.2522.0016-2.5044.217-3.8373.3406v72.5582c5.1521 0 10.0069.1349 14.8517-.0266 11.883-.3961 23.8655-.1115 35.6162-1.6068 15.8521-2.0171 25.7874-11.5348 28.28-25.6812a61.2137 61.2137 0 0 0 .4371-14.6157zm-264.3866 251.7096c-.6751 20.9247-16.4334 38.2512-38.2732 42.082-23.73 4.1623-46.8946-10.0728-52.8029-32.449-7.82-29.6173 13.6726-56.5719 45.0672-56.52 27.1416.0452 46.8715 20.1513 46.0089 46.887zm-7.7925-2.04c.1029-21.3972-16.4117-38.0568-37.9714-38.3045-21.6424-.2486-38.8525 16.5064-38.98 37.9492a37.8087 37.8087 0 0 0 38.282 38.5616c21.7467.015 38.5653-16.6023 38.6694-38.2067zm4.7668-348.2524h-8.2845c-4.92-7.71-9.9059-15.52-14.8874-23.3327-.7007-1.0991-1.3259-2.25-2.0768-3.3131-10.465-14.8115-11.6987-16.0051-34.0578-14.4655v41.0476h-6.6911v-87.4526c11.1948.4837 22.1668.1057 32.8663 1.6341 13.5762 1.9392 21.0954 14.6441 17.5437 27.6278-2.0835 7.6172-7.8358 11.7027-14.8251 14.7467 11.7361 13.2024 19.9117 28.713 30.4127 43.5073zm-22.5807-64.7116c-.136-7.5022-4.621-13.9505-12.0164-15.1586-7.92-1.294-16.0474-1.3178-24.42-1.92v34.9827c8.541-.6952 16.679-.7685 24.5811-2.17 7.5894-1.3458 11.995-8.0184 11.8553-15.7341zm188.2173 64.672h-7.164c-4.4971-9.7294-9.1209-19.7326-13.7184-29.6792h-42.5018c-4.59 9.9549-9.1436 19.8313-13.7293 29.7768h-7.1845l39.9589-87.7328h4.1487zm-23.8757-36.1991c-6.1256-13.4386-12.0092-26.346-18.325-40.2018l-18.4227 40.2018zm-65.8021 592.2971c-.2573 8.4165-4.3405 14.95-12.3059 16.8365-7.33 1.7364-15.04 1.8712-23.2863 2.79v-40.4885c8.3132.3741 16.4561-1.025 24.2961 2.2222 7.9195 3.2798 11.5816 9.2974 11.2961 18.6398zm-4.6479-1.1046c-.0533-7.9922-4.23-13.5391-11.9671-14.9474-4.5749-.8328-9.3123-.7722-14.3422-1.14v31.9884c3.5444 0 6.6318.0683 9.7141-.03a26.0542 26.0542 0 0 0 4.3407-.6438c7.9446-1.6226 12.3089-7.0637 12.2545-15.2268zm-126.1456 19.7191c-2.1237.0945-3.4926.1552-4.5973.2043-6.7008-6.3362-7.9454-18.2865-20.8471-18.1506v17.78l-4.57.2722v-39.7342c5.1558.2874 10.3443.1683 15.3816.9837 4.1866.6777 6.7315 3.8426 7.4772 8.1a9.7207 9.7207 0 0 1 -3.9348 9.8954c-.6316.4924-1.3343.894-1.9219 1.2829 4.3353 6.4518 8.4826 12.6246 13.0123 19.3663zm-12.97-25.3727a7.7131 7.7131 0 0 0 -.11-6.7536c-2.831-4.2719-7.55-3.4562-12.2422-3.1923v13.3452c4.7511-.1843 9.6644 1.2605 12.352-3.3993zm410.3683-36.598-4.9936.2525c-3.1606-4.581-6.08-8.88-9.0712-13.1283-2.6655-3.7854-6.2661-5.5237-11.7554-4.6458v17.4218l-4.0006.3413v-39.2553c4.5235 0 9.0395-.3276 13.4852.0911 4.5527.4288 7.9585 2.9393 8.94 7.7037.9779 4.7465-.361 8.6912-4.6842 11.3294a8.9489 8.9489 0 0 0 -.94.727c4.2296 6.2251 8.3863 12.343 13.0196 19.1626zm-12.9148-25.3612a7.6235 7.6235 0 0 0 -.1463-6.6875c-2.95-4.3749-7.758-3.4842-12.5192-3.1375v13.306c4.8521-.2228 9.8895 1.3692 12.6653-3.481zm-24.318 25.3556h-4.6533l-5.6075-12.0811h-18.0235c-1.8331 3.9827-3.6561 7.9433-5.5692 12.1l-4.6782.2315c5.997-13.6128 11.7245-26.6136 17.7708-40.338 1.3823.8308 2.99 1.2148 3.4243 2.1461 5.7655 12.3615 11.3664 24.7999 17.3364 37.9415zm-12.3326-16.6792c-2.4121-5.3117-4.6013-10.1327-7.1313-15.7038l-6.8817 15.7038zm-325.1229 16.7352h-4.5795l-5.6774-12.0869h-18.0625c-1.8395 3.9953-3.6682 7.9668-5.5717 12.1012h-3.7758c-.1486-.44-.4108-.8006-.32-1.0064 5.5717-12.66 11.1481-25.3176 16.85-37.9187.2542-.5617 1.6757-.5953 3.0231-1.0243 6.1375 13.5317 12.0273 26.5164 18.1138 39.9351zm-12.3864-16.6364c-2.351-5.2736-4.4952-10.0831-7.0845-15.891l-6.8933 15.891zm211.6133 16.5828h-4.6294l-5.5628-12.0157h-18.1433l-5.4665 11.9984-4.7434.2823c6.02-13.6434 11.717-26.5549 17.8783-40.5187 1.4265.886 2.8806 1.2567 3.28 2.1169 5.8074 12.517 11.4736 25.0995 17.3871 38.1368zm-12.319-16.6823c-2.4056-5.2969-4.5938-10.1154-7.1222-15.6825l-6.8935 15.6825zm-165.8816 78.5058-4.4834.2782c-1.9953-4.2517-3.8489-8.202-5.779-12.315h-17.9639l-5.652 12.1487h-4.5581c5.94-13.4665 11.6892-26.5 17.9555-40.7062 1.5394 1.2818 2.7963 1.831 3.2273 2.7625 5.7252 12.3731 11.3346 24.8 17.2536 37.8318zm-12.2381-16.48-7.2692-15.8441c-2.4525 5.6974-4.5546 10.581-6.82 15.8439zm423.5186-45.336h-4.5584l-5.6954-12.0472h-18.0218c-1.725 3.7643-3.5365 7.7171-5.4853 11.97h-4.5955c5.88-13.3483 11.568-26.261 17.5568-39.8567 1.2973.6468 3.0321.9194 3.4453 1.8072 5.8174 12.4986 11.4552 25.0819 17.3543 38.1264zm-12.3162-16.68c-2.3975-5.2876-4.5882-10.1191-7.1334-15.7327-2.5 5.7644-4.6387 10.694-6.8244 15.7327zm-155.917 78.5419h-4.6134c-1.9182-4.1143-3.7644-8.0747-5.6526-12.1249h-17.9638c-1.8147 3.954-3.6346 7.9191-5.56 12.1131h-4.6376c5.9662-13.4924 11.7331-26.5345 18.0514-40.8234 1.6061 1.5265 2.7594 2.1553 3.2006 3.1123 5.7156 12.3952 11.3292 24.8371 17.1754 37.7229zm-12.3-16.4877c-2.31-5.1832-4.47-10.0306-7.1411-16.0238-2.5343 5.9314-4.6324 10.8421-6.8465 16.0238z"/></svg>
