<?xml version="1.0" encoding="utf-8"?>
<!-- Generator: Adobe Illustrator 22.0.0, SVG Export Plug-In . SVG Version: 6.00 Build 0)  -->
<svg version="1.1" id="Layer_1" xmlns="http://www.w3.org/2000/svg" xmlns:xlink="http://www.w3.org/1999/xlink" x="0px" y="0px"
	 viewBox="0 0 220 240" style="enable-background:new 0 0 220 240;" xml:space="preserve">
<style type="text/css">
	.st0{fill:#FFFFFF;}
</style>
<path class="st0" d="M48.2,17.9c-3.8,0-6.5-2.9-6.5-7.4s2.7-7.4,6.6-7.4c1.6,0,2.9,0.5,4,1.2l-0.2,1.5c-1.1-0.8-2.4-1.4-3.8-1.4
	c-3.1,0-5.1,2.5-5.1,6.1s2,6.1,5,6.1c1.6,0,2.9-0.6,4-1.5l0.2,1.4C51.5,17.3,49.9,17.9,48.2,17.9z M64.9,17.9c-3.8,0-6.4-3-6.4-7.4
	c0-4.4,2.7-7.4,6.5-7.4c3.8,0,6.4,3,6.4,7.4S68.7,17.9,64.9,17.9z M65,4.5c-2.9,0-4.9,2.5-4.9,6.1s2,6.1,5,6.1
	c2.9,0,4.9-2.5,4.9-6.1C69.9,6.9,67.9,4.5,65,4.5z M88.4,17.7l-8.3-12v12h-1.4V3.5h1.4l8,11.6V3.5h1.4v14.2H88.4z M105.9,17.8
	l-4.5-6.4h-1.9v6.2h-1.4V3.5h3.6c2.8,0,4.6,1.5,4.6,3.9c0,2.2-1.5,3.5-3.3,3.9l4.4,6.2C107.5,17.5,105.9,17.8,105.9,17.8z
	 M101.6,4.8h-2.1v5.5h1.9c2.2,0,3.4-1,3.4-2.8C104.8,5.7,103.7,4.8,101.6,4.8z M118.5,3.4h1.5l5.6,14.1l-1.4,0.3l-1.8-4.7h-6.2
	l-1.8,4.6H113L118.5,3.4z M116.6,11.8h5.2l-2.7-6.8C119.2,5.1,116.6,11.8,116.6,11.8z M135.7,17.7h-3.8V3.5h3.8
	c4.7,0,7.4,2.8,7.4,7.1C143.2,14.9,140.4,17.7,135.7,17.7z M135.8,4.8h-2.5v11.7h2.5c3.6,0,5.9-2,5.9-5.8
	C141.7,6.7,139.4,4.8,135.8,4.8z M168.9,17.7l-8.3-12v12h-1.4V3.5h1.4l8,11.6V3.5h1.4v14.2H168.9z M177.4,17.7v-2.1h1.6v2.1
	C178.9,17.7,177.4,17.7,177.4,17.7z M57.6,90c0.5-0.6,0.4-1.5-0.3-2c-0.6-0.5-1.5-0.4-2,0.3L2.2,156.5c-0.4,0.5-0.3,1.3,0.2,1.7
	s1.3,0.3,1.7-0.2C4.1,158,57.6,90,57.6,90z M217.3,131.1c-1.3-0.5-2.5-0.6-3.5-0.6c-1.2,0-2.3,0.1-3.3,0.3c-2.2,0.3-4.3,0.7-6.5,1.2
	c-4.2,1-8.4,2.2-12.6,3c-0.5,0.1-1,0.2-1.6,0.3c0.1-0.2,0.2-0.5,0.4-0.8c1-1.8,2.1-3.7,3.1-5.6c1.1-1.9,2.1-3.8,2.8-6.1
	c0.2-0.6,0.3-1.2,0.4-1.9c0.1-0.7,0.1-1.5-0.3-2.4c-0.2-0.4-0.6-0.8-1-1.1c-0.4-0.2-0.8-0.3-1.2-0.4c-0.8-0.1-1.3,0-2,0
	c-2.4,0.3-4.5,1.3-6.5,2.4c-2,1.2-3.7,2.5-5.4,3.8c-3.3,2.8-6.5,5.9-9.5,8.9l-0.1,0.1c0.2-0.2,0.3-0.4,0.5-0.6
	c1.5-1.6,2.8-3.2,4.2-5c0.7-0.9,1.3-1.8,1.9-2.8c0.6-1,1.1-2.1,1.4-3.4c0-0.4,0.1-0.7,0-1.2c0-0.1-0.1-0.3-0.1-0.4l-0.1-0.2v-0.2
	l-0.1-0.1l-0.1-0.3c-0.2-0.4-0.5-0.7-0.9-1c-0.4-0.3-1-0.4-1.4-0.4c-0.9,0-1.5,0.3-2.1,0.6c-0.6,0.3-1.1,0.6-1.6,0.9
	c-1.9,1.2-3.5,2.6-5.3,3.7c-2.7,1.9-5.4,3.5-8.2,4.8c0.2-0.4,0.4-0.7,0.6-1.1c0.5-1,1-2.1,1.2-3.2c0.1-0.6,0.2-1.3,0.1-1.9
	c-0.1-0.7-0.3-1.4-0.8-2.1c-0.5-0.6-1.2-1.1-1.8-1.3c-0.7-0.2-1.3-0.3-2-0.4h-0.8c-0.3,0-0.7,0-1,0.1c-0.6,0.1-1.2,0.2-1.8,0.4
	c-2.4,0.7-4.4,2-6.1,3.6c-0.3,0.3-0.7,0.7-1,1.1c-1,1-1.9,2.1-2.7,3.1c-1.3,1.2-2.6,2.3-3.8,3.2c-2.8,2.2-5.9,4.1-9.1,5.5
	c-1.6,0.7-3.3,1.2-5,1.4c-0.4,0-0.8,0.1-1.3,0.1h-0.4c0.1,0,0,0,0,0h-0.1c-0.2,0-0.3,0-0.4-0.1c-0.3-0.1-0.3-0.2-0.4-0.3
	c-0.1-0.1-0.1-0.4-0.2-0.7c0-0.7,0.2-1.5,0.4-2.3c0.3-0.8,0.6-1.6,1-2.4c0.8-1.6,1.6-3.1,2.6-4.7c1.8-3.1,3.8-6.1,5.9-9.1
	c2.1-3,4.1-6,6.3-8.8c0.3-0.3,0.5-0.7,0.8-1c7-0.2,16.9-0.4,26.9-0.6c9-0.2,18.1-0.2,24.8-0.1c6.8,0.2,11.3,0.4,11.3,0.4
	c0.5,0,0.9-0.4,0.9-0.8c0-0.5-0.4-0.9-0.8-0.9c0,0-4.5-0.3-11.3-0.5c-6.8-0.3-15.9-0.4-24.9-0.3c-9,0.1-18.1,0.1-24.8,0.2l3.8-5
	c2.3-2.8,4.5-5.8,6.8-8.5v-0.1c0.4-0.5,0.3-1.3-0.2-1.7c-0.5-0.5-1.3-0.4-1.8,0.1c-2.4,2.8-4.7,5.6-7,8.5c-1.8,2.2-3.4,4.4-5.2,6.7
	c-4.9,0-8,0.1-8,0.1c-0.8,0-1.4,0.7-1.4,1.5c0,0.8,0.7,1.4,1.5,1.4c0,0,2.2-0.1,5.9-0.1c-0.1,0.2-0.2,0.3-0.4,0.5
	c-0.3,0.4-0.6,0.8-1,1.1c-5.4,6.3-11.2,12.3-17.4,17.8c-3.1,2.7-6.4,5.2-9.9,7.3c-1.8,1-3.6,1.9-5.5,2.4c-0.5,0.1-1,0.2-1.4,0.3
	c-0.2,0-0.4,0.1-0.7,0.1h-0.6c-0.3,0-0.5-0.1-0.7-0.3c-0.1-0.1-0.3-0.4-0.3-0.8c-0.1-0.8-0.1-1.8,0.1-2.7c0.2-1,0.4-1.9,0.7-2.8
	c0.4-1.2,0.8-2.3,1.3-3.3c1-0.9,2.1-1.8,3-2.7c1.6-1.5,3-2.8,4.5-4.4c1.5-1.5,2.9-2.9,4.4-4.5c2.8-3,5.7-6.2,8-9.8
	c0.6-0.9,1.1-1.9,1.5-3c0.1-0.3,0.2-0.7,0.2-1.1c0-0.4,0-1-0.4-1.5c-0.4-0.5-1-0.7-1.4-0.8h-1c-1.5,0.2-2.5,0.8-3.4,1.4
	c-1,0.6-1.8,1.3-2.7,2.1c-3.1,2.9-5.7,6.4-8,9.9c-1.2,1.8-2.3,3.5-3.3,5.4c-1,1.9-2,3.7-2.7,5.7c-0.4,1-0.9,2.1-1.3,3
	c-1.7,1.4-3.4,2.7-5.1,4c-1.7,1.2-3.3,2.4-5.1,3.3c-1.8,1-3.5,2-5.4,2.6c-0.5,0.1-0.9,0.3-1.4,0.3c-0.2,0-0.5,0.1-0.6,0.1h-0.6
	c-0.4,0-0.6-0.2-0.7-0.3c-0.1-0.1-0.2-0.3-0.2-0.7c0-0.7,0.3-1.7,0.6-2.6c0.3-0.9,0.8-1.8,1.3-2.7c1.9-3.5,4.2-7,6.5-10.4
	c0.4-0.5,0.3-1.2-0.2-1.7c-0.5-0.4-1.2-0.4-1.7,0.1l-0.1,0.1c-1.1,1.3-2.1,2.6-3,3.9c-0.5,0.6-1.1,1.2-1.7,1.8
	c-1.8,1.8-3.6,3.4-5.6,4.8c-4,2.9-8.4,5.2-13.2,6.5c-2.3,0.6-4.7,1-7,1.1l36.1-45.9c0.5-0.6,0.4-1.5-0.3-2c-0.6-0.5-1.5-0.4-2,0.3
	l-29.9,38.5c0.5-1.2,0.9-2.4,1.3-3.6c0.2-0.7,0.3-1.4,0.3-2.1c0-0.7-0.1-1.5-0.4-2.3c-0.3-0.8-1-1.5-1.8-1.9
	c-0.8-0.4-1.5-0.5-2.3-0.6h-1.1c-0.3,0-0.8,0-1.1,0.1c-0.7,0.1-1.4,0.2-2.1,0.5c-2.7,0.9-5,2.7-6.6,4.9c-1.6,2.3-2.7,4.9-2.7,7.9
	c0,1.5,0.3,2.9,1,4.3c0.7,1.4,1.9,2.5,3.1,3.1c1.1,0.6,2.2,0.9,3.2,1.1l-14.4,18.6c-0.4,0.5-0.3,1.2,0.2,1.6
	c0.5,0.4,1.2,0.4,1.7-0.1c2.7-3.2,5.2-6.5,7.8-9.8l7.9-9.9c0.6,0,1.2,0,1.8-0.1c2.7-0.2,5.2-0.7,7.7-1.4c4.9-1.5,9.5-3.9,13.6-7.1
	c0.8-0.6,1.6-1.3,2.5-2c-0.1,0.2-0.2,0.3-0.3,0.5c-0.5,1-0.9,2-1.3,3c-0.3,1.1-0.7,2.2-0.6,3.5c0.1,0.7,0.3,1.6,1,2.2
	c0.7,0.6,1.5,0.8,2.2,0.9h1c0.3,0,0.6-0.1,0.9-0.1c0.6-0.1,1.2-0.2,1.7-0.4c2.2-0.7,4-1.7,5.9-2.8c1.9-1.1,3.5-2.4,5.2-3.5
	c1-0.7,1.9-1.5,2.7-2.2c-0.2,0.9-0.5,1.7-0.6,2.7c-0.2,1.1-0.3,2.3,0,3.5c0.1,0.6,0.4,1.4,1,2c0.6,0.6,1.5,0.9,2.2,1h1
	c0.2,0,0.6-0.1,0.9-0.1c0.6-0.1,1.2-0.2,1.7-0.4c2.2-0.6,4.1-1.6,5.9-2.7c3.6-2.3,7-4.9,10.1-7.7c3.1-2.7,6.1-5.7,8.9-8.6
	c-1.2,1.8-2.3,3.6-3.3,5.5c-0.9,1.6-1.8,3.2-2.6,5c-0.4,0.9-0.7,1.8-1,2.7c-0.3,1-0.5,2-0.5,3.1c0,0.6,0.1,1.3,0.6,1.9
	c0.4,0.7,1.2,1.1,1.8,1.3c0.3,0.1,0.6,0.1,0.9,0.1h0.8c0.4,0,1-0.1,1.5-0.1c2-0.3,3.7-0.9,5.5-1.7c3.3-1.5,6.3-3.5,9.1-5.7
	c-0.3,0.6-0.5,1.2-0.7,1.9c-0.2,0.6-0.3,1.3-0.2,2.1c0,0.8,0.3,1.6,1,2.3c0.6,0.6,1.3,1,2,1.2c0.7,0.2,1.3,0.2,1.9,0.3
	c0.6,0,1.2,0,1.9-0.1c0.6-0.1,1.2-0.3,1.8-0.4c1.1-0.4,2.2-0.9,3.1-1.5c2-1.2,3.6-2.7,5.1-4.4l1.5-1.8c3.9-1.5,7.7-3.5,11.2-5.9
	c1.9-1.2,3.6-2.5,5.4-3.5c0.5-0.3,0.9-0.5,1.3-0.7c0.4-0.2,0.9-0.3,1.1-0.3h0.2c0,0,0.1,0.1,0.1,0.2v0.9c-0.2,0.8-0.7,1.7-1.2,2.5
	c-0.6,0.9-1.2,1.7-1.9,2.5c-1.3,1.7-2.7,3.2-4,5c-0.7,0.9-1.4,1.7-2.1,2.7c-0.3,0.5-0.7,0.9-1,1.5c-0.2,0.3-0.3,0.6-0.5,0.9
	c-0.1,0.2-0.1,0.4-0.2,0.6c0,0.2-0.1,0.6,0,1c0.1,0.5,0.6,0.9,0.9,1c0.3,0.1,0.6,0.2,0.8,0.2h0.4c0.1,0,0.2-0.1,0.4-0.1
	c0.1,0,0.1-0.1,0.2-0.1c0.2-0.1,0.4-0.2,0.5-0.3c0.5-0.4,0.9-0.8,1.4-1.2c0.8-0.8,1.5-1.6,2.3-2.4c2.9-3.2,5.9-6.3,9.2-8.9
	c1.7-1.3,3.4-2.6,5.2-3.5c1.9-1,3.7-1.7,5.7-1.9h1.3c0.1,0,0.3,0.1,0.3,0.1c0.1,0,0.1,0.1,0.1,0.1c0,0.1,0.1,0.4,0,0.9
	c-0.1,0.4-0.2,0.9-0.4,1.3c-0.7,1.9-1.8,3.6-2.8,5.5c-1.1,1.9-2.3,3.6-3.2,5.7c-0.3,0.5-0.5,1.1-0.7,1.7c-0.1,0.3-0.2,0.7-0.2,1.2
	c0,0.3,0,0.7,0.3,1.2c0.3,0.5,0.9,0.8,1.3,0.9h1.3c0.4,0,0.6-0.1,0.9-0.2c0.6-0.1,1.1-0.2,1.7-0.4c4.2-1.1,8.3-2.5,12.5-3.4
	c2.1-0.5,4.1-1,6.2-1.4c1.1-0.2,2.1-0.3,3.1-0.4c1-0.1,2.1,0,2.8,0.3h0.1c0.4,0.2,1-0.1,1.1-0.5C218,131.8,217.8,131.3,217.3,131.1
	L217.3,131.1z M44.9,132.6c-0.4-0.9-0.6-2-0.6-3c0.1-2.2,0.9-4.4,2.2-6.3c1.3-1.9,3-3.4,5.1-4.2c0.5-0.2,1.1-0.3,1.6-0.4
	c0.3-0.1,0.5-0.1,0.8-0.1h0.9c1.1,0,2,0.3,2.3,1.1c0.4,0.7,0.4,2,0.2,3c-0.2,1.2-0.6,2.3-1.1,3.4c-1,2.3-2.2,4.4-3.4,6.6l-2.1,3.2
	c-0.2,0-0.4,0-0.6-0.1c-1.1-0.2-2.2-0.5-3.1-1.1C46,134.2,45.3,133.4,44.9,132.6L44.9,132.6z M106.6,112.7c2.2-3.4,4.6-6.8,7.5-9.6
	c0.7-0.7,1.5-1.4,2.3-1.9c0.4-0.3,0.8-0.5,1.2-0.7c0.4-0.2,0.9-0.3,1.1-0.4h0.5c0,0.1,0,0.3-0.1,0.5c-0.2,0.8-0.7,1.7-1.2,2.6
	c-2.1,3.4-4.8,6.6-7.6,9.7c-2.7,3-5.5,5.8-8.5,8.5c0.6-1.2,1.2-2.3,1.8-3.3C104.5,116.2,105.5,114.4,106.6,112.7z M153.2,120
	c0.5-0.2,0.9-0.3,1.4-0.4c0.2,0,0.5-0.1,0.7-0.1h0.8c0.9,0,1.8,0.2,2.2,0.7s0.6,1.4,0.4,2.3c-0.1,1-0.5,1.9-1,2.8
	c-0.5,1.1-1.2,2.1-1.9,3c-2,0.7-4.1,1.2-6.1,1.3c-1,0-2-0.1-2.7-0.4c-0.7-0.4-0.9-0.7-0.9-1.4s0.2-1.6,0.7-2.4
	c0.4-0.8,1-1.6,1.7-2.3C149.8,121.8,151.4,120.6,153.2,120z M149.2,134.1c-1.8,1-3.7,1.7-5.5,1.5c-1-0.1-1.9-0.4-2.2-0.7
	c-0.1-0.2-0.2-0.4-0.2-0.7c0-0.3,0.1-0.8,0.2-1.2c0.3-0.9,0.7-1.8,1.3-2.7c0.3-0.4,0.5-0.8,0.8-1.3c0.1,0.4,0.4,0.7,0.6,1.1
	c0.5,0.7,1.3,1.1,1.9,1.3c1.4,0.5,2.6,0.4,3.7,0.3c1.2-0.2,2.4-0.5,3.5-0.8C152,132.3,150.7,133.3,149.2,134.1L149.2,134.1z
	 M93.9,110.1l0.9-1.1l0.2-0.2c0.6-0.9,0.4-2.1-0.5-2.7c-0.9-0.7-2.1-0.4-2.7,0.5l-0.8,1.2c-0.5,0.8-0.4,1.8,0.3,2.5
	C92.1,110.9,93.2,110.8,93.9,110.1z M43.7,223.7v5.1h4.6l0.2,1.3h-4.8v6.6h-1.4v-14.2h7.2v1.3C49.5,223.7,43.7,223.7,43.7,223.7z
	 M58.9,236.8c-3.8,0-6.4-3-6.4-7.4c0-4.4,2.7-7.4,6.5-7.4s6.4,3,6.4,7.4S62.7,236.8,58.9,236.8z M58.9,223.4c-2.9,0-4.9,2.5-4.9,6.1
	c0,3.6,2,6.1,5,6.1c2.9,0,4.9-2.5,4.9-6.1C63.9,225.8,61.9,223.4,58.9,223.4z M74.8,236.7c-3.3,0-5.3-2.3-5.3-5.5v-8.9h1.4v8.7
	c0,2.7,1.3,4.4,3.9,4.4c2.6,0,3.9-1.7,3.9-4.4v-8.8h1.4v8.8C80.2,234.6,78.2,236.7,74.8,236.7L74.8,236.7z M95.3,236.5l-8.3-12v12
	h-1.4v-14.2H87l8,11.6v-11.6h1.4v14.2C96.4,236.5,95.3,236.5,95.3,236.5z M105.9,236.5h-3.8v-14.2h3.8c4.7,0,7.4,2.8,7.4,7.1
	C113.4,233.8,110.4,236.5,105.9,236.5z M106,223.6h-2.5v11.7h2.5c3.6,0,5.9-2,5.9-5.8C111.9,225.6,109.5,223.6,106,223.6z
	 M121.6,222.2h1.5l5.6,14.1l-1.4,0.3l-1.8-4.7h-6.2l-1.8,4.6h-1.7L121.6,222.2L121.6,222.2z M119.6,230.7h5.2l-2.7-6.8
	C122.2,224,119.6,230.7,119.6,230.7z M135.5,223.7v13h-1.4v-13h-4.6v-1.3h10.5l0.2,1.3H135.5L135.5,223.7z M144.8,236.5v-14.2h1.4
	v14.2H144.8z M157.3,236.8c-3.8,0-6.4-3-6.4-7.4c0-4.4,2.7-7.4,6.5-7.4c3.8,0,6.4,3,6.4,7.4S161.2,236.8,157.3,236.8z M157.3,223.4
	c-2.9,0-4.9,2.5-4.9,6.1c0,3.6,2,6.1,5,6.1s4.9-2.5,4.9-6.1C162.3,225.8,160.4,223.4,157.3,223.4z M177.9,236.5l-8.3-12v12h-1.4
	v-14.2h1.4l8,11.6v-11.6h1.4v14.2H177.9L177.9,236.5z M110.5,30.9c20.8,0,41.7,0,62.5,0c1.8,0,3.5,0,5.3,0c1.1,0,1.2,0.1,1.3,1.2
	c0,1.2,0,2.5,0,3.7c0,18.8,0,37.7,0,56.5c0,0.4,0,0.9,0,1.3c0,0.7-0.3,1.1-1,1.1c-0.8,0-1.3-0.3-1.4-1.1c0-0.3,0-0.6,0-0.9
	c0-18.8,0-37.7,0-56.5c0-2.7,0-2.7-2.6-2.7c-42.9,0-85.8,0-128.7,0c-0.3,0-0.6,0-0.9,0c-0.7,0-1.2,0.4-1.2,1.2c0,0.4,0,0.8,0,1.2
	c0,16.9,0,33.8,0,50.7c0,1.6-0.6,2.8-1.7,3.9c-0.1,0.1-0.4,0.3-0.5,0.2c-0.1-0.1-0.2-0.3-0.3-0.5c0-0.4,0-0.8,0-1.2
	c0-17.8,0-35.5,0-53.3c0-1.2,0-2.3,0-3.5c0-1.2,0.2-1.3,1.3-1.3c1.7,0,3.5,0,5.2,0C68.7,30.9,89.6,30.9,110.5,30.9
	C110.5,30.9,110.5,30.9,110.5,30.9z M110.6,209.5c11.8,0,23.6,0,35.4,0c10.7,0,21.5,0,32.2,0c1.3,0,1.5-0.1,1.5-1.4
	c0-1.4,0-2.8,0-4.3c0-19.7,0-39.4,0-59c0-0.5,0-1-0.1-1.5c-0.1-0.4-0.3-0.6-0.8-0.3c-1.1,0.7-1.7,1.7-1.7,3.1c0,19.2,0,38.5,0,57.7
	c0,0.6,0,1.2,0,1.7c-0.1,1.1-0.4,1.4-1.5,1.5c-0.3,0-0.6,0-0.9,0c-22.4,0-44.9,0-67.3,0c-20.5,0-41,0-61.6,0c-1.9,0-2.2-0.3-2.2-2
	c0-11.8,0-23.7,0-35.5c0-1.8,0-3.5,0-5.3c0-0.3-0.2-0.5-0.4-0.8c-0.2,0.1-0.4,0.2-0.6,0.4c-1.2,1.1-1.5,2.5-1.5,4.1
	c0,13.3,0,26.5,0,39.8c0,1.7,0.1,1.8,1.8,1.8C65.5,209.5,88.1,209.5,110.6,209.5C110.6,209.5,110.6,209.5,110.6,209.5z"/>
</svg>
