<svg enable-background="new 0 0 220 240" viewBox="0 0 220 240" xmlns="http://www.w3.org/2000/svg"><path d="m48.2 17.9c-3.8 0-6.5-2.9-6.5-7.4s2.7-7.4 6.6-7.4c1.6 0 2.9.5 4 1.2l-.2 1.5c-1.1-.8-2.4-1.4-3.8-1.4-3.1 0-5.1 2.5-5.1 6.1s2 6.1 5 6.1c1.6 0 2.9-.6 4-1.5l.2 1.4c-.9.8-2.5 1.4-4.2 1.4zm16.7 0c-3.8 0-6.4-3-6.4-7.4s2.7-7.4 6.5-7.4 6.4 3 6.4 7.4-2.7 7.4-6.5 7.4zm.1-13.4c-2.9 0-4.9 2.5-4.9 6.1s2 6.1 5 6.1c2.9 0 4.9-2.5 4.9-6.1-.1-3.7-2.1-6.1-5-6.1zm23.4 13.2-8.3-12v12h-1.4v-14.2h1.4l8 11.6v-11.6h1.4v14.2zm17.5.1-4.5-6.4h-1.9v6.2h-1.4v-14.1h3.6c2.8 0 4.6 1.5 4.6 3.9 0 2.2-1.5 3.5-3.3 3.9l4.4 6.2c.1 0-1.5.3-1.5.3zm-4.3-13h-2.1v5.5h1.9c2.2 0 3.4-1 3.4-2.8s-1.1-2.7-3.2-2.7zm16.9-1.4h1.5l5.6 14.1-1.4.3-1.8-4.7h-6.2l-1.8 4.6h-1.4zm-1.9 8.4h5.2l-2.7-6.8c.1.1-2.5 6.8-2.5 6.8zm19.1 5.9h-3.8v-14.2h3.8c4.7 0 7.4 2.8 7.4 7.1.1 4.3-2.7 7.1-7.4 7.1zm.1-12.9h-2.5v11.7h2.5c3.6 0 5.9-2 5.9-5.8 0-4-2.3-5.9-5.9-5.9zm33.1 12.9-8.3-12v12h-1.4v-14.2h1.4l8 11.6v-11.6h1.4v14.2zm8.5 0v-2.1h1.6v2.1c-.1 0-1.6 0-1.6 0zm-119.8 72.3c.5-.6.4-1.5-.3-2-.6-.5-1.5-.4-2 .3l-53.1 68.2c-.4.5-.3 1.3.2 1.7s1.3.3 1.7-.2c0 0 53.5-68 53.5-68zm159.7 41.1c-1.3-.5-2.5-.6-3.5-.6-1.2 0-2.3.1-3.3.3-2.2.3-4.3.7-6.5 1.2-4.2 1-8.4 2.2-12.6 3-.5.1-1 .2-1.6.3.1-.2.2-.5.4-.8 1-1.8 2.1-3.7 3.1-5.6 1.1-1.9 2.1-3.8 2.8-6.1.2-.6.3-1.2.4-1.9s.1-1.5-.3-2.4c-.2-.4-.6-.8-1-1.1-.4-.2-.8-.3-1.2-.4-.8-.1-1.3 0-2 0-2.4.3-4.5 1.3-6.5 2.4-2 1.2-3.7 2.5-5.4 3.8-3.3 2.8-6.5 5.9-9.5 8.9l-.1.1c.2-.2.3-.4.5-.6 1.5-1.6 2.8-3.2 4.2-5 .7-.9 1.3-1.8 1.9-2.8s1.1-2.1 1.4-3.4c0-.4.1-.7 0-1.2 0-.1-.1-.3-.1-.4l-.1-.2v-.2l-.1-.1-.1-.3c-.2-.4-.5-.7-.9-1s-1-.4-1.4-.4c-.9 0-1.5.3-2.1.6s-1.1.6-1.6.9c-1.9 1.2-3.5 2.6-5.3 3.7-2.7 1.9-5.4 3.5-8.2 4.8.2-.4.4-.7.6-1.1.5-1 1-2.1 1.2-3.2.1-.6.2-1.3.1-1.9-.1-.7-.3-1.4-.8-2.1-.5-.6-1.2-1.1-1.8-1.3-.7-.2-1.3-.3-2-.4h-.8c-.3 0-.7 0-1 .1-.6.1-1.2.2-1.8.4-2.4.7-4.4 2-6.1 3.6-.3.3-.7.7-1 1.1-1 1-1.9 2.1-2.7 3.1-1.3 1.2-2.6 2.3-3.8 3.2-2.8 2.2-5.9 4.1-9.1 5.5-1.6.7-3.3 1.2-5 1.4-.4 0-.8.1-1.3.1h-.4-.1c-.2 0-.3 0-.4-.1-.3-.1-.3-.2-.4-.3s-.1-.4-.2-.7c0-.7.2-1.5.4-2.3.3-.8.6-1.6 1-2.4.8-1.6 1.6-3.1 2.6-4.7 1.8-3.1 3.8-6.1 5.9-9.1s4.1-6 6.3-8.8c.3-.3.5-.7.8-1 7-.2 16.9-.4 26.9-.6 9-.2 18.1-.2 24.8-.1 6.8.2 11.3.4 11.3.4.5 0 .9-.4.9-.8 0-.5-.4-.9-.8-.9 0 0-4.5-.3-11.3-.5-6.8-.3-15.9-.4-24.9-.3s-18.1.1-24.8.2l3.8-5c2.3-2.8 4.5-5.8 6.8-8.5v-.1c.4-.5.3-1.3-.2-1.7-.5-.5-1.3-.4-1.8.1-2.4 2.8-4.7 5.6-7 8.5-1.8 2.2-3.4 4.4-5.2 6.7-4.9 0-8 .1-8 .1-.8 0-1.4.7-1.4 1.5s.7 1.4 1.5 1.4c0 0 2.2-.1 5.9-.1-.1.2-.2.3-.4.5-.3.4-.6.8-1 1.1-5.4 6.3-11.2 12.3-17.4 17.8-3.1 2.7-6.4 5.2-9.9 7.3-1.8 1-3.6 1.9-5.5 2.4-.5.1-1 .2-1.4.3-.2 0-.4.1-.7.1h-.6c-.3 0-.5-.1-.7-.3-.1-.1-.3-.4-.3-.8-.1-.8-.1-1.8.1-2.7.2-1 .4-1.9.7-2.8.4-1.2.8-2.3 1.3-3.3 1-.9 2.1-1.8 3-2.7 1.6-1.5 3-2.8 4.5-4.4 1.5-1.5 2.9-2.9 4.4-4.5 2.8-3 5.7-6.2 8-9.8.6-.9 1.1-1.9 1.5-3 .1-.3.2-.7.2-1.1s0-1-.4-1.5-1-.7-1.4-.8h-1c-1.5.2-2.5.8-3.4 1.4-1 .6-1.8 1.3-2.7 2.1-3.1 2.9-5.7 6.4-8 9.9-1.2 1.8-2.3 3.5-3.3 5.4s-2 3.7-2.7 5.7c-.4 1-.9 2.1-1.3 3-1.7 1.4-3.4 2.7-5.1 4-1.7 1.2-3.3 2.4-5.1 3.3-1.8 1-3.5 2-5.4 2.6-.5.1-.9.3-1.4.3-.2 0-.5.1-.6.1h-.6c-.4 0-.6-.2-.7-.3s-.2-.3-.2-.7c0-.7.3-1.7.6-2.6s.8-1.8 1.3-2.7c1.9-3.5 4.2-7 6.5-10.4.4-.5.3-1.2-.2-1.7-.5-.4-1.2-.4-1.7.1l-.1.1c-1.1 1.3-2.1 2.6-3 3.9-.5.6-1.1 1.2-1.7 1.8-1.8 1.8-3.6 3.4-5.6 4.8-4 2.9-8.4 5.2-13.2 6.5-2.3.6-4.7 1-7 1.1l36.1-45.9c.5-.6.4-1.5-.3-2-.6-.5-1.5-.4-2 .3l-29.9 38.5c.5-1.2.9-2.4 1.3-3.6.2-.7.3-1.4.3-2.1s-.1-1.5-.4-2.3-1-1.5-1.8-1.9-1.5-.5-2.3-.6h-1.1c-.3 0-.8 0-1.1.1-.7.1-1.4.2-2.1.5-2.7.9-5 2.7-6.6 4.9-1.6 2.3-2.7 4.9-2.7 7.9 0 1.5.3 2.9 1 4.3s1.9 2.5 3.1 3.1c1.1.6 2.2.9 3.2 1.1l-14.4 18.6c-.4.5-.3 1.2.2 1.6s1.2.4 1.7-.1c2.7-3.2 5.2-6.5 7.8-9.8l7.9-9.9c.6 0 1.2 0 1.8-.1 2.7-.2 5.2-.7 7.7-1.4 4.9-1.5 9.5-3.9 13.6-7.1.8-.6 1.6-1.3 2.5-2-.1.2-.2.3-.3.5-.5 1-.9 2-1.3 3-.3 1.1-.7 2.2-.6 3.5.1.7.3 1.6 1 2.2s1.5.8 2.2.9h1c.3 0 .6-.1.9-.1.6-.1 1.2-.2 1.7-.4 2.2-.7 4-1.7 5.9-2.8s3.5-2.4 5.2-3.5c1-.7 1.9-1.5 2.7-2.2-.2.9-.5 1.7-.6 2.7-.2 1.1-.3 2.3 0 3.5.1.6.4 1.4 1 2s1.5.9 2.2 1h1c.2 0 .6-.1.9-.1.6-.1 1.2-.2 1.7-.4 2.2-.6 4.1-1.6 5.9-2.7 3.6-2.3 7-4.9 10.1-7.7 3.1-2.7 6.1-5.7 8.9-8.6-1.2 1.8-2.3 3.6-3.3 5.5-.9 1.6-1.8 3.2-2.6 5-.4.9-.7 1.8-1 2.7-.3 1-.5 2-.5 3.1 0 .6.1 1.3.6 1.9.4.7 1.2 1.1 1.8 1.3.3.1.6.1.9.1h.8c.4 0 1-.1 1.5-.1 2-.3 3.7-.9 5.5-1.7 3.3-1.5 6.3-3.5 9.1-5.7-.3.6-.5 1.2-.7 1.9-.2.6-.3 1.3-.2 2.1 0 .8.3 1.6 1 2.3.6.6 1.3 1 2 1.2s1.3.2 1.9.3c.6 0 1.2 0 1.9-.1.6-.1 1.2-.3 1.8-.4 1.1-.4 2.2-.9 3.1-1.5 2-1.2 3.6-2.7 5.1-4.4l1.5-1.8c3.9-1.5 7.7-3.5 11.2-5.9 1.9-1.2 3.6-2.5 5.4-3.5.5-.3.9-.5 1.3-.7s.9-.3 1.1-.3h.2s.1.1.1.2v.9c-.2.8-.7 1.7-1.2 2.5-.6.9-1.2 1.7-1.9 2.5-1.3 1.7-2.7 3.2-4 5-.7.9-1.4 1.7-2.1 2.7-.3.5-.7.9-1 1.5-.2.3-.3.6-.5.9-.1.2-.1.4-.2.6 0 .2-.1.6 0 1 .1.5.6.9.9 1s.6.2.8.2h.4c.1 0 .2-.1.4-.1.1 0 .1-.1.2-.1.2-.1.4-.2.5-.3.5-.4.9-.8 1.4-1.2.8-.8 1.5-1.6 2.3-2.4 2.9-3.2 5.9-6.3 9.2-8.9 1.7-1.3 3.4-2.6 5.2-3.5 1.9-1 3.7-1.7 5.7-1.9h1.3c.1 0 .3.1.3.1.1 0 .1.1.1.1 0 .1.1.4 0 .9-.1.4-.2.9-.4 1.3-.7 1.9-1.8 3.6-2.8 5.5-1.1 1.9-2.3 3.6-3.2 5.7-.3.5-.5 1.1-.7 1.7-.1.3-.2.7-.2 1.2 0 .3 0 .7.3 1.2s.9.8 1.3.9h1.3c.4 0 .6-.1.9-.2.6-.1 1.1-.2 1.7-.4 4.2-1.1 8.3-2.5 12.5-3.4 2.1-.5 4.1-1 6.2-1.4 1.1-.2 2.1-.3 3.1-.4s2.1 0 2.8.3h.1c.4.2 1-.1 1.1-.5 0-1.1-.2-1.6-.7-1.8zm-172.4 1.5c-.4-.9-.6-2-.6-3 .1-2.2.9-4.4 2.2-6.3s3-3.4 5.1-4.2c.5-.2 1.1-.3 1.6-.4.3-.1.5-.1.8-.1h.9c1.1 0 2 .3 2.3 1.1.4.7.4 2 .2 3-.2 1.2-.6 2.3-1.1 3.4-1 2.3-2.2 4.4-3.4 6.6l-2.1 3.2c-.2 0-.4 0-.6-.1-1.1-.2-2.2-.5-3.1-1.1-1.1-.5-1.8-1.3-2.2-2.1zm61.7-19.9c2.2-3.4 4.6-6.8 7.5-9.6.7-.7 1.5-1.4 2.3-1.9.4-.3.8-.5 1.2-.7s.9-.3 1.1-.4h.5c0 .1 0 .3-.1.5-.2.8-.7 1.7-1.2 2.6-2.1 3.4-4.8 6.6-7.6 9.7-2.7 3-5.5 5.8-8.5 8.5.6-1.2 1.2-2.3 1.8-3.3.9-1.9 1.9-3.7 3-5.4zm46.6 7.3c.5-.2.9-.3 1.4-.4.2 0 .5-.1.7-.1h.8c.9 0 1.8.2 2.2.7s.6 1.4.4 2.3c-.1 1-.5 1.9-1 2.8-.5 1.1-1.2 2.1-1.9 3-2 .7-4.1 1.2-6.1 1.3-1 0-2-.1-2.7-.4-.7-.4-.9-.7-.9-1.4s.2-1.6.7-2.4c.4-.8 1-1.6 1.7-2.3 1.3-1.3 2.9-2.5 4.7-3.1zm-4 14.1c-1.8 1-3.7 1.7-5.5 1.5-1-.1-1.9-.4-2.2-.7-.1-.2-.2-.4-.2-.7s.1-.8.2-1.2c.3-.9.7-1.8 1.3-2.7.3-.4.5-.8.8-1.3.1.4.4.7.6 1.1.5.7 1.3 1.1 1.9 1.3 1.4.5 2.6.4 3.7.3 1.2-.2 2.4-.5 3.5-.8-1.3 1.4-2.6 2.4-4.1 3.2zm-55.3-24 .9-1.1.2-.2c.6-.9.4-2.1-.5-2.7-.9-.7-2.1-.4-2.7.5l-.8 1.2c-.5.8-.4 1.8.3 2.5.8.6 1.9.5 2.6-.2zm-50.2 113.6v5.1h4.6l.2 1.3h-4.8v6.6h-1.4v-14.2h7.2v1.3c0-.1-5.8-.1-5.8-.1zm15.2 13.1c-3.8 0-6.4-3-6.4-7.4s2.7-7.4 6.5-7.4 6.4 3 6.4 7.4-2.7 7.4-6.5 7.4zm0-13.4c-2.9 0-4.9 2.5-4.9 6.1s2 6.1 5 6.1c2.9 0 4.9-2.5 4.9-6.1 0-3.7-2-6.1-5-6.1zm15.9 13.3c-3.3 0-5.3-2.3-5.3-5.5v-8.9h1.4v8.7c0 2.7 1.3 4.4 3.9 4.4s3.9-1.7 3.9-4.4v-8.8h1.4v8.8c.1 3.6-1.9 5.7-5.3 5.7zm20.5-.2-8.3-12v12h-1.4v-14.2h1.4l8 11.6v-11.6h1.4v14.2zm10.6 0h-3.8v-14.2h3.8c4.7 0 7.4 2.8 7.4 7.1.1 4.4-2.9 7.1-7.4 7.1zm.1-12.9h-2.5v11.7h2.5c3.6 0 5.9-2 5.9-5.8 0-3.9-2.4-5.9-5.9-5.9zm15.6-1.4h1.5l5.6 14.1-1.4.3-1.8-4.7h-6.2l-1.8 4.6h-1.7zm-2 8.5h5.2l-2.7-6.8c.1.1-2.5 6.8-2.5 6.8zm15.9-7v13h-1.4v-13h-4.6v-1.3h10.5l.2 1.3zm9.3 12.8v-14.2h1.4v14.2zm12.5.3c-3.8 0-6.4-3-6.4-7.4s2.7-7.4 6.5-7.4 6.4 3 6.4 7.4-2.6 7.4-6.5 7.4zm0-13.4c-2.9 0-4.9 2.5-4.9 6.1s2 6.1 5 6.1 4.9-2.5 4.9-6.1c0-3.7-1.9-6.1-5-6.1zm20.6 13.1-8.3-12v12h-1.4v-14.2h1.4l8 11.6v-11.6h1.4v14.2zm-67.4-205.6h62.5 5.3c1.1 0 1.2.1 1.3 1.2v3.7 56.5 1.3c0 .7-.3 1.1-1 1.1-.8 0-1.3-.3-1.4-1.1 0-.3 0-.6 0-.9 0-18.8 0-37.7 0-56.5 0-2.7 0-2.7-2.6-2.7-42.9 0-85.8 0-128.7 0-.3 0-.6 0-.9 0-.7 0-1.2.4-1.2 1.2v1.2 50.7c0 1.6-.6 2.8-1.7 3.9-.1.1-.4.3-.5.2s-.2-.3-.3-.5c0-.4 0-.8 0-1.2 0-17.8 0-35.5 0-53.3 0-1.2 0-2.3 0-3.5s.2-1.3 1.3-1.3h5.2zm.1 178.6h35.4 32.2c1.3 0 1.5-.1 1.5-1.4 0-1.4 0-2.8 0-4.3 0-19.7 0-39.4 0-59 0-.5 0-1-.1-1.5-.1-.4-.3-.6-.8-.3-1.1.7-1.7 1.7-1.7 3.1v57.7 1.7c-.1 1.1-.4 1.4-1.5 1.5-.3 0-.6 0-.9 0-22.4 0-44.9 0-67.3 0-20.5 0-41 0-61.6 0-1.9 0-2.2-.3-2.2-2 0-11.8 0-23.7 0-35.5 0-1.8 0-3.5 0-5.3 0-.3-.2-.5-.4-.8-.2.1-.4.2-.6.4-1.2 1.1-1.5 2.5-1.5 4.1v39.8c0 1.7.1 1.8 1.8 1.8z" fill="#fff"/></svg>