<svg enable-background="new 0 0 440.1 124.2" viewBox="0 0 440.1 124.2" xmlns="http://www.w3.org/2000/svg"><path d="m103.7 17.4c-22.5-3.4-44.1-.2-64.9 8.8 2.3-.7 4.7-1.5 7-2 8.6-1.8 17.1-4 25.9-4.2 3.1-.1 6.3-.7 9.4-.8 9.6-.2 21.6 1.6 31.1 5.6 2.3 3.9 5.4 8.3 7.5 13.1s3.1 10 4.6 15c-19.8 13.6-41.5 21.2-64.5 25.7 2.3.8 4.7.8 7 .5 11.6-1.7 23.2-3.9 34.1-8.3 8-3.2 15.9-6.6 24-10-.6 11.7-2.7 22.9-9.6 33.1-11.9 4.9-24.5 8-37.4 9.8 10.2.8 20.4-1 30.9-1.8-18 24-62.6 29.3-87.6 1.2 8.3.7 16.1 1.5 24 1.8 7.7.3 15.5.1 23.3-.5-4.8-.5-9.5-1.1-14.3-1.3-11.7-.7-23.3-2.8-34.8-5.1-2-.4-3.6-1.4-4.6-3.4-1.3-2.6-3-5.2-4.6-8 15.7-2.1 31-4.2 46.2-6.3 0-.3 0-.6 0-1-.9-.1-1.9-.3-2.8-.3-4.8 0-9.7.1-14.5 0-7.3-.2-14.6-.6-21.8-1-3.1-.2-6.2-.9-9.8-1.4-2-4.4-2.4-9.4-2.2-14.5 18.8-3.9 37.5-7.8 56.2-11.7 0-.3 0-.7-.1-1-1.1-.1-2.2-.2-3.3-.3-1.2 0-2.4-.1-3.5.1-9.1 1.4-18.3 2.8-27.4 4.5-7.2 1.3-14.3 2.9-21.5 4.3-1.6-3.6.1-7 .8-10.2 2.5-11.7 8.5-21.6 17.2-29.6 11.3-10.4 24.6-16 40.2-16.2 14-.2 26.4 4.2 37.6 12.3.9.7 1.9 1.2 2.9 1.8-.2.5-.5.9-.7 1.3zm131.1 38.6c-.3-.5-.8-.9-.8-1.3-.1-11.2-.1-22.3-.1-33.5 0-.6.4-1.2.6-1.7 2.3-.1 2.9 1.6 3.9 2.9 3.9 5.8 7.9 11.5 12.2 17.7 5.6-6.7 9.5-14.4 15.4-21.4.9 1.2 1.8 2 2 2.9.3 1.3.1 2.6.1 4v26.5c0 1.6.3 3.5-2.7 3.9-.2-1.2-.6-2.4-.6-3.6 0-8.5 0-17 0-26.2-5.8 6-9 13.2-14.3 19.3-4.4-6.4-8.7-12.5-13.5-19.5v5.7 20.5c0 1.6.2 3.4-2.2 3.8zm81.6 52.3c0-12.3 0-23.9 0-36.1 6.9-.2 13.7-1.1 20.2 1.3 6.7 2.4 11.9 10.1 11.4 17.2-.6 7.8-4.1 13.2-11.9 16.3-2 .8-4.2 1.1-6.3 1.2-4.3.2-8.6.1-13.4.1zm3.1-3.2c4.1 0 7.7.1 11.3 0 6.5-.3 12.3-5.5 13.2-11.6 1.3-9.4-3.1-14.7-8.9-17.1-3.7-1.5-11.3-1.6-15.6-.4zm1.6-79.2v29.6c-1.8.8-2.5 0-2.9-1.2-.1-.5-.1-1-.1-1.5 0-10.1 0-20.3 0-30.4 0-1 .7-2 1-2.8 2.3-.1 3 1.3 3.9 2.5 6.7 8.5 13.4 16.9 20 25.4.4.5.7 1.2 1.8 1.3.1-1.2.2-2.5.2-3.7 0-7.3 0-14.6 0-22 0-1.7-.1-3.4 2.9-3.5.4 12.1.3 24.1.1 36-2.1.7-2.8-.6-3.6-1.5-6.7-8.5-13.3-17-20-25.4-.8-1-1.7-2-2.6-3-.1 0-.4.1-.7.2zm-123.1 52.9v29.1c-1.1.1-1.8.1-2.8.2 0-12.1 0-23.8 0-35.6 2.1-1.2 3.2.2 4.2 1.5 3.9 5 7.8 9.9 11.7 14.9 3.4 4.3 6.8 8.5 10.8 13.6 0-5.8 0-10.5 0-15.3s0-9.6 0-14.7c.9-.2 1.7-.4 2.3-.5 1.3 1.4 1.4 30.7.3 35.8-1.9.9-2.6-.5-3.6-1.7-6.9-8.7-13.8-17.5-20.8-26.2-.4-.5-.7-1.1-1.1-1.6-.3.2-.6.4-1 .5zm-17.2-42.7c.4-5.7.7-10.8 1.1-15.9 0-.3.8-.5 1.1-.7 1.8.4 2 1.7 2 3.1v30.5c0 1-.7 2-1 2.9-2.3 0-2.7-1.2-2.7-2.6-.1-2.5 0-5 0-7.5 0-2 0-3.9 0-5.8-4.1-.9-16.3-1-22-.2v16c-1.2.1-1.9.1-2.6.1-.7-3.7-1-33.6-.2-35.6.1-.4.8-.5 1.4-.9 2.6 2.3 1.2 5.3 1.4 7.9s.1 5.3.1 8.2c3.7 1.2 7.3.4 10.9.5 3.3.1 6.8 0 10.5 0zm104.8 69h22.1c.2 1.1.3 1.8.5 3.2-8.7.1-17.1 0-25.4.1-1-4-1.1-30-.3-35.6 3.6-.9 19.9-1 25.2-.2.1.4.3.9.3 1.3 0 .3-.3.6-.6 1.3-7 0-14.3 0-21.9 0v13.2h11.4c2.2 0 4.3-.1 6.5.1.9.1 1.8.9 3.3 1.8-4 2.1-7.5 1-10.8 1.2s-6.6 0-10.3 0zm25.7-49.4c-3.9.9-4.2-1.7-5.1-3.5-1-1.9-1.7-3.9-2.6-5.9-7 0-13.8 0-21 0-1.1 2.4-2.3 5-3.5 7.5-.9 2-.9 1.9-4.3 1.7 5.6-12.2 11.2-24.1 16.7-36.1h3.1c5.5 11.8 11 23.8 16.7 36.3zm-9.5-12.8c-1.5-3.4-2.7-6.6-4.3-9.7-1.6-2.9-2.1-6.4-4.7-9.2-3.2 6.4-5.9 12.4-8.6 18.8 6.2.1 11.8.1 17.6.1zm-146.6 29.2c1.6.2 2.3.3 3.5.5.1 1.8.3 3.4.3 5 .1 5.7.3 11.3 0 17-.4 9.8 10.4 14.3 17.7 9.8 3.6-2.2 5.1-5.6 5.2-9.6.1-6 .1-12 .1-18 0-1.3 0-2.6 0-4.2 1-.2 1.8-.3 2.5-.5.3.6.6 1.1.6 1.5 0 7.2.2 14.3 0 21.5-.2 5.6-3.4 12.3-12.1 13.7-6.4 1-13.2-1.8-15.9-7.5-1-2.2-1.4-4.7-1.9-7.2-.3-1.3-.1-2.7-.1-4 .1-5.8.1-11.6.1-18zm66.1-53c1.3.5 1.9.7 2.7 1 .1 1.3.2 2.6.2 3.9 0 6 .2 12-.1 18-.6 11.9-12.3 18.2-22.8 12.4-4.9-2.7-6.9-7.2-7.2-12.3-.3-6.6-.1-13.3-.1-20 0-1.5.4-2.6 2.6-2.6.2 1 .6 2 .6 3.1.1 5.3-.1 10.6.1 16 .1 2.3.4 4.6.9 6.9.9 4.4 5.1 7.7 9.7 7.8 7.2.1 10.5-1.9 12.3-8.2.5-1.7.7-3.6.7-5.4.1-5.3 0-10.6 0-16 .1-1.3.2-2.6.4-4.6zm160.9 3.6c-4.2-.8-8.2.2-12-.7.2-2.7 1.8-2.7 3.3-2.7h14 8c1.3 0 1.3.1 2.7 2.4-3.8 1.6-7.9 0-12 1.1v5.9 22.9c0 1.6.4 3.4-1.8 4.2-2-.3-2.1-1.8-2.1-3.3 0-5.6 0-11.3 0-16.9-.1-4.2-.1-8.4-.1-12.9zm36.7 15.9c4-5.7 7.6-10.9 11.2-16 1.6-2.3 1.7-2.3 5-2.8-1.4 4.5-4.8 7.6-7.2 11.2s-5 7.1-7.5 10.7c-.3 4.7.2 9.5-.3 14.2-2.7.1-3-1.3-3-2.9 0-3.8 0-7.6 0-11.6-4.9-6.8-9.8-13.7-14.6-20.6.7-1.5 1.8-1.7 2.9-.8s2 2.2 2.9 3.4c3.4 4.7 6.8 9.7 10.6 15.2zm-159.9 37.1c-4.5-.4-8.2-.7-12-1.1-.2 0-.3-.5-.9-1.7.3-.1.9-.6 1.6-.6h25.9c.4 0 .8.8 1.3 1.3-1.7 2.6-4 1.4-6 1.6s-4 0-6.5 0c-.4 10.9.1 21.6-.3 32.6-.9.1-1.7.2-2.9.4-.1-3.9-.1-7.5-.1-11.1 0-3.5 0-7 0-10.5-.1-3.5-.1-7.1-.1-10.9zm-20.4 32.4c-1 0-1.8.1-2.5.1-1.2-4-1.2-31.7 0-35.8.7-.1 1.5-.1 2.1-.2 1.1 1.5 1.4 27.4.4 35.9zm120.4-51.8c0-12.8 0-24.8 0-37.2 1.4.4 2.1.6 2.6.7.8 3.8 1.1 27 .4 35.6-.7.3-1.4.5-3 .9z" fill="#fff"/></svg>