<svg enable-background="new 0 0 266 358" viewBox="0 0 266 358" xmlns="http://www.w3.org/2000/svg"><path d="m167.8 113.1c23.2 23.4 45.8 46.1 68.6 69v57c-4.4 1-47.2 1.3-57 .5-22.3-22.5-44.9-45.3-68.4-69-.1 23.6 0 46.1 0 68.5-4.3 1-72.4 1.2-78.9.3-.1-1.6-.3-3.4-.3-5.1 0-15.8 0-31.7 0-47.5 0-49 0-98 0-146.9 0-2 0-4 0-5.6.6-.5.7-.6.8-.7s.3-.3.4-.3c.7-.1 1.3-.2 2-.2h198.4c.5 0 1 .1 1.5.2.3.1.6.3 1.5.8.2 25.9 0 52.1.1 78.9-11.7.1-22.8 0-33.9.1-11.3 0-22.4 0-34.8 0zm-111.7 184c5.9-4.1 7.3-7.6 5.9-13-1.3-4.7-5-7-11.2-7.2-2.8-.1-5.7-.1-8.5 0-3.3 0-6.6.1-9.7.1-1.2 6-.9 29.6.2 33h9.5c.2-3.8.4-7.2.5-10.9 1.3.1 2.1.2 2.8.2 2.2 3.8 4.2 7.3 6.4 11.1h9.2c.6 0 1.2-.4 2.2-.7-2.7-4.5-5-8.6-7.3-12.6zm-13.4-12.3c2.8-1 5.3-.4 7.6.6 1.2 2.5 1.2 2.5.1 5.1-2.3 1.1-4.8 1.7-7.7.7 0-2.1 0-4.2 0-6.4zm84.2 23.8c4-2.8 5.8-8.4 4.1-12.9-1.3-3.3-4-4.8-7.1-5.7-2.9-.8-5.8-1.3-8.7-2.1-.9-.3-1.6-1.2-2.5-1.9 3.8-2.4 6.1-2.2 12.6 1.1 1.9-1.6 3.9-3.3 5.8-4.9-3.3-7.2-19.3-7.8-24.7-3.9-3.7 2.7-5.1 6.1-4.5 10.4.5 3.8 2.9 6.3 6.5 7.5 2.8.9 5.8 1.5 8.7 2.2 1.6.4 3.4.5 3.8 2.5-3.5 3.5-7.2 3.1-14.3-1.7-2.4 1.5-4.9 3-7.6 4.7 4.6 8.6 21.7 9.1 27.9 4.7zm65.1-7.6c-1.7.8-3.1 1.4-4 1.9-3.8-.6-4.9-2.7-4.8-5.8.1-5.3 0-10.6 0-16 0-1.3-.2-2.5-.4-4.1-1.9-.1-3.5-.2-5.2-.2-1.6 0-3.2.1-5.3.2.2 8.7.3 17 .8 25.2.2 3.1 2.4 5.4 5.2 7 3.5 2 7.2 2.4 11.1 2.1 9-.7 13.6-5.4 13.7-14.5.1-5.5.1-11 0-16.5 0-1.1-.3-2.2-.5-3.3-3.4 0-6.6 0-10.5 0-.1 8.4-.1 16.2-.1 24zm27.5-12.1c-.1-1.2-.3-1.9-.2-2.5s.4-1.2.6-1.8c5-1.1 10.1.6 14.9-1 .2-2.4.8-4.5-.5-6.5-8.5 0-17 0-26 0 0 5.7-.1 11.2 0 16.7.1 5.4-.6 10.9.4 16.1 7.7.9 23.8.7 27.2-.4 0-2.1 0-4.1 0-6.6-5.7 0-10.9 0-16.3 0 0-2.2 0-3.9 0-5.6 4.9-1.3 9.7.6 14.2-1.4 0-2.1 0-4.1 0-7-5 0-9.6 0-14.3 0zm-123.9 20.7c0-2 0-4 0-6.5-5.7-.1-11.1-.2-16.8-.4.1-2.2.2-3.8.4-5.7 4.8-.2 9.2-.4 13.7-.5 0-2.7 0-4.9 0-7.7-4.8 0-9.3 0-13.9 0 .1-1.7.2-2.8.2-4.5h7.1c2.5 0 4.9-.1 7.5-.2.5-2.6.9-4.8-.3-6.9-7.8-.8-22-.5-25.5.5v32.1c5.8.8 23.6.7 27.6-.2zm57.1-6.9c-5.4-1.6-6.8-3.6-6.8-9.8 0-5.4 1.5-7.2 6.8-8.5 3.6 0 4.9 3.2 7.4 5.1 2.7-1.4 5.3-2.7 7.9-4-3.6-7.6-12.1-11.3-20.4-9.2-9 2.3-13.2 11.7-12.8 18.7.4 8.7 5.6 15 13.8 16.5 8.9 1.5 16.3-2 19.4-9.8-2.7-1.4-5.5-2.7-8.2-4.1-3.2 3.9-3.2 3.9-7.1 5.1zm-38.2 16.2c-1.2.1-2.1.1-2.9.1-1.2 6.4-.9 9.5.9 12 2.6-1.5.1-4.1 1.1-5.8 2 1.5.4 5.1 4 5.9.7-1.8 1.3-3.4 2-5.2.3 1.7.7 3.4 1.1 5.3 2.5-2.1 2.9-6.1 1.4-12.1-.9 0-1.8 0-2.9 0-.7 2.1-1.4 4.1-2.4 7.1-1-3.1-1.6-5.1-2.3-7.3zm-29.9 12.6c2.4-2.3 1-4.7 1.8-6.6.8 2.1 1.5 4.1 2.4 6.4 3.3-1.4 2.3-4.6 3.8-6.3 1 1.8-1 4.6 2.1 6.2.9-4.3.8-8.1.1-12.3-1.1.1-2 .2-3 .3-.8 2.4-1.4 4.6-2.3 7.3-.8-2.7-1.5-5.1-2.3-7.5-1.1 0-1.9 0-3 0-.5 4.1-.9 8 .4 12.5zm31.8-68.7c2.4 1.4 2.4 5.2 5.9 6 1.3-3.9.7-7.6.5-11.4 0-.5-.7-.9-1.2-1.4-2.6 1.6-.5 4.5-2.1 6.2-2.4-1.7-2.5-5.3-6.1-6.2-.8 4.3-.7 8.3 0 12.9 3.6-1.4 1.4-4.5 3-6.1zm-13-5c-1.4-2-4.3-2.3-8.4-.7 0 2-.1 4.2 0 6.3.1 1.9-.8 4.2 2.1 5.7.6-1.9 1.1-3.3 1.5-4.7 2.4.8 2 4.6 5.5 4.2-.6-1.7-1-3.1-1.6-4.9 1.8-1.8 2.5-3.7.9-5.9zm-1 2.3c-1.6.9-2.6 1.4-4.1 2.2 0-1.7 0-2.7 0-4.2 1.5.7 2.4 1.1 4.1 2zm91.7-4c-1.2 3.4-1.4 9.5-.5 11.8.2.4 1 .5 1.9.9.3-2.4.5-4.3.7-6.4 2.7 1.6 2.7 5.6 6 6.3 1.3-4.6 1.2-9.4-.4-12.6-2.2 2.1-.4 4.8-1.5 7-2.6-1.6-2.5-6-6.2-7zm-149.9-.1c-1.6 4.1-1.2 8-.5 11.8.1.4 1 .6 1.9 1.2.3-2.6.5-4.8.7-7.5 1.2 1.9 2 3.2 2.8 4.4.8 1.1 1.2 2.9 3.1 2.7 1.3-4.3 1.2-9.2-.4-12.3-2.3 2-.3 4.8-1.5 6.9-2.3-1.9-2.5-5.8-6.1-7.2zm33.9.4c-1.4 4.5-1.3 8.6.2 12.1 5.4.7 5.5.7 8.5-.9-1.5-2.5-4.4-.6-6.4-2.3 0-.4.1-1 .1-1.4 1.6-1.4 4.2.3 5.5-2.4-2.1-.5-3.9-.9-5.9-1.3 1.2-3.3 4.7-.7 6.3-3.9-3.2.1-5.8.1-8.3.1zm-15.5 62.1c-3.4 0-6.1 2.7-6.1 6.4-.1 3.8 2.4 6.4 6 6.5 3.6 0 6.1-2.6 6.2-6.3 0-3.7-2.7-6.6-6.1-6.6zm1.4 2.8c2.6 4.1 2.5 4.5-.8 7.5-4.4-1.1-4.9-2.5-2.6-7.5zm116.5-52.4c3-.6 4.9-3.1 4.8-6.6 0-3.4-2.1-5.9-5-6.4-3.6-.5-5.7 1.4-7 6.6 1.4 5 3.7 7 7.2 6.4zm-.7-10.6c3 2.5 3.6 4.3 2.4 6.4-.9 1.4-2.1 2.1-3.8 1.5-2-.7-2.4-1.9-1.7-6.3.9-.5 2.1-1.1 3.1-1.6zm-43.1 8c1.3.9 2.3 1.7 4.2 3.1-.7-5.2-2.2-9-3.9-12.6-.2-.5-1.4-.5-2.5-.9-1.5 4.3-3.6 8.1-3.9 13.5 1.6-1.4 2.6-2.2 3.7-3.1zm.2-3.1c-.7.3-1.2.5-2.3 1 .2-1.5.4-2.5.5-3.4h.7c.5.7.8 1.4 1.1 2.4zm95.1 65.7c-1.4-.2-2.2-.6-1.7-2.3 1.5-.5 3.1-.9 4.7-1.4-.9-2.7-4.7-.2-4.9-3.2 1.6-1.9 4.5.3 5.8-2.5-3-1.1-5.8-1-8.7-.1-.2 3.9-.7 7.7.3 11.4h8.7c-.9-2.8-2.8-1.7-4.2-1.9zm-190.9-8.3c-1.8-2.2-4.3-2.7-6.7-1.6-2.5 1.2-3.9 4.2-3.4 7.1s2.6 5.1 5.3 5c1.5 0 3.1-.7 4.5-1.5.5-.3.6-1.5 1.2-3.2-2.3 1-3.8 1.6-5.2 2.2-3.5-2.2-3.7-2.8-1.9-6.7 2.6-2.6 3.9 1 6.8.7-.2-.9-.2-1.6-.6-2zm176.2-54.1c1 .8 1.9 1.5 3.1 2.4.4-4.1-1.2-9-4.1-12.8-.6.3-1.7.5-1.9 1.1-1.5 3.6-3.2 7.2-3.4 12 3.4-2.6 3.4-2.6 6.3-2.7zm-1.8-5.1h.8c.1.8.2 1.5.4 2.3-.4 0-.9 0-1.3 0 .1-.8.1-1.6.1-2.3zm-12.3 57.8v11.9c2.6 0 4.9.1 7.2-.1.6 0 1.1-.7 2.5-1.6-3.1-.4-5.1-.6-7.4-.9.1-.8.1-1.4.1-1.8 1.7-1.4 4.3.3 5.3-2-1.4-2.1-4.6.1-5.6-3.1 2.2-.4 4.2-.7 7-1.2-3.3-2.7-6.2-1.6-9.1-1.2zm25.9-62.9c-.1 4.2-.7 8.2.4 12.4 2.4-.1 4.8 1.3 6.9-1.7-1.7-.6-3-1.1-4.2-1.6-1-8.2-1-8.2-3.1-9.1zm-168.6.6c1.4 1.1 2.4 1.8 3.2 2.4.8 3.1-.5 6.4 1.1 9.8 3.7-3 .9-7 2.6-10 .8-.5 1.6-1.1 3.6-2.4-4.2-.9-7-1.2-10.5.2zm95.7 63.3c.8.5 1.7 1.1 2.5 1.7.9 3-.6 6.2 1.5 9.9 3-3.4.8-7.2 2.3-10.2.3-.1.8-.3 1.2-.6.5-.3.9-.8 1.4-1.3-4.5-1.5-8.6-1.4-8.9.5zm23 0c.8.5 1.7 1.1 2.6 1.6.9 3-.6 6.3 1.5 9.9 3-3.4.7-7.2 2.2-10 1-.7 1.8-1.3 2.9-2.1-4.9-1.4-9-1.3-9.2.6zm-27.3-51.8c0-3.1 0-6.2 0-9.2 1-.5 1.6-.7 2.1-1.1.4-.3.7-.8 1.3-1.6-3.3-.9-6.1-1.1-9.6.3 1.6 1.1 2.7 1.9 3.5 2.4.9 3.3-.5 6.5 1.2 9.2.6.1 1 .1 1.5 0zm12.1.2c2.4-2.6 2.5-9-.1-12.7-1.4 4.8-1.3 9.6.1 12.7zm-25.3 51c-.1 3.6-.1 7.2 0 10.7 0 .2 1 .4 1.9.7.7-4.2.8-8.1-.1-12.6-1.1.8-1.8 1-1.8 1.2zm-105.7-51.1c1.7-3.1 1.7-8.9 0-12.1-1.8 3.2-1.8 8.9 0 12.1z" fill="#fff"/></svg>