<?xml version="1.0" encoding="utf-8"?>
<!-- Generator: Adobe Illustrator 22.0.0, SVG Export Plug-In . SVG Version: 6.00 Build 0)  -->
<svg version="1.1" id="Layer_1" xmlns="http://www.w3.org/2000/svg" xmlns:xlink="http://www.w3.org/1999/xlink" x="0px" y="0px"
	 viewBox="0 0 647.7 165" style="enable-background:new 0 0 647.7 165;" xml:space="preserve">
<style type="text/css">
	.st0{fill:#FFFFFF;}
</style>
<path class="st0" d="M0,94.4c0-12.5,0-25.1,0-37.6c0-1.4,0.2-2.7,0.8-3.9c1.3-2.6,3.4-4.2,6.3-4.6c2.9-0.4,5.3,0.5,7.3,2.5
	c1.5,1.5,2.2,3.5,2.3,5.6c0,0.2,0,0.3,0,0.5c0,25.1,0,50.2,0,75.3c0,1.8-0.4,3.4-1.4,4.9c-1.3,2-3.1,3.2-5.5,3.7
	c-4.4,0.9-9-2.1-9.8-6.9C0,133.3,0,132.7,0,132.2C0,119.6,0,107,0,94.4z M136.8,74c-0.5,0-1,0.1-1.5,0.2c-2.5,0.5-4.1,2.1-4.9,4.6
	c-0.2,0.7-0.3,1.5-0.3,2.5c0,24.7,0,49.4,0,74.2c0,0.7,0,1.6,0.2,2.5c0.4,1.8,1.3,3.2,2.9,4.2c1.1,0.7,2.3,1.1,3.5,1.1
	c0.6,0,1.2-0.1,1.8-0.2c2.5-0.7,4-2.2,4.7-4.8c0.2-0.6,0.2-1.4,0.2-2.1l0-31.7l0-5.9l0-8c0-9.9,0-19.8,0-29.7c0-1.1-0.1-1.9-0.4-2.7
	C141.9,75.6,139.6,74,136.8,74L136.8,74 M136.8,72.2c3.6,0,6.5,2.2,7.8,5.5c0.4,1.1,0.5,2.2,0.5,3.3c0,12.6,0,25.1,0,37.7
	c0,12.5,0,25,0,37.5c0,0.9,0,1.7-0.2,2.5c-0.9,3.1-2.9,5.1-6,6c-0.8,0.2-1.5,0.3-2.2,0.3c-1.5,0-3-0.5-4.4-1.4
	c-2-1.3-3.2-3.1-3.7-5.4c-0.2-0.9-0.2-1.9-0.2-2.8c0-24.7,0-49.4,0-74.2c0-1,0.1-2.1,0.4-3c1-3.1,3.1-5.2,6.3-5.8
	C135.6,72.3,136.2,72.2,136.8,72.2L136.8,72.2z M33.9,74c-1.3,0-2.4,0.4-3.5,1.1c-1.2,0.8-2,1.8-2.5,3c-0.3,0.7-0.4,1.5-0.4,2.6
	c0,10,0,20,0,30.1l0,7.9l0,37.4c0,0.5,0,0.9,0,1.3c0,1.3,0.5,2.5,1.5,3.6c1.3,1.5,3,2.3,4.9,2.3c0.1,0,0.3,0,0.4,0
	c1.8-0.1,3.4-0.8,4.6-2.2c1.1-1.2,1.6-2.7,1.6-4.4c0-25.3,0-50.7,0-76c0-0.7-0.1-1.3-0.2-1.8c-0.8-2.6-2.6-4.2-5.2-4.7
	C34.7,74,34.3,74,33.9,74 M33.9,72.2c0.5,0,1,0,1.5,0.1c3.3,0.6,5.7,2.8,6.6,5.9c0.2,0.7,0.3,1.5,0.3,2.3c0,25.3,0,50.6,0,76
	c0,2.1-0.7,4-2,5.5c-1.5,1.7-3.5,2.7-5.8,2.8c-0.2,0-0.3,0-0.5,0c-2.5,0-4.6-0.9-6.3-2.8c-1.2-1.4-1.9-2.9-2-4.8c0-0.4,0-0.9,0-1.3
	c0-12.5,0-24.9,0-37.4c0-12.6,0-25.3,0-37.9c0-1.1,0.1-2.2,0.5-3.3c0.6-1.6,1.7-2.9,3.1-3.8C30.8,72.7,32.3,72.2,33.9,72.2
	L33.9,72.2z M119,76.8c-0.1,0.6-0.4,1.1-0.6,1.6c-0.8,1.7-2.2,2.9-3.9,3.8c-1.4,0.6-2.9,0.9-4.3,0.7c-1.5-0.2-2.9-0.7-4.1-1.6
	c-1.6-1.1-2.5-2.7-3.1-4.5c0-0.1-0.2-0.2-0.2-0.3c0,0.4,0,0.9,0,1.3c0,18,0,36,0,54c0,0.5,0,0.9,0,1.4c0.1,1.6,0.6,3,1.6,4.3
	c2.1,2.7,4.8,3.9,8.3,3.3c2.1-0.4,3.8-1.4,5.1-3.2c1.2-1.6,1.7-3.5,1.7-5.5c0-18,0-36,0-54c0-0.4,0-0.9-0.1-1.3
	C119.3,76.7,119.2,76.7,119,76.8z M68.1,9c0-0.8-0.1-1.6-0.2-2.4c-0.4-1.9-1.4-3.5-2.9-4.7C63.4,0.6,61.6,0,59.5,0
	c-2.2,0-4,0.8-5.6,2.3c-1.7,1.6-2.5,3.5-2.6,5.8c0,2.5,0,5,0,7.5c0,3.5,0,7,0,10.4c0,0.6,0,1.3,0.1,1.9c0.5,2.6,1.9,4.6,4.3,5.9
	c2.9,1.6,6.5,1.3,9.1-0.8c2.2-1.7,3.2-4,3.2-6.8c0-2.9,0-5.8,0-8.8C68.1,14.7,68.1,11.8,68.1,9z M51.3,123.4c0,2.9,0,5.8,0,8.6
	c0,0.6,0,1.2,0.1,1.8c0.9,5,5.6,7.8,9.8,6.9c3.2-0.7,5.4-2.6,6.4-5.7c0.3-0.9,0.4-1.8,0.4-2.8c0-5.9,0-11.9,0-17.8
	c0-2.2-0.7-4.2-2.3-5.9c-2-2.1-4.5-3.1-7.5-2.6c-2.7,0.5-4.7,1.9-6.1,4.3c-0.7,1.2-1,2.5-1,3.8C51.4,117.3,51.3,120.3,51.3,123.4
	C51.3,123.4,51.3,123.4,51.3,123.4z M85.5,25.8c-0.7,0-1.4,0.1-2.2,0.4c-2.9,0.9-4.6,3.3-4.6,6.4c-0.1,4.2,0,8.6,0,12.7
	c0,1.7,0,3.4,0,5.2c0,0.6,0.1,1.2,0.3,2.1c0.4,1.3,1.1,2.4,2.3,3.4c1.2,0.9,2.5,1.4,3.9,1.4c0.8,0,1.6-0.1,2.4-0.4
	c3.1-1,4.4-3.9,4.4-6.2c0-2.1,0-4.3,0-6.4c0-0.9,0-1.9,0-2.8l0-1.8v-7.3l0-0.1c0-1.8-0.7-3.4-2.1-4.6C88.6,26.4,87.1,25.8,85.5,25.8
	L85.5,25.8 M85.5,24c2,0,3.9,0.8,5.5,2.3c1.7,1.6,2.7,3.5,2.6,5.9c0,0,0,0.1,0,0.1c0,3.1,0,6.1,0,9.2c0,3.1,0,6.1,0,9.2
	c0.1,3.2-1.9,6.6-5.6,7.9c-1,0.3-2,0.5-2.9,0.5c-1.7,0-3.4-0.6-5-1.8c-1.4-1.1-2.4-2.5-2.9-4.3c-0.2-0.8-0.4-1.7-0.4-2.5
	c0-6-0.1-12,0-17.9c0.1-4,2.4-7,5.9-8C83.8,24.2,84.7,24,85.5,24L85.5,24z M85.4,131.8c-0.4,0-0.9,0-1.3,0.1c-1.5,0.3-2.8,1.1-4,2.5
	c-0.5,0.6-0.8,1.1-0.9,1.6c-0.3,1.2-0.5,2.1-0.5,2.9c0,4.6,0,9.2,0,13.9l0,2.6c0,0.8,0.1,1.6,0.2,2.3c0.3,1.9,1.2,3.3,2.8,4.4
	c1.1,0.8,2.3,1.1,3.6,1.1c0.7,0,1.4-0.1,2.2-0.4c2.7-0.8,4.5-3.3,4.5-6.1c0-2.2,0-4.3,0-6.5l0-2.9l0-2.6c0-2.2,0-4.3,0-6.5
	c0-0.8-0.1-1.6-0.4-2.4C90.5,133.4,88.2,131.8,85.4,131.8L85.4,131.8 M85.4,130.1c3.5,0,6.6,2.1,7.8,5.4c0.4,1,0.5,2,0.5,3
	c0,3,0,6,0,9c0,3.1,0,6.3,0,9.4c0,3.7-2.5,6.7-5.7,7.7c-0.9,0.3-1.8,0.4-2.7,0.4c-1.6,0-3.1-0.5-4.5-1.4c-1.9-1.3-3.2-3.2-3.6-5.6
	c-0.1-0.9-0.2-1.7-0.2-2.6c0-5.5,0-11,0-16.5c0-1.2,0.2-2.3,0.5-3.4c0.2-0.8,0.7-1.6,1.3-2.2c1.3-1.6,3-2.8,5-3.1
	C84.3,130.1,84.8,130.1,85.4,130.1L85.4,130.1z M111.1,49.9c-0.4,0-0.8,0-1.3,0.1c-2,0.4-3.5,1.5-4.6,3.3c-0.6,0.9-0.8,2-0.8,3.3
	c0,4.5,0,9,0,13.5l0,5.7c0.1,0.1,0.1,0.2,0.2,0.4c0.6,1.8,1.4,2.9,2.5,3.7c1,0.7,2.1,1.1,3.3,1.3c0.2,0,0.5,0,0.7,0
	c0.9,0,1.8-0.2,2.7-0.6c1.5-0.7,2.4-1.6,3-2.9c0.1-0.1,0.1-0.3,0.2-0.4c0.1-0.3,0.3-0.6,0.3-0.7c0.1-0.3,0.2-0.6,0.4-0.8
	c0,0,0-0.1,0-0.1l0-6.3c0-4.1,0-8.3,0-12.4c0-0.7-0.1-1.3-0.2-1.9c-0.4-1.7-1.3-3-2.5-3.9C113.7,50.3,112.4,49.9,111.1,49.9
	 M111.1,48.1c1.7,0,3.3,0.6,4.8,1.6c1.7,1.2,2.8,2.9,3.3,4.9c0.2,0.7,0.3,1.5,0.3,2.3c0,6.2,0,12.5,0,18.7c0,0.4,0.1,0.8-0.1,1.1
	c-0.1,0-0.2,0-0.3,0.1c-0.1,0.6-0.4,1.1-0.6,1.6c-0.8,1.7-2.2,2.9-3.9,3.8c-1.1,0.5-2.2,0.8-3.4,0.8c-0.3,0-0.6,0-0.9-0.1
	c-1.5-0.2-2.9-0.7-4.1-1.6c-1.6-1.1-2.5-2.7-3.1-4.5c0-0.1-0.2-0.2-0.2-0.3c0-0.2,0-0.4,0-0.6c0-6.4,0-12.8,0-19.2
	c0-1.5,0.3-2.9,1.1-4.2c1.3-2.2,3.2-3.6,5.7-4.1C110,48.2,110.6,48.1,111.1,48.1L111.1,48.1z M59.9,49.8c-0.1,0-0.2,0-0.3,0
	c-0.8,0.1-1.6,0.3-2.3,0.5c-2.3,0.8-4.1,3.4-4.1,5.8c0,1.3,0,2.7,0,4l0,1.7c0,0,0,0.1,0,0.1l0,1.9c0,1.4,0,2.9,0,4.3
	c0,1.2,0.4,2.3,1.3,3.3c1.2,1.5,2.5,2.3,4.3,2.6c0.4,0.1,0.7,0.1,1.1,0.1c1,0,1.9-0.2,2.9-0.7c2.4-1.2,3.6-3.2,3.7-6.1
	c0-2.3,0-4.6,0-6.9c0-1.3,0-2.5,0-3.8c0-0.6-0.1-1.2-0.3-1.9c-0.6-2.2-1.9-3.6-4-4.4C61.2,50,60.5,49.8,59.9,49.8 M59.9,48.1
	c0.9,0,1.9,0.3,2.7,0.6c2.6,1,4.3,2.9,5.1,5.6c0.2,0.8,0.4,1.6,0.4,2.4c0,3.6,0.1,7.1,0,10.7c-0.1,3.4-1.6,6-4.6,7.6
	c-1.2,0.6-2.4,0.9-3.7,0.9c-0.5,0-0.9,0-1.4-0.1c-2.3-0.4-4-1.5-5.4-3.3c-1-1.3-1.6-2.7-1.6-4.4c0-2.1,0-4.1,0-6.2c0,0,0,0,0,0
	c0-1.9,0-3.9,0-5.8c0-3.2,2.4-6.4,5.3-7.4c0.9-0.3,1.8-0.5,2.7-0.6C59.6,48.1,59.7,48.1,59.9,48.1L59.9,48.1z M42.4,32.4
	c0-1.8-0.5-3.4-1.6-4.9c-2.2-3.1-7-4.7-11.1-2.2c-2.7,1.7-4,4.2-4,7.3c0,3.6,0,7.1,0,10.7c0,1.1,0.2,2.2,0.7,3.3
	c1.5,3.5,4.9,5.8,9.3,5c4.7-0.9,6.8-5,6.7-8.1c-0.1-1.8,0-3.7,0-5.5C42.4,36.1,42.3,34.3,42.4,32.4z M68,93.8c0-4.7-3.5-8.3-8.4-8.3
	c-5.1,0-8.4,4.4-8.4,8.5c0.1,4.6,3.9,8.3,8.4,8.2C63.7,102.3,68.1,99.2,68,93.8z M85.1,109.4v1.8c-1.5,0-2.8,0.4-3.8,1.2
	c-1.9,1.5-2.7,3.2-2.7,5.4c0,0.1,0,0.2,0,0.2c-0.1,0.9,0.2,1.8,0.7,2.8c0.7,1.3,1.7,2.2,2.9,2.8c1,0.5,2,0.7,3,0.7
	c0.3,0,0.6,0,0.9-0.1c2-0.3,3.5-1.2,4.7-3c0.7-1.1,1.1-2.3,1-3.8c0-1.7-0.6-3.1-1.8-4.3c-1.3-1.4-2.9-2.1-4.8-2.1L85.1,109.4
	 M85.1,109.4C85.1,109.4,85.1,109.4,85.1,109.4c2.4,0,4.5,0.9,6.1,2.6c1.4,1.5,2.2,3.3,2.3,5.4c0.1,1.8-0.3,3.4-1.3,4.9
	c-1.4,2.1-3.3,3.3-5.9,3.7c-0.4,0.1-0.8,0.1-1.1,0.1c-1.3,0-2.5-0.3-3.7-0.9c-1.6-0.8-2.8-2-3.6-3.5c-0.7-1.2-1-2.5-0.9-3.8
	c-0.1-3,1.2-5.2,3.4-6.9C81.6,109.9,83.3,109.4,85.1,109.4L85.1,109.4z M167.2,143.4c0.5-0.3,0.5-0.7,0.6-1.2c0.4-1.5,1-2.9,2-4.1
	c1.2-1.6,2.7-2.7,4.6-3.4c3-1.1,6-1.2,9.1-0.3c3.4,1,5.7,3.1,6.9,6.3c1.4,3.6,1.3,7.2-0.3,10.7c-1.4,3.2-3.9,5.1-7.2,6
	c-2.6,0.7-5.3,0.6-7.9-0.3c-3.6-1.2-6-3.8-7.1-7.4c-0.1-0.4-0.2-0.8-0.3-1.2c0-0.2-0.2-0.3-0.3-0.3
	C167.2,146.6,167.2,145,167.2,143.4z M184,145.8c0-0.7,0-1.5-0.1-2.2c-0.1-1.1-0.4-2.1-1-3c-1-1.3-2.4-1.8-3.9-1.6
	c-1.7,0.2-3,1-3.6,2.7c-0.7,1.9-0.8,3.8-0.6,5.8c0.1,0.8,0.2,1.7,0.6,2.5c0.5,1.1,1.2,1.9,2.3,2.3c2.4,0.9,5.1,0.1,6-2.8
	c0-0.1,0-0.1,0-0.2C184,148.2,183.9,147,184,145.8z M377.1,157.4c-0.1-0.2-0.2-0.3-0.2-0.4c0-10.5,0-21-0.1-31.5
	c0-0.2,0-0.4,0.3-0.7c0.1-0.1,0.4-0.1,0.6-0.1c4.3,0,8.6,0,13,0c3.4,0,6.5,1,9.3,3c3.1,2.2,5.1,5.1,6,8.7c1,4,0.8,8-0.9,11.9
	c-2.1,4.4-5.6,7.2-10.2,8.4c-1.6,0.4-3.2,0.7-4.9,0.7c-4.1,0-8.2,0-12.3,0C377.5,157.5,377.3,157.5,377.1,157.4z M384.7,130.8
	c0,0.1-0.1,0.3-0.1,0.5c0,6.5,0,12.9,0,19.4c0,0.3,0,0.5,0.3,0.7c2,0,3.9,0,5.9,0c1.2,0,2.4-0.4,3.5-1c1.8-1,3-2.6,3.7-4.5
	c1.1-3.1,1.2-6.3,0.1-9.4c-1.3-3.8-4.2-5.9-8.4-5.9c-1.3,0-2.7,0-4,0C385.4,130.6,385.1,130.5,384.7,130.8z M552.4,135.7
	c-0.6-1.4-0.8-1.5-2.2-1.6c-1,0-2,0-3,0c-0.3,0-0.7-0.1-0.9,0.3c0,7.5,0,15.1,0,22.7c0,0,0,0.1,0.1,0.1c0,0,0.1,0.1,0.1,0.1
	c1.7,0.2,5.4,0.1,6.8-0.1c0.1-0.9,0-1.8,0-2.7c0-1,0-1.9,0-2.9c0-0.9,0-1.8,0-2.7c0-1,0-1.9,0-2.9c0-0.9,0-1.8,0-2.7
	c0-1-0.1-1.9,0.1-2.8c1.2-1.2,2.5-1.7,4.1-1.4c1,0.1,1.6,0.6,2,1.6c0.3,0.7,0.3,1.5,0.3,2.2c0,4.4,0,8.8,0,13.1
	c0,0.4-0.1,0.9,0.2,1.3c0.2,0,0.4,0.1,0.6,0.1c1.8,0,3.5,0,5.3,0c0.3,0,0.6,0.1,0.9-0.3c0-0.5,0-1,0-1.5c0-4.1,0-8.2,0-12.3
	c0-0.4,0-0.9,0-1.3c0.2-1.8,1.4-2.9,3.2-2.9c0.3,0,0.5,0,0.8,0c0.5,0,0.9,0.3,1.3,0.6c0.5,0.5,0.8,1,0.8,1.7c0,0.6,0.1,1.3,0.1,1.9
	c0,4.2,0,8.4,0,12.7c0,0.5-0.1,1,0.3,1.4c2.2,0,4.3,0,6.5,0c0.1,0,0.2-0.1,0.3-0.3c0-0.4,0-0.9,0-1.4c0-3.8,0-7.7,0-11.5
	c0-1.3-0.1-2.6-0.3-3.8c-0.4-2.6-1.6-4.8-4.1-5.9c-2.6-1.1-5.3-1.1-7.9,0c-1.5,0.6-2.6,1.7-3.5,3c-0.2-0.4-0.4-0.8-0.7-1.1
	c-1-1.4-2.2-2.4-3.9-2.6c-1.9-0.2-3.7,0.1-5.3,1.2c-0.5,0.4-1,0.8-1.6,1.2C552.5,136.1,552.4,135.9,552.4,135.7z M354.6,135.4
	c0-2.1,0-3.9,0-5.8c0-1.9,0-3.7,0-5.5c1.3-0.2,4.5-0.3,6.8-0.1c0.3,0.2,0.2,0.6,0.2,0.9c0,10.6,0,21.1,0,31.7c0,0.3,0.1,0.5-0.1,0.8
	c-0.3,0.3-0.6,0.2-0.9,0.2c-1.1,0-2.2,0-3.4,0c-0.8,0-1.4-0.4-1.7-1.2c-0.1-0.3-0.2-0.6-0.3-0.9c-0.1-0.2-0.2-0.4-0.4-0.5
	c-0.4,0.3-0.8,0.6-1.2,1c-2,1.6-4.4,2.2-6.9,1.9c-2.5-0.3-4.3-1.8-5.5-4c-0.7-1.2-1.1-2.4-1.4-3.7c-0.7-3-0.6-5.9,0.2-8.8
	c0.4-1.4,1.1-2.8,2-4c1.2-1.6,2.7-2.7,4.7-3.2c2.5-0.6,5-0.7,7.2,0.9C354,135.2,354.2,135.2,354.6,135.4z M354.5,140.5
	c-0.2-0.4-0.5-0.6-0.7-0.7c-2.6-1.9-5.6-1-6.7,2.1c-0.1,0.2-0.1,0.4-0.2,0.6c-0.5,2-0.4,4-0.2,6c0.1,0.9,0.4,1.9,1,2.7
	c0.6,0.8,1.3,1.2,2.3,1.3c2,0.1,3.5-0.6,4.6-2.2C354.5,146.9,354.5,143.7,354.5,140.5z M448.2,156.3c-0.2,1.4,0,2.8-0.1,4.2
	c0,1.4,0,2.8,0,4.1c-1.2,0.3-3.8,0.3-6.7,0.2c-0.3-0.2-0.3-0.5-0.3-0.7c0-9.8,0-19.5,0-29.3c0-0.2,0-0.3,0.1-0.4
	c0.2-0.3,0.5-0.3,0.7-0.3c1.1,0,2.2,0,3.4,0c1.2,0,1.6,0.3,2,1.5c0.1,0.3,0.2,0.7,0.4,1c0.3,0.1,0.5-0.1,0.7-0.3
	c0.6-0.5,1.2-1,1.9-1.4c2.1-1.3,4.3-1.4,6.6-1c2,0.4,3.5,1.8,4.5,3.5c1,1.6,1.6,3.4,1.8,5.2c0,0.4,0.1,0.7,0.1,1.1
	c0.4,3.7-0.3,7.1-2.4,10.2c-2.3,3.2-6.1,4.5-9.9,3.5c-0.7-0.2-1.4-0.5-2-0.9C448.8,156.5,448.6,156.2,448.2,156.3z M448.2,151.1
	c0.3,0.3,0.6,0.6,0.9,0.8c2.1,1.4,5.2,1.1,6.4-1.8c0.2-0.4,0.3-0.9,0.4-1.4c0.4-1.6,0.4-3.3,0.2-4.9c-0.1-1.1-0.3-2.1-0.8-3.1
	c-0.4-0.8-1-1.4-1.9-1.5c-1.7-0.2-3.3,0-4.5,1.4c-0.2,0.2-0.4,0.5-0.6,0.7C448.2,144.5,448.2,147.7,448.2,151.1z M239.9,144.7
	c2.9,0,5.8,0,8.6,0c0.3,0,0.6,0.1,0.9-0.2c0.2-2.2,0.1-4.5-0.1-5.6c-1.8,0-3.6,0-5.4,0c-1.8,0-3.6,0.1-5.4-0.1
	c-0.1-0.3-0.1-0.5-0.1-0.7c0-2.3,0-4.6,0-6.9c0-0.2,0.1-0.4,0.4-0.6c4.1,0,8.4,0,12.7,0c0,0,0.1,0,0.1,0c0,0,0.1-0.1,0.1-0.1
	c0.2-1.7,0.2-4.4-0.1-5.6c-0.2,0-0.5,0-0.7,0c-6.5,0-12.9,0-19.4,0c-0.3,0-0.5,0-0.8,0.3c0,0.1,0,0.3,0,0.5c0,10.3,0,20.7,0,31
	c0,0.3,0,0.5,0.2,0.8c0.1,0,0.3,0.1,0.4,0.1c2.1,0,4.3,0,6.4,0c0.2,0,0.4,0,0.6-0.3c0-4,0-8.1,0-12.3
	C239,144.6,239.5,144.7,239.9,144.7z M263.8,133.8c1.7-0.1,3.3,0.2,4.8,0.8c3.1,1.2,5.2,3.4,6.3,6.6c1.1,3.5,1,7-0.5,10.4
	c-1.2,2.6-3.2,4.4-6,5.4c-2.9,1-5.8,1.1-8.8,0.2c-3.8-1.2-6.2-3.7-7.3-7.5c-0.7-2.7-0.7-5.4,0.1-8c1.2-4,4-6.4,8-7.5
	C261.5,133.9,262.7,133.8,263.8,133.8z M259.2,145.8c0,0.6,0,1.3,0,1.9c0,0.8,0.3,1.6,0.6,2.3c0.9,2.7,4.4,3.3,6.6,1.9
	c1.1-0.7,1.5-1.8,1.8-2.9c0.5-2.2,0.5-4.3,0-6.5c-0.4-1.8-1.4-3.1-3.3-3.5c-1.7-0.3-3.2,0-4.3,1.4c-0.5,0.5-0.7,1.2-0.9,1.8
	C259.1,143.4,259.1,144.6,259.2,145.8z M614.2,135.5c-0.3-0.9-0.9-1.4-1.9-1.4c-1,0-1.9,0-2.9,0c-0.4,0-0.8-0.1-1.1,0.1
	c-0.3,0.3-0.2,0.5-0.2,0.7c0,7.3,0,14.5,0,21.8c0,0.3,0,0.5,0.3,0.8c2.1,0,4.3,0.1,6.7-0.1c0-1.5,0-2.8,0-4.2c0-1.3,0-2.7,0-4
	c0-1.4,0-2.8,0-4.2c0-1.4,0-2.8,0-4.1c1.5-1.4,2.6-1.8,4.1-1.8c1.4,0,2.7,0.6,3,2.7c0.1,0.7,0.1,1.4,0.1,2.1c0,4.2,0,8.3,0,12.5
	c0,0.4-0.1,0.8,0.2,1c2.4,0.2,5.6,0.1,6.7-0.1c0-0.1,0.1-0.3,0.1-0.4c0-5,0-10,0-15c0-1.1-0.2-2.1-0.6-3.1c-0.9-2.4-2.5-4-4.9-4.6
	c-2.8-0.8-5.5-0.2-7.9,1.5c-0.4,0.3-0.6,0.7-1.2,0.8C614.4,136.1,614.3,135.8,614.2,135.5z M206.2,139.2c0.9,0.1,1.5,0.5,1.9,1.3
	c0.4,0.7,0.5,1.5,0.5,2.3c0,4.5,0,9,0,13.4c0,0.4-0.2,0.9,0.2,1.2c2.2,0.2,5.5,0.1,6.7-0.1c0.2-0.2,0.1-0.4,0.1-0.6
	c0-4.9,0-9.7,0-14.6c0-1-0.2-1.9-0.5-2.8c-0.7-2.5-2.2-4.3-4.6-5.1c-3.1-1-6-0.5-8.6,1.5c-0.3,0.2-0.5,0.6-1,0.6
	c-0.1-0.2-0.3-0.4-0.3-0.7c-0.2-1.2-1-1.5-2.1-1.5c-1.1,0-2.1,0-3.2,0c-0.3,0-0.5-0.1-0.8,0.3c0,0.1-0.1,0.3-0.1,0.5
	c0,7.3,0,14.5,0,21.8c0,0.3,0,0.5,0.2,0.7c2.4,0.2,5.5,0.1,6.8-0.1c0-5.4,0-10.8,0-16.3C202.8,139.6,204.4,139,206.2,139.2z
	 M334.6,150.8c1,0.9,1.7,1.9,2.5,2.9c-0.6,0.9-1.4,1.5-2.3,2.1c-1.2,0.8-2.6,1.3-4,1.6c-2.2,0.4-4.4,0.6-6.7,0.1
	c-3.1-0.7-5.6-2.3-7.2-5.1c-2.2-4.1-2.5-8.3-0.4-12.6c1.5-3.1,4-4.9,7.3-5.7c2.5-0.6,5-0.5,7.4,0.5c3.1,1.2,4.9,3.6,5.7,6.8
	c0.3,1.1,0.4,2.3,0.3,3.5c0,0.7-0.1,1.3-0.5,1.8c-0.6,0.5-1.3,0.4-2,0.4c-3.5,0-7,0-10.6,0c-0.5,0-1.1-0.1-1.6,0.1
	c-0.3,1.8,0.6,3.6,2.1,4.5c0.6,0.4,1.3,0.7,2.1,0.7c1.6,0.1,3.1,0,4.5-0.8c0.2-0.1,0.5-0.2,0.7-0.4
	C332.7,150.8,333.6,150.6,334.6,150.8z M322.4,142.9c1.5,0.2,7.3,0.2,8.4,0c0.2-1.3-0.3-2.4-1.2-3.3c-1.8-1.6-5-1.2-6.3,0.8
	C322.8,141.2,322.5,142,322.4,142.9z M590,147.1c0,1.6,0.5,2.8,1.3,3.8c0.8,0.9,1.8,1.4,3.1,1.5c1.7,0.1,3.3-0.1,4.8-1
	c1.4-0.8,1.5-0.8,2.9-0.7c0.9,0.7,2,2.1,2.5,3.1c-0.7,1.1-1.8,1.8-2.9,2.4c-3.4,1.7-7,2.1-10.7,1c-3.5-1-5.8-3.2-7.1-6.6
	c-1.2-3.1-1.3-6.2-0.3-9.4c1.3-3.9,4-6.3,8-7.2c2.3-0.5,4.5-0.4,6.8,0.3c3.1,1,5.1,3.2,6.1,6.3c0.5,1.6,0.6,3.3,0.4,5
	c-0.1,0.9-0.4,1.2-1.3,1.4c-0.4,0-0.7,0-1.1,0c-3.5,0-7,0-10.6,0C591.3,147.1,590.7,147.1,590,147.1z M598.6,142.9
	c0.1-1.1-0.3-2.1-1-3c-1.3-1.6-5-1.9-6.6,0.6c-0.5,0.7-0.8,1.5-0.8,2.4C591.2,143.1,596.9,143.1,598.6,142.9z M528.2,147.1
	c0,1.6,0.5,2.8,1.3,3.8c0.8,0.9,1.8,1.4,3.1,1.5c1.8,0.2,3.4-0.2,4.9-1c0.9-0.5,1.8-0.9,3-0.5c0.7,0.9,1.7,1.8,2.3,3
	c-1,1.3-2.2,2.2-3.7,2.8c-3.5,1.4-7,1.7-10.6,0.5c-3.3-1.1-5.5-3.5-6.7-6.8c-0.9-2.7-1.1-5.5-0.3-8.3c1.2-4.1,3.9-6.8,8-7.8
	c2.3-0.6,4.5-0.5,6.8,0.2c2.8,0.9,4.7,2.7,5.8,5.3c0.9,2,1,4.1,0.8,6.3c-0.1,0.7-0.4,1-1.1,1.2c-0.4,0.1-0.8,0.1-1.3,0.1
	c-3.5,0-7,0-10.6,0C529.4,147.1,528.9,147.1,528.2,147.1z M536.7,142.9c0-3.2-2.4-4.4-4.6-4.2c-2.2,0.2-3.9,2.1-3.8,4.3
	C530.2,143.2,535.7,143.1,536.7,142.9z M490.1,143.7c0-0.9,0.1-1.8-0.2-2.6c-0.4-1.2-1.2-1.8-2.5-1.9c-1.3-0.1-2.6,0.1-3.7,0.7
	c-0.3,0.2-0.6,0.3-0.9,0.4c-0.8,0.5-1.7,0.7-2.6,0.4c-1.4-0.6-1.8-2-2.4-3.1c0.1-0.6,0.5-0.8,0.8-1.1c1.6-1.2,3.4-2,5.3-2.5
	c1.8-0.4,3.7-0.5,5.6-0.3c3.1,0.4,5.4,2.1,6.7,5c0.6,1.4,0.8,3,0.8,4.5c0.1,4.3,0,8.6,0,13c0,0.3,0,0.6-0.3,1
	c-1.2,0.2-2.5,0.1-3.9,0c-0.7-0.1-1.2-0.5-1.5-1.1c-0.2-0.4-0.4-0.8-0.5-1.1c-0.5-0.1-0.8,0.3-1.2,0.6c-1.3,1-2.7,1.7-4.3,2
	c-2.3,0.3-4.5,0.2-6.5-1.1c-1.4-0.9-2.2-2.3-2.4-4c-0.1-1.1-0.2-2.2,0.3-3.3c0.6-1.4,1.6-2.4,2.9-3.1c1.6-0.9,3.3-1.5,5.1-1.8
	C486.5,144,488.2,144.1,490.1,143.7z M490.1,148.2c-0.1-0.1-0.2-0.2-0.3-0.2c-1.6,0.1-3.3,0.2-4.8,0.8c-0.4,0.2-0.9,0.4-1.2,0.7
	c-0.6,0.6-0.7,1.4-0.5,2.2c0.2,0.8,0.7,1.1,1.4,1.3c2.2,0.4,3.9-0.3,5.3-1.9C490.1,150.1,490.1,149.2,490.1,148.2z M420.5,155.6
	c0.3,0.2,0.6,0.4,1,0.6c2.7,1.4,5.6,2,8.7,1.6c1.5-0.2,3-0.6,4.4-1.5c1.5-0.9,2.5-2.1,3.1-3.8c0.4-1,0.4-2.1,0.4-3.2
	c0-1.4-0.6-2.5-1.5-3.4c-0.8-0.8-1.7-1.4-2.8-1.8c-1.2-0.5-2.5-0.9-3.8-1.3c-0.7-0.3-1.4-0.5-2-0.9c-0.8-0.6-0.9-2.3,0.3-2.8
	c0.3-0.1,0.6-0.2,0.9-0.2c1.3-0.2,2.5,0,3.7,0.6c0.7,0.3,1.3,0.6,2.2,0.7c0.2-0.1,0.6-0.2,0.8-0.4c0.7-0.9,1.4-1.8,1.9-3
	c-0.2-0.2-0.4-0.4-0.6-0.6c-0.8-0.6-1.6-1.1-2.5-1.4c-1.9-0.8-3.8-1-5.8-0.9c-1.8,0.1-3.5,0.5-5,1.4c-3.3,1.9-3.9,5.8-2.9,8.6
	c0.7,1.8,2.1,2.9,3.8,3.6c1.2,0.5,2.5,0.9,3.8,1.3c0.7,0.2,1.4,0.5,2,0.9c0.9,0.6,0.9,2.2-0.1,2.9c-0.4,0.2-0.9,0.4-1.4,0.4
	c-1.3,0.1-2.4-0.1-3.6-0.7c-0.5-0.3-0.9-0.5-1.4-0.7c-1.1-0.5-2.1-0.2-2.8,0.8c-0.5,0.8-1.1,1.5-1.5,2.6
	C420.1,155.2,420.3,155.4,420.5,155.6z M634.5,140.3c0,3.4,0,6.7,0,10.1c0,0.5,0,1,0,1.4c0.4,3.4,2.1,5.4,5.3,5.9
	c2.8,0.4,5.4-0.1,7.7-1.7c0.2-0.5,0.1-0.8-0.2-1.1c-0.8-1-1.2-2.4-2.4-3.1c-0.3,0.1-0.6,0.2-0.9,0.3c-1.6,0.6-2.5,0-2.5-1.7
	c0-0.1,0-0.2,0-0.3c0-3.4,0-6.7,0-10.1c0-0.3-0.1-0.6,0.2-0.9c0.3-0.2,0.6-0.1,0.9-0.1c1.2,0,2.5,0,3.7,0c0.3,0,0.6,0.1,1-0.3
	c0-1.1,0-2.3,0-3.5c0-0.3,0.1-0.7-0.3-0.9c-0.5,0-1.1,0-1.7,0c-0.6,0-1.3,0-1.9,0c-0.6,0-1.2,0.1-1.8-0.1c-0.1-2.2,0.1-4.4-0.1-6.6
	c-1.2,0-2.3,0-3.4,0c-1.1,0-1.4,0.3-1.7,1.3c-0.1,0.3-0.1,0.5-0.2,0.8c-0.4,1.5-0.7,3-1.1,4.5c-1.1,0.7-2.5,0.5-3.7,1
	c0,0.9,0,1.8,0,2.7c0,0.8,0.4,1.2,1.2,1.2c0.6,0,1.3,0,2.1,0C634.5,139.6,634.5,140,634.5,140.3z M308.7,134.1c-2-0.4-4-0.4-6,0
	c-3.1,0.7-5.5,2.3-7.1,5.2c-1.3,2.4-1.7,4.9-1.5,7.6c0.1,2.4,0.9,4.7,2.3,6.7c1.4,2,3.3,3.3,5.7,3.9c2.4,0.6,4.7,0.4,7.1-0.2
	c1.8-0.5,3.3-1.4,4.6-2.7c0.2-0.2,0.5-0.4,0.5-0.9c-0.2-0.2-0.3-0.5-0.6-0.8c-0.5-0.7-1.1-1.3-1.6-1.9c-0.7-0.2-1.2-0.2-1.8,0
	c-0.5,0.3-0.9,0.7-1.4,1c-2.5,1.6-5.7,0.7-6.8-2c-0.3-0.8-0.6-1.6-0.6-2.5c0-1.1,0-2.2,0-3.4c0-0.8,0.2-1.5,0.5-2.2
	c0.9-2.3,3.2-3.4,5.6-2.7c0.7,0.2,1.4,0.5,2,0.9c0.7,0.4,1.3,0.6,2.2,0.4c1-0.8,1.6-2,2.5-3.1C312.7,135.7,310.7,134.5,308.7,134.1z
	 M515.3,151.4c-0.2,0.1-0.3,0.3-0.5,0.4c-2.7,1.8-5.7,0.9-7-2.1c-0.1-0.2-0.2-0.4-0.2-0.6c-0.6-2.4-0.7-4.8,0.2-7.2
	c0.5-1.5,1.9-2.9,4.2-3c1.3-0.1,2.4,0.4,3.5,1.1c0.7,0.4,1.3,0.6,2.1,0.4c1.1-0.9,2-2.1,2.5-3.3c-1.4-1.5-3.1-2.5-5.1-3
	c-2.1-0.5-4.2-0.5-6.3,0c-4.2,1-6.9,3.6-8.1,7.7c-0.6,2.2-0.7,4.5-0.3,6.8c0.3,1.8,1,3.5,2.1,5c1,1.4,2.2,2.4,3.8,3.2
	c2.2,1,4.5,1.2,6.9,0.9c1.8-0.2,3.4-0.8,4.9-1.7c1-0.6,1.7-1.2,2.4-2.3c-0.8-0.9-1.5-1.9-2.3-2.8C516.7,150.6,516,150.8,515.3,151.4
	z M473.4,157.4c0.1,0,0.2-0.1,0.2-0.2c0.2-3.2,0.1-31.9-0.1-33.2c-1.4-0.2-5.6-0.2-6.8,0c0,11.1,0,22.1,0,33.4
	C469.1,157.5,471.2,157.5,473.4,157.4z M285.7,157.3c0.2-0.5,0.1-1,0.1-1.6c0-3.8,0-7.6,0-11.4c0-2.6,2.2-4.4,4.8-4
	c0.5,0.1,1,0.1,1.4,0.1c0.4,0,0.7-0.1,1-0.4c0.3-1.2,0.6-3.7,0.6-5.6c-0.1-0.1-0.3-0.3-0.5-0.3c-1.9-0.7-3.8-0.5-5.4,0.8
	c-0.8,0.7-1.5,1.5-2.2,2.5c-0.1-0.3-0.3-0.6-0.3-0.8c-0.1-0.3-0.1-0.6-0.2-0.9c-0.3-1-0.8-1.4-1.8-1.5c-1.3,0-2.7,0-4,0
	c-0.1,0-0.2,0.1-0.3,0.1c-0.2,1.4-0.2,21.5,0,23.1C281.4,157.6,284.6,157.5,285.7,157.3z M416.8,156.7c0-7.2,0-14.5,0-21.7
	c0-0.3,0-0.5-0.3-0.8c-2.1,0-4.3,0-6.5,0c-0.1,0-0.2,0.1-0.3,0.2c0,7.5,0,15.1,0,22.6c0,0.1,0,0.1,0,0.2c0,0,0.1,0.1,0.1,0.1
	c1.2,0.2,4.9,0.2,6.8,0C416.7,157.1,416.8,156.9,416.8,156.7z M417.5,127.9c0-2.4-1.6-4.1-4.3-4.2c-2.2-0.1-4.2,1.9-4.2,4.2
	c0,2.3,2.1,4.1,4.1,4.1C415.3,132,417.5,130.3,417.5,127.9z M278.2,110.7c-0.2-1.9-0.1-31.1,0-32.4c0.2-0.2,0.5-0.2,0.7-0.2
	c4.2,0,8.3,0,12.5,0c2.4,0,4.6,0.5,6.8,1.4c4.3,1.8,7.3,4.9,8.7,9.4c1.7,5.5,1.1,10.7-2.3,15.5c-1.9,2.7-4.6,4.4-7.7,5.5
	c-1.5,0.5-3.1,0.9-4.7,0.9c-4.5,0-9.1,0-13.6,0C278.6,110.8,278.5,110.7,278.2,110.7z M286,84.2c-0.2,0.2-0.2,0.5-0.2,0.8
	c0,6.4,0,12.8,0,19.2c0,0.3,0,0.5,0.3,0.8c1.4,0,3,0,4.5,0c0.8,0,1.6-0.1,2.4-0.2c3-0.6,5-2.4,6.2-5.2c0.4-1.1,0.6-2.2,0.8-3.4
	c0.4-2.3,0-4.6-0.8-6.7c-1.1-2.8-3.1-4.5-6-5.2C292.1,84,287.1,84,286,84.2z M404.9,102.9c-1.6,1.5-3.5,2-5.6,2
	c-3.9,0.1-6.8-2-8.2-5.5c-0.5-1.1-0.6-2.3-0.8-3.6c-0.3-2.3,0-4.6,0.9-6.7c0.8-2,2.1-3.5,4-4.3c2.6-1.1,5.3-1,7.9,0.3
	c0.5,0.2,0.9,0.5,1.4,0.8c0.6,0.5,1.3,0.6,2.2,0.4c1.3-1.1,2.2-2.7,3.3-4.1c-1.8-1.9-3.9-3-6.3-3.7c-2.2-0.6-4.4-0.8-6.6-0.6
	c-2.5,0.2-4.8,0.9-6.9,2.2c-4.6,2.8-6.9,7-7.5,12.2c-0.3,2.1-0.2,4.3,0.3,6.4c0.6,2.9,1.7,5.5,3.7,7.7c3.2,3.6,7.3,5,12,5
	c1.5,0,3-0.1,4.4-0.5c3-0.8,5.5-2.2,7.4-4.7c-0.1-0.2-0.2-0.3-0.3-0.4c-1-1-2-2.1-3-3.1C406.1,102.3,405.5,102.4,404.9,102.9z
	 M186.5,99.2c0-2.3,0.4-4.3,1.4-6.3c1.1-2.2,2.9-3.7,5.1-4.6c3.4-1.5,6.9-1.5,10.4-0.2c2.8,1,4.8,3,5.9,5.8
	c1.5,3.9,1.5,7.8-0.4,11.6c-1.8,3.5-4.8,5.3-8.7,5.7c-2.1,0.2-4.2,0.1-6.3-0.6c-4-1.4-6.3-4.2-7.1-8.3
	C186.5,101.1,186.5,100.1,186.5,99.2z M193.8,99.2c0,1.1,0,2.4,0.4,3.7c0.3,0.9,0.8,1.8,1.6,2.3c2.4,1.8,5.8,0.7,6.8-2.1
	c0.9-2.6,0.8-5.2,0-7.8c-0.2-0.5-0.4-1-0.7-1.4c-1.1-1.5-3.1-1.7-5.1-1.1c-1.3,0.4-2,1.4-2.4,2.6C193.8,96.5,193.8,97.8,193.8,99.2z
	 M444.5,93.2c0.8-0.4,1.6-0.7,2.6-0.7c1.7,0,2.8,1.1,3,2.7c0,0.5,0,1.1,0,1.6c0,4.3,0,8.5,0,12.8c0,0.4-0.1,0.8,0.2,1.1
	c1.5,0.2,5.4,0.1,6.7,0c0.2-0.2,0.1-0.4,0.1-0.6c0-4.9,0-9.8,0-14.7c0-0.9-0.1-1.8-0.4-2.7c-0.8-2.6-2.4-4.4-5-5.2
	c-2.7-0.8-5.3-0.4-7.6,1.2c-0.5,0.4-1,0.8-1.6,1.1c-0.1-0.4-0.3-0.6-0.4-0.9c-0.2-0.9-0.9-1.3-1.7-1.4c-0.2,0-0.3,0-0.5,0
	c-1.2,0-2.3,0-3.5,0c-0.1,0-0.2,0.1-0.3,0.1c-0.2,0.2-0.1,0.5-0.1,0.7c0,7.2,0,14.4,0,21.6c0,0.3,0,0.5,0.2,0.7
	c1.9,0.1,5.4,0.1,6.8-0.1c0-5.4,0-10.8,0-16.4C443.6,93.8,444,93.5,444.5,93.2z M225.2,92.3c0,1.5,0,3.1,0,4.6c0,1.5,0,3,0,4.5
	c0,1.5,0,3.1,0,4.6c0,1.5-0.1,3.1,0.1,4.6c0.3,0,0.5,0.1,0.7,0.1c1.8,0,3.6,0,5.4,0c0.3,0,0.5,0,0.8-0.4c0-5.3,0-10.7,0-16.1
	c0.6-0.5,1.1-0.9,1.7-1.2c0.8-0.4,1.7-0.6,2.6-0.6c1.2,0.1,2,0.7,2.4,1.8c0.3,0.7,0.3,1.5,0.3,2.2c0,4.4,0,8.7,0,13.1
	c0,0.4-0.1,0.7,0.2,1.1c0.7,0.1,1.4,0,2.1,0.1c0.8,0,1.6,0,2.4,0c0.7,0,1.5,0.2,2.1-0.1c0-0.2,0.1-0.3,0.1-0.4c0-5,0-10,0-15
	c0-0.9-0.2-1.8-0.5-2.7c-1.1-3.7-4.1-5.6-7.9-5.4c-1.9,0.1-3.7,0.7-5.2,1.9c-0.3,0.3-0.7,0.5-1.1,0.8c-0.1-0.3-0.2-0.5-0.3-0.8
	c-0.3-1.1-1-1.6-2.1-1.6c-0.9-0.1-1.7,0-2.6,0c-0.5,0-0.9,0-1.6,0C225.2,89.2,225.2,90.8,225.2,92.3z M483.6,100.5
	c0.3,2.1,0.9,3.9,2.7,4.8c1.3,0.7,2.7,0.8,4.2,0.5c0.9-0.2,1.7-0.5,2.5-1c0.4-0.2,0.8-0.5,1.3-0.6c0.8-0.3,1.5-0.2,2,0.5
	c0.7,0.8,1.3,1.6,2,2.5c-1.1,1.4-2.5,2.3-4,2.9c-1.6,0.7-3.2,1-5,1.1c-1.5,0.1-3,0-4.4-0.4c-4.2-1.1-6.8-3.8-8-7.9
	c-0.7-2.4-0.7-5-0.1-7.4c1.2-4.5,4.8-7.4,8.9-8.1c2.5-0.4,5-0.1,7.3,1c2.1,1,3.6,2.7,4.5,4.8c0.7,1.6,0.8,3.3,0.9,5
	c0,0.5-0.1,1-0.2,1.4c-0.1,0.6-0.5,0.9-1.1,1c-0.4,0-0.9,0-1.3,0c-3.5,0-7,0-10.6,0C484.9,100.5,484.4,100.5,483.6,100.5z
	 M483.7,96.4c1.1,0,2.1,0,3,0c0.9,0,1.8,0,2.7,0c0.9,0,1.9,0.2,2.9-0.2c-0.1-0.7-0.2-1.4-0.5-2c-0.7-1.5-2-2.1-3.5-2.1
	c-1.7,0-3.1,0.5-3.9,2.2C484.1,94.8,483.8,95.4,483.7,96.4z M418,100.7c0,1.4,0.5,2.7,1.5,3.7c0.9,1,2.1,1.4,3.4,1.5
	c1.4,0.1,2.6-0.3,3.9-0.8c0.6-0.3,1.1-0.6,1.7-0.8c1-0.4,1.6-0.3,2.3,0.5c0.7,0.8,1.3,1.6,2,2.4c-1,1.4-2.4,2.3-3.9,2.9
	c-1.6,0.7-3.2,1-5,1.1c-1.6,0.1-3.1,0-4.6-0.4c-4.1-1.1-6.7-3.7-7.8-7.7c-0.8-2.9-0.9-5.9,0.2-8.8c1.5-3.9,4.4-6.2,8.6-7
	c2-0.3,3.9-0.2,5.8,0.4c3.4,1.1,5.4,3.4,6.3,6.8c0.4,1.5,0.4,3.1,0.3,4.6c0,0.9-0.5,1.3-1.4,1.3c-0.5,0-1.1,0-1.6,0
	c-3.4,0-6.8,0-10.2,0C419,100.5,418.5,100.4,418,100.7z M426.7,96.2c-0.2-0.7-0.3-1.2-0.5-1.8c-0.2-0.5-0.5-1.1-0.9-1.5
	c-1.8-1.5-5.3-1.3-6.6,1.2c-0.4,0.7-0.5,1.3-0.5,2.1C419.8,96.4,425.2,96.4,426.7,96.2z M369.1,110.7c-1.4,0.2-2.8,0.1-4.2,0
	c-0.5,0-0.9-0.3-1.1-0.8c-0.2-0.5-0.5-1-0.7-1.4c-0.4-0.1-0.6,0.2-0.9,0.4c-0.7,0.4-1.3,0.9-2,1.3c-2.4,1.3-4.9,1.3-7.4,0.6
	c-2.4-0.7-3.9-2.7-4-5.4c-0.1-2.6,1-4.5,3.2-5.8c1.8-1.1,3.8-1.6,5.9-2c1.4-0.3,2.8-0.3,4.3-0.3c0.3-1.2,0.2-2.3-0.3-3.3
	c-0.4-0.9-1.2-1.4-2.2-1.5c-1.1-0.1-2.1,0-3.1,0.4c-0.4,0.2-0.8,0.3-1.1,0.6c-1,0.6-2,0.8-3.2,0.5c-1.2-0.6-1.6-2-2.4-3.2
	c0.4-0.7,1.1-1,1.7-1.4c2.9-1.8,6.2-2.6,9.6-2.3c4,0.4,6.6,2.7,7.6,6.3c0.3,1,0.4,2.1,0.4,3.2c0,4.5,0,9,0,13.5
	C369.2,110.2,369.2,110.4,369.1,110.7z M362.3,101.5c-1.8-0.2-3.3,0.2-4.8,0.7c-0.4,0.1-0.9,0.4-1.2,0.7c-0.8,0.6-0.8,1.5-0.6,2.3
	c0.1,0.8,0.8,1.1,1.5,1.3c0.2,0.1,0.4,0.1,0.6,0.1c1.9,0.1,3.4-0.6,4.6-2C362.3,103.5,362.3,102.6,362.3,101.5z M322.6,97.2
	c0.2-0.9,0.1-1.6,0-2.3c-0.2-1.4-1.2-2.4-2.7-2.5c-0.9-0.1-1.7,0-2.5,0.3c-0.6,0.2-1.2,0.5-1.7,0.8c-1.3,0.6-1.4,0.7-3.1,0.4
	c-1.1-0.8-1.7-2-2.2-3.2c1.2-1.3,2.7-2.1,4.3-2.7c2.1-0.8,4.3-1.1,6.6-1c2,0.1,3.7,0.8,5.3,2c1.1,0.9,1.8,2,2.3,3.2
	c0.5,1.1,0.8,2.3,0.8,3.6c0,4.8,0,9.6,0,14.4c0,0.1,0,0.2-0.1,0.3c-0.2,0.3-0.5,0.2-0.7,0.2c-1,0-2,0-3,0c-0.8,0-1.3-0.4-1.6-1.1
	c-0.2-0.4-0.3-0.9-0.7-1.2c-0.4,0-0.6,0.3-0.9,0.5c-1.1,0.8-2.2,1.5-3.5,1.8c-2,0.5-4,0.5-6-0.2c-2.4-0.8-3.6-2.6-3.9-5
	c-0.3-2.8,0.9-4.8,3.3-6.2c1.7-1,3.6-1.5,5.6-1.9C319.5,97.3,321,97.3,322.6,97.2z M322.7,101.5c-1.9-0.1-3.6,0.2-5.3,0.9
	c-0.2,0.1-0.5,0.2-0.7,0.4c-0.9,0.7-1,1.4-0.8,2.5c0.2,0.9,1,1.2,1.8,1.3c2,0.2,3.7-0.6,5-2.1C322.8,103.4,322.9,102.5,322.7,101.5z
	 M173.6,111.1c4.5-0.2,8.1-3,9.3-7.6c0.4-1.5,0.6-3.1,0.6-4.7c0-2.7,0-5.3,0-8c0-3.7,0-7.4,0-11c0-0.5,0.1-1.1-0.2-1.5
	c-1.3-0.2-6-0.2-7.4,0c0,0.5-0.1,1-0.1,1.5c0,5.8,0,11.6,0,17.4c0,0.7,0,1.5,0,2.2c-0.1,1.2-0.2,2.4-0.7,3.6c-0.6,1.2-1.5,1.9-2.9,2
	c-0.7,0-1.4,0-2.1,0c-0.4,0-0.9-0.1-1.3,0c-0.7,0-1.3,0.4-1.3,1.1c-0.1,1.5-0.5,2.9-0.3,4.5C169.4,111.2,171.5,111.2,173.6,111.1z
	 M258.8,87.5c0-0.4,0-0.8,0-1.2c0-1.5,0-3.1,0-4.6c0-0.3,0.1-0.6-0.3-1c-1,0-2.1,0-3.2,0c-1.1,0-1.6,0.4-1.8,1.5
	c-0.2,1-0.4,2-0.7,2.9c-0.2,0.8-0.2,1.7-0.7,2.4c-1.2,0.4-2.5,0.3-3.6,0.9c0,0.8-0.1,1.6,0,2.4c0.1,1.1,0.6,1.5,1.8,1.6
	c0.5,0,1.1-0.2,1.6,0.3c0,0.5,0,1,0,1.6c0,3.2,0,6.4,0,9.6c0,0.5,0,1.1,0,1.6c0.2,2.6,1.8,5.1,5.4,5.6c0.9,0.1,1.8,0.1,2.7,0
	c1.6-0.1,3.1-0.6,4.5-1.4c0.3-0.2,0.6-0.3,0.6-0.8c-0.7-1.2-1.4-2.5-2.4-3.5c-1.1-0.2-2,0.8-3.1,0.2c-0.7-0.4-0.7-1.1-0.7-1.8
	c0-3.5,0-6.9,0-10.4c0-0.3,0-0.5,0.3-0.8c1.4,0,3,0,4.5,0c0.3,0,0.6,0.1,0.9-0.3c0-1.4,0-2.8,0-4.4
	C262.6,87.5,260.7,87.8,258.8,87.5z M345.7,105.4c-0.4-0.2-0.8-0.1-1.2,0.1c-0.4,0.2-0.8,0.2-1.2,0.2c-0.5,0-0.9-0.3-1.1-0.8
	c-0.2-0.6-0.3-1.1-0.3-1.7c0-3.3,0-6.5,0-9.8c0-0.3-0.1-0.6,0.3-1c0.8,0,1.7,0,2.6,0c0.9,0,1.8,0,2.7,0c0.3-1.4,0.3-3.4,0-4.6
	c-0.3-0.2-0.7-0.1-1.1-0.1c-1.2,0-2.3,0-3.5,0c-0.3,0-0.6,0-0.9-0.3c-0.2-2.1,0.1-4.3-0.1-6.6c-1.3,0-2.5-0.1-3.7,0
	c-0.7,0.1-1.3,0.5-1.4,1.3c-0.3,1.2-0.6,2.5-0.9,3.7c-0.2,0.6-0.1,1.3-0.6,1.8c-0.9,0.2-1.8,0.3-2.7,0.5c-0.3,0.1-0.6,0.1-0.9,0.5
	c0,0.7,0,1.6,0,2.4c0,0.8,0.4,1.2,1.1,1.3c0.4,0.1,0.7,0,1.1,0.1c0.3,0,0.6-0.1,1,0.3c0,0.4,0,0.9,0,1.5c0,3.3,0,6.6,0,9.9
	c0,0.9,0.1,1.7,0.3,2.5c0.6,2,1.8,3.5,3.9,4.1c1.3,0.4,2.7,0.5,4.1,0.3c1.8-0.2,3.5-0.7,5-1.9C347.7,108.2,346.5,106.3,345.7,105.4z
	 M462.5,94c0,3.2,0,6.4,0,9.6c0,0.6,0,1.2,0,1.8c0.4,3.2,1.9,5,4.8,5.6c2.7,0.6,5.4,0.1,7.8-1.3c0.2-0.1,0.5-0.3,0.5-0.7
	c-0.8-1.2-1.4-2.6-2.4-3.6c-1.1-0.1-2,0.8-3.1,0.2c-0.5-0.5-0.7-1.1-0.7-1.9c0-3.5,0-6.9,0-10.4c0-0.3,0-0.5,0.3-0.8
	c0.8,0,1.7,0,2.6,0c0.9,0,1.8,0.1,2.8-0.1c-0.1-1.6,0.1-3.1-0.1-4.7c-1.6,0-3.2,0-4.7,0c-0.3,0-0.6,0.1-0.9-0.3c0-1.8,0-3.8,0-5.7
	c0-0.3,0.1-0.7-0.4-0.9c-0.3,0-0.6,0-1,0c-0.7,0-1.5,0-2.2,0c-1,0.1-1.4,0.4-1.7,1.4c0,0.2-0.1,0.3-0.1,0.5c-0.3,1.3-0.7,2.7-1,4
	c-0.1,0.4-0.2,0.7-0.5,1c-1.1,0.3-2.3,0.3-3.4,0.8c0.1,1.2-0.1,2.3,0.1,3.3c0.8,1.1,1.9,0.5,3.1,0.8C462.5,93.1,462.5,93.5,462.5,94
	z M508.7,109c0-3.8,0-7.6,0-11.4c0-2.2,1.8-3.9,3.9-4c0.6,0,1.2,0.1,1.8,0.1c0.4,0,0.9,0.1,1.3-0.2c0.1-0.1,0.2-0.3,0.3-0.5
	c0.4-1.7,0.2-3.5,0.6-5.2c-1.7-1.2-3.5-1.1-5.2-0.2c-1,0.5-1.7,1.3-2.4,2.1c-0.2,0.3-0.3,0.6-0.7,0.8c-0.5-0.8-0.2-2.1-1.2-2.8
	c-0.3-0.1-0.8-0.3-1.2-0.3c-1.2,0-2.5,0-3.7,0c-0.1,0-0.3,0.1-0.4,0.2c-0.3,0.4-0.2,0.7-0.2,1.1c-0.1,11.7-0.1,20.6,0.1,21.9
	c1.2,0.2,4.5,0.2,6.9,0.1C508.7,110.1,508.7,109.6,508.7,109z M220.6,87.7c-0.2-0.1-0.4-0.2-0.6-0.2c-2.1,0-4.1-0.1-6.1,0
	c-0.1,0.1-0.2,0.2-0.2,0.2c0,0.3-0.1,0.6-0.1,1c0,7.3,0,14.5,0,21.8c0,0,0,0.1,0.1,0.1c0,0,0.1,0.1,0.1,0.1c1.5,0.1,5.4,0.1,6.8,0
	C220.6,102.9,220.6,95.3,220.6,87.7z M217,85.3c2.3,0.1,4.4-1.9,4.4-4.1c0-2.3-1.9-4-4.2-4.1c-2-0.1-4.3,1.7-4.1,4.1
	C212.8,83.3,214.6,85.2,217,85.3z"/>
</svg>
