<svg enable-background="new 0 0 146.3 75.6" viewBox="0 0 146.3 75.6" xmlns="http://www.w3.org/2000/svg"><path d="m53.5 37.8 10.8-12.4c.3-.3 0-.8-.4-.8h-2.5c-1.2 0-2.3.5-3.1 1.4l-9 10.6v-11.3c0-.4-.3-.6-.6-.6h-3c-.4 0-.6.3-.6.6v25.1c0 .4.3.6.6.6h3c.4 0 .6-.3.6-.6v-11.2l9 10.4c.8.9 1.9 1.4 3.1 1.4h2.6c.4 0 .6-.5.4-.8z" fill="#ffffff"/><path d="m100.9 37.4c1.4-.5 2.5-1.2 3.3-2.2s1.2-2.3 1.2-3.8c0-1.3-.3-2.4-1-3.4s-1.6-1.8-2.9-2.4-2.8-.9-4.6-.9h-9.4c-.4 0-.6.3-.6.6v25.1c0 .4.3.6.6.6h9.9c1.7 0 3.3-.3 4.6-.9s2.3-1.5 3-2.5c.7-1.1 1-2.3 1-3.6 0-1.6-.5-3-1.5-4.2-1-1.4-2.2-2.2-3.6-2.4zm-9.8-9.3h5.3c1.4 0 2.5.3 3.3 1s1.2 1.6 1.2 2.8-.4 2.1-1.2 2.8c-.8.6-1.9 1-3.3 1h-5.3zm9.3 18.2c-.8.7-2 1.1-3.5 1.1h-5.8v-8.2h5.7c1.5 0 2.6.4 3.5 1.1.9.8 1.3 1.8 1.3 3.1 0 1.2-.4 2.2-1.2 2.9z" fill="#ffffff"/><path d="m31.4 42.8v2.8c0 1.6-1.3 2.8-2.8 2.8h-6.1c-1.6 0-2.8-1.3-2.8-2.8v-15.6c0-1.6 1.3-2.8 2.8-2.8h6.1c1.6 0 2.8 1.3 2.8 2.8v.4c.5-.2 1.1-.3 1.7-.3.7 0 1.4.1 2 .4v-.5c0-3.6-2.9-6.5-6.5-6.5h-6.1c-3.6 0-6.5 2.9-6.5 6.5v15.6c0 3.6 2.9 6.5 6.5 6.5h6.1c3.6 0 6.5-2.9 6.5-6.5v-7.1z" fill="#37a5fb"/><path d="m28.4 41.9 6.6-7.6c.2-.2.2-.6-.1-.8-1.2-1-2.9-.9-3.9.3l-4.1 4.7c-.1.1-.3.1-.3 0l-1.5-1.9c-.3-.4-.8-.4-1.2 0-1 1-1 2.6-.1 3.7l1.2 1.5c.9 1.2 2.5 1.2 3.4.1z" fill="#37a5fb"/><g fill="#ffffff"><path d="m73.5 32.1c4.2 0 7.6 3.4 7.6 7.6s-3.4 7.6-7.6 7.6-7.6-3.4-7.6-7.6 3.4-7.6 7.6-7.6m0-4c-6.4 0-11.6 5.2-11.6 11.6s5.2 11.6 11.6 11.6 11.6-5.2 11.6-11.6-5.2-11.6-11.6-11.6z"/><path d="m118.7 32.1c4.2 0 7.6 3.4 7.6 7.6s-3.4 7.6-7.6 7.6-7.6-3.4-7.6-7.6 3.4-7.6 7.6-7.6m0-4c-6.4 0-11.6 5.2-11.6 11.6s5.2 11.6 11.6 11.6 11.6-5.2 11.6-11.6-5.2-11.6-11.6-11.6z"/></g></svg>