<?xml version="1.0" encoding="utf-8"?>
<!-- Generator: Adobe Illustrator 22.0.0, SVG Export Plug-In . SVG Version: 6.00 Build 0)  -->
<svg version="1.1" id="Layer_1" xmlns="http://www.w3.org/2000/svg" xmlns:xlink="http://www.w3.org/1999/xlink" x="0px" y="0px"
	 viewBox="0 0 251.6 75.6" style="enable-background:new 0 0 251.6 75.6;" xml:space="preserve">
<style type="text/css">
	.st0{fill:#FFFFFF;}
</style>
<g id="Layer_1_1_">
</g>
<g id="Layer_2_1_">
</g>
<g id="Layer_3">
</g>
<g id="Layer_4">
	<g>
		<g>
			<path class="st0" d="M84.6,37.8l22.6-26c0.6-0.6,0-1.7-0.8-1.7h-5.2c-2.5,0-4.8,1-6.5,2.9L75.8,35.3V11.6c0-0.8-0.6-1.3-1.3-1.3
				h-6.3c-0.8,0-1.3,0.6-1.3,1.3v52.6c0,0.8,0.6,1.3,1.3,1.3h6.3c0.8,0,1.3-0.6,1.3-1.3V40.7l18.9,21.8c1.7,1.9,4,2.9,6.5,2.9h5.5
				c0.8,0,1.3-1,0.8-1.7L84.6,37.8z"/>
		</g>
		<g>
			<path class="st0" d="M184,37c2.9-1,5.2-2.5,6.9-4.6c1.7-2.1,2.5-4.8,2.5-8c0-2.7-0.6-5-2.1-7.1s-3.4-3.8-6.1-5
				c-2.7-1.3-5.9-1.9-9.6-1.9h-19.7c-0.8,0-1.3,0.6-1.3,1.3v52.6c0,0.8,0.6,1.3,1.3,1.3h20.8c3.6,0,6.9-0.6,9.6-1.9
				c2.7-1.3,4.8-3.1,6.3-5.2c1.5-2.3,2.1-4.8,2.1-7.5c0-3.4-1-6.3-3.1-8.8C189.5,39.1,186.9,37.4,184,37z M163.5,17.5h11.1
				c2.9,0,5.2,0.6,6.9,2.1c1.7,1.5,2.5,3.4,2.5,5.9s-0.8,4.4-2.5,5.9c-1.7,1.3-4,2.1-6.9,2.1h-11.1V17.5z M183,55.6
				c-1.7,1.5-4.2,2.3-7.3,2.3h-12.2V40.7h12c3.1,0,5.5,0.8,7.3,2.3c1.9,1.7,2.7,3.8,2.7,6.5C185.5,52.1,184.6,54.2,183,55.6z"/>
		</g>
		<path class="st0" d="M38.3,48.3v5.9c0,3.4-2.7,5.9-5.9,5.9H19.6c-3.4,0-5.9-2.7-5.9-5.9V21.4c0-3.4,2.7-5.9,5.9-5.9h12.8
			c3.4,0,5.9,2.7,5.9,5.9v0.8c1-0.4,2.3-0.6,3.6-0.6c1.5,0,2.9,0.2,4.2,0.8v-1c0-7.5-6.1-13.6-13.6-13.6H19.6C12,7.8,6,13.9,6,21.4
			v32.7c0,7.5,6.1,13.6,13.6,13.6h12.8c7.5,0,13.6-6.1,13.6-13.6V39.3L38.3,48.3z"/>
		<path class="st0" d="M32,46.4l13.8-15.9c0.4-0.4,0.4-1.3-0.2-1.7l0,0c-2.5-2.1-6.1-1.9-8.2,0.6l-8.6,9.9c-0.2,0.2-0.6,0.2-0.6,0
			l-3.1-4c-0.6-0.8-1.7-0.8-2.5,0l0,0c-2.1,2.1-2.1,5.5-0.2,7.8l2.5,3.1C26.7,48.7,30.1,48.7,32,46.4z"/>
		<g>
			<path class="st0" d="M126.6,25.8c8.8,0,15.9,7.1,15.9,15.9s-7.1,15.9-15.9,15.9s-15.9-7.1-15.9-15.9S117.7,25.8,126.6,25.8
				 M126.6,17.5c-13.4,0-24.3,10.9-24.3,24.3s10.9,24.3,24.3,24.3s24.3-10.9,24.3-24.3C150.9,28.4,140,17.5,126.6,17.5L126.6,17.5z"
				/>
		</g>
		<g>
			<path class="st0" d="M221.3,25.8c8.8,0,15.9,7.1,15.9,15.9s-7.1,15.9-15.9,15.9c-8.8,0-15.9-7.1-15.9-15.9S212.5,25.8,221.3,25.8
				 M221.3,17.5c-13.4,0-24.3,10.9-24.3,24.3s10.9,24.3,24.3,24.3s24.3-10.9,24.3-24.3C245.7,28.4,234.8,17.5,221.3,17.5L221.3,17.5
				z"/>
		</g>
	</g>
</g>
</svg>
