<svg enable-background="new 0 0 146.3 40.6" viewBox="0 0 146.3 40.6" xmlns="http://www.w3.org/2000/svg"><path d="m49 20.3 13.3-15.2c.4-.4 0-1-.5-1h-3.1c-1.5 0-2.8.6-3.8 1.7l-11 13v-13.8c0-.5-.4-.7-.7-.7h-3.7c-.5 0-.7.4-.7.7v30.8c0 .5.4.7.7.7h3.7c.5 0 .7-.4.7-.7v-13.8l11 12.8c1 1.1 2.3 1.7 3.8 1.7h3.2c.5 0 .7-.6.5-1z" fill="#fff"/><path d="m107.2 19.8c1.7-.6 3.1-1.5 4-2.7 1-1.2 1.5-2.8 1.5-4.7 0-1.6-.4-2.9-1.2-4.2s-2-2.2-3.6-2.9-3.4-1.1-5.6-1.1h-11.5c-.5 0-.8.4-.8.8v30.8c0 .5.4.7.7.7h12.1c2.1 0 4-.4 5.6-1.1s2.8-1.8 3.7-3.1 1.2-2.8 1.2-4.4c0-2-.6-3.7-1.8-5.2-1.1-1.7-2.6-2.6-4.3-2.9zm-12-11.4h6.5c1.7 0 3.1.4 4 1.2 1 .9 1.5 2 1.5 3.4 0 1.5-.5 2.6-1.5 3.4-1 .7-2.3 1.2-4 1.2h-6.5zm11.4 22.3c-1 .9-2.5 1.3-4.3 1.3h-7.1v-10h7c1.8 0 3.2.5 4.3 1.3 1.1 1 1.6 2.2 1.6 3.8-.1 1.5-.5 2.8-1.5 3.6z" fill="#fff"/><path d="m21.9 26.4v3.4c0 2-1.6 3.4-3.4 3.4h-7.5c-2 0-3.4-1.6-3.4-3.4v-19.1c0-2 1.6-3.4 3.4-3.4h7.5c2 0 3.4 1.6 3.4 3.4v.5c.6-.2 1.3-.4 2.1-.4.9 0 1.7.1 2.5.5v-.6c0-4.4-3.6-8-8-8h-7.5c-4.4 0-8 3.6-8 8v19.1c0 4.4 3.6 8 8 8h7.5c4.4 0 8-3.6 8-8v-8.7z" fill="#37a5fb"/><path d="m18.3 25.3 8.1-9.3c.2-.2.2-.7-.1-1-1.5-1.2-3.6-1.1-4.8.4l-5 5.8c-.1.1-.4.1-.4 0l-1.8-2.3c-.4-.5-1-.5-1.5 0-1.2 1.2-1.2 3.2-.1 4.5l1.5 1.8c1 1.5 3 1.5 4.1.1z" fill="#37a5fb"/><g fill="#fff"><path d="m73.6 13.3c5.2 0 9.3 4.2 9.3 9.3s-4.2 9.4-9.3 9.4-9.3-4.2-9.3-9.3 4.1-9.4 9.3-9.4m0-4.9c-7.9 0-14.2 6.4-14.2 14.2s6.4 14.2 14.2 14.2 14.2-6.4 14.2-14.2-6.4-14.2-14.2-14.2z"/><path d="m129 13.3c5.2 0 9.3 4.2 9.3 9.3s-4.1 9.4-9.3 9.4-9.3-4.2-9.3-9.3 4.2-9.4 9.3-9.4m0-4.9c-7.9 0-14.2 6.4-14.2 14.2s6.4 14.2 14.2 14.2 14.2-6.4 14.2-14.2-6.3-14.2-14.2-14.2z"/></g></svg>