<svg enable-background="new 0 0 520 520" viewBox="0 0 520 520" xmlns="http://www.w3.org/2000/svg"><g fill="#fff"><path d="m441.4 4.5c0 10.7-.1 21.3.1 32 .1 3.1-.9 4-4 3.9-8.8-.2-17.7-.2-26.5 0-3.4.1-4.6-.8-4.5-4.4.2-10.5 0-21-.1-31.5z"/><path d="m515.4 4.5c0 10.6 0 21.2.2 31.9.1 2.9-.7 4.1-3.8 4-9.3-.2-18.6-.1-27.9-.1-2.2 0-3.9 0-3.9-3 .2-10.9.3-21.9.4-32.8z"/><path d="m4.4 261.5c10.3 0 20.7.1 31-.1 3.1-.1 4 .9 3.9 4-.2 8.8-.2 17.7 0 26.5.1 3.4-.8 4.6-4.4 4.5-10.2-.2-20.3 0-30.5.1 0-11.7 0-23.4 0-35z"/><path d="m4.4 334.5c10.3 0 20.6.1 30.9-.1 2.9 0 4.1.7 4 3.9-.2 9.1-.2 18.3 0 27.4.1 3.2-1.1 3.9-4 3.9-10.3-.1-20.6-.1-30.9-.1 0-11.7 0-23.4 0-35z"/><path d="m4.4 224.5c10.1.1 20.2.2 30.4.1 3.4 0 4.7.7 4.6 4.4-.3 8.8-.2 17.6 0 26.4.1 3-.5 4.4-4 4.4-10.3-.3-20.6-.2-30.9-.2-.1-11.8-.1-23.5-.1-35.1z"/><path d="m4.4 151.5c10.2.1 20.3.3 30.5.1 3.6-.1 4.5 1.1 4.4 4.5-.2 8.8-.2 17.7 0 26.5.1 3.1-.8 4-3.9 4-10.3-.2-20.7-.1-31-.1 0-11.7 0-23.4 0-35z"/><path d="m4.4 444.5c10.5 0 20.9 0 31.4-.2 3-.1 3.5 1.2 3.5 3.8-.1 9.1-.2 18.3 0 27.4.1 3.2-1.1 3.9-4 3.8-10.3-.1-20.6.1-30.8.1-.1-11.6-.1-23.3-.1-34.9z"/><path d="m4.4 407.5c10.2.1 20.3.3 30.5.1 3.6-.1 4.5 1.1 4.4 4.5-.2 8.8-.2 17.7 0 26.5.1 3.1-.8 4-3.9 3.9-10.3-.2-20.7-.1-31-.1 0-11.6 0-23.3 0-34.9z"/><path d="m4.4 78.5c10.3 0 20.7.1 31-.1 3.1-.1 4 .9 3.9 4-.2 8.8-.2 17.7 0 26.5.1 3.4-.8 4.6-4.4 4.5-10.2-.2-20.3 0-30.5.1 0-11.7 0-23.4 0-35z"/><path d="m477.4 4.5c.1 10.9.3 21.9.2 32.8 0 1-2 2.8-3.2 2.9-9.3.2-18.6 0-27.9.2-2.7 0-3.4-1-3.3-3.5.1-10.8.1-21.6.2-32.4z"/><path d="m406.4 515.5c.1-10 .3-20 .1-29.9-.1-3.6 1.1-4.5 4.6-4.5 8.8.2 17.6.2 26.5 0 3-.1 4 .9 4 3.9-.2 10.1-.1 20.3-.1 30.4-11.7.1-23.4.1-35.1.1z"/><path d="m333.4 515.5c0-10.2.1-20.3-.1-30.5-.1-3 .6-4.1 3.8-4 9.2.2 18.3.2 27.5 0 3.2-.1 3.9 1 3.8 4-.2 10.2-.1 20.3-.1 30.5-11.5 0-23.2 0-34.9 0z"/><path d="m4.4 371.5c10.5-.1 20.9 0 31.4-.2 2.5 0 3.5.7 3.5 3.3-.1 9.3 0 18.6-.2 27.9 0 1.1-1.8 3.2-2.8 3.2-10.6.1-21.2-.1-31.8-.3-.1-11.3-.1-22.6-.1-33.9z"/><path d="m223.4 515.5c.1-10 .3-19.9.1-29.9 0-3.4.8-4.7 4.4-4.6 8.8.2 17.6.2 26.4 0 3.1-.1 4.4.6 4.3 4-.3 10.1-.2 20.3-.2 30.4-11.6.1-23.3.1-35 .1z"/><path d="m77.4 515.5c0-10.2.1-20.3-.1-30.5-.1-3.1.9-4 3.9-3.9 8.8.2 17.7.2 26.5 0 3.4-.1 4.6.9 4.6 4.5-.2 10 0 20 .1 30-11.6-.1-23.3-.1-35-.1z"/><path d="m4.4 298.5c10.6-.1 21.2-.3 31.8-.3 1 0 2.8 1.7 2.8 2.7.2 9.6.2 19.3 0 28.9 0 1-2.1 2.7-3.3 2.7-10.5.2-20.9 0-31.4 0 .1-11.4.1-22.7.1-34z"/><path d="m4.4 481.5c10.6-.1 21.3-.1 31.9-.3 3-.1 3 1.8 3 3.9 0 10.1.1 20.3.1 30.4-10.8 0-21.7-.1-32.5.1-2.2 0-2.6-.4-2.6-2.6.2-10.5.1-21 .1-31.5z"/><path d="m4.4 188.5c10.3 0 20.6 0 30.9-.2 2.9-.1 4.1.7 4 3.8-.2 9-.1 17.9-.1 26.9 0 2.2 0 3.9-3 3.9-10.6-.2-21.2-.3-31.8-.4 0-11.4 0-22.7 0-34z"/><path d="m4.4 115.5c10.3 0 20.6 0 30.9-.2 2.9-.1 4.1.7 4 3.8-.2 9-.1 17.9-.1 26.9 0 2.2 0 3.9-3 3.9-10.6-.2-21.2-.3-31.8-.4 0-11.4 0-22.7 0-34z"/><path d="m41.4 515.5c-.1-10.6-.3-21.3-.3-31.9 0-.8 1.7-2.4 2.7-2.4 9.7-.2 19.3-.2 29 0 1 0 2.6 2.1 2.7 3.3.2 10.3 0 20.6 0 31-11.4 0-22.7 0-34.1 0z"/><path d="m370.4 515.5c0-10.2 0-20.3-.2-30.5-.1-3.1 1.1-4 4-3.9 8.8.2 17.6.1 26.5.1 2 0 4.1-.2 4 2.9-.2 10.5-.2 21-.3 31.4-11.3 0-22.6 0-34 0z"/><path d="m187.4 515.5c0-10.3 0-20.6-.2-31 0-2.5.6-3.5 3.3-3.5 9.3.1 18.6 0 28 .2 1.1 0 3.1 1.8 3.1 2.8.1 10.5-.1 20.9-.2 31.4-11.3.1-22.6.1-34 .1z"/><path d="m167.4 515.5c-2.2-10-4.2-20.1-6.5-30.1-.8-3.4-.1-4.5 3.4-4.3 5.8.2 11.6.2 17.4 0 3.2-.1 3.8 1.2 3.8 4.1-.1 10.1-.1 20.2-.1 30.4-6-.1-12-.1-18-.1z"/><path d="m260.4 515.5c0-10 .1-20-.1-29.9-.1-3.3.6-4.7 4.3-4.5 5.8.3 11.6.2 17.5 0 3.1-.1 3.6.9 2.9 3.8-2.3 10.2-4.4 20.4-6.6 30.6-6 0-12 0-18 0z"/><path d="m314.4 515.5c0-10.3 0-20.6-.2-30.9-.1-2.9 1-3.5 3.7-3.6 13.6-.3 13.6-.4 13.6 13.1 0 7.1-.1 14.3-.1 21.4-5.6 0-11.3 0-17 0z"/><path d="m114.4 515.5c-.1-10.4-.3-20.9-.2-31.3 0-1 2-2.8 3.2-2.9 3.6-.4 7.3 0 10.9-.2 2.8-.1 3.3 1.1 3.3 3.6-.1 10.3-.1 20.6-.2 30.8-5.6 0-11.3 0-17 0z"/><path d="m260.4 278.6c0-4.7.1-9.3 0-14-.1-2.3.6-3.2 3.1-3.2 9.5.1 19 0 28.5.2 1.1 0 3.2 1.8 3.2 2.8.2 9.7.2 19.3 0 29 0 1-1.8 2.8-2.7 2.8-9.7.2-19.3.1-29 .2-2.5 0-3.1-1-3-3.3 0-4.9-.1-9.7-.1-14.5z"/><path d="m424 334.5c4.7 0 9.3.1 14 0 2.4-.1 3.6.3 3.5 3.2-.2 9.6-.1 19.3 0 28.9 0 2.5-.9 3.1-3.2 3-9.5-.1-18.9-.1-28.4 0-2.7 0-3.4-.8-3.4-3.4.1-9.5.1-18.9 0-28.4 0-2.8 1-3.3 3.5-3.3 4.7.1 9.4 0 14 0z"/><path d="m368.4 351.8c0 4.7-.1 9.3.1 14 .1 2.7-.6 3.8-3.5 3.8-9.3-.2-18.6-.2-27.9 0-2.9 0-3.7-.9-3.6-3.7.2-9.3.1-18.6 0-27.9 0-2.5.5-3.6 3.3-3.5 9.5.1 19 .1 28.4 0 2.6 0 3.5.8 3.4 3.4-.3 4.6-.2 9.2-.2 13.9z"/><path d="m277.8 369.5c-4.8 0-9.7.2-14.5-.1-1-.1-2.7-1.7-2.8-2.7-.2-9.8-.2-19.6 0-29.4 0-.9 1.8-2.6 2.9-2.6 9.6-.2 19.3-.2 28.9 0 1 0 2.8 2.1 2.8 3.2.2 9.5 0 19 .2 28.4 0 2.8-1.2 3.3-3.6 3.3-4.6-.2-9.3-.1-13.9-.1z"/><path d="m150.6 351.9c0-4.5.1-9-.1-13.5-.1-2.8.4-4.2 3.7-4.1 9.3.2 18.6.1 27.9 0 2.2 0 3.3.3 3.3 2.9-.1 9.8 0 19.6-.2 29.4 0 .9-1.8 2.6-2.7 2.6-9.6.2-19.3.1-28.9.2-2.4 0-3.2-.8-3.1-3.2.2-4.7.1-9.5.1-14.3z"/><path d="m350.9 261.5c4.7 0 9.3.1 14 0 2.4-.1 3.6.3 3.6 3.2-.2 9.5-.2 19 0 28.5 0 2.8-1.2 3.3-3.6 3.3-9.3-.1-18.6-.1-28 0-3 .1-3.6-1.1-3.6-3.8.1-9.2.1-18.3 0-27.5 0-2.8.6-3.9 3.6-3.7 4.7.1 9.4 0 14 0z"/><path d="m94.8 296.3c-4.8 0-9.7.2-14.5-.1-1-.1-2.7-1.7-2.8-2.7-.2-9.8-.2-19.7 0-29.5 0-.9 1.6-2.4 2.5-2.4 9.8-.2 19.7-.2 29.5 0 .9 0 2.6 1.8 2.6 2.8.2 9.7.2 19.3 0 29 0 1-1.8 2.7-2.8 2.7-4.8.3-9.7.2-14.5.2z"/><path d="m441.4 278.8c0 4.7-.1 9.3 0 14 .1 2.4-.4 3.6-3.2 3.6-9.5-.2-19 0-28.5-.2-1.1 0-3-1.9-3-3-.2-9.5-.1-19-.2-28.5 0-2.3.6-3.2 3.1-3.2 9.7.1 19.3 0 29 .2.9 0 2.6 1.7 2.7 2.7.3 4.7.1 9.5.1 14.4z"/><path d="m406.6 241.7c0-4.5.1-9 0-13.5-.1-2.4.4-3.7 3.3-3.6 9.5.1 18.9.1 28.4 0 2.8 0 3.3 1.2 3.2 3.6-.1 9.3-.1 18.6 0 27.9.1 2.9-.9 3.6-3.7 3.6-9.1-.1-18.3-.2-27.4 0-3.2.1-4-1.1-3.8-4.1.2-4.6 0-9.3 0-13.9z"/><path d="m351.4 224.6c4.7 0 9.3-.2 13.9.1 1.1.1 3 1.9 3 3 .2 9.6.1 19.3.2 28.9 0 2.6-1.1 3-3.3 3-9.5-.1-18.9-.1-28.4 0-2.6 0-3.4-.7-3.4-3.4.1-9.5.1-18.9 0-28.4 0-2.8 1.1-3.3 3.5-3.3 4.8.2 9.7.1 14.5.1z"/><path d="m295.3 242.1c0 4.7-.1 9.3 0 14 .1 2.4-.5 3.6-3.3 3.6-9.5-.1-18.9-.2-28.4 0-2.8 0-3.2-1.1-3.2-3.5.1-9.3.1-18.6 0-27.9-.1-2.9.9-3.7 3.7-3.6 9.1.1 18.3.2 27.4 0 3.2-.1 3.9 1.2 3.8 4.1-.2 4.3 0 8.8 0 13.3z"/><path d="m168.1 259.6c-4.7 0-9.3-.1-14 0-2.4.1-3.6-.5-3.6-3.3.1-9.5.1-18.9 0-28.4 0-2.7 1.1-3.4 3.5-3.3 9.3.1 18.6.1 27.9 0 2.5 0 3.5.7 3.5 3.3-.1 9.5-.1 18.9 0 28.4 0 2.7-1 3.4-3.5 3.3-4.5-.1-9.2 0-13.8 0z"/><path d="m94.9 224.7c4.7 0 9.3.1 14 0 2.6-.1 3.5.7 3.5 3.4-.1 9.5 0 19-.2 28.4 0 1.1-1.9 3-2.9 3-9.6.2-19.3.2-28.9 0-1 0-2.7-1.7-2.7-2.7-.2-9.8-.2-19.6 0-29.4 0-.9 1.8-2.5 2.8-2.6 4.7-.3 9.5-.1 14.4-.1z"/><path d="m77.4 351.6c0-4.5.1-9 0-13.5-.1-2.6.3-3.9 3.4-3.8 9.3.2 18.6.2 27.9 0 2.9-.1 3.6.9 3.6 3.7-.2 9.3-.1 18.6 0 27.9 0 2.5-.5 3.6-3.3 3.5-9.5-.2-18.9-.2-28.4 0-2.8 0-3.3-1-3.2-3.5.1-4.6 0-9.5 0-14.3z"/><path d="m350.6 442.5c-4.7 0-9.3-.2-14 .1-2.7.1-3.3-.9-3.3-3.4.1-9.3.2-18.6 0-27.9-.1-2.9.9-3.7 3.7-3.6 9.3.2 18.6.2 27.9 0 3-.1 3.6 1.1 3.5 3.8-.1 9.3-.2 18.6 0 27.9 0 2.7-.9 3.4-3.4 3.3-4.7-.3-9.6-.2-14.4-.2z"/><path d="m258.6 425c0 4.7-.1 9.3 0 14 .1 2.5-.7 3.5-3.4 3.5-9.5-.1-19 0-28.5-.2-1.1 0-3-1.9-3-3-.2-9.5-.1-19-.2-28.5 0-2.8 1.2-3.3 3.6-3.3 9.3.1 18.7.1 28 0 2.6 0 3.5.9 3.4 3.5 0 4.7.1 9.4.1 14z"/><path d="m441.4 425.3c0 3.8-.4 7.7.1 11.5.7 5.1-1.4 6-6 5.8-8.5-.4-17-.2-25.5-.1-2.6 0-3.5-.7-3.4-3.4.1-9.3.2-18.7 0-28-.1-3 1.1-3.6 3.8-3.6 9.2.1 18.3.2 27.5 0 2.9-.1 3.7.9 3.6 3.7-.2 4.8-.1 9.4-.1 14.1z"/><path d="m94.7 186.5c-4.7 0-9.3-.1-14 .1-2.7.1-3.4-.9-3.3-3.4.1-9.3.1-18.7 0-28 0-2.5.5-3.6 3.3-3.5 9.3.1 18.7.2 28 0 2.9 0 3.7 1 3.7 3.8-.1 9.2-.1 18.3 0 27.5 0 2.8-.7 3.8-3.6 3.7-4.8-.4-9.4-.2-14.1-.2z"/><path d="m77.4 425.1c0-4.7.1-9.3 0-14-.1-2.5.6-3.6 3.3-3.6 9.5.1 19-.1 28.4.2 1.1 0 3 2 3 3.1.2 9.5.2 19 0 28.4 0 1.1-1.9 3-3 3.1-9.6.2-19.3.2-28.9 0-1 0-2.6-1.8-2.7-2.8-.2-4.8-.1-9.6-.1-14.4z"/><path d="m150.6 169.1c0-4.7.1-9.3 0-14-.1-2.5.7-3.6 3.4-3.5 9.5.1 19 .1 28.5 0 2.5 0 3.1 1 3.1 3.2-.1 9.5-.1 19 0 28.5 0 2.3-.6 3.2-3 3.2-9.7-.1-19.3 0-29-.2-1 0-2.7-1.7-2.7-2.8-.4-4.7-.3-9.6-.3-14.4z"/><path d="m77.4 461.6c0-4.7.1-9.3-.1-14-.1-2.7.8-3.4 3.4-3.3 9.3.1 18.6.1 27.9 0 2.4 0 3.7.3 3.6 3.2-.2 9.5-.1 19 0 28.4 0 2.7-.9 3.4-3.5 3.4-9.3-.1-18.6-.2-27.9 0-3 .1-3.6-1.1-3.5-3.8.3-4.6.1-9.3.1-13.9z"/><path d="m277.8 151.6c4.7 0 9.3.1 14 0 2.5-.1 3.6.6 3.5 3.4-.1 9.5-.1 19 0 28.5 0 2.5-.9 3.1-3.2 3.1-9.5-.1-19-.1-28.5 0-2.3 0-3.2-.5-3.2-3 .1-9.5.1-19 0-28.5 0-2.6.8-3.5 3.4-3.4 4.7.1 9.3-.1 14-.1z"/><path d="m241.3 479.3c-4.8 0-9.7.2-14.5-.1-1.1-.1-3-1.9-3.1-3-.2-9.6-.2-19.3 0-28.9 0-1 1.8-2.8 2.7-2.8 9.8-.2 19.6-.2 29.4 0 .9 0 2.5 1.9 2.6 2.9.2 9.5 0 19 .2 28.4.1 3.1-1.3 3.6-3.9 3.5-4.4-.1-8.9 0-13.4 0z"/><path d="m350.9 186.5c-4.7 0-9.3-.1-14 0-2.4.1-3.6-.3-3.6-3.2.2-9.5.2-19 0-28.5 0-2.8 1.2-3.3 3.6-3.2 9.3.1 18.7.1 28 0 3-.1 3.6 1.1 3.5 3.8-.1 9.2-.2 18.3 0 27.5 0 2.8-.7 3.8-3.6 3.7-4.5-.3-9.2-.1-13.9-.1z"/><path d="m350.9 444.3c4.8 0 9.7.1 14.5 0 2.4-.1 3.1.8 3.1 3.1-.1 9.5-.1 19 0 28.4 0 2.5-.6 3.5-3.3 3.5-9.5-.1-19-.1-28.4 0-2.7 0-3.4-.9-3.3-3.5.1-9.5.1-19 0-28.4 0-2.4.6-3.2 3.1-3.1 4.7.1 9.5 0 14.3 0z"/><path d="m515.6 96.3c0 4.5-.1 9 0 13.5.1 2.4-.5 3.6-3.3 3.6-9.6-.1-19.3-.1-28.9 0-2.7 0-3.4-1.1-3.4-3.5.1-9.3.1-18.6 0-27.9 0-2.5.7-3.5 3.4-3.5 9.6.1 19.3.1 28.9 0 2.7 0 3.4.9 3.3 3.5-.1 4.7 0 9.5 0 14.3z"/><path d="m406.6 169c0-4.5.1-9 0-13.5-.1-2.6.4-3.9 3.5-3.9 9.3.2 18.7.1 28 0 2.6 0 3.4.8 3.4 3.4-.1 9.5-.1 19 0 28.5 0 2.5-.9 3-3.2 3-9.5-.1-19-.1-28.5 0-2.8 0-3.3-1.1-3.2-3.6.1-4.6 0-9.3 0-13.9z"/><path d="m406.6 95.9c0-4.7.1-9.3 0-14-.1-2.5.6-3.6 3.3-3.5 9.5.1 19 .1 28.5 0 2.4 0 3.2.7 3.1 3.1-.1 9.5-.1 19 0 28.5 0 2.7-1 3.4-3.5 3.3-9.3-.1-18.7-.1-28 0-2.6 0-3.5-.8-3.5-3.4.2-4.7.1-9.3.1-14z"/><path d="m350.9 78.5c4.7 0 9.3.1 14 0 2.4-.1 3.6.3 3.6 3.2-.2 9.5-.2 19 0 28.5 0 2.8-1.2 3.3-3.6 3.3-9.3-.1-18.7-.1-28 0-3 .1-3.6-1.1-3.6-3.8.1-9.2.1-18.3 0-27.5 0-2.8.6-3.8 3.6-3.7 4.7.1 9.4 0 14 0z"/><path d="m424.4 444.3c4.5 0 9 .1 13.5 0 2.4-.1 3.6.5 3.6 3.3-.1 9.5-.1 19 0 28.5 0 2.8-1.1 3.3-3.6 3.3-9.3-.1-18.7-.1-28 0-2.7 0-3.4-1-3.4-3.5.1-9.3.1-18.7 0-28-.1-3.1 1.3-3.6 3.9-3.5 4.7 0 9.4-.1 14-.1z"/><path d="m77.2 95.6c.3-5.6.6-11.2.8-16.8 5.5-.1 10.9-.3 16.4-.4 5-.1 10-.2 15 .1 1 .1 2.7 1.7 2.8 2.7.2 9.7.2 19.3 0 29 0 1-2 2.9-3.1 2.9-9.5.2-19 .1-28.5.2-2.4 0-3.2-.9-3.1-3.2.1-4.8 0-9.7 0-14.5-.2 0-.2 0-.3 0z"/><path d="m260.4 425c0-4.7.1-9.3 0-14-.1-2.6.8-3.4 3.4-3.4 9.3.1 18.6.1 28 0 2.5 0 3.6.7 3.5 3.4-.1 8.8-.1 17.6-.1 26.5 0 3.5-1 5.3-5.2 5.1-8.6-.4-17.3-.2-26-.1-2.7 0-3.9-.6-3.7-3.6.3-4.6.1-9.3.1-13.9z"/><path d="m168.1 407.6c4.7 0 9.3.1 14 0 2.5-.1 3.5.6 3.5 3.3-.1 9.5-.2 18.9 0 28.4.1 2.8-1.1 3.2-3.5 3.2-9.1-.1-18.3-.2-27.4 0-3 .1-3.9-1.4-3.9-3.7-.1-9.5-.2-18.9 0-28.4 0-.9 1.8-2.6 2.9-2.6 4.7-.3 9.6-.2 14.4-.2z"/><path d="m185.4 388.7c0 4.5-.1 9 0 13.5.1 2.4-.5 3.6-3.3 3.6-9.5-.1-19 .1-28.4-.2-1.1 0-3-2-3-3.1-.2-9.3-.1-18.6-.2-27.9 0-2.8 1.2-3.3 3.6-3.3 9.3.1 18.6.1 27.9 0 2.7 0 3.5.9 3.4 3.5-.1 4.6 0 9.3 0 13.9z"/><path d="m313.9 261.5c4.7 0 9.3.1 14-.1 2.7-.1 3.8.6 3.7 3.5-.2 9.3-.1 18.6 0 28 0 2.6-.8 3.5-3.4 3.4-9.3-.1-18.6 0-28-.2-1.1 0-3-1.9-3.1-3-.2-9.6-.2-19.3 0-29 0-.9 1.8-2.6 2.8-2.6 4.7-.2 9.4 0 14 0z"/><path d="m95.2 371.3c4.7 0 9.3-.2 14 .1 1.1.1 3 1.9 3 3 .2 9.3.1 18.6.2 27.9 0 2.7-1.2 3.4-3.6 3.3-9.3-.1-18.6-.1-27.9 0-2.7 0-3.4-1-3.4-3.5.1-9.1.2-18.3 0-27.4-.1-3 1.2-3.6 3.8-3.5 4.6.3 9.2.1 13.9.1z"/><path d="m370.3 278.5c0-4.7.1-9.3 0-14-.1-2.4.7-3.1 3.1-3.1 9.5.1 19 .1 28.5 0 2.5 0 3.1.9 3 3.2-.1 9.5.1 19-.2 28.5 0 1.1-1.9 3-3 3-9.5.2-19 .2-28.5 0-1 0-2.7-2-2.8-3.2-.3-4.7-.1-9.6-.1-14.4z"/><path d="m94.7 332.6c-4.5 0-9-.1-13.5 0-2.6.1-3.9-.4-3.9-3.5.2-9.2.2-18.3 0-27.5-.1-3 1.1-3.6 3.8-3.6 9.2.1 18.3.1 27.5 0 2.9 0 3.7 1 3.7 3.8-.1 9-.2 18 0 27 .1 3.3-1.3 3.9-4.1 3.8-4.5-.1-9 0-13.5 0z"/><path d="m241.2 405.9c-4.6 0-9.3-.1-13.9.1-2.9.1-3.7-1-3.6-3.8.1-9.1.1-18.3 0-27.4 0-2.5.7-3.5 3.3-3.5 9.5.1 18.9.1 28.4 0 2.7 0 3.3 1 3.3 3.5-.1 9.1-.2 18.3 0 27.4.1 3.2-1.1 3.9-4 3.8-4.6-.3-9.1-.1-13.5-.1z"/><path d="m350.7 332.6c-4.7 0-9.3-.2-14 .1-2.7.1-3.3-.9-3.3-3.4.1-9.3.1-18.7 0-28 0-2.3.6-3.2 3.1-3.2 9.7.1 19.3.1 29 0 2.5 0 3.1.9 3 3.2-.1 9.3-.1 18.7 0 28 0 2.6-.6 3.5-3.3 3.4-4.8-.2-9.7-.1-14.5-.1z"/><path d="m277.7 371.3c4.7 0 9.3.1 14 0 2.4-.1 3.7.4 3.6 3.2-.1 9.3-.1 18.6 0 27.9 0 2.6-.9 3.5-3.5 3.4-9.3-.1-18.6-.1-27.9 0-2.4 0-3.6-.5-3.5-3.3.1-9.5 0-18.9.2-28.4 0-1 1.7-2.7 2.7-2.7 4.8-.2 9.6-.1 14.4-.1z"/><path d="m424.3 332.6c-4.8 0-9.7-.1-14.5 0-2.3.1-3.2-.7-3.2-3.1.1-9.3.1-18.6 0-28 0-2.5.7-3.6 3.4-3.5 9.5.1 19 .1 28.5 0 2.5 0 3.1.9 3.1 3.2-.1 9.5-.1 19 0 28.5 0 2.6-1 3-3.2 3-4.8-.2-9.5-.1-14.1-.1z"/><path d="m370.3 461.7c0-4.7.1-9.3 0-14-.1-2.6.6-3.5 3.3-3.4 9.3.2 18.7.2 28 0 2.7 0 3.3 1 3.3 3.5-.1 9.3-.1 18.7 0 28 0 2.5-.7 3.6-3.4 3.5-9.3-.1-18.7-.1-28 0-2.9 0-3.3-1.2-3.2-3.6.1-4.6 0-9.3 0-14z"/><path d="m370.3 351.8c0-4.8-.2-9.7.1-14.5.1-1 1.7-2.7 2.7-2.7 9.7-.2 19.3-.2 29 0 .9 0 2.6 1.8 2.6 2.8.2 9.7.1 19.3.2 29 0 2.4-.8 3.1-3.1 3.1-9.5-.1-19-.1-28.5 0-2.6 0-3-1-3-3.2.1-4.9 0-9.7 0-14.5z"/><path d="m350.9 371.3c4.8 0 9.7-.2 14.5.1 1.1.1 2.9 1.9 3 3 .2 9.3.1 18.6.2 28 0 2.7-1 3.4-3.5 3.4-9.3-.1-18.6-.1-28 0-2.9 0-3.7-1-3.7-3.7.1-9.2.1-18.3 0-27.5 0-2.7 1-3.4 3.5-3.3 4.6.1 9.3 0 14 0z"/><path d="m75.6 352.5c0 4.5-.2 9 .1 13.5.2 2.9-.9 3.6-3.7 3.6-9.2-.2-18.3-.1-27.5 0-2.5 0-3.5-.6-3.5-3.3.1-9.5.1-19 0-28.5 0-2.7.9-3.3 3.5-3.3 9.2.1 18.3.1 27.5 0 2.8 0 3.8.6 3.7 3.6-.3 4.7-.1 9.5-.1 14.4z"/><path d="m221.8 351.9c0 4.8-.1 9.7 0 14.5.1 2.4-.7 3.2-3.1 3.1-9.5-.1-19 0-28.5-.2-1 0-2.8-1.6-2.8-2.6-.2-9.8-.2-19.7 0-29.5 0-1 1.7-2.7 2.7-2.7 9.7-.2 19.3-.2 29 0 .9 0 2.6 1.8 2.6 2.8.3 4.9.1 9.7.1 14.6z"/><path d="m441.4 388.9c0 4.5-.1 9 0 13.5.1 2.5-.5 3.5-3.3 3.5-9.5-.2-19 0-28.5-.2-1.1 0-3-2-3-3-.2-9.5-.2-19 0-28.5 0-1 1.8-2.7 2.7-2.8 9.7-.2 19.3-.1 29-.2 2.5 0 3.1.9 3 3.2 0 4.9.1 9.7.1 14.5z"/><path d="m221.8 462c0 4.3-.2 8.7.1 13 .2 3.6-1.2 4.5-4.6 4.4-8.7-.2-17.3-.2-26 0-2.9.1-4.2-.5-4.1-3.8.2-9.2.2-18.3 0-27.5 0-2.7.5-3.8 3.5-3.8 9.2.2 18.3.2 27.5 0 2.9-.1 3.8.9 3.6 3.7-.1 4.6 0 9.3 0 14z"/><path d="m75.6 425.5c0 4.7-.1 9.3 0 14 .1 2.4-.8 3.1-3.1 3.1-9.5-.1-19 0-28.5-.2-1 0-2.8-1.7-2.8-2.6-.2-9.6-.2-19.3 0-29 0-1.1 1.9-3 3-3 9.3-.2 18.6-.1 28-.2 2.6 0 3.6.7 3.5 3.4-.3 4.8-.1 9.6-.1 14.5z"/><path d="m75.6 462c0 4.2-.2 8.3.1 12.5.2 3.6-.6 5-4.6 4.9-8.6-.3-17.3-.2-26 0-3.1.1-4-1-4-4 .2-9 .1-18 0-27 0-2.9.7-4.1 3.9-4.1 9 .2 18 .2 27 0 2.9 0 3.8 1 3.7 3.8-.3 4.6-.1 9.3-.1 13.9z"/><path d="m221.8 425.5c0 4.5-.1 9 0 13.5 0 2.3-.2 3.7-3.2 3.6-9.5-.2-19-.2-28.5 0-2.6 0-3-1-3-3.2.1-9.5.1-19 0-28.5 0-2.3.7-3.2 3.1-3.2 9.3.1 18.6.2 28 0 3.1-.1 3.6 1.3 3.5 3.9 0 4.5.1 9.2.1 13.9z"/><path d="m370.3 425c0-4.7.1-9.3 0-14-.1-2.6.8-3.5 3.4-3.4 9.3.1 18.6 0 28 .2 1.1 0 3 1.9 3.1 3 .2 9.6.2 19.3 0 29 0 .9-1.8 2.6-2.8 2.6-9.5.2-19 0-28.5.2-2.9.1-3.3-1.2-3.2-3.5.1-4.8 0-9.4 0-14.1z"/><path d="m41.1 242c0-4.5.2-9-.1-13.5-.2-3.1 1-4 4-3.9 9 .2 18 .2 27 0 2.9-.1 3.7 1 3.6 3.8-.1 9.3-.1 18.6 0 28 0 2.7-.9 3.4-3.5 3.3-9.2-.1-18.3-.1-27.5 0-2.8 0-3.8-.9-3.7-3.7.3-4.7.2-9.4.2-14z"/><path d="m424.1 188.3c4.8 0 9.6-.2 14.4.1 1 .1 2.7 1.7 2.7 2.7.2 9.6.2 19.3 0 28.9 0 .9-1.8 2.6-2.9 2.6-9.5.2-18.9.1-28.4.2-2.6 0-3.5-.8-3.5-3.4.1-9.3.1-18.6 0-27.9 0-2.8 1.3-3.3 3.6-3.2 4.8.1 9.5 0 14.1 0z"/><path d="m368.4 205.5c0 4.8.2 9.7-.1 14.5-.1 1-1.7 2.8-2.7 2.8-9.8.2-19.6.2-29.4 0-.9 0-2.6-1.8-2.6-2.8-.2-9.5-.1-19-.2-28.4 0-2.4.7-3.2 3.1-3.1 9.6.1 19.3-.1 28.9.2 1 0 2.8 1.9 2.9 3 .3 4.4.1 9.1.1 13.8z"/><path d="m277.4 222.8c-4.5 0-9-.2-13.5.1-2.9.1-3.6-1-3.6-3.7.1-9.1.1-18.3 0-27.4 0-2.5.6-3.5 3.3-3.5 9.5.1 18.9 0 28.4.2 1.1 0 3 1.9 3 3 .2 9.3.1 18.6.2 27.9 0 2.5-.8 3.6-3.4 3.5-4.7-.2-9.5-.1-14.4-.1z"/><path d="m241.5 188.3c4.7 0 9.3-.2 14 .1 1.1.1 3 1.9 3 2.9.2 9.3.1 18.6.2 28 0 2.5-.7 3.5-3.4 3.5-9.5-.1-19-.1-28.5 0-2.8 0-3.2-1.3-3.2-3.7.1-9.2.1-18.3 0-27.5 0-2.6.8-3.5 3.4-3.4 4.8.2 9.6.1 14.5.1z"/><path d="m185.4 205.9c0 4.5-.1 9 0 13.5.1 2.5-.6 3.6-3.3 3.5-9.5-.1-19 0-28.4-.2-1.1 0-3-2-3-3-.2-9.5-.2-18.9 0-28.4 0-1 2.1-2.7 3.2-2.8 9.5-.2 18.9-.1 28.4-.2 2.4 0 3.2.8 3.1 3.2-.1 4.8 0 9.6 0 14.4z"/><path d="m331.6 95.6c0 4.7-.1 9.3 0 14 .1 2.7-.6 3.9-3.6 3.8-9.1-.2-18.3-.1-27.4 0-2.4 0-3.6-.6-3.6-3.3.1-9.5.1-18.9 0-28.4 0-2.3.7-3.2 3.1-3.2 9.5.1 18.9.1 28.4 0 2.5 0 3.1.9 3 3.2 0 4.6.1 9.2.1 13.9z"/><path d="m94.8 188.3c4.7 0 9.3.1 14 0 2.4-.1 3.6.4 3.6 3.2-.1 9.3-.1 18.6 0 27.9 0 2.7-1 3.4-3.5 3.4-9.3-.1-18.6-.1-27.9 0-2.5 0-3.5-.6-3.5-3.3.1-9.3.1-18.6 0-27.9 0-2.7.8-3.5 3.4-3.4 4.5.3 9.2.1 13.9.1z"/><path d="m370.3 95.7c0-4.7.1-9.3-.1-14-.1-2.6.8-3.4 3.4-3.4 9.1.1 18.3.1 27.4 0 2.7 0 3.9.5 3.8 3.5-.2 9.3-.1 18.6 0 27.9 0 2.6-.8 3.5-3.5 3.5-9.1-.1-18.3-.1-27.4 0-2.8 0-3.9-.8-3.7-3.6.3-4.5.1-9.2.1-13.9z"/><path d="m404.8 169.3c0 4-.3 8 .1 12 .3 4-.7 5.5-5.1 5.3-8.6-.4-17.3-.2-25.9-.1-2.8.1-3.7-.8-3.7-3.6.2-9.3.1-18.6 0-27.9 0-2.6.9-3.4 3.5-3.4 9.3.1 18.6-.1 27.9.2 1.1 0 2.9 1.9 3 3 .4 4.8.2 9.6.2 14.5z"/><path d="m297.1 169.4c0-4.7.1-9.3 0-14-.1-2.6.5-3.9 3.5-3.9 9.3.2 18.6 0 27.9.2 1.1 0 2.9 2 3 3 .2 9.5.1 18.9.2 28.4 0 2.2-.4 3.3-3 3.3-9.5-.1-19-.1-28.4 0-2.9 0-3.2-1.3-3.2-3.6 0-4.4 0-8.9 0-13.4z"/><path d="m131.7 151.6c4.5 0 9 .1 13.5 0 2.5-.1 3.6.6 3.6 3.3-.1 9.5-.1 19 0 28.5 0 2.5-.9 3.1-3.2 3.1-9.5-.1-19-.1-28.5 0-2.5 0-3.1-.9-3.1-3.2.1-9.5-.1-19 .2-28.5 0-1.1 1.9-2.9 3-3 4.9-.4 9.7-.2 14.5-.2z"/><path d="m75.6 169.3c0 4.5-.1 9 .1 13.5.1 2.7-.6 3.8-3.6 3.7-9.1-.2-18.3-.2-27.4 0-2.9.1-3.7-.9-3.6-3.7.2-9.1.1-18.3 0-27.4 0-2.7.7-3.9 3.6-3.8 9.1.2 18.3.2 27.4 0 3-.1 3.6 1.1 3.6 3.8-.2 4.6-.1 9.3-.1 13.9z"/><path d="m94.5 149.8c-4.7 0-9.3-.1-14 0-2.4.1-3.1-.8-3.1-3.2.1-9.5.1-18.9 0-28.4 0-2.6 1.1-3 3.3-3 9.5.1 19-.1 28.4.2 1.1 0 3 1.9 3 2.9.2 9.3 0 18.6.2 27.9.1 3-1.3 3.6-3.9 3.5-4.6 0-9.3.1-13.9.1z"/><path d="m423.9 149.9c-4.5 0-9-.1-13.5 0-2.7.1-3.9-.6-3.8-3.6.2-9.2.1-18.3 0-27.5 0-2.5.5-3.6 3.3-3.6 9.5.1 19 .1 28.5 0 2.3 0 3.2.6 3.2 3-.1 9.5-.1 19 0 28.5 0 2.4-.8 3.2-3.1 3.1-5 0-9.8.1-14.6.1z"/><path d="m185.4 132.9c0 4.5-.1 9 0 13.5.1 2.5-.6 3.6-3.3 3.5-9.5-.1-19 0-28.4-.2-1.1 0-3-2-3-3-.2-9.3-.1-18.6-.2-27.9 0-2.6.8-3.5 3.4-3.4 9.5.1 18.9.1 28.4 0 2.4 0 3.2.8 3.1 3.2-.1 4.7 0 9.5 0 14.3z"/><path d="m350.9 149.8c-4.7 0-9.3-.1-14 0-2.4.1-3.6-.4-3.6-3.2.2-9.5 0-19 .2-28.4 0-1 1.7-2.7 2.7-2.8 9.8-.2 19.6-.2 29.4 0 .9 0 2.6 1.8 2.7 2.8.2 9.5 0 19 .2 28.4 0 2.8-1.2 3.3-3.6 3.2-4.6 0-9.3 0-14 0z"/><path d="m295.3 132.8c0 4.5-.1 9 0 13.5.1 2.4-.6 3.6-3.3 3.6-9.5-.1-18.9-.1-28.4 0-2.3 0-3.2-.7-3.2-3.1.1-9.5.1-18.9 0-28.4 0-2.5.9-3.1 3.2-3 9.5.1 18.9.1 28.4 0 2.8 0 3.4 1.1 3.3 3.6-.1 4.5 0 9.2 0 13.8z"/><path d="m497.7 76.6c-4.8 0-9.7.2-14.5-.1-1.1-.1-3-1.9-3-3-.2-9.5-.2-19 0-28.5 0-1 1.8-2.8 2.8-2.8 9.8-.2 19.7-.2 29.5 0 1.1 0 2.9 1.9 3 3 .2 9.3.1 18.7.2 28 0 2.6-.8 3.5-3.4 3.4-4.9-.1-9.7 0-14.6 0z"/><path d="m131.7 261.2c5.6.3 11.2.5 16.8.8.1 5.5.3 10.9.3 16.4.1 4.8-.1 9.6.1 14.5.1 2.6-.8 3.5-3.4 3.4-9.3-.1-18.6-.1-27.9 0-2.6 0-3.5-.8-3.5-3.4.1-9.5.1-19 0-28.4 0-2.5.9-3.1 3.2-3 4.8.1 9.6 0 14.5 0-.1-.1-.1-.2-.1-.3z"/><path d="m75.6 279.4c0 4.5-.1 9 0 13.5.1 2.5-.7 3.5-3.4 3.5-9.2-.1-18.3-.1-27.5 0-2.7 0-3.9-.7-3.8-3.6.2-9.3.1-18.6 0-28 0-2.7.9-3.4 3.4-3.3 9.3.1 18.6.2 28 0 2.8 0 3.3 1 3.2 3.5 0 4.7.1 9.5.1 14.4z"/><path d="m75.6 95.9c0 4.7-.1 9.3 0 14 .1 2.5-.6 3.6-3.3 3.5-9.3-.1-18.6-.1-27.9 0-2.7 0-3.4-1.1-3.3-3.6.1-9.3.1-18.6 0-27.9 0-2.6.8-3.5 3.4-3.4 9.3.1 18.6.1 27.9 0 2.7 0 3.4 1 3.3 3.5-.2 4.5-.1 9.2-.1 13.9z"/><path d="m148.8 96c0 4.5-.1 9 0 13.5.1 2.7-.7 3.9-3.6 3.8-9.2-.2-18.3-.2-27.5 0-2.9 0-3.8-.9-3.7-3.7.1-9.3.1-18.7 0-28 0-2.3.7-3.2 3.1-3.2 9.5.1 19 .1 28.5 0 2.9 0 3.3 1.3 3.2 3.6-.1 4.7 0 9.4 0 14z"/><path d="m370.3 241.7c0-4.5.1-9 0-13.5-.1-2.4.4-3.7 3.2-3.7 9.3.1 18.7-.1 28 .2 1.1 0 3.1 1.9 3.1 3 .2 9.5.1 19 .2 28.5 0 2.7-1 3.4-3.6 3.4-9.2-.1-18.3-.1-27.5 0-2.6 0-3.6-.8-3.5-3.4.2-4.8.1-9.6.1-14.5z"/><path d="m148.8 242.6c0 4.5-.1 9 0 13.5.1 2.4-.4 3.7-3.2 3.6-9.5-.1-19 0-28.4-.2-1.1 0-3-1.9-3-3-.2-9.5-.1-18.9-.2-28.4 0-2.6.9-3.5 3.5-3.4 9.3.1 18.6.1 27.9 0 2.6 0 3.5.9 3.4 3.5-.1 4.7 0 9.5 0 14.4z"/><path d="m297.1 241.9c0-4.5.1-9 0-13.5-.1-2.7.7-3.9 3.7-3.8 9.2.1 18.3.1 27.5 0 2.7 0 3.4 1.1 3.4 3.6-.1 9.3-.1 18.7 0 28 0 2.5-.6 3.6-3.4 3.5-9.2-.1-18.3-.1-27.5 0-2.9 0-3.8-1-3.7-3.8.2-4.7 0-9.4 0-14z"/><path d="m114 351.9c0-4.7.1-9.3 0-14-.1-2.4.4-3.6 3.2-3.5 9.5.2 19 .1 28.5 0 2.4 0 3.2.7 3.2 3.1-.1 9.7-.1 19.3 0 29 0 2.5-1 2.9-3.2 3-10 .4-9.9.5-12.5-9.4-.3-1.2-1-2.3-1.5-3.4 0 1.2-.1 2.3-.1 3.5-.1 9.2-.1 9.2-9.4 9.2-8.1 0-8.1 0-8.1-8-.1-3.1-.1-6.3-.1-9.5z"/><path d="m331.6 351.9c0 4.8-.1 9.6 0 14.5.1 2.3-.7 3.3-3.1 3.2-3.5-.2-7-.3-10.5 0-3.3.3-4-1.1-3.8-4s-.1-5.9-.1-8.8c-.9 2.9-2.1 5.8-2.6 8.8s-1.8 4-4.9 4c-9.6-.1-9.6.1-9.6-9.2 0-7.5.1-15 0-22.4 0-2.5.7-3.5 3.4-3.5 9.3.1 18.6.1 27.9 0 2.8 0 3.4 1.1 3.3 3.5-.1 4.6 0 9.2 0 13.9z"/><path d="m314.5 115.3c4.7 0 9.3-.2 14 .1 1.1.1 2.9 1.9 3 3 .2 9.5.2 19 0 28.5 0 1-1.8 2.8-2.7 2.8-9.5.2-19 .2-28.5 0-1.1 0-3-2-3-3-.2-9.5-.2-19 0-28.5 0-1 1.8-2.7 2.8-2.7 4.7-.3 9.6-.2 14.4-.2z"/><path d="m404.8 133c0 4.5-.1 9 0 13.5.1 2.6-.9 3.5-3.5 3.4-9.3-.1-18.7.1-28-.2-1.1 0-2.9-2-2.9-3.1-.2-9.5-.2-19 0-28.5 0-1 1.8-2.7 2.8-2.7 9.5-.2 19-.2 28.5 0 1.1 0 2.9 1.9 3 3 .3 4.9.1 9.7.1 14.6z"/><path d="m131.4 149.8c-4.7 0-9.3-.1-14 0-2.6.1-3.5-.9-3.4-3.5.1-9.3-.1-18.6.2-27.9 0-1.1 1.9-3 3-3 9.5-.2 19-.2 28.4 0 1.1 0 3 1.9 3 3 .2 9.3.1 18.6.2 27.9 0 2.6-.8 3.6-3.4 3.5-4.6-.1-9.3 0-14 0z"/><path d="m314.4 222.8c-4.7 0-9.3-.1-14 0-2.7.1-3.4-1-3.4-3.5.1-9.2.1-18.3 0-27.5 0-2.4.4-3.7 3.2-3.6 9.5.1 19 0 28.5.2 1 0 2.7 1.8 2.7 2.8.2 9.5.2 19 0 28.5 0 1.1-1.9 2.9-3 3-4.6.3-9.3.1-14 .1z"/><path d="m58.4 149.8c-4.7 0-9.3-.1-14 0-2.7.1-3.4-1-3.4-3.5.1-9.2.1-18.3 0-27.5 0-2.4.4-3.7 3.2-3.6 9.5.1 19 0 28.5.2 1 0 2.7 1.8 2.7 2.8.2 9.5.2 19 0 28.5 0 1.1-1.9 2.9-3 3-4.6.3-9.3.1-14 .1z"/><path d="m404.8 205.8c0 4.7.2 9.3-.1 14-.1 1.1-1.9 3-3 3-9.5.2-19 .2-28.4 0-1 0-2.8-1.7-2.8-2.6-.2-9.6-.2-19.3 0-28.9 0-1 1.7-2.7 2.7-2.7 9.6-.2 19.3-.2 28.9 0 .9 0 2.6 1.8 2.6 2.8.3 4.7.1 9.5.1 14.4z"/><path d="m370.3 388.4c0-4.7.1-9.3 0-14-.1-2.4.8-3.1 3.1-3.1 9.5.1 19 .1 28.4 0 2.5 0 3.1 1 3 3.2-.1 9.3-.1 18.6 0 27.9 0 2.6-.8 3.5-3.4 3.4-9.3-.1-18.6-.1-27.9 0-2.8 0-3.3-1.2-3.2-3.6.1-4.5 0-9.2 0-13.8z"/><path d="m386.9 332.6c-4.5 0-9 .2-13.5-.1-1.1-.1-3-1.9-3-3-.2-9.3-.1-18.6-.2-27.9 0-2.7 1.1-3.4 3.6-3.4 9.1.1 18.3.1 27.4 0 2.6 0 3.5.9 3.5 3.5-.1 9.1-.1 18.3 0 27.4 0 3-1.3 3.6-3.9 3.6-4.5-.2-9.2-.1-13.9-.1z"/><path d="m187.3 205.3c0-4.5.1-9 0-13.5-.1-2.5.6-3.5 3.3-3.5 9.3.1 18.7.1 28 0 2.8 0 3.3 1.1 3.3 3.6-.1 9.2-.1 18.3 0 27.5.1 3-1.3 3.6-3.9 3.6-9-.1-18-.1-27 0-2.8 0-3.9-.7-3.7-3.6.1-4.8 0-9.5 0-14.1z"/><path d="m331.6 315c0 4.8-.1 9.7 0 14.5.1 2.3-.6 3.2-3 3.2-9.5-.1-19-.1-28.4 0-2.4 0-3.1-.8-3.1-3.2.1-9.3.1-18.6 0-27.9 0-2.5.7-3.5 3.4-3.5 9.3.1 18.6.1 27.9 0 2.7 0 3.4 1 3.3 3.5-.2 4.4-.1 8.9-.1 13.4z"/><path d="m58.5 371.3c4.7 0 9.3.1 14 0 2.4-.1 3.1.7 3.1 3.1-.1 9.5-.1 19 0 28.4 0 2.5-1 3.1-3.2 3-9.3-.1-18.6-.1-27.9 0-2.6 0-3.5-.8-3.4-3.4.1-9.3.1-18.6 0-27.9 0-2.8 1.2-3.3 3.6-3.2 4.5.1 9.2 0 13.8 0z"/><path d="m131.7 188.3c4.7 0 9.3-.2 14 .1 1.1.1 3 1.9 3 3 .2 9.3.1 18.6.2 27.9 0 2.5-.8 3.5-3.4 3.5-9.3-.1-18.6-.1-28 0-2.6 0-3.5-.9-3.5-3.5.1-9.3-.1-18.6.2-27.9 0-1.1 1.9-2.9 3-3 4.8-.3 9.6-.1 14.5-.1z"/><path d="m131.4 332.6c-4.7 0-9.3-.1-14 0-2.6.1-3.5-.7-3.4-3.3.1-9.3.1-18.6 0-27.9 0-2.7 1-3.4 3.5-3.3 9.3.1 18.6.1 27.9 0 2.6 0 3.5.8 3.4 3.4-.1 9.3-.1 18.6 0 27.9 0 2.8-1 3.4-3.5 3.3-4.6-.2-9.2-.1-13.9-.1z"/><path d="m204.8 371.3c4.7 0 9.3.1 14 0 2.4-.1 3.2.8 3.1 3.1-.1 9.3-.1 18.6 0 27.9 0 2.5-.6 3.6-3.3 3.5-9.3-.1-18.6-.1-27.9 0-2.7 0-3.4-.9-3.3-3.5.1-9.1.2-18.3 0-27.4-.1-3.3 1.2-3.8 4.1-3.7 4.3.3 8.8.1 13.3.1z"/><path d="m75.6 205.5c0 4.5-.2 9 .1 13.5.2 3.2-1 3.9-4 3.9-8.8-.2-17.7-.2-26.5 0-3.4.1-4.2-1.2-4.1-4.3.2-8.7.2-17.3 0-26-.1-3.1.6-4.4 4.1-4.3 8.8.2 17.7.2 26.5 0 3.4-.1 4.2 1.2 4.1 4.3-.4 4.3-.2 8.6-.2 12.9z"/><path d="m57.9 332.6c-4.5 0-9-.1-13.5 0-2.5.1-3.5-.6-3.5-3.3.1-9.3.1-18.6 0-27.9 0-2.7 1-3.4 3.5-3.3 9.3.1 18.6.1 27.9 0 2.4 0 3.2.7 3.2 3.1-.1 9.5-.1 19 0 28.4 0 2.5-.9 3.1-3.2 3-4.7-.1-9.5 0-14.4 0z"/><path d="m185.4 461.9c0 4.8.2 9.7-.1 14.5-.1 1-1.7 2.7-2.7 2.7-6.8.2-13.7.2-20.5 0-1 0-2.6-1.3-2.9-2.3-2.4-9.9-4.5-19.8-6.8-29.7-.5-2.2.2-2.9 2.5-2.9 9.2.1 18.3.1 27.5 0 2.4 0 3.1.8 3.1 3.2-.2 4.9-.1 9.7-.1 14.5z"/><path d="m260.4 461c0-4.2.2-8.3-.1-12.5-.2-3 .4-4.4 4-4.3 8.5.3 17 .2 25.5 0 3-.1 4.2.5 3.4 3.8-2.2 9-4.2 18.1-6.1 27.2-.6 2.8-1.6 4.2-4.9 4-6.1-.3-12.3-.2-18.5 0-2.6.1-3.6-.6-3.5-3.3.4-4.9.2-9.9.2-14.9z"/><path d="m168.2 113.3c-4.8 0-9.6.2-14.4-.1-1.1-.1-3-1.9-3-3-.2-9.5 0-18.9-.2-28.4 0-2.7 1-3.2 3.5-3.3 14.3-.5 14.3-.6 20.7 12.2 3.3 6.5 6.5 13.1 9.8 19.5 1.2 2.3.9 3.3-1.9 3.2-4.9-.2-9.7-.1-14.5-.1z"/><path d="m295.3 96c0 4.6-.1 9.3 0 13.9.1 2.7-.9 3.4-3.5 3.4-9.5-.1-18.9-.1-28.4 0-3.3 0-3.2-1.1-2-3.5 4.9-9.6 9.6-19.3 14.5-28.9.5-1 1.7-2.3 2.7-2.4 4.8-.2 9.6-.2 14.4 0 .8 0 2 1.9 2 2.9.4 5 .3 9.8.3 14.6z"/><path d="m204.4 186.7c-5.6-.3-11.2-.6-16.7-.9-.1-5.4-.3-10.9-.4-16.3-.1-4.8.1-9.6-.1-14.4-.1-2.5.6-3.8 3.3-3.5h.5c13.9-.5 13.9-.5 20.2 12.1 2.9 5.8 5.8 11.6 8.6 17.4 2.7 5.4 2.7 5.4-3.6 5.4-4 0-8 0-12 0 .2.1.2.2.2.2z"/><path d="m241.4 186.5c-4.8 0-9.6-.1-14.5 0-2.4 0-3.5-.5-2.2-3.1 5-9.9 9.9-19.9 15-29.8.4-.9 1.7-1.8 2.5-1.9 4.6-.2 9.3-.2 14 0 .8 0 2.2 1.5 2.2 2.3.2 10 .2 19.9 0 29.9 0 .9-1.9 2.3-3 2.4-4.7.3-9.3.2-14 .2z"/><path d="m295.3 315.3c0 4.3-.2 8.7.1 12.9.2 3.6-1.2 4.4-4.6 4.4-13 0-13 .1-13-12.9 0-1.3-.1-2.7 0-4 .2-2.8-.8-4-3.7-3.8-1.5.1-3 .1-4.5 0-2.9-.2-8.1.3-8.4-.7-1.2-3.6-.8-7.8-.6-11.7 0-.6 1.9-1.6 2.9-1.7 9.5-.1 18.9 0 28.4-.1 2.6 0 3.5 1 3.4 3.5-.1 4.8 0 9.5 0 14.1z"/><path d="m168 261.5c5 0 10 .1 15 0 2.6 0 3 .9 1.5 2.9-7.4 10.2-14.6 20.6-22.5 30.4-1.5 1.9-6.4 1.4-9.7 1.3-.6 0-1.5-3.4-1.6-5.3-.2-8.3.1-16.6-.2-24.9-.1-3.6 1.1-4.6 4.5-4.3 4.3.1 8.7-.1 13-.1z"/><path d="m222 278.8c0 4.7-.1 9.3 0 14 .1 2.5-.7 3.6-3.4 3.5-8.8-.1-17.6-.1-26.4 0-2.7 0-2.8-.8-1.3-2.8 7.4-10 14.6-20.2 22.3-29.9 1.3-1.6 4.9-1.6 7.5-1.9.2 0 1.1 3 1.2 4.6.2 4.2.1 8.4.1 12.5z"/><path d="m331.6 461.8c0 4.6-.2 9.3.1 13.9.1 2.9-1 3.6-3.7 3.6-13.6.3-13.6.4-13.6-13.1 0-6.1.1-12.3 0-18.4 0-2.4.4-3.7 3.2-3.5 3.6.2 7.3.2 11 0 2.8-.2 3.3 1.1 3.2 3.5-.3 4.7-.2 9.3-.2 14z"/><path d="m131.6 425.5c0 4.7-.1 9.3 0 14 .1 2.4-.8 3-3.1 3.1-14.4.7-14.4.7-14.4-13.7 0-5.8.1-11.6 0-17.5-.1-2.8.9-3.6 3.7-3.7 13.9-.4 13.9-.5 13.9 13.4-.1 1.4-.1 2.9-.1 4.4z"/><path d="m331.6 425c0 4.8-.1 9.6 0 14.4.1 2.4-.7 3-3.1 3.1-14.3.7-14.3.8-14.3-13.3 0-6 .1-11.9-.1-17.9-.1-2.7.7-3.7 3.6-3.7 13.8-.4 13.8-.4 13.8 13.4.1 1.3.1 2.7.1 4z"/><path d="m131.6 461.8c0 4.6-.2 9.3.1 13.9.1 2.9-1 3.5-3.7 3.6-13.9.3-13.9.4-13.9-13.4 0-6 .1-11.9-.1-17.9-.1-2.7.6-3.9 3.5-3.7 4.4.3 10.5-1.4 12.9.8 2.3 2.1.9 8.3 1.1 12.7.1 1.3.1 2.7.1 4z"/><path d="m131.6 388.9c0 4.3-.1 8.7 0 13 .1 2.8-.4 4-3.7 4.1-13.8.2-13.8.3-13.8-13.5 0-5.8.1-11.6-.1-17.5-.1-2.7.6-3.9 3.6-3.7 4.4.3 10.5-1.4 12.9.9 2.3 2.2.9 8.3 1.1 12.8z"/><path d="m331.6 389c0 4.5-.1 9 0 13.5.1 2.5-.7 3.4-3.3 3.5-14 .6-14 .7-14-13.3 0-6 .1-12 0-18-.1-2.6.7-3.3 3.3-3.4 14-.5 14-.6 14 13.2z"/><path d="m187.3 242c0-4.7.1-9.3 0-14-.1-2.6.8-3.5 3.4-3.5 6.3.2 12.7 0 19 .1 1.7 0 3.8-.2 1.9 2.6-7.4 10.2-14.9 20.5-22.3 30.7-.3.4-1 .6-1.5.9-.1-.6-.4-1.2-.4-1.8-.1-5-.1-10-.1-15z"/><path d="m204.4 311.9c-2.7 0-5.3.1-8 0-2.9-.1-8 .4-8.4-.7-1.2-3.4-.8-7.4-.7-11.2 0-.6 1.5-1.7 2.2-1.7 9.8-.1 19.6-.2 29.4 0 .9 0 2.5 1.8 2.6 2.9.4 2.6.4 5.3 0 7.9-.2 1.1-1.8 2.6-2.8 2.7-4.6.2-9.5.1-14.3.1z"/><path d="m148.9 389.1c0 4.6.1 9.3-.1 13.9-.1 1-1.5 2.8-2.2 2.7-1.3-.1-3.4-1.1-3.6-2-2.4-10-4.5-20-6.7-30.1-.1-.5-.1-1-.2-1.5 3.5-.3 7-.7 10.5-.7.8 0 2.2 1.7 2.3 2.7.1 5 0 10 0 15z"/><path d="m297 388.3c0-4.5.2-9-.1-13.5-.1-2.9 1-3.6 3.7-3.6 9.7-.1 9.7-.2 7.5 9.3-1.6 7.3-3.3 14.6-4.8 21.9-.5 2.5-1.6 4.3-4.2 3.3-1.1-.4-2-2.6-2.1-4-.2-4.4 0-8.9 0-13.4z"/><path d="m195.6 149.8c-8.3 0-8.3 0-8.3-8.4 0-7 0-14 0-21 0-.8.2-1.6.3-2.3.6.7 1.4 1.2 1.8 2 4.4 8.6 8.6 17.2 13 25.8 1.5 2.8 1.4 4.3-2.3 4-1.5-.2-3-.1-4.5-.1z"/><path d="m258.6 133.5c0 4.3-.1 8.6 0 13 .1 2.6-.9 3.3-3.4 3.4-14 .6-14 .7-7.9-11.6 3.1-6.2 6.2-12.5 9.3-18.7.3-.6.8-1 1.1-1.5.2.7.7 1.3.7 2 .2 4.4.2 8.9.2 13.4z"/><path d="m296.9 418.2c0-2.7-.3-5.4.2-7.9.2-1 2-1.7 3-2.6.5.9 1.5 2 1.3 2.8-1 5.4-2.3 10.7-3.5 16-.1.4-.5.8-.7 1.2-.1-.5-.2-1-.2-1.6-.1-2.6-.1-5.3-.1-7.9z"/><path d="m148.9 418.5v7.4 1.6c-.4-.5-1-1-1.1-1.5-1.2-5.3-2.4-10.6-3.4-16-.1-.7.8-1.6 1.3-2.4 1.1.6 3 1.2 3.1 1.9.3 3 .1 6 .1 9z"/><path d="m156.6 298.1c.1 0 1.3.3 2.5.7-.6 1-1.2 2-1.8 3-.4.6-.8 1.1-1.2 1.6-1.7 2-3.3 4-5 5.9-.1-2.6-.2-5.2-.5-7.7-.5-4.3 2.3-3.6 6-3.5z"/><path d="m185.8 307.1c-.4 1.5-.5 4-1.5 4.5-1.6.8-3.8.2-5.8.2.7-1.4 1.3-2.8 2-4.1.4-.7.9-1.4 1.4-2 .9-1.1 1.9-2.2 2.8-3.3.4 1.4.7 2.9 1.1 4.7z"/><path d="m222.9 256.8c-1.2 1-2.4 2.2-3.9 3-.5.2-1.6-.8-2.4-1.2 1.6-2 3.2-4.1 4.8-6.1.3 1 .7 2.1 1.5 4.3z"/></g></svg>