<?xml version="1.0" encoding="utf-8"?>
<!-- Generator: Adobe Illustrator 22.0.0, SVG Export Plug-In . SVG Version: 6.00 Build 0)  -->
<svg version="1.1" id="Layer_1" xmlns="http://www.w3.org/2000/svg" xmlns:xlink="http://www.w3.org/1999/xlink" x="0px" y="0px"
	 viewBox="0 0 520 520" style="enable-background:new 0 0 520 520;" xml:space="preserve">
<style type="text/css">
	.st0{fill:#178CC7;}
	.st1{fill:#41BAE7;}
	.st2{fill:#135B89;}
	.st3{fill:#CF9A40;}
	.st4{fill:#7846A2;}
	.st5{fill:#FFFFFF;}
</style>
<g>
	<path class="st0" d="M441.4,4.5c0,10.7-0.1,21.3,0.1,32c0.1,3.1-0.9,4-4,3.9c-8.8-0.2-17.7-0.2-26.5,0c-3.4,0.1-4.6-0.8-4.5-4.4
		c0.2-10.5,0-21-0.1-31.5C418.1,4.5,429.8,4.5,441.4,4.5z"/>
	<path class="st0" d="M515.4,4.5c0,10.6,0,21.2,0.2,31.9c0.1,2.9-0.7,4.1-3.8,4c-9.3-0.2-18.6-0.1-27.9-0.1c-2.2,0-3.9,0-3.9-3
		c0.2-10.9,0.3-21.9,0.4-32.8C492.1,4.5,503.8,4.5,515.4,4.5z"/>
	<path class="st0" d="M4.4,261.5c10.3,0,20.7,0.1,31-0.1c3.1-0.1,4,0.9,3.9,4c-0.2,8.8-0.2,17.7,0,26.5c0.1,3.4-0.8,4.6-4.4,4.5
		c-10.2-0.2-20.3,0-30.5,0.1C4.4,284.8,4.4,273.1,4.4,261.5z"/>
	<path class="st1" d="M4.4,334.5c10.3,0,20.6,0.1,30.9-0.1c2.9,0,4.1,0.7,4,3.9c-0.2,9.1-0.2,18.3,0,27.4c0.1,3.2-1.1,3.9-4,3.9
		c-10.3-0.1-20.6-0.1-30.9-0.1C4.4,357.8,4.4,346.1,4.4,334.5z"/>
	<path class="st0" d="M4.4,224.5c10.1,0.1,20.2,0.2,30.4,0.1c3.4,0,4.7,0.7,4.6,4.4c-0.3,8.8-0.2,17.6,0,26.4c0.1,3-0.5,4.4-4,4.4
		c-10.3-0.3-20.6-0.2-30.9-0.2C4.4,247.8,4.4,236.1,4.4,224.5z"/>
	<path class="st0" d="M4.4,151.5c10.2,0.1,20.3,0.3,30.5,0.1c3.6-0.1,4.5,1.1,4.4,4.5c-0.2,8.8-0.2,17.7,0,26.5c0.1,3.1-0.8,4-3.9,4
		c-10.3-0.2-20.7-0.1-31-0.1C4.4,174.8,4.4,163.1,4.4,151.5z"/>
	<path class="st2" d="M4.4,444.5c10.5,0,20.9,0,31.4-0.2c3-0.1,3.5,1.2,3.5,3.8c-0.1,9.1-0.2,18.3,0,27.4c0.1,3.2-1.1,3.9-4,3.8
		c-10.3-0.1-20.6,0.1-30.8,0.1C4.4,467.8,4.4,456.1,4.4,444.5z"/>
	<path class="st2" d="M4.4,407.5c10.2,0.1,20.3,0.3,30.5,0.1c3.6-0.1,4.5,1.1,4.4,4.5c-0.2,8.8-0.2,17.7,0,26.5
		c0.1,3.1-0.8,4-3.9,3.9c-10.3-0.2-20.7-0.1-31-0.1C4.4,430.8,4.4,419.1,4.4,407.5z"/>
	<path class="st0" d="M4.4,78.5c10.3,0,20.7,0.1,31-0.1c3.1-0.1,4,0.9,3.9,4c-0.2,8.8-0.2,17.7,0,26.5c0.1,3.4-0.8,4.6-4.4,4.5
		c-10.2-0.2-20.3,0-30.5,0.1C4.4,101.8,4.4,90.1,4.4,78.5z"/>
	<path class="st0" d="M477.4,4.5c0.1,10.9,0.3,21.9,0.2,32.8c0,1-2,2.8-3.2,2.9c-9.3,0.2-18.6,0-27.9,0.2c-2.7,0-3.4-1-3.3-3.5
		c0.1-10.8,0.1-21.6,0.2-32.4C454.8,4.5,466.1,4.5,477.4,4.5z"/>
	<path class="st3" d="M406.4,515.5c0.1-10,0.3-20,0.1-29.9c-0.1-3.6,1.1-4.5,4.6-4.5c8.8,0.2,17.6,0.2,26.5,0c3-0.1,4,0.9,4,3.9
		c-0.2,10.1-0.1,20.3-0.1,30.4C429.8,515.5,418.1,515.5,406.4,515.5z"/>
	<path class="st2" d="M333.4,515.5c0-10.2,0.1-20.3-0.1-30.5c-0.1-3,0.6-4.1,3.8-4c9.2,0.2,18.3,0.2,27.5,0c3.2-0.1,3.9,1,3.8,4
		c-0.2,10.2-0.1,20.3-0.1,30.5C356.8,515.5,345.1,515.5,333.4,515.5z"/>
	<path class="st2" d="M4.4,371.5c10.5-0.1,20.9,0,31.4-0.2c2.5,0,3.5,0.7,3.5,3.3c-0.1,9.3,0,18.6-0.2,27.9c0,1.1-1.8,3.2-2.8,3.2
		c-10.6,0.1-21.2-0.1-31.8-0.3C4.4,394.1,4.4,382.8,4.4,371.5z"/>
	<path class="st2" d="M223.4,515.5c0.1-10,0.3-19.9,0.1-29.9c0-3.4,0.8-4.7,4.4-4.6c8.8,0.2,17.6,0.2,26.4,0c3.1-0.1,4.4,0.6,4.3,4
		c-0.3,10.1-0.2,20.3-0.2,30.4C246.8,515.5,235.1,515.5,223.4,515.5z"/>
	<path class="st4" d="M77.4,515.5c0-10.2,0.1-20.3-0.1-30.5c-0.1-3.1,0.9-4,3.9-3.9c8.8,0.2,17.7,0.2,26.5,0
		c3.4-0.1,4.6,0.9,4.6,4.5c-0.2,10,0,20,0.1,30C100.8,515.5,89.1,515.5,77.4,515.5z"/>
	<path class="st2" d="M4.4,298.5c10.6-0.1,21.2-0.3,31.8-0.3c1,0,2.8,1.7,2.8,2.7c0.2,9.6,0.2,19.3,0,28.9c0,1-2.1,2.7-3.3,2.7
		c-10.5,0.2-20.9,0-31.4,0C4.4,321.1,4.4,309.8,4.4,298.5z"/>
	<path class="st1" d="M4.4,481.5c10.6-0.1,21.3-0.1,31.9-0.3c3-0.1,3,1.8,3,3.9c0,10.1,0.1,20.3,0.1,30.4c-10.8,0-21.7-0.1-32.5,0.1
		c-2.2,0-2.6-0.4-2.6-2.6C4.5,502.5,4.4,492,4.4,481.5z"/>
	<path class="st0" d="M4.4,188.5c10.3,0,20.6,0,30.9-0.2c2.9-0.1,4.1,0.7,4,3.8c-0.2,9-0.1,17.9-0.1,26.9c0,2.2,0,3.9-3,3.9
		c-10.6-0.2-21.2-0.3-31.8-0.4C4.4,211.1,4.4,199.8,4.4,188.5z"/>
	<path class="st0" d="M4.4,115.5c10.3,0,20.6,0,30.9-0.2c2.9-0.1,4.1,0.7,4,3.8c-0.2,9-0.1,17.9-0.1,26.9c0,2.2,0,3.9-3,3.9
		c-10.6-0.2-21.2-0.3-31.8-0.4C4.4,138.1,4.4,126.8,4.4,115.5z"/>
	<path class="st2" d="M41.4,515.5c-0.1-10.6-0.3-21.3-0.3-31.9c0-0.8,1.7-2.4,2.7-2.4c9.7-0.2,19.3-0.2,29,0c1,0,2.6,2.1,2.7,3.3
		c0.2,10.3,0,20.6,0,31C64.1,515.5,52.8,515.5,41.4,515.5z"/>
	<path class="st3" d="M370.4,515.5c0-10.2,0-20.3-0.2-30.5c-0.1-3.1,1.1-4,4-3.9c8.8,0.2,17.6,0.1,26.5,0.1c2,0,4.1-0.2,4,2.9
		c-0.2,10.5-0.2,21-0.3,31.4C393.1,515.5,381.8,515.5,370.4,515.5z"/>
	<path class="st2" d="M187.4,515.5c0-10.3,0-20.6-0.2-31c0-2.5,0.6-3.5,3.3-3.5c9.3,0.1,18.6,0,28,0.2c1.1,0,3.1,1.8,3.1,2.8
		c0.1,10.5-0.1,20.9-0.2,31.4C210.1,515.5,198.8,515.5,187.4,515.5z"/>
	<path class="st4" d="M167.4,515.5c-2.2-10-4.2-20.1-6.5-30.1c-0.8-3.4-0.1-4.5,3.4-4.3c5.8,0.2,11.6,0.2,17.4,0
		c3.2-0.1,3.8,1.2,3.8,4.1c-0.1,10.1-0.1,20.2-0.1,30.4C179.4,515.5,173.4,515.5,167.4,515.5z"/>
	<path class="st2" d="M260.4,515.5c0-10,0.1-20-0.1-29.9c-0.1-3.3,0.6-4.7,4.3-4.5c5.8,0.3,11.6,0.2,17.5,0c3.1-0.1,3.6,0.9,2.9,3.8
		c-2.3,10.2-4.4,20.4-6.6,30.6C272.4,515.5,266.4,515.5,260.4,515.5z"/>
	<path class="st2" d="M314.4,515.5c0-10.3,0-20.6-0.2-30.9c-0.1-2.9,1-3.5,3.7-3.6c13.6-0.3,13.6-0.4,13.6,13.1
		c0,7.1-0.1,14.3-0.1,21.4C325.8,515.5,320.1,515.5,314.4,515.5z"/>
	<path class="st4" d="M114.4,515.5c-0.1-10.4-0.3-20.9-0.2-31.3c0-1,2-2.8,3.2-2.9c3.6-0.4,7.3,0,10.9-0.2c2.8-0.1,3.3,1.1,3.3,3.6
		c-0.1,10.3-0.1,20.6-0.2,30.8C125.8,515.5,120.1,515.5,114.4,515.5z"/>
	<path class="st0" d="M260.4,278.6c0-4.7,0.1-9.3,0-14c-0.1-2.3,0.6-3.2,3.1-3.2c9.5,0.1,19,0,28.5,0.2c1.1,0,3.2,1.8,3.2,2.8
		c0.2,9.7,0.2,19.3,0,29c0,1-1.8,2.8-2.7,2.8c-9.7,0.2-19.3,0.1-29,0.2c-2.5,0-3.1-1-3-3.3C260.5,288.2,260.4,283.4,260.4,278.6z"/>
	<path class="st2" d="M424,334.5c4.7,0,9.3,0.1,14,0c2.4-0.1,3.6,0.3,3.5,3.2c-0.2,9.6-0.1,19.3,0,28.9c0,2.5-0.9,3.1-3.2,3
		c-9.5-0.1-18.9-0.1-28.4,0c-2.7,0-3.4-0.8-3.4-3.4c0.1-9.5,0.1-18.9,0-28.4c0-2.8,1-3.3,3.5-3.3C414.7,334.6,419.4,334.5,424,334.5
		z"/>
	<path class="st3" d="M368.4,351.8c0,4.7-0.1,9.3,0.1,14c0.1,2.7-0.6,3.8-3.5,3.8c-9.3-0.2-18.6-0.2-27.9,0c-2.9,0-3.7-0.9-3.6-3.7
		c0.2-9.3,0.1-18.6,0-27.9c0-2.5,0.5-3.6,3.3-3.5c9.5,0.1,19,0.1,28.4,0c2.6,0,3.5,0.8,3.4,3.4C368.3,342.5,368.4,347.1,368.4,351.8
		z"/>
	<path class="st1" d="M277.8,369.5c-4.8,0-9.7,0.2-14.5-0.1c-1-0.1-2.7-1.7-2.8-2.7c-0.2-9.8-0.2-19.6,0-29.4c0-0.9,1.8-2.6,2.9-2.6
		c9.6-0.2,19.3-0.2,28.9,0c1,0,2.8,2.1,2.8,3.2c0.2,9.5,0,19,0.2,28.4c0,2.8-1.2,3.3-3.6,3.3C287.1,369.4,282.4,369.5,277.8,369.5z"
		/>
	<path class="st2" d="M150.6,351.9c0-4.5,0.1-9-0.1-13.5c-0.1-2.8,0.4-4.2,3.7-4.1c9.3,0.2,18.6,0.1,27.9,0c2.2,0,3.3,0.3,3.3,2.9
		c-0.1,9.8,0,19.6-0.2,29.4c0,0.9-1.8,2.6-2.7,2.6c-9.6,0.2-19.3,0.1-28.9,0.2c-2.4,0-3.2-0.8-3.1-3.2
		C150.7,361.5,150.6,356.7,150.6,351.9z"/>
	<path class="st4" d="M350.9,261.5c4.7,0,9.3,0.1,14,0c2.4-0.1,3.6,0.3,3.6,3.2c-0.2,9.5-0.2,19,0,28.5c0,2.8-1.2,3.3-3.6,3.3
		c-9.3-0.1-18.6-0.1-28,0c-3,0.1-3.6-1.1-3.6-3.8c0.1-9.2,0.1-18.3,0-27.5c0-2.8,0.6-3.9,3.6-3.7
		C341.6,261.6,346.3,261.5,350.9,261.5z"/>
	<path class="st2" d="M94.8,296.3c-4.8,0-9.7,0.2-14.5-0.1c-1-0.1-2.7-1.7-2.8-2.7c-0.2-9.8-0.2-19.7,0-29.5c0-0.9,1.6-2.4,2.5-2.4
		c9.8-0.2,19.7-0.2,29.5,0c0.9,0,2.6,1.8,2.6,2.8c0.2,9.7,0.2,19.3,0,29c0,1-1.8,2.7-2.8,2.7C104.5,296.4,99.6,296.3,94.8,296.3z"/>
	<path class="st2" d="M441.4,278.8c0,4.7-0.1,9.3,0,14c0.1,2.4-0.4,3.6-3.2,3.6c-9.5-0.2-19,0-28.5-0.2c-1.1,0-3-1.9-3-3
		c-0.2-9.5-0.1-19-0.2-28.5c0-2.3,0.6-3.2,3.1-3.2c9.7,0.1,19.3,0,29,0.2c0.9,0,2.6,1.7,2.7,2.7
		C441.6,269.1,441.4,273.9,441.4,278.8z"/>
	<path class="st4" d="M406.6,241.7c0-4.5,0.1-9,0-13.5c-0.1-2.4,0.4-3.7,3.3-3.6c9.5,0.1,18.9,0.1,28.4,0c2.8,0,3.3,1.2,3.2,3.6
		c-0.1,9.3-0.1,18.6,0,27.9c0.1,2.9-0.9,3.6-3.7,3.6c-9.1-0.1-18.3-0.2-27.4,0c-3.2,0.1-4-1.1-3.8-4.1
		C406.8,251,406.6,246.3,406.6,241.7z"/>
	<path class="st4" d="M351.4,224.6c4.7,0,9.3-0.2,13.9,0.1c1.1,0.1,3,1.9,3,3c0.2,9.6,0.1,19.3,0.2,28.9c0,2.6-1.1,3-3.3,3
		c-9.5-0.1-18.9-0.1-28.4,0c-2.6,0-3.4-0.7-3.4-3.4c0.1-9.5,0.1-18.9,0-28.4c0-2.8,1.1-3.3,3.5-3.3
		C341.7,224.7,346.6,224.6,351.4,224.6z"/>
	<path class="st0" d="M295.3,242.1c0,4.7-0.1,9.3,0,14c0.1,2.4-0.5,3.6-3.3,3.6c-9.5-0.1-18.9-0.2-28.4,0c-2.8,0-3.2-1.1-3.2-3.5
		c0.1-9.3,0.1-18.6,0-27.9c-0.1-2.9,0.9-3.7,3.7-3.6c9.1,0.1,18.3,0.2,27.4,0c3.2-0.1,3.9,1.2,3.8,4.1
		C295.1,233.1,295.3,237.6,295.3,242.1z"/>
	<path class="st0" d="M168.1,259.6c-4.7,0-9.3-0.1-14,0c-2.4,0.1-3.6-0.5-3.6-3.3c0.1-9.5,0.1-18.9,0-28.4c0-2.7,1.1-3.4,3.5-3.3
		c9.3,0.1,18.6,0.1,27.9,0c2.5,0,3.5,0.7,3.5,3.3c-0.1,9.5-0.1,18.9,0,28.4c0,2.7-1,3.4-3.5,3.3
		C177.4,259.5,172.7,259.6,168.1,259.6z"/>
	<path class="st2" d="M94.9,224.7c4.7,0,9.3,0.1,14,0c2.6-0.1,3.5,0.7,3.5,3.4c-0.1,9.5,0,19-0.2,28.4c0,1.1-1.9,3-2.9,3
		c-9.6,0.2-19.3,0.2-28.9,0c-1,0-2.7-1.7-2.7-2.7c-0.2-9.8-0.2-19.6,0-29.4c0-0.9,1.8-2.5,2.8-2.6C85.2,224.5,90,224.7,94.9,224.7z"
		/>
	<path class="st2" d="M77.4,351.6c0-4.5,0.1-9,0-13.5c-0.1-2.6,0.3-3.9,3.4-3.8c9.3,0.2,18.6,0.2,27.9,0c2.9-0.1,3.6,0.9,3.6,3.7
		c-0.2,9.3-0.1,18.6,0,27.9c0,2.5-0.5,3.6-3.3,3.5c-9.5-0.2-18.9-0.2-28.4,0c-2.8,0-3.3-1-3.2-3.5C77.5,361.3,77.4,356.4,77.4,351.6
		z"/>
	<path class="st2" d="M350.6,442.5c-4.7,0-9.3-0.2-14,0.1c-2.7,0.1-3.3-0.9-3.3-3.4c0.1-9.3,0.2-18.6,0-27.9
		c-0.1-2.9,0.9-3.7,3.7-3.6c9.3,0.2,18.6,0.2,27.9,0c3-0.1,3.6,1.1,3.5,3.8c-0.1,9.3-0.2,18.6,0,27.9c0,2.7-0.9,3.4-3.4,3.3
		C360.3,442.4,355.4,442.5,350.6,442.5z"/>
	<path class="st1" d="M258.6,425c0,4.7-0.1,9.3,0,14c0.1,2.5-0.7,3.5-3.4,3.5c-9.5-0.1-19,0-28.5-0.2c-1.1,0-3-1.9-3-3
		c-0.2-9.5-0.1-19-0.2-28.5c0-2.8,1.2-3.3,3.6-3.3c9.3,0.1,18.7,0.1,28,0c2.6,0,3.5,0.9,3.4,3.5C258.5,415.7,258.6,420.4,258.6,425z
		"/>
	<path class="st2" d="M441.4,425.3c0,3.8-0.4,7.7,0.1,11.5c0.7,5.1-1.4,6-6,5.8c-8.5-0.4-17-0.2-25.5-0.1c-2.6,0-3.5-0.7-3.4-3.4
		c0.1-9.3,0.2-18.7,0-28c-0.1-3,1.1-3.6,3.8-3.6c9.2,0.1,18.3,0.2,27.5,0c2.9-0.1,3.7,0.9,3.6,3.7
		C441.3,416,441.4,420.6,441.4,425.3z"/>
	<path class="st0" d="M94.7,186.5c-4.7,0-9.3-0.1-14,0.1c-2.7,0.1-3.4-0.9-3.3-3.4c0.1-9.3,0.1-18.7,0-28c0-2.5,0.5-3.6,3.3-3.5
		c9.3,0.1,18.7,0.2,28,0c2.9,0,3.7,1,3.7,3.8c-0.1,9.2-0.1,18.3,0,27.5c0,2.8-0.7,3.8-3.6,3.7C104,186.3,99.4,186.5,94.7,186.5z"/>
	<path class="st1" d="M77.4,425.1c0-4.7,0.1-9.3,0-14c-0.1-2.5,0.6-3.6,3.3-3.6c9.5,0.1,19-0.1,28.4,0.2c1.1,0,3,2,3,3.1
		c0.2,9.5,0.2,19,0,28.4c0,1.1-1.9,3-3,3.1c-9.6,0.2-19.3,0.2-28.9,0c-1,0-2.6-1.8-2.7-2.8C77.3,434.7,77.4,429.9,77.4,425.1z"/>
	<path class="st0" d="M150.6,169.1c0-4.7,0.1-9.3,0-14c-0.1-2.5,0.7-3.6,3.4-3.5c9.5,0.1,19,0.1,28.5,0c2.5,0,3.1,1,3.1,3.2
		c-0.1,9.5-0.1,19,0,28.5c0,2.3-0.6,3.2-3,3.2c-9.7-0.1-19.3,0-29-0.2c-1,0-2.7-1.7-2.7-2.8C150.5,178.8,150.6,173.9,150.6,169.1z"
		/>
	<path class="st2" d="M77.4,461.6c0-4.7,0.1-9.3-0.1-14c-0.1-2.7,0.8-3.4,3.4-3.3c9.3,0.1,18.6,0.1,27.9,0c2.4,0,3.7,0.3,3.6,3.2
		c-0.2,9.5-0.1,19,0,28.4c0,2.7-0.9,3.4-3.5,3.4c-9.3-0.1-18.6-0.2-27.9,0c-3,0.1-3.6-1.1-3.5-3.8C77.6,470.9,77.4,466.2,77.4,461.6
		z"/>
	<path class="st0" d="M277.8,151.6c4.7,0,9.3,0.1,14,0c2.5-0.1,3.6,0.6,3.5,3.4c-0.1,9.5-0.1,19,0,28.5c0,2.5-0.9,3.1-3.2,3.1
		c-9.5-0.1-19-0.1-28.5,0c-2.3,0-3.2-0.5-3.2-3c0.1-9.5,0.1-19,0-28.5c0-2.6,0.8-3.5,3.4-3.4C268.5,151.8,273.1,151.6,277.8,151.6z"
		/>
	<path class="st4" d="M241.3,479.3c-4.8,0-9.7,0.2-14.5-0.1c-1.1-0.1-3-1.9-3.1-3c-0.2-9.6-0.2-19.3,0-28.9c0-1,1.8-2.8,2.7-2.8
		c9.8-0.2,19.6-0.2,29.4,0c0.9,0,2.5,1.9,2.6,2.9c0.2,9.5,0,19,0.2,28.4c0.1,3.1-1.3,3.6-3.9,3.5
		C250.3,479.2,245.8,479.3,241.3,479.3z"/>
	<path class="st0" d="M350.9,186.5c-4.7,0-9.3-0.1-14,0c-2.4,0.1-3.6-0.3-3.6-3.2c0.2-9.5,0.2-19,0-28.5c0-2.8,1.2-3.3,3.6-3.2
		c9.3,0.1,18.7,0.1,28,0c3-0.1,3.6,1.1,3.5,3.8c-0.1,9.2-0.2,18.3,0,27.5c0,2.8-0.7,3.8-3.6,3.7
		C360.3,186.3,355.6,186.5,350.9,186.5z"/>
	<path class="st2" d="M350.9,444.3c4.8,0,9.7,0.1,14.5,0c2.4-0.1,3.1,0.8,3.1,3.1c-0.1,9.5-0.1,19,0,28.4c0,2.5-0.6,3.5-3.3,3.5
		c-9.5-0.1-19-0.1-28.4,0c-2.7,0-3.4-0.9-3.3-3.5c0.1-9.5,0.1-19,0-28.4c0-2.4,0.6-3.2,3.1-3.1C341.3,444.4,346.1,444.3,350.9,444.3
		z"/>
	<path class="st0" d="M515.6,96.3c0,4.5-0.1,9,0,13.5c0.1,2.4-0.5,3.6-3.3,3.6c-9.6-0.1-19.3-0.1-28.9,0c-2.7,0-3.4-1.1-3.4-3.5
		c0.1-9.3,0.1-18.6,0-27.9c0-2.5,0.7-3.5,3.4-3.5c9.6,0.1,19.3,0.1,28.9,0c2.7,0,3.4,0.9,3.3,3.5C515.5,86.7,515.6,91.5,515.6,96.3z
		"/>
	<path class="st2" d="M406.6,169c0-4.5,0.1-9,0-13.5c-0.1-2.6,0.4-3.9,3.5-3.9c9.3,0.2,18.7,0.1,28,0c2.6,0,3.4,0.8,3.4,3.4
		c-0.1,9.5-0.1,19,0,28.5c0,2.5-0.9,3-3.2,3c-9.5-0.1-19-0.1-28.5,0c-2.8,0-3.3-1.1-3.2-3.6C406.7,178.3,406.6,173.6,406.6,169z"/>
	<path class="st0" d="M406.6,95.9c0-4.7,0.1-9.3,0-14c-0.1-2.5,0.6-3.6,3.3-3.5c9.5,0.1,19,0.1,28.5,0c2.4,0,3.2,0.7,3.1,3.1
		c-0.1,9.5-0.1,19,0,28.5c0,2.7-1,3.4-3.5,3.3c-9.3-0.1-18.7-0.1-28,0c-2.6,0-3.5-0.8-3.5-3.4C406.7,105.2,406.6,100.6,406.6,95.9z"
		/>
	<path class="st0" d="M350.9,78.5c4.7,0,9.3,0.1,14,0c2.4-0.1,3.6,0.3,3.6,3.2c-0.2,9.5-0.2,19,0,28.5c0,2.8-1.2,3.3-3.6,3.3
		c-9.3-0.1-18.7-0.1-28,0c-3,0.1-3.6-1.1-3.6-3.8c0.1-9.2,0.1-18.3,0-27.5c0-2.8,0.6-3.8,3.6-3.7C341.6,78.6,346.3,78.5,350.9,78.5z
		"/>
	<path class="st3" d="M424.4,444.3c4.5,0,9,0.1,13.5,0c2.4-0.1,3.6,0.5,3.6,3.3c-0.1,9.5-0.1,19,0,28.5c0,2.8-1.1,3.3-3.6,3.3
		c-9.3-0.1-18.7-0.1-28,0c-2.7,0-3.4-1-3.4-3.5c0.1-9.3,0.1-18.7,0-28c-0.1-3.1,1.3-3.6,3.9-3.5
		C415.1,444.4,419.8,444.3,424.4,444.3z"/>
	<path class="st0" d="M77.2,95.6c0.3-5.6,0.6-11.2,0.8-16.8c5.5-0.1,10.9-0.3,16.4-0.4c5-0.1,10-0.2,15,0.1c1,0.1,2.7,1.7,2.8,2.7
		c0.2,9.7,0.2,19.3,0,29c0,1-2,2.9-3.1,2.9c-9.5,0.2-19,0.1-28.5,0.2c-2.4,0-3.2-0.9-3.1-3.2c0.1-4.8,0-9.7,0-14.5
		C77.3,95.6,77.3,95.6,77.2,95.6z"/>
	<path class="st4" d="M260.4,425c0-4.7,0.1-9.3,0-14c-0.1-2.6,0.8-3.4,3.4-3.4c9.3,0.1,18.6,0.1,28,0c2.5,0,3.6,0.7,3.5,3.4
		c-0.1,8.8-0.1,17.6-0.1,26.5c0,3.5-1,5.3-5.2,5.1c-8.6-0.4-17.3-0.2-26-0.1c-2.7,0-3.9-0.6-3.7-3.6
		C260.6,434.3,260.4,429.6,260.4,425z"/>
	<path class="st2" d="M168.1,407.6c4.7,0,9.3,0.1,14,0c2.5-0.1,3.5,0.6,3.5,3.3c-0.1,9.5-0.2,18.9,0,28.4c0.1,2.8-1.1,3.2-3.5,3.2
		c-9.1-0.1-18.3-0.2-27.4,0c-3,0.1-3.9-1.4-3.9-3.7c-0.1-9.5-0.2-18.9,0-28.4c0-0.9,1.8-2.6,2.9-2.6
		C158.4,407.5,163.3,407.6,168.1,407.6z"/>
	<path class="st1" d="M185.4,388.7c0,4.5-0.1,9,0,13.5c0.1,2.4-0.5,3.6-3.3,3.6c-9.5-0.1-19,0.1-28.4-0.2c-1.1,0-3-2-3-3.1
		c-0.2-9.3-0.1-18.6-0.2-27.9c0-2.8,1.2-3.3,3.6-3.3c9.3,0.1,18.6,0.1,27.9,0c2.7,0,3.5,0.9,3.4,3.5
		C185.3,379.4,185.4,384.1,185.4,388.7z"/>
	<path class="st2" d="M313.9,261.5c4.7,0,9.3,0.1,14-0.1c2.7-0.1,3.8,0.6,3.7,3.5c-0.2,9.3-0.1,18.6,0,28c0,2.6-0.8,3.5-3.4,3.4
		c-9.3-0.1-18.6,0-28-0.2c-1.1,0-3-1.9-3.1-3c-0.2-9.6-0.2-19.3,0-29c0-0.9,1.8-2.6,2.8-2.6C304.6,261.3,309.3,261.5,313.9,261.5z"
		/>
	<path class="st1" d="M95.2,371.3c4.7,0,9.3-0.2,14,0.1c1.1,0.1,3,1.9,3,3c0.2,9.3,0.1,18.6,0.2,27.9c0,2.7-1.2,3.4-3.6,3.3
		c-9.3-0.1-18.6-0.1-27.9,0c-2.7,0-3.4-1-3.4-3.5c0.1-9.1,0.2-18.3,0-27.4c-0.1-3,1.2-3.6,3.8-3.5C85.9,371.5,90.5,371.3,95.2,371.3
		z"/>
	<path class="st2" d="M370.3,278.5c0-4.7,0.1-9.3,0-14c-0.1-2.4,0.7-3.1,3.1-3.1c9.5,0.1,19,0.1,28.5,0c2.5,0,3.1,0.9,3,3.2
		c-0.1,9.5,0.1,19-0.2,28.5c0,1.1-1.9,3-3,3c-9.5,0.2-19,0.2-28.5,0c-1,0-2.7-2-2.8-3.2C370.1,288.2,370.3,283.3,370.3,278.5z"/>
	<path class="st3" d="M94.7,332.6c-4.5,0-9-0.1-13.5,0c-2.6,0.1-3.9-0.4-3.9-3.5c0.2-9.2,0.2-18.3,0-27.5c-0.1-3,1.1-3.6,3.8-3.6
		c9.2,0.1,18.3,0.1,27.5,0c2.9,0,3.7,1,3.7,3.8c-0.1,9-0.2,18,0,27c0.1,3.3-1.3,3.9-4.1,3.8C103.7,332.5,99.2,332.6,94.7,332.6z"/>
	<path class="st2" d="M241.2,405.9c-4.6,0-9.3-0.1-13.9,0.1c-2.9,0.1-3.7-1-3.6-3.8c0.1-9.1,0.1-18.3,0-27.4c0-2.5,0.7-3.5,3.3-3.5
		c9.5,0.1,18.9,0.1,28.4,0c2.7,0,3.3,1,3.3,3.5c-0.1,9.1-0.2,18.3,0,27.4c0.1,3.2-1.1,3.9-4,3.8
		C250.1,405.7,245.6,405.9,241.2,405.9z"/>
	<path class="st2" d="M350.7,332.6c-4.7,0-9.3-0.2-14,0.1c-2.7,0.1-3.3-0.9-3.3-3.4c0.1-9.3,0.1-18.7,0-28c0-2.3,0.6-3.2,3.1-3.2
		c9.7,0.1,19.3,0.1,29,0c2.5,0,3.1,0.9,3,3.2c-0.1,9.3-0.1,18.7,0,28c0,2.6-0.6,3.5-3.3,3.4C360.4,332.5,355.5,332.6,350.7,332.6z"
		/>
	<path class="st4" d="M277.7,371.3c4.7,0,9.3,0.1,14,0c2.4-0.1,3.7,0.4,3.6,3.2c-0.1,9.3-0.1,18.6,0,27.9c0,2.6-0.9,3.5-3.5,3.4
		c-9.3-0.1-18.6-0.1-27.9,0c-2.4,0-3.6-0.5-3.5-3.3c0.1-9.5,0-18.9,0.2-28.4c0-1,1.7-2.7,2.7-2.7
		C268.1,371.2,272.9,371.3,277.7,371.3z"/>
	<path class="st2" d="M424.3,332.6c-4.8,0-9.7-0.1-14.5,0c-2.3,0.1-3.2-0.7-3.2-3.1c0.1-9.3,0.1-18.6,0-28c0-2.5,0.7-3.6,3.4-3.5
		c9.5,0.1,19,0.1,28.5,0c2.5,0,3.1,0.9,3.1,3.2c-0.1,9.5-0.1,19,0,28.5c0,2.6-1,3-3.2,3C433.6,332.5,428.9,332.6,424.3,332.6z"/>
	<path class="st2" d="M370.3,461.7c0-4.7,0.1-9.3,0-14c-0.1-2.6,0.6-3.5,3.3-3.4c9.3,0.2,18.7,0.2,28,0c2.7,0,3.3,1,3.3,3.5
		c-0.1,9.3-0.1,18.7,0,28c0,2.5-0.7,3.6-3.4,3.5c-9.3-0.1-18.7-0.1-28,0c-2.9,0-3.3-1.2-3.2-3.6
		C370.4,471.1,370.3,466.4,370.3,461.7z"/>
	<path class="st2" d="M370.3,351.8c0-4.8-0.2-9.7,0.1-14.5c0.1-1,1.7-2.7,2.7-2.7c9.7-0.2,19.3-0.2,29,0c0.9,0,2.6,1.8,2.6,2.8
		c0.2,9.7,0.1,19.3,0.2,29c0,2.4-0.8,3.1-3.1,3.1c-9.5-0.1-19-0.1-28.5,0c-2.6,0-3-1-3-3.2C370.4,361.4,370.3,356.6,370.3,351.8z"/>
	<path class="st3" d="M350.9,371.3c4.8,0,9.7-0.2,14.5,0.1c1.1,0.1,2.9,1.9,3,3c0.2,9.3,0.1,18.6,0.2,28c0,2.7-1,3.4-3.5,3.4
		c-9.3-0.1-18.6-0.1-28,0c-2.9,0-3.7-1-3.7-3.7c0.1-9.2,0.1-18.3,0-27.5c0-2.7,1-3.4,3.5-3.3C341.5,371.4,346.2,371.3,350.9,371.3z"
		/>
	<path class="st2" d="M75.6,352.5c0,4.5-0.2,9,0.1,13.5c0.2,2.9-0.9,3.6-3.7,3.6c-9.2-0.2-18.3-0.1-27.5,0c-2.5,0-3.5-0.6-3.5-3.3
		c0.1-9.5,0.1-19,0-28.5c0-2.7,0.9-3.3,3.5-3.3c9.2,0.1,18.3,0.1,27.5,0c2.8,0,3.8,0.6,3.7,3.6C75.4,342.8,75.6,347.6,75.6,352.5z"
		/>
	<path class="st2" d="M221.8,351.9c0,4.8-0.1,9.7,0,14.5c0.1,2.4-0.7,3.2-3.1,3.1c-9.5-0.1-19,0-28.5-0.2c-1,0-2.8-1.6-2.8-2.6
		c-0.2-9.8-0.2-19.7,0-29.5c0-1,1.7-2.7,2.7-2.7c9.7-0.2,19.3-0.2,29,0c0.9,0,2.6,1.8,2.6,2.8C222,342.2,221.8,347,221.8,351.9z"/>
	<path class="st2" d="M441.4,388.9c0,4.5-0.1,9,0,13.5c0.1,2.5-0.5,3.5-3.3,3.5c-9.5-0.2-19,0-28.5-0.2c-1.1,0-3-2-3-3
		c-0.2-9.5-0.2-19,0-28.5c0-1,1.8-2.7,2.7-2.8c9.7-0.2,19.3-0.1,29-0.2c2.5,0,3.1,0.9,3,3.2C441.3,379.3,441.4,384.1,441.4,388.9z"
		/>
	<path class="st2" d="M221.8,462c0,4.3-0.2,8.7,0.1,13c0.2,3.6-1.2,4.5-4.6,4.4c-8.7-0.2-17.3-0.2-26,0c-2.9,0.1-4.2-0.5-4.1-3.8
		c0.2-9.2,0.2-18.3,0-27.5c0-2.7,0.5-3.8,3.5-3.8c9.2,0.2,18.3,0.2,27.5,0c2.9-0.1,3.8,0.9,3.6,3.7
		C221.7,452.6,221.8,457.3,221.8,462z"/>
	<path class="st2" d="M75.6,425.5c0,4.7-0.1,9.3,0,14c0.1,2.4-0.8,3.1-3.1,3.1c-9.5-0.1-19,0-28.5-0.2c-1,0-2.8-1.7-2.8-2.6
		c-0.2-9.6-0.2-19.3,0-29c0-1.1,1.9-3,3-3c9.3-0.2,18.6-0.1,28-0.2c2.6,0,3.6,0.7,3.5,3.4C75.4,415.8,75.6,420.6,75.6,425.5z"/>
	<path class="st1" d="M75.6,462c0,4.2-0.2,8.3,0.1,12.5c0.2,3.6-0.6,5-4.6,4.9c-8.6-0.3-17.3-0.2-26,0c-3.1,0.1-4-1-4-4
		c0.2-9,0.1-18,0-27c0-2.9,0.7-4.1,3.9-4.1c9,0.2,18,0.2,27,0c2.9,0,3.8,1,3.7,3.8C75.4,452.7,75.6,457.4,75.6,462z"/>
	<path class="st2" d="M221.8,425.5c0,4.5-0.1,9,0,13.5c0,2.3-0.2,3.7-3.2,3.6c-9.5-0.2-19-0.2-28.5,0c-2.6,0-3-1-3-3.2
		c0.1-9.5,0.1-19,0-28.5c0-2.3,0.7-3.2,3.1-3.2c9.3,0.1,18.6,0.2,28,0c3.1-0.1,3.6,1.3,3.5,3.9C221.7,416.1,221.8,420.8,221.8,425.5
		z"/>
	<path class="st2" d="M370.3,425c0-4.7,0.1-9.3,0-14c-0.1-2.6,0.8-3.5,3.4-3.4c9.3,0.1,18.6,0,28,0.2c1.1,0,3,1.9,3.1,3
		c0.2,9.6,0.2,19.3,0,29c0,0.9-1.8,2.6-2.8,2.6c-9.5,0.2-19,0-28.5,0.2c-2.9,0.1-3.3-1.2-3.2-3.5C370.4,434.3,370.3,429.7,370.3,425
		z"/>
	<path class="st0" d="M41.1,242c0-4.5,0.2-9-0.1-13.5c-0.2-3.1,1-4,4-3.9c9,0.2,18,0.2,27,0c2.9-0.1,3.7,1,3.6,3.8
		c-0.1,9.3-0.1,18.6,0,28c0,2.7-0.9,3.4-3.5,3.3c-9.2-0.1-18.3-0.1-27.5,0c-2.8,0-3.8-0.9-3.7-3.7C41.2,251.3,41.1,246.6,41.1,242z"
		/>
	<path class="st4" d="M424.1,188.3c4.8,0,9.6-0.2,14.4,0.1c1,0.1,2.7,1.7,2.7,2.7c0.2,9.6,0.2,19.3,0,28.9c0,0.9-1.8,2.6-2.9,2.6
		c-9.5,0.2-18.9,0.1-28.4,0.2c-2.6,0-3.5-0.8-3.5-3.4c0.1-9.3,0.1-18.6,0-27.9c0-2.8,1.3-3.3,3.6-3.2
		C414.8,188.4,419.5,188.3,424.1,188.3z"/>
	<path class="st0" d="M368.4,205.5c0,4.8,0.2,9.7-0.1,14.5c-0.1,1-1.7,2.8-2.7,2.8c-9.8,0.2-19.6,0.2-29.4,0c-0.9,0-2.6-1.8-2.6-2.8
		c-0.2-9.5-0.1-19-0.2-28.4c0-2.4,0.7-3.2,3.1-3.1c9.6,0.1,19.3-0.1,28.9,0.2c1,0,2.8,1.9,2.9,3
		C368.6,196.1,368.4,200.8,368.4,205.5z"/>
	<path class="st0" d="M277.4,222.8c-4.5,0-9-0.2-13.5,0.1c-2.9,0.1-3.6-1-3.6-3.7c0.1-9.1,0.1-18.3,0-27.4c0-2.5,0.6-3.5,3.3-3.5
		c9.5,0.1,18.9,0,28.4,0.2c1.1,0,3,1.9,3,3c0.2,9.3,0.1,18.6,0.2,27.9c0,2.5-0.8,3.6-3.4,3.5C287.1,222.7,282.3,222.8,277.4,222.8z"
		/>
	<path class="st0" d="M241.5,188.3c4.7,0,9.3-0.2,14,0.1c1.1,0.1,3,1.9,3,2.9c0.2,9.3,0.1,18.6,0.2,28c0,2.5-0.7,3.5-3.4,3.5
		c-9.5-0.1-19-0.1-28.5,0c-2.8,0-3.2-1.3-3.2-3.7c0.1-9.2,0.1-18.3,0-27.5c0-2.6,0.8-3.5,3.4-3.4
		C231.8,188.4,236.6,188.3,241.5,188.3z"/>
	<path class="st0" d="M185.4,205.9c0,4.5-0.1,9,0,13.5c0.1,2.5-0.6,3.6-3.3,3.5c-9.5-0.1-19,0-28.4-0.2c-1.1,0-3-2-3-3
		c-0.2-9.5-0.2-18.9,0-28.4c0-1,2.1-2.7,3.2-2.8c9.5-0.2,18.9-0.1,28.4-0.2c2.4,0,3.2,0.8,3.1,3.2
		C185.3,196.3,185.4,201.1,185.4,205.9z"/>
	<path class="st0" d="M331.6,95.6c0,4.7-0.1,9.3,0,14c0.1,2.7-0.6,3.9-3.6,3.8c-9.1-0.2-18.3-0.1-27.4,0c-2.4,0-3.6-0.6-3.6-3.3
		c0.1-9.5,0.1-18.9,0-28.4c0-2.3,0.7-3.2,3.1-3.2c9.5,0.1,18.9,0.1,28.4,0c2.5,0,3.1,0.9,3,3.2C331.5,86.3,331.6,90.9,331.6,95.6z"
		/>
	<path class="st0" d="M94.8,188.3c4.7,0,9.3,0.1,14,0c2.4-0.1,3.6,0.4,3.6,3.2c-0.1,9.3-0.1,18.6,0,27.9c0,2.7-1,3.4-3.5,3.4
		c-9.3-0.1-18.6-0.1-27.9,0c-2.5,0-3.5-0.6-3.5-3.3c0.1-9.3,0.1-18.6,0-27.9c0-2.7,0.8-3.5,3.4-3.4
		C85.4,188.5,90.1,188.3,94.8,188.3z"/>
	<path class="st0" d="M370.3,95.7c0-4.7,0.1-9.3-0.1-14c-0.1-2.6,0.8-3.4,3.4-3.4c9.1,0.1,18.3,0.1,27.4,0c2.7,0,3.9,0.5,3.8,3.5
		c-0.2,9.3-0.1,18.6,0,27.9c0,2.6-0.8,3.5-3.5,3.5c-9.1-0.1-18.3-0.1-27.4,0c-2.8,0-3.9-0.8-3.7-3.6
		C370.5,105.1,370.3,100.4,370.3,95.7z"/>
	<path class="st0" d="M404.8,169.3c0,4-0.3,8,0.1,12c0.3,4-0.7,5.5-5.1,5.3c-8.6-0.4-17.3-0.2-25.9-0.1c-2.8,0.1-3.7-0.8-3.7-3.6
		c0.2-9.3,0.1-18.6,0-27.9c0-2.6,0.9-3.4,3.5-3.4c9.3,0.1,18.6-0.1,27.9,0.2c1.1,0,2.9,1.9,3,3C405,159.6,404.8,164.4,404.8,169.3z"
		/>
	<path class="st0" d="M297.1,169.4c0-4.7,0.1-9.3,0-14c-0.1-2.6,0.5-3.9,3.5-3.9c9.3,0.2,18.6,0,27.9,0.2c1.1,0,2.9,2,3,3
		c0.2,9.5,0.1,18.9,0.2,28.4c0,2.2-0.4,3.3-3,3.3c-9.5-0.1-19-0.1-28.4,0c-2.9,0-3.2-1.3-3.2-3.6
		C297.1,178.4,297.1,173.9,297.1,169.4z"/>
	<path class="st0" d="M131.7,151.6c4.5,0,9,0.1,13.5,0c2.5-0.1,3.6,0.6,3.6,3.3c-0.1,9.5-0.1,19,0,28.5c0,2.5-0.9,3.1-3.2,3.1
		c-9.5-0.1-19-0.1-28.5,0c-2.5,0-3.1-0.9-3.1-3.2c0.1-9.5-0.1-19,0.2-28.5c0-1.1,1.9-2.9,3-3C122.1,151.4,126.9,151.6,131.7,151.6z"
		/>
	<path class="st0" d="M75.6,169.3c0,4.5-0.1,9,0.1,13.5c0.1,2.7-0.6,3.8-3.6,3.7c-9.1-0.2-18.3-0.2-27.4,0c-2.9,0.1-3.7-0.9-3.6-3.7
		c0.2-9.1,0.1-18.3,0-27.4c0-2.7,0.7-3.9,3.6-3.8c9.1,0.2,18.3,0.2,27.4,0c3-0.1,3.6,1.1,3.6,3.8C75.5,160,75.6,164.7,75.6,169.3z"
		/>
	<path class="st0" d="M94.5,149.8c-4.7,0-9.3-0.1-14,0c-2.4,0.1-3.1-0.8-3.1-3.2c0.1-9.5,0.1-18.9,0-28.4c0-2.6,1.1-3,3.3-3
		c9.5,0.1,19-0.1,28.4,0.2c1.1,0,3,1.9,3,2.9c0.2,9.3,0,18.6,0.2,27.9c0.1,3-1.3,3.6-3.9,3.5C103.8,149.7,99.1,149.8,94.5,149.8z"/>
	<path class="st2" d="M423.9,149.9c-4.5,0-9-0.1-13.5,0c-2.7,0.1-3.9-0.6-3.8-3.6c0.2-9.2,0.1-18.3,0-27.5c0-2.5,0.5-3.6,3.3-3.6
		c9.5,0.1,19,0.1,28.5,0c2.3,0,3.2,0.6,3.2,3c-0.1,9.5-0.1,19,0,28.5c0,2.4-0.8,3.2-3.1,3.1C433.5,149.8,428.7,149.9,423.9,149.9z"
		/>
	<path class="st0" d="M185.4,132.9c0,4.5-0.1,9,0,13.5c0.1,2.5-0.6,3.6-3.3,3.5c-9.5-0.1-19,0-28.4-0.2c-1.1,0-3-2-3-3
		c-0.2-9.3-0.1-18.6-0.2-27.9c0-2.6,0.8-3.5,3.4-3.4c9.5,0.1,18.9,0.1,28.4,0c2.4,0,3.2,0.8,3.1,3.2
		C185.3,123.3,185.4,128.1,185.4,132.9z"/>
	<path class="st0" d="M350.9,149.8c-4.7,0-9.3-0.1-14,0c-2.4,0.1-3.6-0.4-3.6-3.2c0.2-9.5,0-19,0.2-28.4c0-1,1.7-2.7,2.7-2.8
		c9.8-0.2,19.6-0.2,29.4,0c0.9,0,2.6,1.8,2.7,2.8c0.2,9.5,0,19,0.2,28.4c0,2.8-1.2,3.3-3.6,3.2C360.3,149.8,355.6,149.8,350.9,149.8
		z"/>
	<path class="st0" d="M295.3,132.8c0,4.5-0.1,9,0,13.5c0.1,2.4-0.6,3.6-3.3,3.6c-9.5-0.1-18.9-0.1-28.4,0c-2.3,0-3.2-0.7-3.2-3.1
		c0.1-9.5,0.1-18.9,0-28.4c0-2.5,0.9-3.1,3.2-3c9.5,0.1,18.9,0.1,28.4,0c2.8,0,3.4,1.1,3.3,3.6C295.2,123.5,295.3,128.2,295.3,132.8
		z"/>
	<path class="st0" d="M497.7,76.6c-4.8,0-9.7,0.2-14.5-0.1c-1.1-0.1-3-1.9-3-3c-0.2-9.5-0.2-19,0-28.5c0-1,1.8-2.8,2.8-2.8
		c9.8-0.2,19.7-0.2,29.5,0c1.1,0,2.9,1.9,3,3c0.2,9.3,0.1,18.7,0.2,28c0,2.6-0.8,3.5-3.4,3.4C507.4,76.5,502.6,76.6,497.7,76.6z"/>
	<path class="st2" d="M131.7,261.2c5.6,0.3,11.2,0.5,16.8,0.8c0.1,5.5,0.3,10.9,0.3,16.4c0.1,4.8-0.1,9.6,0.1,14.5
		c0.1,2.6-0.8,3.5-3.4,3.4c-9.3-0.1-18.6-0.1-27.9,0c-2.6,0-3.5-0.8-3.5-3.4c0.1-9.5,0.1-19,0-28.4c0-2.5,0.9-3.1,3.2-3
		c4.8,0.1,9.6,0,14.5,0C131.7,261.4,131.7,261.3,131.7,261.2z"/>
	<path class="st2" d="M75.6,279.4c0,4.5-0.1,9,0,13.5c0.1,2.5-0.7,3.5-3.4,3.5c-9.2-0.1-18.3-0.1-27.5,0c-2.7,0-3.9-0.7-3.8-3.6
		c0.2-9.3,0.1-18.6,0-28c0-2.7,0.9-3.4,3.4-3.3c9.3,0.1,18.6,0.2,28,0c2.8,0,3.3,1,3.2,3.5C75.5,269.7,75.6,274.5,75.6,279.4z"/>
	<path class="st0" d="M75.6,95.9c0,4.7-0.1,9.3,0,14c0.1,2.5-0.6,3.6-3.3,3.5c-9.3-0.1-18.6-0.1-27.9,0c-2.7,0-3.4-1.1-3.3-3.6
		c0.1-9.3,0.1-18.6,0-27.9c0-2.6,0.8-3.5,3.4-3.4c9.3,0.1,18.6,0.1,27.9,0c2.7,0,3.4,1,3.3,3.5C75.5,86.5,75.6,91.2,75.6,95.9z"/>
	<path class="st0" d="M148.8,96c0,4.5-0.1,9,0,13.5c0.1,2.7-0.7,3.9-3.6,3.8c-9.2-0.2-18.3-0.2-27.5,0c-2.9,0-3.8-0.9-3.7-3.7
		c0.1-9.3,0.1-18.7,0-28c0-2.3,0.7-3.2,3.1-3.2c9.5,0.1,19,0.1,28.5,0c2.9,0,3.3,1.3,3.2,3.6C148.7,86.7,148.8,91.4,148.8,96z"/>
	<path class="st1" d="M370.3,241.7c0-4.5,0.1-9,0-13.5c-0.1-2.4,0.4-3.7,3.2-3.7c9.3,0.1,18.7-0.1,28,0.2c1.1,0,3.1,1.9,3.1,3
		c0.2,9.5,0.1,19,0.2,28.5c0,2.7-1,3.4-3.6,3.4c-9.2-0.1-18.3-0.1-27.5,0c-2.6,0-3.6-0.8-3.5-3.4
		C370.4,251.4,370.3,246.6,370.3,241.7z"/>
	<path class="st0" d="M148.8,242.6c0,4.5-0.1,9,0,13.5c0.1,2.4-0.4,3.7-3.2,3.6c-9.5-0.1-19,0-28.4-0.2c-1.1,0-3-1.9-3-3
		c-0.2-9.5-0.1-18.9-0.2-28.4c0-2.6,0.9-3.5,3.5-3.4c9.3,0.1,18.6,0.1,27.9,0c2.6,0,3.5,0.9,3.4,3.5
		C148.7,232.9,148.8,237.7,148.8,242.6z"/>
	<path class="st1" d="M297.1,241.9c0-4.5,0.1-9,0-13.5c-0.1-2.7,0.7-3.9,3.7-3.8c9.2,0.1,18.3,0.1,27.5,0c2.7,0,3.4,1.1,3.4,3.6
		c-0.1,9.3-0.1,18.7,0,28c0,2.5-0.6,3.6-3.4,3.5c-9.2-0.1-18.3-0.1-27.5,0c-2.9,0-3.8-1-3.7-3.8
		C297.3,251.2,297.1,246.5,297.1,241.9z"/>
	<path class="st2" d="M114,351.9c0-4.7,0.1-9.3,0-14c-0.1-2.4,0.4-3.6,3.2-3.5c9.5,0.2,19,0.1,28.5,0c2.4,0,3.2,0.7,3.2,3.1
		c-0.1,9.7-0.1,19.3,0,29c0,2.5-1,2.9-3.2,3c-10,0.4-9.9,0.5-12.5-9.4c-0.3-1.2-1-2.3-1.5-3.4c0,1.2-0.1,2.3-0.1,3.5
		c-0.1,9.2-0.1,9.2-9.4,9.2c-8.1,0-8.1,0-8.1-8C114,358.3,114,355.1,114,351.9z"/>
	<path class="st4" d="M331.6,351.9c0,4.8-0.1,9.6,0,14.5c0.1,2.3-0.7,3.3-3.1,3.2c-3.5-0.2-7-0.3-10.5,0c-3.3,0.3-4-1.1-3.8-4
		c0.2-2.9-0.1-5.9-0.1-8.8c-0.9,2.9-2.1,5.8-2.6,8.8c-0.5,3-1.8,4-4.9,4c-9.6-0.1-9.6,0.1-9.6-9.2c0-7.5,0.1-15,0-22.4
		c0-2.5,0.7-3.5,3.4-3.5c9.3,0.1,18.6,0.1,27.9,0c2.8,0,3.4,1.1,3.3,3.5C331.5,342.6,331.6,347.2,331.6,351.9z"/>
	<path class="st0" d="M314.5,115.3c4.7,0,9.3-0.2,14,0.1c1.1,0.1,2.9,1.9,3,3c0.2,9.5,0.2,19,0,28.5c0,1-1.8,2.8-2.7,2.8
		c-9.5,0.2-19,0.2-28.5,0c-1.1,0-3-2-3-3c-0.2-9.5-0.2-19,0-28.5c0-1,1.8-2.7,2.8-2.7C304.8,115.2,309.7,115.3,314.5,115.3z"/>
	<path class="st0" d="M404.8,133c0,4.5-0.1,9,0,13.5c0.1,2.6-0.9,3.5-3.5,3.4c-9.3-0.1-18.7,0.1-28-0.2c-1.1,0-2.9-2-2.9-3.1
		c-0.2-9.5-0.2-19,0-28.5c0-1,1.8-2.7,2.8-2.7c9.5-0.2,19-0.2,28.5,0c1.1,0,2.9,1.9,3,3C405,123.3,404.8,128.1,404.8,133z"/>
	<path class="st0" d="M131.4,149.8c-4.7,0-9.3-0.1-14,0c-2.6,0.1-3.5-0.9-3.4-3.5c0.1-9.3-0.1-18.6,0.2-27.9c0-1.1,1.9-3,3-3
		c9.5-0.2,19-0.2,28.4,0c1.1,0,3,1.9,3,3c0.2,9.3,0.1,18.6,0.2,27.9c0,2.6-0.8,3.6-3.4,3.5C140.8,149.7,136.1,149.8,131.4,149.8z"/>
	<path class="st0" d="M314.4,222.8c-4.7,0-9.3-0.1-14,0c-2.7,0.1-3.4-1-3.4-3.5c0.1-9.2,0.1-18.3,0-27.5c0-2.4,0.4-3.7,3.2-3.6
		c9.5,0.1,19,0,28.5,0.2c1,0,2.7,1.8,2.7,2.8c0.2,9.5,0.2,19,0,28.5c0,1.1-1.9,2.9-3,3C323.8,223,319.1,222.8,314.4,222.8z"/>
	<path class="st0" d="M58.4,149.8c-4.7,0-9.3-0.1-14,0c-2.7,0.1-3.4-1-3.4-3.5c0.1-9.2,0.1-18.3,0-27.5c0-2.4,0.4-3.7,3.2-3.6
		c9.5,0.1,19,0,28.5,0.2c1,0,2.7,1.8,2.7,2.8c0.2,9.5,0.2,19,0,28.5c0,1.1-1.9,2.9-3,3C67.8,150,63.1,149.8,58.4,149.8z"/>
	<path class="st2" d="M404.8,205.8c0,4.7,0.2,9.3-0.1,14c-0.1,1.1-1.9,3-3,3c-9.5,0.2-19,0.2-28.4,0c-1,0-2.8-1.7-2.8-2.6
		c-0.2-9.6-0.2-19.3,0-28.9c0-1,1.7-2.7,2.7-2.7c9.6-0.2,19.3-0.2,28.9,0c0.9,0,2.6,1.8,2.6,2.8C405,196.1,404.8,200.9,404.8,205.8z
		"/>
	<path class="st2" d="M370.3,388.4c0-4.7,0.1-9.3,0-14c-0.1-2.4,0.8-3.1,3.1-3.1c9.5,0.1,19,0.1,28.4,0c2.5,0,3.1,1,3,3.2
		c-0.1,9.3-0.1,18.6,0,27.9c0,2.6-0.8,3.5-3.4,3.4c-9.3-0.1-18.6-0.1-27.9,0c-2.8,0-3.3-1.2-3.2-3.6
		C370.4,397.7,370.3,393,370.3,388.4z"/>
	<path class="st1" d="M386.9,332.6c-4.5,0-9,0.2-13.5-0.1c-1.1-0.1-3-1.9-3-3c-0.2-9.3-0.1-18.6-0.2-27.9c0-2.7,1.1-3.4,3.6-3.4
		c9.1,0.1,18.3,0.1,27.4,0c2.6,0,3.5,0.9,3.5,3.5c-0.1,9.1-0.1,18.3,0,27.4c0,3-1.3,3.6-3.9,3.6
		C396.3,332.5,391.6,332.6,386.9,332.6z"/>
	<path class="st0" d="M187.3,205.3c0-4.5,0.1-9,0-13.5c-0.1-2.5,0.6-3.5,3.3-3.5c9.3,0.1,18.7,0.1,28,0c2.8,0,3.3,1.1,3.3,3.6
		c-0.1,9.2-0.1,18.3,0,27.5c0.1,3-1.3,3.6-3.9,3.6c-9-0.1-18-0.1-27,0c-2.8,0-3.9-0.7-3.7-3.6C187.4,214.6,187.3,209.9,187.3,205.3z
		"/>
	<path class="st2" d="M331.6,315c0,4.8-0.1,9.7,0,14.5c0.1,2.3-0.6,3.2-3,3.2c-9.5-0.1-19-0.1-28.4,0c-2.4,0-3.1-0.8-3.1-3.2
		c0.1-9.3,0.1-18.6,0-27.9c0-2.5,0.7-3.5,3.4-3.5c9.3,0.1,18.6,0.1,27.9,0c2.7,0,3.4,1,3.3,3.5C331.5,306,331.6,310.5,331.6,315z"/>
	<path class="st2" d="M58.5,371.3c4.7,0,9.3,0.1,14,0c2.4-0.1,3.1,0.7,3.1,3.1c-0.1,9.5-0.1,19,0,28.4c0,2.5-1,3.1-3.2,3
		c-9.3-0.1-18.6-0.1-27.9,0c-2.6,0-3.5-0.8-3.4-3.4c0.1-9.3,0.1-18.6,0-27.9c0-2.8,1.2-3.3,3.6-3.2
		C49.2,371.4,53.9,371.3,58.5,371.3z"/>
	<path class="st0" d="M131.7,188.3c4.7,0,9.3-0.2,14,0.1c1.1,0.1,3,1.9,3,3c0.2,9.3,0.1,18.6,0.2,27.9c0,2.5-0.8,3.5-3.4,3.5
		c-9.3-0.1-18.6-0.1-28,0c-2.6,0-3.5-0.9-3.5-3.5c0.1-9.3-0.1-18.6,0.2-27.9c0-1.1,1.9-2.9,3-3C122,188.1,126.8,188.3,131.7,188.3z"
		/>
	<path class="st2" d="M131.4,332.6c-4.7,0-9.3-0.1-14,0c-2.6,0.1-3.5-0.7-3.4-3.3c0.1-9.3,0.1-18.6,0-27.9c0-2.7,1-3.4,3.5-3.3
		c9.3,0.1,18.6,0.1,27.9,0c2.6,0,3.5,0.8,3.4,3.4c-0.1,9.3-0.1,18.6,0,27.9c0,2.8-1,3.4-3.5,3.3
		C140.7,332.5,136.1,332.6,131.4,332.6z"/>
	<path class="st2" d="M204.8,371.3c4.7,0,9.3,0.1,14,0c2.4-0.1,3.2,0.8,3.1,3.1c-0.1,9.3-0.1,18.6,0,27.9c0,2.5-0.6,3.6-3.3,3.5
		c-9.3-0.1-18.6-0.1-27.9,0c-2.7,0-3.4-0.9-3.3-3.5c0.1-9.1,0.2-18.3,0-27.4c-0.1-3.3,1.2-3.8,4.1-3.7
		C195.8,371.5,200.3,371.3,204.8,371.3z"/>
	<path class="st0" d="M75.6,205.5c0,4.5-0.2,9,0.1,13.5c0.2,3.2-1,3.9-4,3.9c-8.8-0.2-17.7-0.2-26.5,0c-3.4,0.1-4.2-1.2-4.1-4.3
		c0.2-8.7,0.2-17.3,0-26c-0.1-3.1,0.6-4.4,4.1-4.3c8.8,0.2,17.7,0.2,26.5,0c3.4-0.1,4.2,1.2,4.1,4.3
		C75.4,196.9,75.6,201.2,75.6,205.5z"/>
	<path class="st2" d="M57.9,332.6c-4.5,0-9-0.1-13.5,0c-2.5,0.1-3.5-0.6-3.5-3.3c0.1-9.3,0.1-18.6,0-27.9c0-2.7,1-3.4,3.5-3.3
		c9.3,0.1,18.6,0.1,27.9,0c2.4,0,3.2,0.7,3.2,3.1c-0.1,9.5-0.1,19,0,28.4c0,2.5-0.9,3.1-3.2,3C67.6,332.5,62.8,332.6,57.9,332.6z"/>
	<path class="st2" d="M185.4,461.9c0,4.8,0.2,9.7-0.1,14.5c-0.1,1-1.7,2.7-2.7,2.7c-6.8,0.2-13.7,0.2-20.5,0c-1,0-2.6-1.3-2.9-2.3
		c-2.4-9.9-4.5-19.8-6.8-29.7c-0.5-2.2,0.2-2.9,2.5-2.9c9.2,0.1,18.3,0.1,27.5,0c2.4,0,3.1,0.8,3.1,3.2
		C185.3,452.3,185.4,457.1,185.4,461.9z"/>
	<path class="st2" d="M260.4,461c0-4.2,0.2-8.3-0.1-12.5c-0.2-3,0.4-4.4,4-4.3c8.5,0.3,17,0.2,25.5,0c3-0.1,4.2,0.5,3.4,3.8
		c-2.2,9-4.2,18.1-6.1,27.2c-0.6,2.8-1.6,4.2-4.9,4c-6.1-0.3-12.3-0.2-18.5,0c-2.6,0.1-3.6-0.6-3.5-3.3
		C260.6,471,260.4,466,260.4,461z"/>
	<path class="st0" d="M168.2,113.3c-4.8,0-9.6,0.2-14.4-0.1c-1.1-0.1-3-1.9-3-3c-0.2-9.5,0-18.9-0.2-28.4c0-2.7,1-3.2,3.5-3.3
		c14.3-0.5,14.3-0.6,20.7,12.2c3.3,6.5,6.5,13.1,9.8,19.5c1.2,2.3,0.9,3.3-1.9,3.2C177.8,113.2,173,113.3,168.2,113.3z"/>
	<path class="st0" d="M295.3,96c0,4.6-0.1,9.3,0,13.9c0.1,2.7-0.9,3.4-3.5,3.4c-9.5-0.1-18.9-0.1-28.4,0c-3.3,0-3.2-1.1-2-3.5
		c4.9-9.6,9.6-19.3,14.5-28.9c0.5-1,1.7-2.3,2.7-2.4c4.8-0.2,9.6-0.2,14.4,0c0.8,0,2,1.9,2,2.9C295.4,86.4,295.3,91.2,295.3,96z"/>
	<path class="st0" d="M204.4,186.7c-5.6-0.3-11.2-0.6-16.7-0.9c-0.1-5.4-0.3-10.9-0.4-16.3c-0.1-4.8,0.1-9.6-0.1-14.4
		c-0.1-2.5,0.6-3.8,3.3-3.5c0.2,0,0.3,0,0.5,0c13.9-0.5,13.9-0.5,20.2,12.1c2.9,5.8,5.8,11.6,8.6,17.4c2.7,5.4,2.7,5.4-3.6,5.4
		c-4,0-8,0-12,0C204.4,186.6,204.4,186.7,204.4,186.7z"/>
	<path class="st0" d="M241.4,186.5c-4.8,0-9.6-0.1-14.5,0c-2.4,0-3.5-0.5-2.2-3.1c5-9.9,9.9-19.9,15-29.8c0.4-0.9,1.7-1.8,2.5-1.9
		c4.6-0.2,9.3-0.2,14,0c0.8,0,2.2,1.5,2.2,2.3c0.2,10,0.2,19.9,0,29.9c0,0.9-1.9,2.3-3,2.4C250.7,186.6,246.1,186.5,241.4,186.5z"/>
	<path class="st3" d="M295.3,315.3c0,4.3-0.2,8.7,0.1,12.9c0.2,3.6-1.2,4.4-4.6,4.4c-13,0-13,0.1-13-12.9c0-1.3-0.1-2.7,0-4
		c0.2-2.8-0.8-4-3.7-3.8c-1.5,0.1-3,0.1-4.5,0c-2.9-0.2-8.1,0.3-8.4-0.7c-1.2-3.6-0.8-7.8-0.6-11.7c0-0.6,1.9-1.6,2.9-1.7
		c9.5-0.1,18.9,0,28.4-0.1c2.6,0,3.5,1,3.4,3.5C295.2,306,295.3,310.7,295.3,315.3z"/>
	<path class="st0" d="M168,261.5c5,0,10,0.1,15,0c2.6,0,3,0.9,1.5,2.9c-7.4,10.2-14.6,20.6-22.5,30.4c-1.5,1.9-6.4,1.4-9.7,1.3
		c-0.6,0-1.5-3.4-1.6-5.3c-0.2-8.3,0.1-16.6-0.2-24.9c-0.1-3.6,1.1-4.6,4.5-4.3C159.3,261.7,163.7,261.5,168,261.5z"/>
	<path class="st0" d="M222,278.8c0,4.7-0.1,9.3,0,14c0.1,2.5-0.7,3.6-3.4,3.5c-8.8-0.1-17.6-0.1-26.4,0c-2.7,0-2.8-0.8-1.3-2.8
		c7.4-10,14.6-20.2,22.3-29.9c1.3-1.6,4.9-1.6,7.5-1.9c0.2,0,1.1,3,1.2,4.6C222.1,270.5,222,274.7,222,278.8z"/>
	<path class="st2" d="M331.6,461.8c0,4.6-0.2,9.3,0.1,13.9c0.1,2.9-1,3.6-3.7,3.6c-13.6,0.3-13.6,0.4-13.6-13.1
		c0-6.1,0.1-12.3,0-18.4c0-2.4,0.4-3.7,3.2-3.5c3.6,0.2,7.3,0.2,11,0c2.8-0.2,3.3,1.1,3.2,3.5C331.5,452.5,331.6,457.1,331.6,461.8z
		"/>
	<path class="st2" d="M131.6,425.5c0,4.7-0.1,9.3,0,14c0.1,2.4-0.8,3-3.1,3.1c-14.4,0.7-14.4,0.7-14.4-13.7c0-5.8,0.1-11.6,0-17.5
		c-0.1-2.8,0.9-3.6,3.7-3.7c13.9-0.4,13.9-0.5,13.9,13.4C131.6,422.5,131.6,424,131.6,425.5z"/>
	<path class="st2" d="M331.6,425c0,4.8-0.1,9.6,0,14.4c0.1,2.4-0.7,3-3.1,3.1c-14.3,0.7-14.3,0.8-14.3-13.3c0-6,0.1-11.9-0.1-17.9
		c-0.1-2.7,0.7-3.7,3.6-3.7c13.8-0.4,13.8-0.4,13.8,13.4C331.6,422.3,331.6,423.7,331.6,425z"/>
	<path class="st2" d="M131.6,461.8c0,4.6-0.2,9.3,0.1,13.9c0.1,2.9-1,3.5-3.7,3.6c-13.9,0.3-13.9,0.4-13.9-13.4
		c0-6,0.1-11.9-0.1-17.9c-0.1-2.7,0.6-3.9,3.5-3.7c4.4,0.3,10.5-1.4,12.9,0.8c2.3,2.1,0.9,8.3,1.1,12.7
		C131.6,459.1,131.6,460.5,131.6,461.8z"/>
	<path class="st2" d="M131.6,388.9c0,4.3-0.1,8.7,0,13c0.1,2.8-0.4,4-3.7,4.1c-13.8,0.2-13.8,0.3-13.8-13.5c0-5.8,0.1-11.6-0.1-17.5
		c-0.1-2.7,0.6-3.9,3.6-3.7c4.4,0.3,10.5-1.4,12.9,0.9c2.3,2.2,0.9,8.3,1.1,12.8C131.6,386.2,131.6,387.6,131.6,388.9z"/>
	<path class="st2" d="M331.6,389c0,4.5-0.1,9,0,13.5c0.1,2.5-0.7,3.4-3.3,3.5c-14,0.6-14,0.7-14-13.3c0-6,0.1-12,0-18
		c-0.1-2.6,0.7-3.3,3.3-3.4c14-0.5,14-0.6,14,13.2C331.6,386,331.6,387.5,331.6,389z"/>
	<path class="st0" d="M187.3,242c0-4.7,0.1-9.3,0-14c-0.1-2.6,0.8-3.5,3.4-3.5c6.3,0.2,12.7,0,19,0.1c1.7,0,3.8-0.2,1.9,2.6
		c-7.4,10.2-14.9,20.5-22.3,30.7c-0.3,0.4-1,0.6-1.5,0.9c-0.1-0.6-0.4-1.2-0.4-1.8C187.3,252,187.3,247,187.3,242z"/>
	<path class="st2" d="M204.4,311.9c-2.7,0-5.3,0.1-8,0c-2.9-0.1-8,0.4-8.4-0.7c-1.2-3.4-0.8-7.4-0.7-11.2c0-0.6,1.5-1.7,2.2-1.7
		c9.8-0.1,19.6-0.2,29.4,0c0.9,0,2.5,1.8,2.6,2.9c0.4,2.6,0.4,5.3,0,7.9c-0.2,1.1-1.8,2.6-2.8,2.7
		C214.1,312,209.2,311.9,204.4,311.9z"/>
	<path class="st2" d="M148.9,389.1c0,4.6,0.1,9.3-0.1,13.9c-0.1,1-1.5,2.8-2.2,2.7c-1.3-0.1-3.4-1.1-3.6-2c-2.4-10-4.5-20-6.7-30.1
		c-0.1-0.5-0.1-1-0.2-1.5c3.5-0.3,7-0.7,10.5-0.7c0.8,0,2.2,1.7,2.3,2.7C149,379.1,148.9,384.1,148.9,389.1z"/>
	<path class="st2" d="M297,388.3c0-4.5,0.2-9-0.1-13.5c-0.1-2.9,1-3.6,3.7-3.6c9.7-0.1,9.7-0.2,7.5,9.3c-1.6,7.3-3.3,14.6-4.8,21.9
		c-0.5,2.5-1.6,4.3-4.2,3.3c-1.1-0.4-2-2.6-2.1-4C296.8,397.3,297,392.8,297,388.3z"/>
	<path class="st0" d="M195.6,149.8c-8.3,0-8.3,0-8.3-8.4c0-7,0-14,0-21c0-0.8,0.2-1.6,0.3-2.3c0.6,0.7,1.4,1.2,1.8,2
		c4.4,8.6,8.6,17.2,13,25.8c1.5,2.8,1.4,4.3-2.3,4C198.6,149.7,197.1,149.8,195.6,149.8z"/>
	<path class="st0" d="M258.6,133.5c0,4.3-0.1,8.6,0,13c0.1,2.6-0.9,3.3-3.4,3.4c-14,0.6-14,0.7-7.9-11.6c3.1-6.2,6.2-12.5,9.3-18.7
		c0.3-0.6,0.8-1,1.1-1.5c0.2,0.7,0.7,1.3,0.7,2C258.6,124.5,258.6,129,258.6,133.5z"/>
	<path class="st4" d="M296.9,418.2c0-2.7-0.3-5.4,0.2-7.9c0.2-1,2-1.7,3-2.6c0.5,0.9,1.5,2,1.3,2.8c-1,5.4-2.3,10.7-3.5,16
		c-0.1,0.4-0.5,0.8-0.7,1.2c-0.1-0.5-0.2-1-0.2-1.6C296.9,423.5,296.9,420.8,296.9,418.2z"/>
	<path class="st2" d="M148.9,418.5c0,2.5,0,5,0,7.4c0,0.5,0,1.1,0,1.6c-0.4-0.5-1-1-1.1-1.5c-1.2-5.3-2.4-10.6-3.4-16
		c-0.1-0.7,0.8-1.6,1.3-2.4c1.1,0.6,3,1.2,3.1,1.9C149.1,412.5,148.9,415.5,148.9,418.5z"/>
	<path class="st2" d="M156.6,298.1c0.1,0,1.3,0.3,2.5,0.7c-0.6,1-1.2,2-1.8,3c-0.4,0.6-0.8,1.1-1.2,1.6c-1.7,2-3.3,4-5,5.9
		c-0.1-2.6-0.2-5.2-0.5-7.7C150.1,297.3,152.9,298,156.6,298.1z"/>
	<path class="st2" d="M185.8,307.1c-0.4,1.5-0.5,4-1.5,4.5c-1.6,0.8-3.8,0.2-5.8,0.2c0.7-1.4,1.3-2.8,2-4.1c0.4-0.7,0.9-1.4,1.4-2
		c0.9-1.1,1.9-2.2,2.8-3.3C185.1,303.8,185.4,305.3,185.8,307.1z"/>
	<path class="st1" d="M222.9,256.8c-1.2,1-2.4,2.2-3.9,3c-0.5,0.2-1.6-0.8-2.4-1.2c1.6-2,3.2-4.1,4.8-6.1
		C221.7,253.5,222.1,254.6,222.9,256.8z"/>
	<path class="st5" d="M260.4,312.5v-89.7l-46.3,0.3l-64.3,88.3l-0.7,23h73.3v37h38v-37.3h17v-21.7H260.4z M176.4,312.5l45-60l0.7,60
		H176.4z"/>
</g>
</svg>
