<svg enable-background="new 0 0 1024 538" viewBox="0 0 1024 538" xmlns="http://www.w3.org/2000/svg"><path d="m0 538c0-179.3 0-358.7 0-538h1024v538c-341.3 0-682.7 0-1024 0zm299.8-171.1c.5-1.7.9-3.6 1.6-5.5 4.2-11 8.5-22 12.8-32.9 5.3-13.4 10.8-26.8 16.2-40.2 2.6-6.5 5.1-13 7.6-19.5 1.7-4.6 3.4-9.3 4.9-14 .3-.8-.2-1.8-.4-3.3-2.4.9-4.4 1.5-6.4 2.4-12.2 5.7-24.4 11.3-36.5 17.2-31.1 15.2-61.9 30.8-92.4 47.2-6.4 3.5-12.8 7-19.2 10.6-2.7 1.6-5.6 2.9-7.2 6.1-.8 9.1 1.8 17.6 6 25.7.9 1.8 2.4 2.6 4.7 3 15.3-5.7 30.7-12.2 46.8-16.7-.2.5-.6.8-.9 1-8.9 4.8-17.9 9.6-26.8 14.3-11.4 6.1-22.9 12.2-34.3 18.4-2.4 1.3-5.2 2.5-6.6 5.6-1.1 12.9 4.8 22.9 14.1 31.9 2-.5 3.8-.7 5.4-1.4 6.5-2.9 13-5.9 19.5-8.9 17.5-8.1 34.9-16.2 52.5-24.2 12.6-5.4 25.2-10.9 38.6-16.8zm195.4-201.4c-.7-4.3-2.1-9.3-7.5-13-4.1.7-8.6 1.2-13.1 2.2-3.9.9-7.6 2.2-11.5 3.3-15.1 4.5-30.2 8.8-45.2 13.5-28.2 8.9-55.9 19-83.1 30.6-13.7 5.9-27.4 12-40.8 18.5-13.2 6.3-26.1 13.1-39.1 19.9-7.5 3.9-15 7.8-22.3 12.3-3.7 2.3-6.8 5.6-10.2 8.5-.2.2-.2.6-.3 1.3 6.2 2 8 7.1 7.9 12.9 2.6 1.5 4.1-.2 5.7-1.2 4.5-2.8 9-5.6 13.8-8.7 3.3 4.1 6.6 2.6 10.3.7 4.1-2.2 8.4-4.1 12.6-5.9 16.3-7.1 32.4-14.5 48.8-21.2s33-13 49.7-19c14-5 28.3-9.6 42.5-14 23.3-7.2 46.8-13.3 70.5-19 4.5-1.1 8.9-2.3 13.4-3.5.4-3.7.8-6.9 1.3-11.1-.5-1.6-1.7-3.9-3.4-7.1zm-113.1 72.5c6.1 4.5 11.5 8.2 16.2 13.1 8.7 9.1 18.6 17.2 26.6 27 .4.5 1.1.7 1.7 1.1 5.5-2.6 10.9-5 16.3-7.6 9.4-4.6 18.7-9.5 28.2-13.8 20.5-9.4 41.2-18.5 61.8-27.7 1.9-.8 3.5-2 4.3-4.6-3-12.1-6.7-24.4-17-33.8-2.1.4-4.1.7-6 1.3-13.5 4.1-27 8-40.4 12.4-18.5 6-36.9 12.2-55.2 18.4-10.4 3.5-20.6 7.5-30.8 11.3-1.7.4-3.2 1.5-5.7 2.9zm66.5 72h5c10.8-.3 21.6-.6 32.4-.8 4.7-.1 9.3-.2 14-.1 3 .1 5.9-.5 8.8-1.5 9.7-3.2 19.5-6.6 29.3-9.5 14.1-4.2 28.4-7.9 42.6-11.9 1.7-.5 3.3-1.3 5.3-2 .4-3 1.1-5.8 1.1-8.5-.1-4.5-.2-9-1.2-13.3-1.1-4.6-3-9.1-4.9-13.5-1-2.5-3.1-3.9-6-3-.8.2-1.7.1-2.5.3-13.1 2.9-26.2 5.7-39.3 8.8-12.4 2.9-24.8 5.9-37.2 9.1-20.4 5.2-40.5 11.3-60.5 18-1.5.5-2.9 1.3-4.5 2.1 3.6 4.2 7.2 7.7 9.9 11.8 2.9 4.1 5 8.8 7.7 14zm-70.1-8.4c-4.8 10.6-9 21-14 31.1-5.1 10.2-11 20.1-16.4 30.2-5.4 9.9-10.6 19.9-16 30-1.1-1.2-1.9-2-2.4-2.6-3 1-5.8 2-8.1 2.7-4.2-3.1-8.1-5.2-12.5-3.5-2.8-3.2-6-4.9-9.7-6.1-.6-1.5-1.3-3.1-2.1-4.9-1.7.7-3.1 1.3-4.4 2-4.8 2.6-9.5 5.5-14.5 7.8-7 3.2-9.8 8.1-7.5 15.5v.5c.9 5.1 2.1 10.1 4.6 14.7 1.9 3.6 4.4 6.6 9 7.2 8.5-4.1 17-8.1 25.5-12.3 8.7-4.2 17.3-8.6 26-12.8 8.5-4.2 17-8.2 25.5-12.4 8.7-4.2 17.3-8.6 26-12.8 8.5-4.1 17.2-7.6 25.4-12-.5-3.2-.6-6.1-1.3-8.8-2.1-8.2-4.8-16.1-8.2-23.9-5.4-12.1-13.8-21.4-24.9-29.6zm115 72.9c-3 10.5-5.9 20.7-8.8 30.9-.3 0-.5 0-.8 0-1.3-10.1-2.6-20.3-4-30.7-4.7-.9-9-.8-13.2-.1-4.1 14-8.1 27.5-12.3 42.1-.5-4.4-1-7.7-1.1-10.9-.5-10-.8-19.9-1.2-29.9 0-.3-.3-.6-.5-.9-4-1.3-8.1-1.2-11.8.2-3.7 5.9-7.3 11.7-11 17.4s-7.4 11.4-11.1 17.1c1.5-5.2-.3-9.4-3.5-13.4-.8-1-1.6-2.1-2.4-3.2-1.6-2.1-3.1-4.3-4.5-6.3 2.8-5.6 5-6.1 14.2-3 1.2-2.7 2-5.5 1.5-8.5-.5-.4-.9-.8-1.3-.9-4.3-.1-8.7-.9-12.9-.2-8.7 1.6-14.3 13.4-8.4 20.8 2 2.5 3.6 5.2 5.7 7.5 1.9 2.1 2.5 4.2 1.4 7.2-1.1.4-2.5 1-3.9 1.2-4.1.7-7.7-1.1-11.8-3.2-.6 3.5-1.2 6.5-1.7 9.4 7.2 4.3 14.4 4.1 22.6-.6v2.3h9c3.6-5.8 7-11.4 10.5-16.9 4.1.4 7.7-.4 11.8.7v16.3c6.6.2 12.7.3 18.6-.1 3.1-10.8 6-21.2 8.9-31.5 1.2 5.1 1.9 10.3 2.6 15.5.7 5.3.8 10.8 2 16.1 4.9 0 9.4.5 13.5-.3 4.3-14.8 8.4-29.2 12.6-43.7-3-1.4-5.6-.8-8.7-.4zm-130.2-196.1c2.1-1.1 4.2-1.6 5.6-2.9 3.8-3.5 7.4-7.1 10.8-10.9 5.5-6.2 8.9-13.7 10.2-21.8 1.3-7.5-.9-14.4-4.8-20.9-3.5-5.8-7.4-10.6-14.9-11-9.6 2.9-17.8 8.1-23.5 16.9-3.7 5.7-5.2 12.1-6.8 18.6-.4 1.4-.9 3-.7 4.4 1.2 9.9 3.6 19.3 13.2 25.3 3.3.4 7.3-.8 10.9 2.3zm119.2 140.7c-5.3 10-10.6 19.8-15.8 29.5-.3-.1-.5-.1-.8-.2.6-9.7 1.1-19.3 1.7-29-4-.9-9.7-.9-13.9 0-4.6 14.5-9.2 29.1-13.9 44.1h8.6c3-9.6 5.9-18.8 8.9-28.1.2.1.4.1.7.2-.5 9.1-1 18.1-1.6 27.4 3.5 1.6 7 .8 10.8.6 4.8-9.1 9.6-18.2 14.4-27.3-.5 4.6-1.6 9.1-2.8 13.5s-2.5 8.9-3.9 13.5c3.1.9 6 .8 9 .1 1.9-7.5 3.7-14.9 5.7-22.3 2-7.3 4.5-14.4 5.8-22.2-4.6.2-8.6.2-12.9.2zm177.7 12.4c.2 0 .3 0 .5.1 1.2 10.7 2.5 21.5 3.7 32.2h13.5c4.3-15 8.5-29.6 12.8-44.7-1.7-.1-3-.2-4.3-.2-1.5 0-2.9.2-4.4.2-1.6 5.4-3 10.5-4.5 15.5s-2.4 10.3-5 16.2c-1.4-11.2-2.7-21.4-4.1-31.7-4.5 0-8.7 0-13.3 0-4.3 14.8-8.7 29.5-13 44.4 2.7 1 5.5.4 8.6.4 3.3-10.9 6.4-21.6 9.5-32.4zm14.3 75.5c-2-11.1-2.1-22-4.7-32.4-4.4-.7-8.3-.7-12.8 0-4.3 14.7-8.6 29.3-13 44.3h8.7c3.4-10.6 5.6-21.3 9.7-32.3 1.3 11.4 2.4 21.9 3.7 32.7 4.9-.3 9.4.5 13.7-.5 2.2-7.6 4.4-14.9 6.3-22.2s4.8-14.3 6.1-21.8c-5.4-.9-5.4-.9-8.7.8-3 10.3-5.9 20.5-9 31.4zm-43.5-33.5c-5.7 0-10.9 1.5-15.4 5-10 7.8-13.9 18.3-12.6 30.7.5 4.8 3.7 8.3 8.3 9.7 10.9 3.4 21.7 0 28.6-8.5 4.8-5.9 7.2-12.8 7.9-20 .7-7.7-2.4-13.4-9.9-15.8-2.2-.8-4.6-.8-6.9-1.1zm-97.7-54.6c-4.3 15-8.6 29.8-13 45 6.9 0 13.5.4 20.1-.1 5.6-.4 10.6-3 14.3-7.2 7-8 10.4-17.3 9.4-27.9-.6-5.7-3.7-9.3-9.6-9.6-6.9-.5-13.9-.2-21.2-.2zm243 77.8c.3-.1.5-.1.8-.2 1 7.5 1.9 14.9 2.8 22.3h9.9c-.8-6.6-1.6-12.7-2.4-19 7.8-3.4 11.6-9.4 12.4-17.7-1.8-6.5-1.8-6.5-8.9-7.4-.5-.1-1-.3-1.5-.3-5.3-.3-10.6-.4-16.2.1-4.3 14.9-8.6 29.6-12.8 44.5h9.9c2.1-7.6 4.1-14.9 6-22.3zm-200.2 22.5c2.2-8.1 4.3-15.9 6.5-23.9 2 8 1.1 16.1 3.7 23.7 3.3.1 6.4.7 9.5-.5-.9-6.2-1.7-12.2-2.5-18.4 1.3-.9 2.5-1.7 3.8-2.5 6.3-3.9 8.7-9.7 8.1-16.9-.3-3.7-1.9-5.6-5.5-5.9-5.8-.4-11.6-.6-17.4-.7-2.9 0-3.6.7-4.4 3.7-.4 1.4-.7 2.9-1.1 4.3-3.3 11.3-6.6 22.5-9.9 33.8-.3.9-.5 1.7-.8 2.8 1.1.2 1.7.3 2.3.4 2.4.1 4.7.1 7.7.1zm216.8-.7c3.9.8 21.5 1 28 .3.9-2.7 1.9-5.7 2.9-8.8-3.3-1.6-6.3.2-9.4-.1-3.1-.4-6.2.4-9.6-.5 1-3 1.9-5.8 2.8-8.6 5.7-1.8 11.4 1.1 17-.3.9-3.1 1.7-5.9 2.7-9.3-5.9-.3-11.3 0-16.9-.2.7-2.6.6-5.2 2.8-7.1h18.1c.9-2.9 1.7-5.7 2.5-8.7-3.2-1.8-6.4-.8-9.4-1-3.2-.2-6.3-.1-9.5 0-3.1.1-6.3-.6-9.4.7-4.1 14.4-8.3 28.8-12.6 43.6zm-23.2-43.2c-.6-.4-1.3-1.1-2-1.1-8.7 0-17.5-.5-26.2.3-4.3 15-8.5 29.5-12.8 44.4h28c.9-3.2 3.3-6.1 1.8-9.7-3.1.2-5.9.5-8.7.6-2.9 0-5.9.5-9-.5 1.1-3.1 1-6.4 3.1-8.7 5.7-1.5 11.1 1.2 16.6-.3.8-3.1 1.6-5.9 2.5-9.3-5.8 0-11.2 0-17.1 0 1-2.7 1.7-4.8 2.5-7.2h18.7c1-2.9 1.8-5.6 2.6-8.5zm-189.4-47.3h18.3c2.3-5.6 2.3-5.6 1.8-8.9-8.9 0-17.8 0-27.2 0-4.3 14.8-8.6 29.7-13 44.8h28.4c.9-3.2 2.4-6.1 2.3-9.8-6.3 0-12.2 0-18.6 0 1.1-3.3 2.1-6.2 3.1-9.1h16.3c2-3.8 2.5-6.3 2.3-9.1-2.7 0-5.3 0-7.9 0s-5.2 0-8.5 0c1-3.1 1.8-5.3 2.7-7.9zm-91.6 35.2c3.9 1 23.3 1.1 28.2.2.5-3 2.8-5.8 1.8-9.4-6-.1-11.7.4-18.2-.1 1.1-3.4 2-6.1 3-8.9h17.1c.8-3.1 2.1-5.9 2.1-9.4-5.7 0-11 0-16.9 0 .9-2.8 1.7-5 2.6-7.6h18.6c1.3-3 2.6-5.6 1.9-8.7-5.6-.7-23.8-.6-27.7.1-4.1 14.6-8.3 29.2-12.5 43.8zm146.4-43.9c-1.5-.5-2.9-1.2-4.3-1.2-3.3-.2-6.7-.4-10 0-5.7.8-10.9 2.9-14.9 7.3-6.8 7.2-10.1 15.9-10.1 25.7 0 6.7 3.2 10.9 9.5 12.9 5.7 1.9 11.4 1.1 17.5-.4 1-3 2.1-6.1 3.2-9.2-.8-.3-1.3-.6-1.7-.6-1.1.1-2.3.4-3.4.6-3.3.6-6.5.8-9.8-.3s-4.8-3.3-5.1-6.5c-.5-5 .9-9.6 3.7-13.7 2.4-3.5 5.4-6.5 9.9-6.8 3.3-.2 6.6.3 9.9.6 1.1.1 2.2.2 3.7.4.7-2.9 1.3-5.6 1.9-8.8zm-84.9 55.2c-4.3 14.9-8.5 29.4-12.8 44.3h9.4c1.7-5.9 3.4-11.8 5-17.3 4.5-1.5 6.1-1.6 14-.7 3-2.4 3.1-5.9 3.2-9.9-4.8 0-9.2 0-14.2 0 .8-2.6 1.4-4.5 2.1-6.8h16.7c.9-3.1 1.8-5.9 2.7-8.9-1.4-.4-2.3-1-3.2-1-7.5.1-15.2-.5-22.9.3zm164.4-46.3c1.1-3.2 2-5.8 1.3-8.7-4-1.9-8.2-2-12.3-1.3-11.4 1.8-16.2 14.2-9.8 22.2 2.1 2.6 3.9 5.3 6 7.9 1.3 1.6 1.6 3.2.9 5.5-5.1 5-10.1 1.1-15.6-1.1-1.4 3.1-1.7 6.1-2 9.2 4 3.1 8.4 3.6 12.9 3 6.3-.8 11.2-3.9 13.9-10 2.5-5.7.1-10.3-3.1-14.7-2-2.7-4-5.3-5.9-8-.3-.4-.4-.9-.6-1.5.6-1.1 1.3-2.2 1.5-2.5 4.6-3.5 8.5-.9 12.8 0zm-220.4 88.6c6.9 5.4 18.3 4.2 23.9-2 4.9-5.3 5.3-13 1-17.7-2-2.2-3.6-4.8-5.5-7.1-1.6-1.8-2.3-3.6-1.1-6.1 4.1-3.7 8.5-1.8 13.4.1.7-3.1 1.3-5.9 2-8.9-5-2.2-9.9-2-14.6-1.1-8.8 1.7-14.7 12.6-9 20.5 2 2.8 4.2 5.5 6.2 8.4 1 1.4 1.7 3.1 2.5 4.4-3.7 4.8-7.5 4.9-16.8.5-.6 3.2-1.3 6-2 9zm348.3-32.6c4.3-2.9 4.3-2.9 13.3-.6 0-3.1 0-6.1 0-9.6-3.8 0-7.2-.3-10.7-.1-9.7.5-17 12.3-10.4 21.3 1.9 2.7 4.1 5.2 6 8 1 1.4 1.7 3.1 2.4 4.4-3.9 4.6-7.4 4.7-16.7.5-.5 1.4-1 2.8-1.3 4.2-.3 1.6-.4 3.2-.6 4.7 6.8 5.2 19.2 4 24.1-2.5 3.7-4.9 5.7-10.9.9-16.9-1.9-2.3-3.6-4.7-5.4-7.2-1.3-1.6-2.8-3.3-1.6-6.2zm-140.3-1.1c-1.8 6.4-3.6 12.2-5.2 18.1-1.6 5.8-4.3 11.3-5.3 17.7h9.4c3.5-12.1 6.9-23.9 10.3-35.9h10.4c1.2-2.7 2.8-5 2-8-3.8-1.2-25.2-1.3-29.6-.1-.9 2.4-2.2 4.8-2.1 8.1 3.4.1 6.5.1 10.1.1zm-65.4-19.3c4.4-15 8.6-29.7 13-44.7-1.8-.1-3.3-.2-4.7-.2-1.6 0-3.2 0-4.9 0-4.4 15.2-8.6 29.9-13 44.9zm89.8 10.7c-4.3 15-8.5 29.5-12.8 44.3h9.6c4.3-14.7 8.4-29.1 12.6-43.7-3-1.7-6.1-1-9.4-.6zm-289.6 18.9h5.8c0-3.1 0-5.9 0-9.6-2.2 3.7-3.9 6.6-5.8 9.6zm176 11.5c.4 3.2 2.2 5.4 5.2 5.8 5.8.8 10.9-.5 14.5-5.5 3-4.1 4.2-9 4.9-13.9.6-3.8-1.8-7-5.2-8.1-5-1.6-11.8.5-14.7 4.8-2.8 4.1-4.9 8.7-4.8 13.9.1 1 0 2 .1 3zm-62-58.4c2.6-4.5 3.5-9.3 2.9-14.3-.2-1.4-1.3-2.8-2-3.9-4.2 0-7.8 0-11.9 0-2.4 8.6-4.8 17.1-7.3 26.2 8.4 1.4 14.3-1.1 18.3-8zm238.2 37.2c-2.8-1.1-5.7-.6-8.7-.5-.9 2.7-1.6 5-2.3 7.4-.2.6 0 1.2 0 1.8 8.4 1.5 12.8-2 11-8.7zm-193.9.1c-2.8-1.3-5.7-.7-8.8-.6-1 3.2-2 6.2-3.1 9.3 9.3 1.2 13.2-1.7 11.9-8.7z" fill="#fff"/></svg>