<svg enable-background="new 0 0 80 80" viewBox="0 0 80 80" xmlns="http://www.w3.org/2000/svg"><path d="m61 25c-.1 2.6-1.5 3.7-4.2 3.7-1.1-1.9-1.1-3.8-.1-5.5 1.9-.6 3.3 0 4.3 1.8zm-46.8-1.9v6.2c2-.5 3.4-.8 4.9-1.2-.1-1.7-.2-2.9-.3-4.6-1.6-.1-3-.3-4.6-.4zm65.8 16.9c0 22.1-17.9 40-40 40s-40-17.9-40-40 17.9-40 40-40 40 17.9 40 40zm-59.5-21c-3.9 0-8.2 0-12.5 0v-.1l-.1.1h.1c.6 7.2-.4 14.4.6 21.6 1.2.1 2 .2 2.8.2.8-.1 1.5-.4 2.3-.5.2-2.4.3-4.5.5-6.9 2-.2 3.8-.2 5.5-.4 2.6-.3 4.3-1.8 5-4.2 1.3-4 .1-7-4.2-9.8zm24.8.1c-1.7.1-3.3.3-4.8.4-.2 2.8-.4 5-.6 7.4-2.1 0-3.8 0-5.8 0-.2-2.7-.4-5.1-.6-7.8-2 .1-3.5.2-5.3.4 0 3.9-.1 7.4 0 10.9.1 3.4-.6 6.9.6 10.6 1.7-.1 3.3-.3 5.1-.4 0-3 0-5.4 0-8.4h6.1c.2 3.1.4 5.8.6 8.8 2-.1 3.6-.3 5.4-.4 0-4 .1-7.5 0-11-.2-3.4.5-6.9-.7-10.5zm22.7 21.1c-2.1-2.9-4-5.6-5.3-7.5 1.2-1.6 2.2-2.7 3-4 2.6-3.9.5-9.1-4-9.5-3.6-.3-7.2-.1-11-.1v21.3h5.1c.2-2.6.3-4.8.6-8 2.3 3.2 4 5.6 5.6 8 2 .5 3.9.8 6-.2z" fill="#fff"/></svg>