<svg enable-background="new 0 0 1750 375" viewBox="0 0 1750 375" xmlns="http://www.w3.org/2000/svg"><path d="m60 102.3c-2.6-4-4.9-7.6-6.9-10.7 0-2.3 0-4 0-5.8 1.9-3.1 5-4.7 8.3-5.8 4-1.4 8.2-2.4 12.5-2.1 2.5.2 5 0 7.5 0 7.8-7.4 16.1-14.1 25.2-19.9 10.1-6.5 20.7-12 32-16.1 6.4-2.4 12.9-4.5 19.6-6.1 1.5-.4 2.9-1.5 4.1-2.6 2.1-1.9 4-4 6-6 6.1-5.9 13.3-9.4 21.8-10.4 1.6-.2 3.2-.9 4.8-.9 10.3-.3 19.9 2.5 28.1 8.7 3.2 2.4 7 4.4 8.9 8.4 1 2.1 3.4 2.3 5.1 2.7 12.3 2.6 23.7 7.2 34.7 13.1 8.1 4.3 15.8 9.3 23 15.1 5.6 4.4 11.1 8.9 15.9 14.1 2 2.2 3.8 4.5 6 7.1 3.2-3.3 6.3-6.3 9.2-9.5 2.5-2.8 5.4-3.8 9.2-3.9 5.9-.1 11.1 1.2 15.6 5 1.6 1.3 2.9 2.9 4.1 4.1 1.2 5-1.7 8-4.2 10.9-5.2 6-10.7 11.8-16.4 18 19.4 36.2 23.9 74.8 14.5 114.9-8 34-25.1 59.9-41.1 76-4-.8-4.6-1.8-5.3-8.3 19.9-23.2 31.7-50.4 33.8-81.2 2.1-29.4-3.7-57.4-18.7-83.6-.9.8-1.7 1.3-2.3 2-3.5 4.1-7.1 8.3-10.5 12.4-3.3 3.9-6.6 7.8-9.8 11.8-6.9 8.8-13.2 18-18 28.1-4.1 8.6-6.9 17.6-8.6 26.9-1.1 6-1.5 12-2.2 18-.6 5.3-1.1 10.6-.6 15.8.6 5.7.4 11.4 1.6 17.1.7 3 .6 6.2 1.1 9.3 1.4 8.2 3 16.3 5.1 24.4 2.8 10.7 6.4 21.2 10 31.7.5 1.5 1.2 3.1 2 5.1 0-.3 0 .1 0 .4.9 6.4-2.1 10.1-7.8 12.7-11.3 5.1-23 9.5-35 12.2-6.6 1.5-13.4 2.9-20.3 3.5-9.4.9-18.7 2.1-28.1 1.7-6.4-.2-12.7-1.2-19.1-1.7-6.9-.5-13.6-2.1-20.3-3.4-7.3-1.5-14.5-3.9-21.5-6.4-11-3.9-21.4-8.8-31.4-15-7.7-4.8-15.2-9.8-21.8-16-3.2-3.1-6.9-5.8-9.9-9.1-7.4-8.2-14.5-16.6-20-26.3-6.1-10.7-11.8-21.6-15.2-33.5-2-6.9-3.9-13.7-5-20.9-1-6.7-2-13.3-1.9-20.1 0-2.6-.8-5.2-.8-7.8 0-3.3.6-6.5.9-9.8.2-3.1.5-6.2.8-9.3.7-7.5 2.4-14.8 4.2-22.1 1.7-7 3.8-13.8 6.5-20.5 5.4-12.6 12.1-25 20.6-36.4zm7.1 8.3c-5.9 7.7-9.4 16.1-13 24.3-1.2 2.7-2.3 5.4-3 8.3-1.9 7.9-4.3 15.6-5.3 23.8-.7 5.7-1.5 11.4-1.7 17.1-.2 5.1.3 10.2.7 15.3.6 7 1.8 13.9 3.2 20.8 2.2 10.6 5.7 20.8 10.3 30.5 5.1 10.8 11.3 21.1 19 30.4 6.2 7.5 12.5 14.9 20.1 21.1 6.4 5.2 12.9 10.2 19.8 14.6.7.5 1.5.8 2.3 1.3.3-.7.5-1 .5-1.3.4-12.1-.7-24.2 1-36.3.6-4.4.5-8.9 1.2-13.2 1.1-6.9 2.8-13.7 3.8-20.6 1.3-8.9 4-17.4 5.9-26.1 1.2-5.4 2.3-10.8 3.1-16.3.3-2.4-.2-4.9-.5-7.3-.7-5.4-3.9-9.7-7-13.9-4.6-6.2-9.3-12.3-14.1-18.3-4.1-5.2-8.2-10.3-12.5-15.3-3.4-4-7.1-7.8-10.7-11.8-2.5-2.8-5.1-5.7-7.5-8.6-5.2-6.1-10.2-12.1-15.6-18.5zm20.8-25.2c11.8 11.5 22.4 23.5 35.2 33.2 6.9 5.3 13.8 10.6 21.5 14.7 9.9 5.2 19.6 10.5 30.7 12.9 5.6 1.2 11.1 2.9 16.8 2.9 1.4 0 2.9.6 4.3.7 2.1.1 4.2 0 6.4-.2 1.1-.1 2.2-.5 3.4-.5 2.8-.1 5.5-.5 8.3-.9 9-1.3 17.4-4.3 25.6-7.9 15.4-6.8 29.7-15.4 42.9-25.9 5.3-4.2 10.5-8.5 15.7-12.7-7.7-12.6-35.7-33.8-51.5-39.2-.7 2.5.6 4.9.6 7.2 0 6.6.7 13.2-.7 19.8-1.9 9.1-4.5 17.6-10 25.3-5 7.1-11.1 12.3-18.6 16.4-5.8 3.2-12.2 3.3-18.4 4.7-.6.1-1.3-.2-1.9-.3-.8-.2-1.6-.6-2.4-.6-3.7.4-7.1-.9-10.5-2.1-7.4-2.7-14-6.9-19.2-12.6-5.5-6-10.1-12.8-12.9-20.8-2.3-6.5-4.2-13.1-4.2-20 0-4.5 0-9 0-13.5 0-1.2 0-2.3.2-3.5.8-3.7 1.8-7.5 2.7-11.3-24.3 6.1-45.6 16.9-64 34.2zm1096.5 103.4c-9-3.3-18.5-4.1-28.1-4.7-3.4-.2-6.9.7-10.3.7-5.8.1-11.4 1.5-16.9 3.2-13.7 4.1-25.2 11.8-33.2 23.7-9 13.4-12.3 28.2-8.5 44.3 2.9 12.6 9 23.1 19.2 31.4 11.3 9.2 24.5 13.3 38.7 14.5 9.2.8 18.5.4 27.6-1.7 8.9-2.1 17.2-5.2 24.9-9.6 0-8.6 0-16.9 0-25.3-6.2 2.7-12.3 5.3-18.3 7.8-7 2.9-14.5 4.4-22 4.7s-14.8-1.3-21.5-4.4c-11.1-5.1-18.1-13.9-19.7-26.1-1.8-13.8 4.9-26.4 17.3-33 12.3-6.5 25.3-6.6 38.5-3.7 7.4 1.6 14.4 4.6 21.1 8.1 1.1.6 2.2.9 3.7 1.4 0-8.8 0-17.1 0-25.9-4.1-1.8-8.2-3.9-12.5-5.4zm-741.4-4.7c-3.2-.2-6.5.6-9.8.8-7.4.3-14.3 2.4-20.5 6.2-12.8 7.7-18.6 21.1-14.1 36.1 2.7 9 8.3 15.5 16.6 20 7.4 4 15.3 7 23.2 9.9 4.5 1.6 8.9 3.3 12.9 6.1 3.3 2.3 4.2 5.4 3.7 9.1-.4 3.3-2.5 5.6-5.5 6.4-3.6 1.1-7.4 2.1-11.1 2-4.5-.1-9.1-1.1-13.5-2.3-7.7-2.1-14.6-6-21.3-10.3-1-.7-2.2-1.2-3.6-2.1v24.9c10.3 6.5 21.4 10.2 33.4 11.1 8.3.6 16.5.3 24.6-1.9 7-1.9 13.3-5.2 18.4-10.2 8.1-8 9.8-18.2 8.4-28.9-.5-3.6-1.6-7.4-3.8-10.6-3.9-5.6-8.6-10-14.5-13.3-7.7-4.2-16-7-24.1-10.2-4.3-1.7-8.7-3.1-12.2-6.3-4.5-4.2-3.7-8 .2-11.4 1.1-.9 2.5-1.7 3.9-2.1 5.5-1.7 11.3-1.7 16.8-.8 6.8 1.1 13.4 3.3 19.7 6 2.9 1.3 5.9 2.4 9.1 3.7 0-7.9 0-15.2 0-22.7-11.5-5.9-24-8.3-36.9-9.2zm1003 41.7c0-13.5 0-26.5 0-39.7h23.5c.1.1.2.2.3.3s.2.3.2.4c0 37 .1 73.9.1 110.9 0 .6-.1 1.3-.2 2.1-7.9 0-15.7 0-23.7 0-.2-1.3-.4-2.8-.6-4.2-.2 0-.5-.2-.7-.1-4.2 2.6-8.5 4.9-13.5 5.8-10 1.9-19 .1-27.3-5.6-8.9-6.2-13.4-14.9-15.5-25.5-1.8-9.2-1-18.2 2.5-26.7 4.5-11 13-18.4 24.4-21.4 8.7-2.3 17.6-1.5 26.1 2 1.4.7 2.7 1.1 4.4 1.7zm-.2 17.6c-2.4-3.1-5.8-3.5-8.9-4.5-8.5-2.5-17.2 1.1-20.7 8.9-4.2 9.3-4.3 18.8.3 28.1 1.7 3.3 4.2 6 7.6 7.5 5.9 2.7 15.2 2.6 21.7-5.4 0-11.4 0-22.9 0-34.6zm-505.8 2.6c-.1-6.6-3-12.7-7.8-17.1-8.4-7.6-18.5-9.4-29.4-6.3-6.4 1.9-11.2 5.9-15.7 11.3 0-16.2 0-32 0-48-4.4 0-8.3 0-12.3 0-4.1 0-8.2.1-12.4.1v113.9h24.7c0-16.1 0-32.1 0-47.6 2.9-5.4 7.5-10.2 11.8-11.6 7-2.2 13-.5 15.2 6.7.7 2.3 1.1 4.8 1.1 7.3.1 13.8 0 27.7.1 41.5 0 1.3.2 2.5.3 3.8h24.7c-.2-18.4-.1-36.2-.3-54zm274.6 53.9h24.4c0-16.2 0-32.2 0-47.8 3-5.3 7.1-9.5 11.5-11.2 7.4-2.8 13.5-.1 15.6 6.6.8 2.4 1 4.8 1 7.3v41 4.1h24.8c.1-.7.3-1.1.3-1.6 0-17.3.1-34.7-.1-52-.1-6.7-2.8-12.8-7.6-17.2-8.3-7.8-18.4-9.7-29.4-6.6-6.5 1.8-11.4 6-16 11.4 0-16 0-31.5 0-47 0-.1-.1-.3-.2-.4s-.2-.2-.4-.4c-7.9 0-15.9 0-24.1 0-.8 10.1-.6 109.8.2 113.8zm-675.9-49.4c.5-7.5-3.4-11.9-10.9-12.4-4.9-.4-9.5.7-14 2.6-3 1.3-6 2.7-8.8 4.4-2.7 1.6-5 3.7-7.8 5.8 0-6.5 0-12.8 0-19.8.7-.5 1.7-1.6 3-2.2 7.3-3.9 15-6.7 23.4-7.1 3.1-.2 6.2-.9 9.3-.8 5.7.3 11.5 1 16.9 2.9 8.3 2.9 14.4 11.2 14.3 20.1-.2 11.5 0 23-.1 34.5 0 2.2-.1 4.3 1.5 6 4.6 1.8 7.4-1.8 11.2-3.6.6 4.6.1 9 .4 13.5-4.5 3.5-9.7 5.1-14.9 6.5-3 .8-6.2.9-9.3 1.1-5.9.3-10.3-1.9-12.6-8.2-1.5.9-2.9 1.7-4.3 2.5-7.5 4.4-15.5 6.6-24.2 5.6-11.1-1.3-19-10.3-19-19.5 0-8.6 3.9-15.2 11.6-19.4 9.3-5.1 19.4-8 29.5-11.1 1.7-.4 3.3-.9 4.8-1.4zm.1 13c-4.1 1.7-7.6 3.2-11 4.6-5 2.1-8.7 5.2-9.4 10.7.3 3.8 2.5 6.2 5.4 8 6 .9 10.8-1.7 15-5.3 0-5.9 0-11.5 0-18zm1108.4 36.7c8.3-.1 16.4.1 24.7-.1 0-16.7 0-33 0-49.1 3.4-5.3 6.9-10 12.8-12.2 4.5-1.7 9.8 0 12.6 3.9 1.8 2.5 2.6 5.3 2.6 8.3 0 15 0 30 .1 45 0 1.3.1 2.6.2 4h24.8c.1-1 .1-1.8.1-2.6 0-16 .1-32-.1-47.9 0-2.9-.4-6-1.2-8.8-2.7-9.1-8.6-15.4-17.9-18.1-1.7-.5-3.6-.3-5.3-.8-5.4-1.6-10.4 0-15.4 1.7-5.1 1.8-9 5.4-12.9 9.7-.8-3.6.3-6.9-.8-10-8.2 0-16.2 0-24.4 0 .1 25.8.1 51.2.1 77zm-614.1-34.2c-18.4 0-36.5 0-54.6 0-.2 7.8 5.1 16.4 13.3 19 9.4 3 18.5 2.6 27.3-1.7 4.3-2.1 8.3-4.7 12.7-7.2v15.7c-4.7 3.8-10.4 6.3-16.4 8.1-7.9 2.4-16 2.5-24.1 1.9-8.6-.6-16.9-3-23.9-8.3-8.2-6.2-13.7-14.3-14.6-24.9-.2-2-.9-3.9-.8-5.8.4-12.3 3.7-23.4 13.3-31.8 6-5.2 12.9-8.5 20.9-9.2 1.8-.2 3.6-.8 5.3-.8 12 0 22.8 3.3 31.3 12.3 4.6 4.9 7.5 10.7 9.3 17.2 1.3 5 1.1 10.1 1 15.5zm-22.2-13.3c.3-5-1.8-8.7-4.8-11.8-3.1-3.2-7.2-4.8-11.6-4.7-9.8.3-16.6 8.9-15 16.5zm-270 23.7v15.4c-.7.6-1.8 1.6-3 2.3-9 5.3-18.6 8.1-29.1 8.1-6.3 0-12.5-.4-18.6-2.1-14.9-4.3-24.7-13.9-27.9-29.1-2.5-12-.5-23.5 6.7-33.8 4.2-6 10-10.2 16.7-12.9 5.7-2.3 11.7-3.4 17.8-3.1 17.4.8 31.7 10 37 26.9 1 3.1 1.8 6.3 1.7 9.7-.1 1.8.3 3.6.5 6.1-.1.2-.5 1.1-1.1 2.3-18 0-36 0-54.1 0 .8 10.6 5.9 17.1 15.3 19.7 8.8 2.5 17.6 1.8 25.9-2.6 4-2.4 8-4.6 12.2-6.9zm-20.8-23.7c-.6-7-3.3-11.9-9.5-14.9-6-2.8-11.6-1.9-16.6 1.8-4.8 3.6-6.5 8.7-5.3 13 10.3.1 20.6.1 31.4.1zm913.8 39.1c-6.9 5-14.5 8.2-23 9.5-5.7.9-11.3 1.1-16.8.6-11.6-1-22.2-4.5-30.4-13.5-4.3-4.8-7-10.4-8.6-16.5-2.1-8-1.6-16.2 1.1-23.9 3.9-11.3 11.5-19.6 22.9-24 5.6-2.1 11.5-3.2 17.4-2.9 10.7.5 20.5 3.9 28 11.9 6.6 7.1 10.3 15.6 10.7 25.4.1 2.3 0 4.6 0 6.7-.3.3-.4.5-.5.6s-.3.2-.4.2c-.2 0-.3.1-.5.1-17.7 0-35.3 0-53.2 0-1 3.8.9 6.9 2.2 9.9 1.9 4.4 5.8 7.3 10.2 8.9 9.4 3.4 18.8 3.1 27.9-1.3 3.3-1.6 6.3-3.6 9.5-5.4 1.1-.6 2.2-1.3 3.6-2.2-.1 5.4-.1 10.4-.1 15.9zm-21.1-39.1c-.5-10.2-8.1-17.4-17-16.6-9.2.9-15.6 8.2-14.3 16.6zm-823.9-17.4c.2 1.7.3 3.2.4 4.5 3.7.6 7.2-.3 10.5.6.6 13.2-.6 26.2 1 39.1.8 6.2 3.2 11.5 7.8 15.6 5.2 4.6 11.6 6.6 18.6 7 8.9.5 17.4-1.1 25.9-4.8 0-2.8.1-5.8 0-8.7-.1-3.1.3-6.2-.2-9-5.3 1.6-10.4 3-14.9 4.4-1.8-.4-3-.7-4.3-1-3.5-.7-6-2.8-7.2-6.1-.8-2.3-1.3-4.8-1.3-7.2-.2-8.2-.1-16.3-.1-24.5 0-1.6 0-3.2 0-5.2h27.8c0-5.8 0-11.2 0-17-9.3 0-18.4 0-27.9 0 0-8.1 0-15.9 0-23.8-1.3 0-2.3 0-3.9 0-10.7 11.9-21.5 24-32.2 36.1zm-156.6-12.3c-5.3 13.6-10.5 27.1-16.1 41.4-2.9-7.6-5.5-14.5-8.2-21.3s-4.8-13.9-8.2-20.3c-4.6 0-8.8-.1-13 0-4.3.1-8.6-.4-13.3.4 12 26.4 23.8 52.5 35.7 78.6h14.2c11.8-26.2 23.6-52.3 35.6-78.9-9.2.1-17.8.1-26.7.1zm718.5-36.8v3.7c0 36.5.1 73 .1 109.4 0 .1.2.3.3.4s.2.2.5.5c3.8 0 7.8.1 11.8 0 4.1-.1 8.2.5 12.3-.4 0-37.9 0-75.5 0-113.5-8.5-.1-16.6-.1-25-.1zm161.3 108.5c0-8.2 0-16.3 0-24.5 0-1.3-.1-2.7.3-3.9 2.2-6.1 4.8-12 9.1-16.9 2.4-2.7 5.5-4.5 9.6-4.5 4.5 0 8.3 1.7 12.1 3.9.9.5 1.9 1 3.1 1.6 2.4-7.6 4.6-14.7 6.9-22.2-3.5-1.9-6.6-4-10.1-5.5-6.5-2.9-12.6-1.6-17.9 2.8-2.7 2.2-4.9 5-6.9 7.8-2.2 3-4 6.3-6.3 10 0-6.9 0-13.3 0-19.7-6.1-.9-21.6-.7-24.9.2-.7 18.2-.4 72 .5 76.4h24.5c0-2.3 0-3.9 0-5.5zm-203 5.1c7.2.8 20.5.6 23.8-.3 0-25.4 0-50.8 0-76.4-8 0-15.8 0-23.8 0zm12.3-115.6c-8.9.2-14.2 5.7-14.1 13.8 0 8.3 5.3 13.6 13.7 13.7 8.2.1 13.1-4.9 14.1-13.5-.4-8-5.9-14.2-13.7-14z" fill="#fff"/></svg>