<svg enable-background="new 0 0 318 65" viewBox="0 0 318 65" xmlns="http://www.w3.org/2000/svg" xmlns:xlink="http://www.w3.org/1999/xlink"><defs><path id="a" d="m40.1 52.6c4.2-.1 8.1-.7 11.6-1.8.9-.3 1.7-.6 2.5-1-1 2.4-2.4 4.3-4.3 5.8-3.7 2.7-8 4.5-12.7 5.3 1.3-2.1 2.2-4.9 2.9-8.3m-19.5 5.7c-.1-.1-.2-.1-.3-.2-1.6-.8-2.3-4.4-1.4-10 3.1 1.4 6.6 2.5 10.2 3.3 2.7.6 5.4.9 8.1 1.1-1.3 5.7-3 8.6-4.1 8.6-.1 0-.1 0-.2 0-4.5 0-8.6-1-12.3-2.8m-15.2-18c-.3-1-.4-1.9-.5-2.9 1 1.4 2.2 2.8 3.6 4.1 2.2 2 4.7 3.8 7.6 5.3-.6 3.3-.7 6.2-.4 8.6-4.9-3.8-8.5-9.1-10.3-15.1m36.6-8c0-1.1 0-2.3 0-3.4 3.7-.2 7-1.2 9.8-2.8 2.6 5.1 3.9 10.4 3.9 15.5 0 1.5-.1 2.9-.4 4.2-1.3.8-2.8 1.5-4.6 2.1-3 1-6.5 1.6-10.1 1.7 1-5.2 1.4-11.4 1.4-17.3m-12.4 16.3c-3.6-.8-7.1-1.9-10.2-3.4 1-4.6 2.9-10.2 5.9-16.4.4-.9.9-1.8 1.3-2.6 2.1.9 4.4 1.7 6.8 2.2 1.8.4 3.7.6 5.5.7v3.4c0 6.9-.6 12.7-1.4 17.2-2.4-.2-5.1-.5-7.9-1.1m-19-9.3c-2.5-2.3-4.2-4.8-5.1-7.2.7-2.7 2-5.5 4-8.1 1.9-2.5 4.2-4.7 6.9-6.6.8 1.4 1.8 2.8 3.2 4 1.3 1.2 2.8 2.3 4.5 3.3-.5.9-.9 1.8-1.4 2.7-2.6 5.3-4.7 11.1-6 16.3-2.3-1.2-4.4-2.7-6.1-4.4m29.4-27.3c3.3 2.5 6.4 5.7 9 9.5.5.7.9 1.4 1.4 2.2-2.4 1.3-5.4 2.1-8.6 2.3-.3-5-.9-9.9-1.8-14m-5.8 13.5c-2.1-.5-4.2-1.1-6-1.9 2.7-4.8 5.7-9 8.7-12.1.9 3.6 1.7 8.5 2 14.6-1.6-.1-3.2-.3-4.7-.6m-12.6-6.1c-1.2-1.1-2.1-2.3-2.8-3.5 2.8-1.7 5.8-3 9.1-4 1.9-.6 3.9-1 5.8-1.3-2.8 3.2-5.6 7.2-8.2 11.7-1.5-.9-2.8-1.9-3.9-2.9m-6.3-9.4c0 .1-.1.3-.1.5-.3 1.4-.3 2.8.1 4.2-3.2 2.2-5.9 4.8-8.1 7.7-.7.9-1.3 1.8-1.8 2.7 1.6-6.1 5.1-11.3 9.9-15.1m2.7 1.1c.3-1.5 1.2-2.9 2.7-4 3.4-1 7.4-.8 11.6.8-1.8.2-3.5.6-5.3 1.1-3.2 1-6.3 2.3-9.1 3.9 0-.6 0-1.2.1-1.8m23.9-3.9c1-.7 1.9-1.1 2.7-1.3 1.5.6 2.9 1.3 4.3 2.3-2.2-.6-4.6-.9-7-1m-5-3.2c1.2.1 2.5.3 3.8.6-.8.4-1.7 1-2.5 1.7-.4-.8-.8-1.6-1.3-2.3m-3.2 1.2c-1.3-.5-2.6-.9-3.9-1.2 1-.1 2.1-.2 3.2-.2.5 0 1.1.6 1.8 1.8-.4-.1-.7-.3-1.1-.4m-32.3 27.3c0 3 .4 5.9 1.2 8.7 0 .2.1.4.1.6v.1c4 12.9 16 22.3 30.2 22.3 6.6 0 12.7-2 17.7-5.4l.1-.1c.3-.2.6-.4.9-.6 5.8-4.3 10.1-10.5 11.9-17.8.1-.3.2-.7.3-1 0-.1 0-.2 0-.2.4-2.1.7-4.2.7-6.4 0-4.3-.8-8.4-2.5-12.3-.3-.7-1.2-1.1-1.9-.8s-1.1 1.2-.8 1.9c1.5 3.5 2.3 7.3 2.3 11.2 0 2.4-.3 4.7-.8 6.9-.4 1.4-1.2 2.7-2.3 3.8 0-.5 0-1 0-1.5 0-5.6-1.5-11.6-4.4-17.2 2.1-1.8 3.5-4.1 3.9-6.6.1-.8-.4-1.6-1.2-1.7s-1.6.4-1.7 1.2c-.3 1.7-1.2 3.2-2.5 4.5-.4-.7-.9-1.4-1.3-2.1-2.6-3.8-5.6-7.1-9-9.7 4.4.3 8.5 1.4 11.8 3.2.5.3 1.2.3 1.7-.1.6-.5.7-1.4.2-2.1-4.7-6.9-12.8-10.5-23-10.5-17.4 0-31.6 14.2-31.6 31.7"/><clipPath id="b"><use xlink:href="#a"/></clipPath></defs><g fill="#fff"><use xlink:href="#a"/><path clip-path="url(#b)" d="m1.4.9h63.2v63.2h-63.2z"/><path d="m267.6 47.5c2.1 0 3.2 1 3.2 2.8 0 1.7-1.1 2.7-3 2.7h-1.3v2.6h-1.7v-8.1zm-1.1 4.1h1c1 0 1.5-.4 1.5-1.3s-.6-1.4-1.6-1.4h-1v2.7zm-4.9.8c0 1.2-.5 1.8-1.4 1.8-1 0-1.4-.6-1.4-1.8v-4.9h-1.8v4.8c0 1.2.3 2 .9 2.6.5.5 1.3.8 2.3.8 1.4 0 3.1-.6 3.1-3.4v-4.8h-1.7zm-9.3-5c1.8 0 3.6 1.1 3.6 4.1s-1.9 4.1-3.6 4.1c-1.8 0-3.6-1.1-3.6-4.1-.1-3 1.8-4.1 3.6-4.1m0 6.8c.7 0 1.8-.3 1.8-2.6s-1.2-2.6-1.8-2.6c-1.2 0-1.9.9-1.9 2.6 0 1.6.7 2.6 1.9 2.6m-5.4-1c.3.6.5 1.1 1.1 1.1h.4v1.3h-.1s-.3.1-.8.1c-1.4 0-1.8-.9-2.2-1.8-.3-.7-.6-1.3-1.3-1.3h-.8v3h-1.7v-8.1h2.9c2.1 0 3.1.8 3.1 2.6 0 1.1-.7 1.8-1.3 2.1.3.1.5.5.7 1m-3.6-2h1c1 0 1.6-.5 1.6-1.2 0-.8-.5-1.2-1.4-1.2h-1.1v2.4zm-6.4 1.3h1.8v.1c0 .5-.2 1.4-1.4 1.4s-1.9-1-1.9-2.6c0-1.7.7-2.6 1.8-2.6 1.4 0 1.4 1.4 1.4 1.5v.1l1.6-.3v-.1c0-.6-.5-2.8-3.1-2.8-2.3 0-3.6 1.5-3.6 4.1s1.4 4.1 3.6 4.1c2.3 0 3.1-1.6 3.1-3v-1.4h-3.4zm-5.2-5.1h-2.1l-2.7 3.7v-3.7h-1.8v8.1h1.8v-3.7l2.8 3.7h2.1l-3.1-4.1zm-9.8 5-2.8-5h-1.8v8.1h1.7v-4.9l2.8 4.9h1.8v-8.1h-1.7zm-8-5 3 8.1h-1.8l-.7-2h-2.7l-.7 2h-1.8l3-8.1zm-.9 2.2-.9 2.6h1.8zm-5.4 1.6c.6.2 1.4.8 1.4 2 0 1.5-1 2.3-2.9 2.3h-3.4v-8.1h3.1c1.8 0 2.7.7 2.7 2.2 0 1.1-.5 1.5-.9 1.6m-2-.5c.7 0 1.1-.3 1.1-1 0-.6-.4-.9-1.3-.9h-1v1.9zm-1.1 3.4h1.4c.9 0 1.3-.3 1.3-1 0-.9-.7-1.1-1.3-1.1h-1.3zm-8.9-6.7c2.5 0 4 1.6 4 4.2 0 2.5-1.4 3.9-3.7 3.9h-2.8v-8.1zm-.7 6.7h1c1.2 0 2-.9 2-2.5 0-1.8-.8-2.7-2.4-2.7h-.7zm-6.1-6.7h-1.7v8.1h5.3v-1.4h-3.5v-6.7zm-4 5.7c.3.6.5 1.1 1.1 1.1h.4v1.3h-.1s-.3.1-.8.1c-1.4 0-1.8-.9-2.2-1.8-.3-.7-.6-1.3-1.3-1.3h-.8v3h-1.7v-8.1h2.9c2.1 0 3.1.8 3.1 2.6 0 1.1-.7 1.8-1.3 2.1.3.2.5.6.7 1m-3.6-1.9h1c1 0 1.6-.5 1.6-1.2 0-.8-.5-1.2-1.4-1.2h-1.1v2.4zm-6.4-3.9c1.8 0 3.6 1.1 3.6 4.1s-1.9 4.1-3.6 4.1-3.6-1.1-3.6-4.1 1.9-4.1 3.6-4.1m0 6.8c.7 0 1.8-.3 1.8-2.6s-1.2-2.6-1.8-2.6c-1.2 0-1.9.9-1.9 2.6.1 1.6.7 2.6 1.9 2.6m-5.8-6.7h2l-2.3 8.1h-2l-1.4-5.1-1.4 5.1h-2l-2.3-8.1h2l1.4 5.9 1.6-5.9h1.5l1.6 5.9z"/><path d="m79.3 45h2.1v10.6h-2.1z"/><path d="m83.3 55.6v-10.6h4c2.2 0 3.4.8 3.4 2.8 0 1.9-1.1 2.2-1.6 2.2.7 0 2.4.6 2.4 2.6 0 2.2-1.7 3-3.7 3zm3.7-6.1c1.1 0 1.5-.6 1.5-1.4s-.6-1.3-1.8-1.3h-1.4v2.7zm.2 4.4c1 0 1.8-.3 1.8-1.5 0-1.1-.8-1.5-1.9-1.5h-1.9v3z"/><path d="m101.5 55.6s-.4.1-1.1.1c-3.2 0-2.3-4-4.6-4h-1.1v4h-2.1v-10.7h3.7c2.6 0 4 1 4 3.3 0 1.6-1 2.4-1.8 2.7 1.1.9 1.1 2.9 2.5 2.9h.4zm-5.4-5.5c1.3 0 2.2-.6 2.2-1.7s-.7-1.7-2-1.7h-1.6v3.4z"/><path d="m102.4 55.6v-10.6h3.1c2.8 0 5.3 1.5 5.3 5.5 0 3.8-2.2 5.1-4.8 5.1zm3.5-1.7c1.6 0 2.7-1.2 2.7-3.4 0-2.3-1-3.7-3.2-3.7h-1v7.2z"/><path d="m116.9 53.2c-1.1 0-1.9-.9-1.9-2s.9-2 1.9-2c1.1 0 2 .9 2 2s-.9 2-2 2"/><path d="m123.6 45h2.1v10.6h-2.1z"/><path d="m127.5 55.6v-10.6h3.1c2.8 0 5.2 1.5 5.2 5.5 0 3.8-2.2 5.1-4.8 5.1zm3.5-1.7c1.6 0 2.7-1.2 2.7-3.4 0-2.3-1-3.7-3.2-3.7h-1v7.2z"/><path d="m142.7 53h-3.7l-.9 2.6h-2.2l3.9-10.6h2.1l3.9 10.6h-2.2zm-3.1-1.6h2.7l-1.3-3.8z"/><path d="m73.8 19.4h15.7v3.2h-5.8v16.2h-4.1v-16.2h-5.8z"/><path d="m91.7 38.8v-19.4h4.2v7.7h7.3v-7.7h4.2v19.4h-4.1v-8.5h-7.4v8.5z"/><path d="m110.8 19.4h13v3.2h-8.8v4.6h8.2v3.2h-8.2v5.2h9.1v3.2h-13.3z"/><path d="m144.5 19.4h4.6l3.4 14.6h.1l3.1-14.6h4l-5 19.4h-4.6l-3.5-14.8-3.8 14.8h-4.7l-4.7-19.4h4.3l2.9 14.6h.1z"/><path d="m161.1 29.1c0-5.7 2.9-10.1 9.3-10.1s9.3 4.4 9.3 10.1-2.9 10.1-9.3 10.1-9.3-4.4-9.3-10.1m4.4 0c0 3.3.8 7.1 4.9 7.1s4.9-3.8 4.9-7.1-.8-7.1-4.9-7.1-4.9 3.8-4.9 7.1"/><path d="m186.6 38.8h-4.2v-19.4h8.2c3.3 0 6.7 1.1 6.7 5 0 2.5-1.6 4.2-4 4.7v.1c3.2.3 3.2 2.3 3.5 5 .2 1.2.4 3.5 1.1 4.6h-4.6c-.3-1.7-.5-3.5-.7-5.2-.1-1.1-.4-2.5-1.7-2.6h-4.4zm0-11h3.5c1.8 0 2.9-.9 2.9-2.7 0-1.7-1.1-2.4-2.9-2.5h-3.5z"/><path d="m200.6 38.8v-19.4h4.2v16.2h8.4v3.2z"/><path d="m215.4 19.4h6.6c6 0 9.8 3 9.8 9.7s-3.8 9.7-9.8 9.7h-6.6zm4.2 16.2h2.1c4.9.1 5.7-3.4 5.7-6.5s-.7-6.5-5.7-6.5h-2.1z"/><path d="m242.3 38.8v-19.4h7.3c3.5-.2 7 1.2 7 5 0 2.1-1.5 3.6-3.4 4.2v.1c2.4.5 4.3 2.2 4.3 5 0 3.8-4.8 5.2-7.8 5h-7.4zm7.4-3.2c2 0 3.3-.4 3.3-2.6s-1.3-2.6-3.3-2.6h-3.2v5.2zm0-8.4c1.7 0 2.7-.7 2.7-2.3s-1-2.3-2.7-2.3h-3.2v4.6z"/><path d="m258.8 38.8 7-19.4h4.9l6.7 19.4h-4.2l-1.4-4.1h-7.7l-1.5 4.1zm12-7.3-2.7-8.3h-.1l-2.8 8.3z"/><path d="m291.2 38.8-7.7-16.1v16.1h-3.9v-19.4h6.1l7.4 15.3.1-.1v-15.2h3.9v19.4z"/><path d="m304.6 27.8h.1l6.4-8.4h4.9l-7.1 8.7 7.7 10.7h-5.2l-6.7-9.9h-.1v9.9h-4.1v-19.4h4.1z"/><path d="m152.4 56.8c-.3 0-.6-.3-.6-.6v-11.7c0-.3.3-.6.6-.6s.6.3.6.6v11.8c0 .3-.3.5-.6.5"/></g></svg>