<svg xmlns="http://www.w3.org/2000/svg" width="180" height="69" viewBox="0 0 180 69">
    <g class="logo-icon-white" transform="translate(124 0)" fill="#F6FBFE">
        <polygon points="39.4 29.8 26.3 39.9 19.2 45.3 18.6 45.4 11.3 46.8 4 48.2 8.4 43.7 12.9 39.1 17.7 34.3 17.7 34.2 20.8 31.1 22.2 31 22.2 31 26.3 30.7" opacity="0.6"></polygon>
        <polygon points="26.4 18.5 26.4 18.9 26.4 18.5 25.7 18.5 24.8 20.3 17.7 34.3 15.7 38.3 14.1 41.4 13.6 42.3 13.3 42.9 11.3 46.8 8.5 52.4 17.4 50.4 26.2 48.5 26.2 48.5 26.6 48.4 48.9 19.2" opacity="0.6"></polygon>
        <polygon points="27.9 7.5 26.3 14.2 24.8 20.5 22.2 31.1 20.5 37.7 19.9 40.4 18.7 45.4 17.4 50.3 15.5 58.2 26.1 55.1 37.6 51.6 52.8 11.1" opacity="0.6"></polygon>
        <polyline points="26.1 55.2 26 67.7 52.7 56.5 54.9 6 26.3 0 26.3 14.2 26.2 18.8" opacity="0.6"></polyline>
        <polygon points="28.3 36.6 26.3 37.5 26.3 37.5 19.9 40.5 15.2 42.6 13.3 42.9 8.4 43.7 0.4 45 12.9 39.1 14.4 38.4 15.7 38.3 20.6 37.6 26.3 36.9" opacity="0.6"></polygon>
    </g>
    <g class="logo-wordmark" transform="translate(0 18.405)" fill="#ffffff">
        <path
            d="M70.3 13.8C70.3 16.1 69.9 18.1 69 19.8 68.2 21.5 67 22.8 65.6 23.9 64.2 25 62.7 25.8 60.9 26.3 59.1 26.8 57.4 27.1 55.6 27.1L45.8 27.1 45.8 0.8 55.3 0.8C57.1 0.8 59 1 60.8 1.4 62.6 1.9 64.2 2.6 65.6 3.6 67 4.6 68.1 5.9 69 7.6 69.9 9.3 70.3 11.4 70.3 13.8M63.7 13.8C63.7 12.4 63.4 11.1 63 10.2 62.5 9.2 61.8 8.4 61 7.8 60.2 7.2 59.3 6.8 58.3 6.6 57.3 6.3 56.2 6.2 55.1 6.2L52 6.2 52 21.6 55 21.6C56.1 21.6 57.2 21.4 58.3 21.2 59.3 20.9 60.2 20.5 61 19.9 61.8 19.3 62.5 18.5 63 17.5 63.4 16.5 63.7 15.3 63.7 13.8"></path>
        <polygon points="77.4 27.1 77.4 0.8 95.1 0.8 95.1 6.1 83.6 6.1 83.6 11.1 94.5 11.1 94.5 16.2 83.6 16.2 83.6 21.6 95.8 21.6 95.8 27.1"></polygon>
        <path
            d="M119 7.6C118.5 6.9 117.8 6.4 116.9 6 116 5.6 115.2 5.4 114.4 5.4 113.9 5.4 113.5 5.4 113.1 5.5 112.6 5.5 112.3 5.7 111.9 5.9 111.6 6.1 111.3 6.4 111 6.7 110.8 7 110.7 7.5 110.7 8 110.7 8.4 110.8 8.8 111 9.1 111.1 9.4 111.4 9.7 111.8 9.9 112.1 10.1 112.6 10.3 113.1 10.5 113.6 10.7 114.1 10.9 114.7 11.1 115.6 11.4 116.5 11.7 117.5 12 118.5 12.4 119.4 12.9 120.1 13.5 120.9 14.1 121.6 14.8 122.1 15.7 122.6 16.6 122.9 17.7 122.9 19 122.9 20.5 122.6 21.8 122.1 22.9 121.5 24 120.8 24.9 119.8 25.6 118.9 26.3 117.8 26.9 116.6 27.2 115.4 27.5 114.1 27.7 112.8 27.7 111 27.7 109.1 27.4 107.4 26.7 105.6 26.1 104.2 25.1 103 23.9L107.2 19.7C107.8 20.5 108.7 21.2 109.7 21.7 110.8 22.2 111.8 22.5 112.8 22.5 113.3 22.5 113.8 22.4 114.2 22.3 114.7 22.2 115 22.1 115.4 21.9 115.7 21.6 116 21.3 116.2 21 116.4 20.6 116.5 20.2 116.5 19.6 116.5 19.1 116.3 18.7 116.1 18.4 115.9 18 115.5 17.7 115 17.4 114.6 17.1 114 16.9 113.3 16.6 112.7 16.4 111.9 16.2 111 15.9 110.2 15.6 109.4 15.3 108.6 14.9 107.7 14.6 107 14.1 106.4 13.5 105.8 12.9 105.3 12.2 104.9 11.4 104.5 10.6 104.3 9.5 104.3 8.4 104.3 6.9 104.6 5.6 105.2 4.6 105.8 3.6 106.6 2.7 107.5 2.1 108.5 1.4 109.6 0.9 110.8 0.6 112 0.3 113.2 0.1 114.5 0.1 116 0.1 117.5 0.4 119 0.9 120.6 1.5 121.9 2.3 123.1 3.3L119 7.6Z"></path>
        <polygon points="7.5 27 13.9 27 13.9 6 7.5 9.8"></polygon>
        <polygon points="0 0.5 0 6 5.1 6 7.5 6 13.9 6 21.4 6 21.4 0.5"></polygon>
        <polygon points="29.5 27.1 35.9 27.1 35.9 0.8 29.5 0.8"></polygon>
    </g>
</svg>
