<svg height="69" viewBox="0 0 180 69" width="180" xmlns="http://www.w3.org/2000/svg"><g fill="#f6fbfe" transform="translate(124)"><path d="m39.4 29.8-13.1 10.1-7.1 5.4-.6.1-7.3 1.4-7.3 1.4 4.4-4.5 4.5-4.6 4.8-4.8v-.1l3.1-3.1 1.4-.1 4.1-.3z" opacity=".6"/><path d="m26.4 18.5v.4-.4h-.7l-.9 1.8-7.1 14-2 4-1.6 3.1-.5.9-.3.6-2 3.9-2.8 5.6 8.9-2 8.8-1.9.4-.1 22.3-29.2z" opacity=".6"/><path d="m27.9 7.5-1.6 6.7-1.5 6.3-2.6 10.6-1.7 6.6-.6 2.7-1.2 5-1.3 4.9-1.9 7.9 10.6-3.1 11.5-3.5 15.2-40.5z" opacity=".6"/><path d="m26.1 55.2-.1 12.5 26.7-11.2 2.2-50.5-28.6-6v14.2l-.1 4.6" opacity=".6"/><path d="m28.3 36.6-2 .9-6.4 3-4.7 2.1-1.9.3-4.9.8-8 1.3 12.5-5.9 1.5-.7 1.3-.1 4.9-.7 5.7-.7z" opacity=".6"/></g><g fill="#fff" transform="translate(0 18.405)"><path d="m70.3 13.8c0 2.3-.4 4.3-1.3 6-.8 1.7-2 3-3.4 4.1s-2.9 1.9-4.7 2.4-3.5.8-5.3.8h-9.8v-26.3h9.5c1.8 0 3.7.2 5.5.6 1.8.5 3.4 1.2 4.8 2.2s2.5 2.3 3.4 4 1.3 3.8 1.3 6.2m-6.6 0c0-1.4-.3-2.7-.7-3.6-.5-1-1.2-1.8-2-2.4s-1.7-1-2.7-1.2c-1-.3-2.1-.4-3.2-.4h-3.1v15.4h3c1.1 0 2.2-.2 3.3-.4 1-.3 1.9-.7 2.7-1.3s1.5-1.4 2-2.4c.4-1 .7-2.2.7-3.7"/><path d="m77.4 27.1v-26.3h17.7v5.3h-11.5v5h10.9v5.1h-10.9v5.4h12.2v5.5z"/><path d="m119 7.6c-.5-.7-1.2-1.2-2.1-1.6s-1.7-.6-2.5-.6c-.5 0-.9 0-1.3.1-.5 0-.8.2-1.2.4-.3.2-.6.5-.9.8-.2.3-.3.8-.3 1.3 0 .4.1.8.3 1.1.1.3.4.6.8.8.3.2.8.4 1.3.6s1 .4 1.6.6c.9.3 1.8.6 2.8.9 1 .4 1.9.9 2.6 1.5.8.6 1.5 1.3 2 2.2s.8 2 .8 3.3c0 1.5-.3 2.8-.8 3.9-.6 1.1-1.3 2-2.3 2.7-.9.7-2 1.3-3.2 1.6s-2.5.5-3.8.5c-1.8 0-3.7-.3-5.4-1-1.8-.6-3.2-1.6-4.4-2.8l4.2-4.2c.6.8 1.5 1.5 2.5 2 1.1.5 2.1.8 3.1.8.5 0 1-.1 1.4-.2.5-.1.8-.2 1.2-.4.3-.3.6-.6.8-.9.2-.4.3-.8.3-1.4 0-.5-.2-.9-.4-1.2-.2-.4-.6-.7-1.1-1-.4-.3-1-.5-1.7-.8-.6-.2-1.4-.4-2.3-.7-.8-.3-1.6-.6-2.4-1-.9-.3-1.6-.8-2.2-1.4s-1.1-1.3-1.5-2.1-.6-1.9-.6-3c0-1.5.3-2.8.9-3.8s1.4-1.9 2.3-2.5c1-.7 2.1-1.2 3.3-1.5s2.4-.5 3.7-.5c1.5 0 3 .3 4.5.8 1.6.6 2.9 1.4 4.1 2.4z"/><path d="m7.5 27h6.4v-21l-6.4 3.8z"/><path d="m0 .5v5.5h5.1 2.4 6.4 7.5v-5.5z"/><path d="m29.5 27.1h6.4v-26.3h-6.4z"/></g></svg>