<svg enable-background="new 0 0 378 191" viewBox="0 0 378 191" xmlns="http://www.w3.org/2000/svg"><path d="m0 0v191h378v-191zm186.7 186.1h-181.2v-181.2h181.2zm92.5-.1h-87.8v-87.8h87.8zm.1-93.3h-87.8v-87.8h87.8zm93.2 93.2h-87.8v-87.8h87.8zm0-93.2h-87.8v-87.8h87.8zm-158.8-73.4v34.5c0 18.3 9.1 25.1 21.1 25.1 12.7 0 22.2-7.3 22.2-25.3v-34.3h-7.7v34.8c0 12.9-5.7 18.6-14.3 18.6-7.8 0-13.7-5.6-13.7-18.6v-34.8zm100 58.8v-25.1c0-9.7-.1-16.8-.5-24.2l.3-.1c2.9 6.3 6.8 13 10.9 19.6l18.6 29.8h7.7v-58.6h-7.1v24.6c0 9.1.2 16.2.9 24l-.4.1c-2.7-6.1-6.2-12.2-10.4-19.1l-18.7-29.7h-8.4v58.6h7.1zm27.3 51.9c0-7.8-5.5-11.6-13.8-11.6-3.3 0-5.8.3-7.1.6v22.8c1.6.4 3.8.6 6.3.6 9.1.1 14.6-4.5 14.6-12.4m7.6-.8c0 5.3-1.6 9.5-4.6 12.5-4 4.2-10.5 6.4-17.9 6.4-2.3 0-4.4-.1-6.1-.5v23.6h-7.6v-57.9c3.7-.7 8.4-1.2 14.5-1.2 7.5 0 13 1.7 16.4 4.9 3.4 2.7 5.3 7 5.3 12.2zm-95.1 11.4c.1-14-7.8-22.6-23.8-22.6-3.9 0-6.9.3-8.9.8v46.4c1.9.3 4.7.3 7.7.3 16.2.1 25-9 25-24.9m8-.2c0 9.6-3 17.4-8.4 22.8-5.6 5.5-14.6 8.4-26 8.4-5.5 0-9.9-.2-13.8-.7v-57.7c4.7-.7 10.2-1.2 16.2-1.2 10.9 0 18.6 2.4 23.8 7.2 5.1 4.8 8.2 11.7 8.2 21.2zm-119.3-6.4c-4.1 1.1-8.6 1.5-12.6 2.9 6.8-5.9 6.5-14.9 11-21.9 1.5-2 2.7-4 4.3-5.9-2.8 5.6-1.6 12.8-4.8 18.2-1.2 2.1-3 4.2-4.9 5.9.6 0 1.2-.6 1.7-.9 5.2-5.2 12-6.6 17.6-10.8 2.2-1.8 4.3-4.1 5.3-6.7-1 8.6-9.6 16.6-17.6 19.2m18.7-34.7c-2.5 3.6-5.6 7-7.9 10.6.3-2.9.6-6.5-.5-9.2-2-5.9-3.7-11.9-4.2-18.4l.1-2.5c1.5 6.6 8 11.2 7.6 18.6.1 1.8-.4 3.3-.7 4.9l.1.1.3-.3c1-3.6 1.4-7.5 2.9-10.9 2.1-4.9 4.8-9.9 3.7-15.8 3.1 7 2.1 16.3-1.4 22.9m-4-37.6c4.3 5.8 5.2 15 2.1 21.7-1.2 2.8-2 5.8-2.4 8.9-.2-.5-.3-1.3-.5-1.9-1.7-6.5-7.9-11.1-10.4-17.3-.8-2-1.5-4.1-1.9-6.3 2.7 5 9.4 7.6 11.2 13.1.7 1.4.7 3.1 1.2 4.6.1 0 .2-.1.2-.2-.8-5.7-.6-11.6.2-17.2 0-3-.3-6-2-8.3 1 .7 1.5 1.9 2.3 2.9m-3.1-1.2c1.1 5.1-.5 10 .5 15.1-2.8-5.4-8.6-8-12.7-12.3-2.3-2.6-3.4-5.7-3.9-9.1 2.3 5.6 8.5 6.8 12.1 11.5 1.2 1.1 1.6 2.6 2.4 3.8l.1-.1c-2.1-4.4-2.8-9.3-4.2-14-.7-2-2.2-4-4.1-5.3 4.8 1.1 8.9 6 9.8 10.4m-12.5-11.6c3.5 3.2 5.1 7.3 6.2 11.5l.6 1.4c-5.1-3.7-9.8-8.7-13.1-13.9l-4-4.1c3.5 1.5 7.3 2.4 10.3 5.1m-81.2-4.4c-3.6 3.1-6 7.1-8.6 10.7-2.4 2.9-5.4 4.9-8.1 7.4 1.4-3 1.5-6.6 3.5-9.3 3-5.1 8.4-6.9 13.2-8.8m-19.4 10.8c1.7-2.1 3.9-3.6 6.4-4.3-4.8 3.3-4.5 9.2-6 14.1-.5 1.8-1.3 3.5-1.7 5.3l.1.1c.8-2.1 2.2-4.1 3.9-5.8 3.4-3.1 8.4-5.1 10.1-9.7-.1 6.4-5.5 11.5-10.6 15.1-2.1 1.9-4.2 4-5.3 6.4-.1-1.6.2-3.3.1-5-.5-5.6-1-12 3-16.2m-9.7 19.3c-.1-5.7 2.2-10.4 5.6-14.6.1 0 .2-.1.3-.1-3.7 5.6-.6 12.6-.8 19l-.5 6.5c.1 0 .1.2.2.2.2-.7.3-1.5.4-2.2.9-5.2 5.4-9 9.4-12.6.8-.9 1.6-1.9 2-3-.3 2.6-1.1 5.2-2.2 7.7-3.1 6-8.8 11-9.9 17.9-.4-6.8-4.9-11.8-4.5-18.8m-2.7 8.1c.4-1.8.7-3.6 1.5-5.3-1.5 7.5 3.6 13 5.3 19.5.7 2.4.9 5.1 1.9 7.4.1 0 .2 0 .2-.1-2.5-7 1.1-13.4 4.7-18.8.9-1.5 1.4-3.1 1.8-4.8.4 3.1-.4 6.8-.9 10-.9 4.2-2.2 8.1-3.3 12.1-.7 2.5-.6 5.4-.2 8l-.4-.3c-2.6-4.9-7.9-8.6-9.4-14-1.3-4.2-2.1-9.1-1.2-13.7m-.3 14.7c.6 8 9.2 12.2 13.2 18.8.9 1.4 1.8 2.8 3 4-.2-.8-1-1.6-1.3-2.4-1.4-2.8-1.9-6.1-1.6-9.4.4-4.1 2.1-7.9 1.4-12.2 3.5 7.6 2.4 17 4.4 25.2.5 1.8 1.5 3.4 2.2 5.1-7.2-4.9-17-9.6-20.2-18.5-1.2-3.2-1.4-7-1.1-10.6m4.3 18.4c4 9.1 14.1 9.8 20.8 15.4 1.2 1.1 2.5 2 3.9 2.7l.1-.1c-1.5-1.4-3.3-3-4.4-4.8-3.9-5.5-2.6-13.2-5.5-19.1 2.7 3.2 5.1 6.5 6.7 10.2 2.4 5.9 3.3 12.7 8.9 17.1-6-2-13.1-1.4-18.4-5.1-5.8-3.6-11-9.7-12.1-16.3m10.3 16.9c6.4 7.3 16.9 4.9 25.5 6.8 1.2.2 2.3.7 3.6.5-1-.7-2.4-.6-3.5-1.2-6.7-2.4-7.7-9.6-11.4-14.5 4.7 3.1 8.6 7.3 12.9 11.3 3.1 2.7 6.8 4 10.7 4.8-.9.3-2.2.2-3.2.5-7 1.7-14.9 4.6-22.3 2-4.8-1.6-9.8-5.4-12.3-10.2m87.3 17.1c-7.2 2.7-14.8-.1-20.5-4.4-2.3-1.5-4.3-3.6-7.3-3.4-1.1 0-2.1 0-3 .3 5.5 2.6 10.6 6.1 15.3 10.6-.8.9-1.8 1.7-2.8 2.5-4.5-4.9-9.5-9.5-15.1-12.2-1.1.1-2.1.8-3.1 1.3-4.5 2.9-9 6.6-12.4 11.1l-2.9-2.4c4.6-4.7 9.8-8.3 15.4-10.9-5.5-1.7-9.1 2.9-13.3 5.2-4.9 3.4-11.9 5-17.8 2.7-3.2-1.2-6.2-3-8.5-5.8 4.6 3.2 11.5 3.5 16.8 1.4 7.1-3.1 14.4-7 22.9-5.1 1.3 0 2.6 1.4 3.9.2 6.3-1.6 13.5-.5 19 2.4l5.6 2.2c5.2 1.9 12 1.4 16.4-1.8-2.2 2.8-5.3 4.9-8.6 6.1m7.8-7.5c-8.1 3.1-16.3-.7-24.1-2l-1.5-.2c3.7-.8 7.3-2 10.3-4.6 4.4-4.2 8.3-8.5 13.1-11.8-3.6 4.6-4 11.2-9.9 14.2-1.5 1-3.3 1.1-4.9 1.9 2.2 0 4.2-.7 6.3-.9 8-1.3 17.1 0 22.7-6.8-2.1 4.5-7.3 8.5-12 10.2m14.8-22.9c-3.2 2.1-6.5 4.1-9.6 6.4v-.3c4.7-7.9 2.4-18.7 5.3-27.3l1.1-2.9c-.6 5.4 1.7 10 1.6 15.4-.2 3.3-1.2 6.2-2.9 8.8h.3c2.3-3 4.1-6.3 6.8-9.2 4.2-4.1 8.5-8.2 9-13.8 1.4 9.3-3.8 17.6-11.6 22.9m-10.5-29.3c-.5 11.3-4.7 21.1-12.1 29.5l-.2.4c-1.5-1.7-3.5-3.8-5.4-5.3 1.1-.7 2-2.1 2.8-3.1 4.6-6.3 7.3-13.4 7.7-21.4l-.2-.7.4.3h6.9l.4-.2zm-44.3 44.2-.5.3c.2-2.5.2-5.1 0-7.6 1.2.4 2.5 0 3.8 0l3.7-.7c1.8.4 3.1 3.3 5.2 1.5.7-.8 1.9-.8 2.4-1.9 1.2-.4 1.5-1.6 2.3-2.4.8-2.3 3.4-2.6 4.9-4.2 1.1-1 2.6-1.9 3.3-3.2l.1.6 5.1 4.9c-8.6 7.8-18.7 12.2-30.3 12.7zm-.1-15.4c.9.4 2.4-.4 2.9.6-.3.6-.7 1.1-.5 1.7.4.9.9 2.1 2 2.2.3.4.7.5 1.1.6-1.9.3-4 .2-5.8.8.2-2 0-4 0-6l-.4-.5c.3.1.5.4.7.6zm-1.8-12.3c-.5.1-1 0-1.4-.2-.2 0-.1-.3-.2-.4.7 0 1-.8 1.8-.7.4-.4.5-1 1.1-1.3-.2-.6.6-.2.7-.6.2-.2.5-.4.8-.2.5.7 1.5.4 2 1.2.2.1.3-.2.3-.3v-.3c.8-.1 1.2 1 2 .3.2-.2.1-.5 0-.7-.1 0-.2-.1-.2-.2.6-.3.9.8 1.6.5.6-.5.9-1 1.7-1l.2.2c.1 1.4-1.1 2.3-2.2 3-.7.3-2 .2-1.9 1.3-.8.7-1.5-.4-2.5-.1-.5-.2 0-.9-.7-1-1.1.3-2.3-.6-3.1.5zm-5.8 27.4c-9.7-1.3-18.2-5.5-25.7-12l5-5 .1-.3c6.9 6.6 15.2 10 24.6 10.6l.7-.2-.2.4v6.5l.4.6c-1.6-.5-3.4-.3-4.9-.6zm-34-22.9c-3.5-6.5-5.5-13.5-5.9-21.2h6.7l.7-.2c-.1.4-.1.8-.1 1.4v-.1c-.2.1.1.2.1.4.1 2.6.6 5 1.2 7.3l.3.5c-.5-.5-.7-1-1.1-1.5-.6.1-1.2.2-1.6.6.3.7-.4.5-.7.7-.1-.2-.3-.4-.5-.5-.5 0-1 .1-1.3.6.1.4-.3.5-.5.8-.1 1.1-.5 2.5.3 3.4 0 .8.4 1.5 1 2 .2 0 .4-.1.5-.2.7.5 1 1.7 2 1.4.3-.1.2-.4.3-.7.5.5.7 1.5 1.7 1.4.2.2.4.7.8.7 1-.3.7 1.2 1.4 1.6.6.4.9 1.2 1.7.8l.3-.4c.3.2 0 .7.3.9.4.8 1.2 1.3 2 1.5.7.8 1.4 1.7 2.2 2.3l-.6.2-4.8 5c-2.2-2.6-4.7-5.5-6.4-8.7zm-5.6-28.2c1.2-10 5.5-18.7 12.4-26.4l.2.7c1.6 1.6 3.3 3.3 4.9 4.8-1.4.9-2.1 2.5-3.2 3.7-4.3 6.1-6.8 13-7.2 20.7l.2.9c-2.4-.2-5-.2-7.5 0 .1-1.5-.1-3 .2-4.4zm18-31.3c7.7-5.5 16.3-8.8 26-9.2l-.3.6.1 5.8.2.6c-9.4.4-17.6 4-24.7 10.4l-.1.3c-1.6-1.7-3.4-3.7-5.3-5.1h-.2c1.5-.9 2.8-2.4 4.3-3.4zm26.1 17.1c-1.3-.3-2.4.3-3.6.4-2.7.7-5.1 2.2-7.4 3.8-.1.2-.2.4-.4.5-1.7-1.5-3.3-3.5-5.1-4.8 4.7-3.8 10-6.4 16.1-6.8l.4-.2c-.3 2.3-.3 4.8 0 7.1zm-1.9 7.8c-.1-.3.3-.7-.1-.9-1.1.5-.7 1.7-1.4 2.5-.1.6-.9.3-1.3.7-.3-.5-.9-.4-1.3-.2-.6 0-.7-1.2-1.3-.6-.2.2-.1.6-.5.5-.1-.2-.3-.2-.4-.3 0-.4.6-.3.4-.7-.4-.8-1.4-.7-2-1.2h-.6c2.8-3 6.4-4.3 10.3-4.9 0 1.7-.2 3.7.4 5.3-.6-.8-1.5.1-2.2-.2zm-6.7 19.6c.4-.4.8-1 1-1.6l.8.4c-.8.1-1.2.9-1.8 1.2zm7.7 7.3c-.3.6-.1 1.4-.2 2-3.2-.6-6.1-1.9-8.7-4 1.5-1.6 3.4-3.1 4.5-4.8.1.8 1.1 1.1 1.7 1.5 1.3.6 2.8 1.5 4.3.9-.1.1-.2.2-.3.3.4.4-.3.8.2 1.2.1.3-.3.3-.3.5.2.4-.1 1.2.6 1.4.2.2 0 .6-.3.6-.6-.1-1.2-.1-1.5.4zm-14.9-26c-.7.4-1.2 1.1-1.6 1.7-.6.4-1.3.3-1.8 1 0 .3.3.6 0 .8-.6.5-1.7-.1-2 .9-.1.9-1.2 1.4-1.1 2.4-.6.4-.5 1.1-.4 1.7.3.4-.1 1.1.4 1.4-.9-.1-2.2-.3-3 .1.5-1.1.3-2.4.6-3.6.9-5 3.2-9.4 6.5-13.4 1.7 1.6 3.5 3.6 5.3 5-1.4 0-1.4 2-2.9 2zm-3.3 28.5-.2-1.5c-1.4-1.2-.9-3.4-1.2-4.9-1-.8-.2-2-.9-2.9 0-1.4-2.2-1.9-1.5-3.4-.3-.4-.6-.9-.3-1.4.4-.5 1.4 0 1.7-.7l.2-1.3c.5-.3 1.2.4 1.5-.3.5-1.2-1.8-2.7.2-3.3.7-.1 1.5-.2 1.8.6.1.9.4 1.9 0 2.8.6.2.1.8.1 1.2-.4.2-.7.6-1.2.4-.2-.3-.5-.9-1-.8-.4.5.1 1 .1 1.6-.1.3 0 .7-.2 1-.2-.1-.3-.2-.6-.2-.4.2-.1.7 0 .9.4.3.7.7 1.3.7l.2-.3c-.1-.8.3-1.4.3-2.1l.7.4c.6 3 2 5.7 3.7 8.3l.9.9c-2.2 1.9-4.3 4.2-6.2 6.3 0-.1-.1-.5-.4-.3-.2-.9 1.3-.6 1-1.7zm15.4 8.6 1.2.5c-4.2-1-8.7-2.5-12.3-5.5-.6-.4-1-1.2-1.8-1.2 1.7-1.4 3.4-3.2 4.8-4.9.6 1.2 2 1.8 3 2.6 1.8.8 3.7 2.4 5.9 2-.7.2-1.3.6-1.8 1.2-.3.7-.2 1.6-1.1 1.9 0 1.2 1.2 2.4 2.1 3.4zm-7.2-18.9c0 .2.3.5.6.3.3-.4-.6-1 0-1.2.4.4.2 1.2.4 1.7.2.3.3.6.2.9-.7.8-1.6 1.5-2 2.4-.4-1.1-1.4-2-1.8-3.1-.7-1.3-1.1-2.7-1.7-3.9.6.7 2.1-.1 2.1 1.3.1.1.2 0 .4 0 .2-.2.2-.2.5-.1.1.2.7.4.2.6.1.5.6 1 1.1 1.1zm10.8-36.4c-1.3-.3-2.5.2-3.8.3-5.4 1.1-10.4 3.4-14.5 7.3l-.2-.5c-1.6-1.5-3.1-3.4-4.9-4.5 1.5-.9 2.9-2.3 4.4-3.3 5.6-3.8 11.9-5.9 18.9-6.3-.2 2.3 0 4.7.1 7zm-27.4 28.1-.6-.2-6.6.1c.6-7.4 2.6-14.2 6.9-20l2.6-3.3v-.5c1.5 1.8 3.3 3.5 5.1 5.1-4.8 5.1-7.2 11.3-7.7 18.1.1.3.1.6.3.7zm-4.9 11.2c-.7.1-.5.8-.7 1.2.1-1.7-.7-3.3-.9-5l-.5-4.4-.3-.4c2.1.3 4.5.1 6.7.2l.5-.2c-.2 1.1-.2 2.6.5 3.5-.3-.3-.7-1.1-1.3-1.1-1.2.1-1.3 1.7-2.6 1.7-1 .8-1.2 2-1.4 3.2.5.3-.3.8 0 1.3zm7.3-8.3-.3-.6c.7.5 1.5.4 2.3.2-1.2.4-.7 1.8-1.2 2.7-.1.4.6.6.5 1-.6.3-.7.9-.9 1.4.3-1.6-.3-3.1-.4-4.7zm25.3 34.8-.7-.5c-9-.5-16.7-4.2-23.4-10 1.1-.1 1.5 1.3 2.7 1 1.3-.1 2.3-1.2 3.7-1 .7 0 1.5 0 1.9-.7.2-.7-.6-1.1-.7-1.7 4.6 3.4 9.7 5.6 15.6 5.8l.6-.2v6.4zm1.1-44.8.4.2c-.5 0-1.1-.3-1.5.1-.3.2-.1.6 0 .9.9.3 1.1 1.8 2.2 1.2.5.1 1.1.2 1.3.7.7.3.8 1.5 1.7 1.2 0 .5-.2 1.3.4 1.6-.1.4-.7.6-.7 1.1-.1.1-.2.4-.1.6.9.1.8 1.1 1.3 1.7-.2.7 0 1.4.7 1.8-.1.8-.5 1.5-.8 2.2-.9.5-2.5-.7-2.8 1-.5.6-.1 1.9-1.1 1.9-2 .1-3.8-.3-5.3-1.4 1-.5 2.7.2 3-1.3.3-.2.4-.6.2-.9.5-.5.6-1.1.9-1.6-.4-.4-.2-.6-.1-1-1-1-2.3-.5-3.6-.5-.8.4 0 1.3-.5 1.8-1 .1-1 1.1-1.7 1.6-.4-.2-.7-.7-.7-1.1h.1c-.1.2.1.4.2.4.9.1.6-.9.9-1.4.1-.6 1.5-1.4.4-1.8-.1-.2.1-.6-.2-.7-.3.1-.9.1-.9.7.2.4 0 .9-.4 1.2h-.2c.1-.3-.1-.5-.3-.6-.6 0-1 .4-1.6.3-.8.2-1.6.3-2.4.3-.1-.5.6-.3.8-.7-.1-.7.4-1.2.7-1.7.2-.2.6-.1.8 0 .2.2.4.4.7.3l.2-.4c.7.4.3 2.5 1.7 1.6.2-.9 0-2 .4-2.8-.3-.8.5-1.1.7-1.6.7.1.7-.8 1-1.2 1.1-.3 2.3-.6 3.1-1.8-.3-.6-.1-1.5-.6-2 .5-.1 1.3-.3 1.7.1zm4.1-27.8c4.2.5 8 1.7 11.7 3.4.6.8 1.6 1.3 1.8 2.3-.6 1.5 2 1.4.8 2.9-.1.5.3.7.5 1.1.1.4-.1 1 .4 1.3.9.2 1.2-1 2.1-.7 1.1.8 1.4 2.2 1.4 3.4.1.8.8 1.3 1.5 1.6 1.4-.4.8 1.2 1.7 1.6 1.1.1 1.7 1.6 2.9 1.4 1.1.8 1.7 2 2.7 2.9 0 .2.1.4.3.5.6.1.9-.3 1.4-.3 1.9 3.8 2.8 8 3.1 12.5l.2.5c-2.3 0-4.7 0-7.1.2-.1-1.4 0-2.8-.7-3.9.4-.7.5-1.7.4-2.5-.1-.4-.5 0-.6 0-.8.7-.9 1.8-1.3 2.7-.7.9-.8 2.4-.4 3.4l.3.3h-2.7c.7-.4-.6-1.2.1-1.9l1.2-.2c.4-.9 1.4-1.5 1.3-2.6.5-.7 1-1.5.6-2.4-.6-1.3 1-2.7-.2-3.9.1-.4-.1-.9-.6-.9-.4-.1-.8 0-.8-.5.2-.3.8-.7.6-1.2-.3-.4-.7 0-1.1-.1-.1-.6 1-1.2 0-1.7-.7-.1-1 .7-1.7.4-.3-.2-.5-.7-.2-1l-1.4-1.8c-.1-.2-.6.1-.6-.2.1-1.4-1.6-2.2-1.7-3.6-.5-.5-.1-1.4-.8-1.8-.4-.3-.8-.6-1.4-.4-.6-.9-1.3-1.7-2.1-2.5-.2-.1-.4.1-.5.2.1.7.9 1.1.9 1.8-.1 0-.2 0-.3.1.1.7.7 1.3 1.1 1.7-3.8-2.9-8.3-4.4-13-5.2-.9 0-1.9-.4-2.8-.1.2-2.1.1-4.5.1-6.7l-.2-.5c1.1.5 2.1.2 3.1.4zm1.9-9.7c9.7 1.3 18.3 5.2 25.6 12.1l-.8.3c-1.3 1.4-2.9 2.6-3.6 4.2-.1-.5-.8-.8-1-1.2-.1-1.3-1.4-2.6-2.6-3.3-.9-.2-1.2-1.6-2.3-1.2-1-.8-2.2-.2-3.1.2v.1c-4.6-2.6-9.7-4.2-15.2-4.6-.3 0-.4.2-.7.2.3-.2.1-.8.1-1.1-.1-.2-.4-.5-.8-.3-.1.2-.2.4-.2.6.1-2.1.2-4.8-.1-6.7 1.4.6 3.1.4 4.7.7zm4.5 62.3c2.1.2 4.1.7 6 1.4.5 0 1 0 1.3-.4-.1-.8.8-1.2.7-2 .4-.7.1-1.6.7-2.2.1-.8 0-1.8-.6-2.4-.5-.3-1 .1-1.5.2-.6.4-.4 1.7-1.4 1.4-.2.3-.7.3-1 .2-.1-.1-.2-.1-.2-.3.7-.4 2-.1 2.1-1.3.5-.5 1.4-.3 1.9-.8.4-.6.5-1.1 1-1.6 0-.2.1-.5.1-.7.1.3.1.8.6 1 .6.2.8-.3 1-.7 0-.2.1-.5.3-.3.6.5 1.4.1 2.1.1.6-.2 1.3-.3 1.9-.3-.6 2.7-1.9 5.1-3.5 7.5-.6.7-1.1 1.5-1.8 2.3-.2-.6-.2-1.3-.7-1.8l-.3.1c-.4.8-1.2 1.4-1.1 2.3-.6.9-2 .1-2.9.6-1 .3-1.6-.7-2.4-.9-.9-.4-2-.4-2.8-.9.2-.3.3-.5.5-.5zm6.6-35.8c-1.3 1.4-2.9 2.8-4 4.3l-.2-.5c-3.2-2.6-6.8-3.9-10.8-4.4l-.6.1v-6.5l-.2-.5c2.7.4 5.3.8 7.8 1.6 3.1 1.1 6 2.8 8.7 5l.6.2zm10.1 20.5c-.4 1.3-.4 2.8-.7 4.1-.1.2-.1.5-.2.7-.4-.8-.8-1.9-1.7-2.4-.8-.4-.3-1.5-1-2l-.7-.7c1.1.5 2.8.4 4.3.3zm-4.3-12.8c.8.2 1.3 1.1 2.1 1.3.7 1.1 1 2.4 1.4 3.6-.7.7-.7 2.3-2.1 2.1-.3-.8.6-1.2.4-2 .2-.2.6-.3.7-.7-.1-.7-1-.6-1.1-1.3-.3-.4-.8-.4-1.2-.5-.9-.4-1.8 1.9-2 0 .3-.2.5-.6.2-.9-.8-.4-.9-1.5-1.7-2-1.2 0-2.3-.5-3.4-.2-.7-.2-1.6-.7-2.2.1 0 .6-.4 1.1-.5 1.7-.3-.1-.5-.4-.7-.7 2.1-2.4 4.6-4.8 6.8-7.1l.1-.3c1.1 1.4 2.4 2.8 3.2 4.3.3 1-1.5 2 0 2.6zm-13.6 23.1c0 .9-1.3.8-1.9 1.4-.3-.1-.1-.5 0-.7.6-.3 1-.8 1.9-.7zm-2.1-20c-.4.1-.8.4-1.2.2-.4-.4-.9-1-1.6-1.1-.5.1-.8.7-1.3.4.9-.9 2.4-1.1 3.1-2.4.2-.6.4-1.3.3-1.9-.2-.3-.6-.6-.9-.3-.5.8-1.6 1-2.1 1.8l-1.7-.6c-.3-1.6.1-3.6-.3-5 .9.3 1.9.4 2.9.6 2.5.6 4.7 1.8 6.9 3.1-.5.2-1 .8-1.4 1.2 0 .4.5.3.6.6l.5-.2c-1 1.9-3.5 1.6-3.8 3.6zm13.5 37.5c-1.3-1.2.8-2.1 1.2-3.2-.2-1.1-1.5-1.8-2.4-2.1-.5-.3-.3-.8-.3-1.2.4-.4.9-.8 1.1-1.4l.2.5 3 3.1c0 .7.1 1.3.8 1.6.3.1.7-.1 1 0h-.2c-1.3 1.4-2.8 2.5-4.3 3.6l-.3.5c-.3-.6.6-.9.2-1.4zm5.7-7c-.6-.6-.6-1.7-1.7-1.7-.4 0-.5.3-.5.6 0 .2.1.4-.1.5l-2.2-1.9c1-.5 1.8-1.9 2.6-2.9 2-2.8 3.2-6 4.2-9.2.3.3.8.3 1.1.1.3-.3.4-.8.2-1.1l-.7-1c.1-1.5.5-2.9.3-4.3l.5.2c2.2 0 4.5.1 6.7-.1l-.3.4c-.6 8.7-3.6 16.6-9.7 23 .3-.9-.5-1.7-.4-2.6zm19.7-26.1c.1.8-.1 1.8.4 2.5l-7 .1c-.2.1-.4.2-.6.2l.2-.3c-.1-5.5-1.6-10.4-3.7-15-.1-2.1-2.1-3.5-2.9-5.3-1.5-1.1-2-2.9-3.8-3.9-.3-.4-.5-1-1-1.1l.8-.2c1.7-1.7 3.5-3.4 4.8-5.2 7.3 8.2 11.9 17.4 12.8 28.2zm-2.3-17.1c-7.9-16.9-25.3-27.6-43.5-27.6-8 .1-15.3 1.9-22 5.2-11.9 5.7-21.6 18-24.9 30.2-5.3 20.6 1.9 41.4 19.5 53.5 12.7 9.1 32.9 10.8 47.2 3.9 12.7-5.3 23.5-18.4 26.8-31.3 3.3-10.8 1.9-24.2-3.1-33.9zm-22.1-15.2c0 .3 0 .5.2.7 1 .4 1.1 1.8 2.4 1.5.4-.4-.2-.9-.1-1.5-.2-.5-.6-.7-1.1-.9-.6.6-1-.3-1.4.2m-19.3-4.1c1.3 1.6 3.5.7 5.1.4 1.2.5 2.3-.1 3.1-.8v-.2c-.8-1.2-2.4-1.3-3.8-1.4l-3.5 1.5c-.3-.1-.8-.3-1 .1-.1.2 0 .3.1.4" fill="#fff"/></svg>