<svg enable-background="new 0 0 197.6 59.2" viewBox="0 0 197.6 59.2" xmlns="http://www.w3.org/2000/svg"><path d="m159.8 37.7c0-8.5 0-17.1 0-25.6h.5 11.6c2.4 0 4.8.6 6.9 1.7 2.8 1.5 4.7 3.7 5.7 6.7.3.9.5 1.9.6 2.8.1.8.1 1.6.1 2.4-.2 2.4-.8 4.7-2.2 6.7-1 1.3-2.2 2.4-3.6 3.2-1.6.9-3.4 1.5-5.2 1.7-.9.1-1.9.2-2.8.2-3.8.2-7.6 0-11.4.1 0 .1-.1.1-.2.1zm6.4-20.9c-.1 1.3-.1 15.8.1 16.3h.6 3.4c1 0 2-.1 3-.4 1.2-.3 2.2-.8 3.1-1.6 1.5-1.4 2.2-3.3 2.4-5.3.1-1.5 0-3-.6-4.5-.4-1-1-1.9-1.8-2.6-1.4-1.3-3.2-1.8-5-1.9-1.6-.1-3.2 0-4.9 0-.1-.1-.2 0-.3 0zm-81.5-4v13.6c0 .5 0 1-.1 1.4-.4 2.4-1.8 4-4.1 4.7-1.5.5-3 .4-4.5 0-1.4-.4-2.5-1.1-3.3-2.3-.7-1-.9-2.1-.9-3.3 0-4.7 0-9.4 0-14.1 0-.2 0-.4 0-.7-2.1 0-4.2 0-6.4 0v.7 11.7c0 1.1 0 2.1.1 3.2.1.7.1 1.4.3 2.1.6 3.1 2.4 5.4 5.1 6.8 1.7.9 3.6 1.3 5.5 1.4 1.5.1 2.9.1 4.4-.1 1.4-.2 2.8-.5 4.1-1 1.7-.7 3.1-1.7 4.2-3.2 1.3-1.8 1.9-3.9 1.9-6 .1-5.1 0-10.2 0-15.2 0-.1 0-.2 0-.3-2.1 0-4.2 0-6.3 0zm41.6-.7h7.4c3.8 8.5 7.6 17 11.4 25.6-2.3 0-4.5 0-6.8 0-.7-1.7-1.4-3.4-2.1-5.1-3.9 0-7.7 0-11.5 0-.6 1.7-1.3 3.4-1.9 5.1-2.2 0-4.4 0-6.7 0 3.3-8.5 6.7-17 10.2-25.6zm3.8 6.2c-.3.5-3.7 9.4-3.7 9.8 0 0 .1 0 .1.1h.4 7.3.1s0 0 0-.1c-.3-.8-.7-1.6-1-2.5-.3-.8-.7-1.6-1-2.4s-.7-1.6-1-2.5c-.5-.8-.8-1.6-1.2-2.4zm-20.3-5.9c-1.3-.4-2.7-.6-4-.7-1.2-.1-2.4 0-3.6.2-1.7.3-3.3.8-4.6 1.9-1.7 1.3-2.4 3-2.6 5 0 .7.1 1.5.2 2.2.3 1.3 1 2.4 2 3.3 1 1 2.3 1.6 3.5 2.2 1.4.5 2.7 1 4.1 1.6.8.3 1.6.7 2.3 1.2 1 .8 1.2 2.1.4 2.9-.4.5-1 .8-1.6.9-.9.2-1.8.3-2.7.2-1.1-.1-2.1-.3-3.1-.7-1.5-.6-2.9-1.4-4.3-2.3-.1-.1-.2-.1-.3-.2v5.4c.5.3 1 .5 1.5.8 1.8.9 3.6 1.4 5.6 1.6 1.4.1 2.8.1 4.2-.1 1-.1 2-.4 2.9-.8 1.4-.6 2.7-1.5 3.6-2.8.6-.9.9-1.9 1.1-3 .1-.9.1-1.8-.1-2.7-.4-1.9-1.5-3.3-3-4.4-1-.7-2.2-1.3-3.3-1.7-1.4-.6-2.9-1.1-4.3-1.7-.6-.3-1.2-.6-1.7-1.1-.7-.7-.6-1.9 0-2.3.3-.2.5-.4.8-.5.5-.3 1.1-.4 1.7-.4 1.1-.1 2.3 0 3.4.3 1.4.3 2.7.8 4.1 1.4.5.2.9.4 1.4.6 0-1.5 0-3 0-4.4 0-.2 0-.3 0-.5-1.2-.6-2.4-1-3.6-1.4zm44.4-.3c-2.1 0-4.1 0-6.2 0-.1.8-.1 25.2 0 25.6h6.2c.1-.8.1-25.2 0-25.6zm-95 17.9c-.1 6.8-2.7 13.2-7.9 18.4s-11.6 7.8-18.9 7.9c-3.5 0-7-.7-10.3-2-3.3-1.4-6.2-3.3-8.7-5.8-2.4-2.4-4.3-5.1-5.6-8.2-1.5-3.4-2.3-7-2.3-10.8 0-3.4.6-6.7 1.9-9.9 1.4-3.5 3.4-6.5 6-9.1 2.3-2.4 5.1-4.2 8.1-5.6 3.5-1.5 7.1-2.3 10.9-2.3 7.4.1 13.7 2.7 19 7.9 5.1 5.2 7.8 11.8 7.8 19.5zm-.4-.5c.1-14.5-11.8-26.3-26.1-26.4-14.8-.2-26.7 11.8-26.8 26.3 0 14.6 11.9 26.4 26.2 26.5 14.8.1 26.8-11.9 26.7-26.4zm58.6 13.8c-.2 0-.3 0-.4 0s-.2 0-.3 0c-.1 1.1-.1 5.6 0 6.1h.7c0-.5 0-1.1 0-1.6s0-1 0-1.5-.1-1 .1-1.6c.4.5.7.9 1 1.2.3.4.5.8 1 1.1.7-.8 1.2-1.6 1.9-2.4v4.7c.3 0 .6.1.8 0 .1-1.6 0-5.5-.1-6-.2 0-.4 0-.7 0-.7.8-1.4 1.7-2.1 2.5-.6-.8-1.2-1.7-1.9-2.5zm-32.2 2.5c-.7-.9-1.4-1.7-2-2.5-.3 0-.5 0-.7 0v6h.7c0-.2 0-.4 0-.6 0-1.2 0-2.4 0-3.7 0-.1 0-.2.1-.5.7.9 1.3 1.6 1.9 2.4.7-.8 1.2-1.6 2-2.4.1.6.1 1.1.1 1.6v1.6 1.6c.3 0 .6.1.8 0 0-2 0-4 0-6-.2 0-.5 0-.8 0-.8.8-1.4 1.7-2.1 2.5zm-7.2 3.6c-.8 0-1.5-.2-2.1-.6-.5-.4-.8-.9-1-1.5-.3-.8-.2-1.6.2-2.4.6-1 1.4-1.6 2.6-1.6.5 0 .9 0 1.4.1 1.1.3 1.8 1.1 2.1 2.1.5 2.4-1.2 3.9-2.9 3.9-.2 0-.2 0-.3 0zm2.4-3c.1-1.4-1.2-2.4-2.4-2.4-1.5 0-2.4.9-2.4 2.3 0 1.5 1 2.3 2.4 2.4 1.3 0 2.5-1 2.4-2.3zm89 3c-1.5.1-2.8-1-3.1-2.2-.6-2.4 1.2-3.9 2.9-3.9.7 0 1.4.1 2 .5.7.5 1.2 1.1 1.4 1.9.4 2.1-1.2 3.8-3.1 3.7 0 0 0 0-.1 0zm0-.7c1.4 0 2.5-1 2.4-2.4 0-1.3-.8-2.2-2.4-2.3-1.2-.1-2.4.9-2.4 2.3.1 1.3 1.2 2.5 2.4 2.4zm-21.3-5.4v6h.7c0-.5 0-1 0-1.5s0-1 0-1.6c0-.5-.1-1 .1-1.6 1.4 1.6 2.7 3.1 4.1 4.7h.6c.1-1.8 0-5.5 0-6-.2 0-.4 0-.7 0v4.5.1s0 0-.1.1c-1.4-1.5-2.7-3.1-4.1-4.6-.3-.1-.5-.1-.6-.1zm-19.9 0c.7.1 1.4.1 2.1.2.6.1 1.1.4 1.3 1s.1 1.1-.3 1.6c-.2.2-.4.3-.6.5.9.8 1.3 1.9 2.1 2.8-.4 0-.7 0-1 0-.7-.8-1-2-2-2.6-.2 0-.5 0-.8 0v2.6c-.3 0-.5 0-.8 0-.1-.4-.1-5.2 0-6.1zm.8 2.7c.4.1.8 0 1.2-.1.4-.2.5-.5.5-.8 0-.4-.1-.7-.5-.8-.4-.2-.9-.3-1.3-.1.1.5.1 1.1.1 1.8zm-59.3-2.7c.8-.1 1.5-.1 2.3.1.6.2 1 .6 1.1 1.2s-.1 1.1-.5 1.5c-.1.1-.2.2-.4.3.3.3.5.6.8.9.2.3.4.6.6 1 .2.3.4.7.7 1-.3 0-.6 0-.9 0-.3-.4-.6-.8-.8-1.3-.2-.3-.4-.6-.6-.9-.4-.4-.7-.5-1.3-.4v2.6c-.3 0-.6 0-.8 0-.2-2-.2-4-.2-6zm2.6 1.7c-.2-.9-.7-1.2-1.8-1v.9c0 .3-.1.7.1 1 1.1.2 1.4 0 1.7-.9zm25 4.4c.2 0 .5.1.7-.1 0-.8 0-1.7 0-2.5h3.5v2.6c.3 0 .6.1.8-.1.1-1.8 0-5.5-.1-6-.2 0-.5 0-.7 0v1.3 1.3c-1.2.1-3 .1-3.4-.1 0-.8 0-1.7 0-2.6-.3 0-.5 0-.7 0-.1 2.1-.1 4.1-.1 6.2zm46.7-6.1h.5c.9 2 1.8 4 2.7 6-.3 0-.5 0-.8 0-.3-.6-.5-1.2-.8-1.8-.9 0-1.7 0-2.6 0-.3.6-.5 1.2-.8 1.8-.3 0-.5 0-.7 0 0-.3 2.1-5.2 2.5-6zm1.2 3.5c-.1-.5-.6-1.8-1-2.1-.3.7-.6 1.4-.8 2.1zm-32.6-3.5h.6c.9 2 1.8 4 2.7 6-.3.1-.5 0-.8.1-.3-.6-.5-1.2-.8-1.8-.8 0-1.7 0-2.6 0-.3.6-.5 1.2-.8 1.8-.3 0-.5 0-.8 0 .8-2.1 1.7-4.1 2.5-6.1zm-.6 3.5c.7.1 1.2 0 1.8 0-.1-.6-.7-1.8-1-2.1-.2.7-.6 1.4-.8 2.1zm71.6-.1h2.4c0-.3 0-.5 0-.7-.4 0-.8 0-1.2 0s-.8 0-1.2 0c0-.6 0-1.2 0-1.8h2.5c0-.3 0-.5 0-.8-1.2 0-2.3 0-3.4 0-.1 1-.1 5.6 0 6h3.4c0-.2 0-.4 0-.7-.9 0-1.7 0-2.6 0 .1-.8 0-1.4.1-2zm-76.4 2.6c0-.2 0-.4 0-.6-.9 0-1.7 0-2.6 0-.1-.8-.1-1.6 0-2h1.1c.4 0 .8.1 1.2-.1 0-.2 0-.4 0-.7-.4 0-.8 0-1.2 0s-.8.1-1.1-.1c0-.6 0-1.2 0-1.8h1.2 1.2c0-.3 0-.5 0-.7-.9-.1-2.9-.1-3.3 0v6c1.1.1 3.1.1 3.5 0zm33-5.8c-.7-.3-1.4-.3-2.1-.2-1.6.3-2.9 1.9-2.5 3.7.2 1.1.9 1.8 2 2.2.8.3 1.6.2 2.4 0 .4-.1.7-.2 1-.4 0-.3 0-.5 0-.8-.2.1-.4.2-.5.3-.6.2-1.1.4-1.7.4-1.6-.1-2.7-1.4-2.2-3 .1-.5.4-.9.9-1.2.7-.4 1.4-.6 2.2-.4.5.1.9.3 1.4.4 0-.3 0-.5 0-.8-.5-.1-.7-.1-.9-.2zm18 3.2v2.6c-.3 0-.5 0-.8 0 0-2 0-4 0-6 .6-.1 2.1-.1 2.6.1.7.2 1.1.8 1.1 1.6 0 .7-.5 1.4-1.2 1.5-.3.1-.7.1-1 .1-.1.2-.3.1-.7.1zm.1-2.6v1.9h.8c.8 0 1.1-.2 1.3-1-.1-.7-.5-.9-1.2-.9-.3 0-.6 0-.9 0zm3.8-.8v6h3.4c0-.2 0-.4 0-.7-.5 0-.9 0-1.3 0s-.9.1-1.3-.1c-.1-.7-.1-1.5.1-1.9.8-.1 1.6 0 2.4-.1 0-.2 0-.5 0-.7-.9 0-1.6 0-2.4 0 0-.6 0-1.2 0-1.8.9-.1 1.7 0 2.6-.1 0-.3 0-.5 0-.7-1.3.1-2.4.1-3.5.1zm-38.4 0v6h3.4c0-.2 0-.4 0-.7-.5 0-.9 0-1.3 0s-.9.1-1.3-.1c-.1-.7-.1-1.5.1-1.9.8-.1 1.6 0 2.4-.1 0-.2 0-.5 0-.7-.9 0-1.6 0-2.4 0 0-.6 0-1.2 0-1.8h2.6c0-.3 0-.5 0-.8-1.3.1-2.4.1-3.5.1zm50.2 0c.8 0 1.7-.1 2.5.1.7.2 1.2.8 1.1 1.5 0 .8-.4 1.5-1.1 1.7-.3.1-.7.1-1 .1s-.6 0-.9 0v2.6c-.2 0-.5 0-.7 0 0-.4 0-5.1.1-6zm.7 2.7h1.2c.2 0 .4-.1.6-.2.4-.2.4-.5.4-.9s-.2-.6-.6-.8c-.2-.1-1.3 0-1.6.1zm-109 3.4h.8c0-.9 0-1.9 0-2.8h2.3c0-.3 0-.5 0-.7-.8 0-1.5 0-2.3 0 0-.3 0-.6 0-.9s-.1-.6.1-.8h2.2c0-.3 0-.5 0-.8-1 0-2.1 0-3.1 0-.2.8-.2 5.5 0 6zm27.8-5.3v1.8 1.7 1.7h.8c0-1.7 0-3.5 0-5.2.7-.1 1.4 0 2-.1 0-.3 0-.5 0-.7-1-.1-4.5-.1-5 0v.8zm88.6 5.2c0-.2 0-.4 0-.7-.9 0-1.8 0-2.7 0 0-1.8 0-3.6 0-5.3-.3 0-.5 0-.8 0v6c.8.1 3 .1 3.5 0zm-47.7-6c-.2 0-.5 0-.7 0-.1 1-.1 5.6 0 6h.7c.1-1.1.1-5.6 0-6zm-80.5-13.8c0 11.7-9.5 21.5-21.5 21.4-11.9 0-21.5-9.6-21.4-21.5 0-12 9.7-21.5 21.7-21.4 11.8.1 21.3 9.7 21.2 21.5zm-.4 0c.1-11.5-9.4-20.9-20.8-21-11.7-.1-21.3 9.4-21.3 21s9.5 21 20.9 21c11.8 0 21.3-9.6 21.2-21zm-.5 9.5c.2.4.3.9.5 1.3-.5.1-.9.3-1.4.4-.1.1-.1.2-.2.3 0 .1-.1.2-.1.3.9.4 1.7.9 2.6 1.3.1-.2.2-.4.3-.6-.5-.3-1-.5-1.5-.8.4-.1.8-.2 1.1-.4-.1-.4-.3-.7-.4-1.1.6.3 1.1.5 1.6.8.1-.2.2-.4.3-.6-.9-.4-1.7-.9-2.6-1.3-.1 0-.2.2-.2.4zm-39.4-21.8c-.5-.4-.9-.7-1.5-1.1.9-.1 1.6-.2 2.4-.2.1-.1.2-.3.4-.5-.8-.6-1.6-1.1-2.4-1.7-.1.2-.3.4-.4.6.5.3.9.7 1.4 1-.9.1-1.6.2-2.3.3-.1.2-.2.4-.3.5.8.6 1.6 1.1 2.4 1.7 0-.2.1-.4.3-.6zm-1.9 27c.2.2.3.4.4.5.5-.3.9-.8 1.5-1.1-.2.8-.3 1.6-.4 2.4.1.2.3.3.4.5.8-.6 1.5-1.2 2.3-1.8-.2-.2-.3-.4-.5-.6-.5.3-.8.7-1.4 1 .1-.8.3-1.5.4-2.3-.2-.2-.3-.3-.4-.5-.8.7-1.6 1.3-2.3 1.9zm45.9-10.5c0-.2.1-.4.1-.6-1-.2-1.9-.4-2.8-.6 0 .2-.1.5-.1.7.6.1 1.1.2 1.7.4-.7.4-1.4.8-2.1 1.2v.4.2c.9.2 1.8.4 2.8.5 0-.3.1-.5.1-.7-.6-.1-1.1-.2-1.8-.4.7-.3 1.4-.7 2.1-1.1zm-50.1.3c0 .2 0 .4.1.6 1-.1 1.9-.3 2.9-.4 0-.2-.1-.4-.1-.7-.6.1-1.1.1-1.7.2.6-.7 1-1.2 1.5-1.8-.1-.2-.1-.4-.1-.6-.9.1-1.9.2-2.8.4-.1.3 0 .5.1.7.6-.1 1.1-.1 1.8-.2-.7.7-1.2 1.3-1.7 1.8zm44.1-19.5c.3-.3.6-.5.9-.8-.2-.2-.3-.3-.5-.5-.4.4-.8.7-1.3 1.1.1-.9.2-1.6.3-2.3-.1-.1-.1-.2-.2-.2-.1-.1-.1-.1-.3-.2-.7.7-1.4 1.2-2.1 1.9.2.2.3.3.5.5.5-.4.9-.8 1.4-1.2-.1.9-.2 1.7-.3 2.4.1.2.2.3.4.5.4-.5.8-.8 1.2-1.2zm-24.8 38.5c-.5-.7-.7-1.4-1.1-2.1-.2 0-.4-.1-.6-.1-.3.9-.5 1.8-.8 2.8.2.1.4.1.7.2.2-.6.3-1.1.5-1.6h.1c.3.7.7 1.3 1 2 .2.1.4.1.6.2.3-.9.5-1.9.8-2.8-.2-.1-.5-.1-.7-.2-.2.5-.4 1-.5 1.6zm8.5-1.2c.4-.1.8-.2 1.2-.3h.9c.6.2.9.6 1 1.3 0 .6-.2 1.1-.8 1.3-.1 0-.2.1-.3.1-.5.1-1 .2-1.4.3-.2-.2-.5-1.9-.6-2.7zm1.1 2.2c.5 0 1-.1 1.2-.7.1-.4 0-.8-.3-1-.4-.3-.8-.2-1.3-.1.2.7.3 1.2.4 1.8zm-15.9-43.6c-.5-.9-.9-1.7-1.4-2.5.6-.4 1.1-.8 1.8-.9s1.3.2 1.5.9c.3.7.1 1.3-.4 1.7-.5.2-1 .4-1.5.8zm-.5-2.5c.3.5.5 1.1 1 1.6.3-.2.6-.4.8-.6.1-.6 0-1-.4-1.3-.6-.3-1 0-1.4.3zm2.7 44.9c-.5 0-.9-.1-1.3-.4-.5-.4-.6-1.1-.4-1.7.1-.5.8-.9 1.3-.9s1 .2 1.4.5c.7.6.7 1.7 0 2.2-.3.2-.6.3-1 .3zm-1-1.2c.4.6.9.7 1.3.5s.6-.7.5-1.1-.6-.7-1.3-.6c-.4.3-.6.6-.5 1.2zm28.4-7.3c.9-.1 1.4.7 1.4 1.4 0 .9-.8 1.8-1.7 1.8-.8 0-1.4-.6-1.4-1.4-.1-.8.8-1.8 1.7-1.8zm.8 1.5c-.1-.5-.4-.8-.9-.9-.7.2-1 .6-1 1s.5.8.9.9c.5.1.8-.2 1-1zm-3.8-36.3c.1-.1.2-.3.3-.5-.4-.6-1-1-1.7-1.2-.6-.1-1 .1-1.4.6-.3.5-.4 1-.1 1.5.4.8 1.1 1.1 1.9 1.1.2-.4.5-.7.7-1-.3-.2-.7-.4-1-.6-.1.2-.2.3-.3.4.1.1.2.2.4.3-.2.1-.2.2-.3.3-.5-.2-.8-.5-.9-1 .1-.4.2-.6.6-.8h.8c.3.3.6.6 1 .9zm-36.7 32.6c-.1-.2-.2-.4-.4-.6.8-.5 1.6-1 2.5-1.5.4.6.9 1.1.8 1.9-.1.2-.3.3-.5.5-.3 0-.5 0-.8-.1-.1.5-.5.8-.8 1.2-.1-.2-.3-.4-.4-.6.2-.2.3-.4.5-.7s.3-.5 0-.8c-.2.3-.5.5-.9.7zm1.8-.4c.3.1.5 0 .5-.3-.1-.2-.2-.3-.3-.5-.2.1-.4.2-.5.4.1.1.2.3.3.4zm31.4-35.1c0 1-.1 2.1-.1 3.1-.3-.1-.5-.2-.7-.3 0-.2 0-.4.1-.6-.4-.3-.8-.5-1.2-.6-.2.1-.3.2-.5.4-.2-.1-.4-.2-.6-.3.7-.7 1.5-1.3 2.2-2.1.3.1.5.3.8.4zm-.7 1.7c0-.4 0-.8 0-1.2-.3.3-.5.5-.8.8.3.1.5.2.8.4zm-26.5 40.9c-.2-.2-.4-.4-.6-.6.1-.2.1-.3.2-.6-.3-.3-.6-.6-.9-.9-.2.1-.4.2-.6.3-.1-.2-.3-.4-.4-.6.9-.4 1.8-.8 2.8-1.3l.6.6c-.4 1.1-.7 2-1.1 3.1zm-.9-2.2c.3.2.4.5.7.5.1-.3.2-.6.4-1-.4.1-.7.3-1.1.5zm13.8 4.8h.9c.3 1 .6 2 .9 3.1-.3-.1-.5-.1-.8-.1-.1-.2-.1-.3-.2-.6-.4-.1-.8-.1-1.3-.2-.1.2-.2.3-.3.5-.2 0-.5 0-.8 0 .6-.9 1.1-1.8 1.6-2.7zm.7 1.8c-.1-.4-.2-.7-.3-1.1-.3.4-.4.7-.5 1 .2.1.4.1.8.1zm-19.4-33.3c.6.2 1.1.1 1.5-.5.2-.2.3-.5.4-.8.2-.5 0-1-.5-1.3s-1.1-.6-1.7-.8c-.1.2-.2.4-.3.6.2.1.3.2.4.2.3.2.7.3 1 .5.5.3.6.8.1 1.2-.1.1-.3.2-.4.2-.6-.3-1.2-.6-1.8-.8-.1.2-.2.4-.3.6.6.4 1.1.7 1.6.9zm21-13.4c-.1-.2-.2-.3-.3-.5-.4 0-.9 0-1.3 0-.1.2-.2.4-.3.6-.2 0-.4 0-.7 0 .2-1 .6-2 .9-3 .2 0 .5-.1.8-.1.6.9 1 1.8 1.6 2.8-.2.2-.5.2-.7.2zm-1.1-2c-.1.3-.2.7-.4 1.1.3 0 .6 0 .9-.1-.1-.3-.3-.6-.4-.8 0-.1-.1-.1-.1-.2zm15.8 44.5c-.1-.2-.2-.3-.3-.4-.4.2-.7.5-1.1.7-.1-.2-.2-.3-.3-.5.4-.3.8-.5 1.2-.8-.1-.1-.2-.3-.3-.4-.6.4-1.2.7-1.8 1.1.6.8 1 1.7 1.6 2.4.6-.4 1.2-.8 1.8-1.2-.1-.2-.2-.3-.4-.4-.4.2-.8.5-1.2.7-.1-.2-.2-.4-.4-.6.5-.2.9-.4 1.2-.6zm-27.7-38.4c-.1-.2-.2-.4-.4-.6.4-.3.7-.5 1-.8-.1-.2-.2-.3-.3-.4-.4.2-.7.5-1.1.7-.1-.2-.2-.3-.4-.5.4-.3.7-.6 1.1-.8-.1-.2-.2-.3-.3-.4-.6.4-1.1.8-1.7 1.3.6.8 1.2 1.6 1.7 2.4.6-.4 1.2-.9 1.7-1.3-.1-.2-.2-.3-.3-.4-.2.3-.6.5-1 .8zm31 .3c.1-.2.2-.3.3-.4-.6-.5-1.1-.9-1.6-1.3-.6.8-1.3 1.5-1.9 2.2.6.5 1.1.9 1.6 1.4.1-.1.2-.3.3-.4-.4-.3-.7-.6-1-1 .2-.2.3-.3.4-.5.4.3.7.5 1 .8.1-.1.2-.2.3-.4-.3-.3-.6-.5-.9-.8 0 0-.1-.1-.1-.2.1-.1.2-.3.3-.4.5.4.9.7 1.3 1zm3.8 26.6c.9.3 1.8.6 2.8 1 .2-.7.5-1.3.7-2-.2-.1-.3-.1-.5-.2-.2.4-.3.8-.5 1.3-.2-.1-.4-.2-.6-.2.1-.4.3-.8.4-1.2-.2-.1-.3-.1-.5-.2-.1.4-.3.7-.4 1.1 0 .1-.1.1-.1.2-.2-.1-.4-.2-.5-.2.1-.4.3-.9.4-1.3-.2-.1-.3-.1-.5-.2-.2.6-.5 1.2-.7 1.9zm-43.7 2.8c.2-.1.3-.2.5-.3-.2-.4-.3-.8-.5-1.3l.6-.3.6 1.2c.2-.1.3-.2.4-.2-.2-.4-.3-.8-.5-1.2.2-.1.4-.2.5-.3.2.4.4.8.6 1.3.2-.1.3-.1.4-.2-.3-.7-.5-1.3-.9-1.9-.9.4-1.7.8-2.6 1.2.3.8.6 1.4.9 2zm26.2-34.1c.1-.2.1-.4.2-.6.4.1.9.1 1.3.2 0-.2 0-.3 0-.5-.4-.1-.8-.1-1.2-.2 0-.2 0-.4.1-.6.4 0 .8.1 1.3.1 0-.2.1-.3.1-.5-.7-.1-1.4-.2-2.1-.3-.2 1-.3 1.9-.5 2.9.7.1 1.4.3 2.1.3 0-.2.1-.3.1-.5-.4-.1-.9-.2-1.4-.3zm3.6 47.4c.7-.2 1.3-.4 2-.7-.1-.2-.1-.3-.1-.5-.5.1-.9.3-1.3.4-.1-.2-.1-.4-.2-.6.4-.2.8-.3 1.3-.5-.1-.2-.2-.3-.2-.4-.4.1-.8.2-1.2.4-.1-.2-.1-.4-.2-.5.5-.2.9-.3 1.3-.5-.1-.2-.1-.3-.2-.4 0 0 0 0-.1 0-.6.2-1.3.4-2 .6.3.9.6 1.7.9 2.7zm-15.5-48.5c-.3.2-.4.4-.3.7 0 .3.2.6.5.7s.6.1.8.1.4 0 .5.2c-.3.3-.3.4-.5.4s-.4 0-.7 0c-.1 0-.1 0-.2 0 0 .1 0 .2.1.2 0 .1.1.2.1.2 1 .1 1.6-.2 1.9-1-.2-.7-.3-.9-1.1-.9-.2 0-.3 0-.5 0-.1 0-.2-.1-.3-.2.3-.5.9-.3 1.3-.4 0-.2-.1-.3-.1-.5-.5.1-1 .2-1.5.5zm28.2 11.8c-.2-.2-.3-.5-.3-.9 0-.6.7-1 1.2-.7.2.1.4.3.5.5s.2.5.3.8c.2-.1.3-.2.5-.3-.1-.6-.4-1.1-.8-1.5-.5-.4-1-.5-1.6-.3-.6.3-.9.8-.8 1.4.1.8.5 1.3 1.2 1.7.2-.1.3-.2.5-.3-.3 0-.5-.2-.7-.4zm-12.7-11.7c.2.1.3.2.5.3 0 0 .1 0 .2.1 0-.2.1-.3.1-.5-.4-.4-.8-.6-1.3-.6-.4 0-.7.2-.9.5-.2.4 0 .7.2.9.1.1.3.2.5.4.2.1.3.3.5.4-.2.1-.2.2-.3.3-.5-.1-.8-.3-1.1-.7-.1.2-.1.4-.2.6.5.5 1.1.7 1.8.5.7-.6.7-1 0-1.6-.1-.1-.3-.2-.4-.3s-.1-.2-.2-.3c.2-.2.4-.2.6 0zm10.8 37.8c.3-.4.5-.8.8-1.1.2-.2.4-.4.6-.4.3 0 .6 0 .8.3s.2.6.1 1c-.1.2-.2.4-.4.6.3.2.6.4.9.7-.1.2-.3.4-.4.6-.8-.6-1.6-1.2-2.4-1.7zm.8-.3c.2.1.4.3.6.4.1-.2.2-.4.4-.6-.2-.1-.3-.2-.5-.3-.1.1-.3.3-.5.5zm-7.7 6.1c-.2.1-.4.2-.5.3-.2.6.1 1.2-.1 1.8-.5-.4-1-.8-1.4-1.1-.2.1-.4.2-.7.3.5.4.8.7 1.3 1.1.4.3.8.8 1.4 1 .2-.6.2-2.9 0-3.4zm9.6-29c.4-.2.9-.4 1.3-.6.6.1 1.2.3 1.8.3-.2-.3-.3-.5-.4-.7-.4-.1-.7-.1-1.1-.2.2-.4.4-.6.5-.9-.1-.1-.1-.3-.2-.4s-.1-.2-.2-.3c-.3.6-.6 1.1-.9 1.6-.4.2-.8.4-1.2.6.2.2.3.4.4.6zm-35.8 29.6c.2.1.4.3.6.4.5-.6.9-1.3 1.4-1.9.4.2.5.5.9.5.1-.1.1-.2.2-.4-.8-.6-1.5-1.1-2.3-1.7-.1.2-.2.3-.3.4.3.2.5.4.8.6-.4.8-1 1.3-1.3 2.1zm16.5-43.6c0-.5 0-1 .1-1.6h1.1c0-.2 0-.4 0-.5-1 0-1.9-.1-2.8 0v.5h1c0 .8-.1 1.6-.1 2.3.2 0 .4.1.7.1 0-.3 0-.6 0-.8zm-23.7 28.5c.1.3.2.7.3 1-.8.2-1.5.5-2.2.7.1.3.1.5.2.7.8-.2 1.5-.4 2.3-.7.1.3.2.7.3 1 .2-.1.3-.1.5-.2-.3-.9-.5-1.8-.8-2.7-.3.1-.4.2-.6.2zm18.5-27.4c-.2-.8-.3-1.5-.4-2.3.2 0 .4-.1.5-.1.2 0 .3-.1.5-.2 0-.2-.1-.3-.1-.5-.9.2-1.8.4-2.7.6 0 .2.1.4.1.5.3-.1.7-.1 1-.2.2.8.3 1.5.5 2.3.2 0 .4-.1.6-.1zm-14.1 5c.3-.2.5-.5.7-.7.6.6 1.1 1.1 1.7 1.7.1-.1.3-.3.4-.5-.5-.6-1.1-1.2-1.6-1.7l.7-.7c-.1-.1-.2-.2-.3-.4-.7.6-1.4 1.3-2.1 1.9.2.2.4.3.5.4zm40.5 19.9h.4c.1-.3 0-.7.2-1 .8 0 1.5.2 2.3.1 0-.2 0-.4 0-.6-.8-.1-1.6-.1-2.3-.2 0-.4 0-.7 0-1-.1 0-.3 0-.4 0-.2.8-.2 1.8-.2 2.7zm-23.2 22.7h2.2c0-.2 0-.4 0-.6-.5 0-1 0-1.5 0 0-.8 0-1.5 0-2.3-.2 0-.4 0-.7 0zm14.7-7.7c-.2.2-.4.3-.5.5.3.4.6.8.9 1.2s.6.7.9 1.1c.6-.5 1.2-.9 1.7-1.4-.1-.1-.2-.3-.3-.4-.4.3-.7.6-1.1.9-.6-.7-1-1.3-1.6-1.9zm9-22.3c-.2.3-.3.5-.5.8.3-.1.6-.2.9-.3.2.2.4.5.6.8 0-.4 0-.7 0-1 .3-.1.5-.2.9-.3-.3-.1-.6-.2-.8-.3 0-.3 0-.6 0-.9-.2.3-.4.5-.6.7-.3-.1-.6-.2-.9-.3.1.3.3.5.4.8zm-46.4.5.9.3c-.2-.3-.4-.5-.5-.8.2-.2.3-.5.5-.8-.3.1-.6.2-.9.3-.2-.2-.4-.5-.6-.8v.9c-.3.1-.5.2-.8.3.2.2.5.3.7.4v.9c.3-.3.5-.5.7-.7zm10.2 25.7c.2.1.4.2.6.3.5-.8 1-1.7 1.5-2.5-.2-.1-.4-.2-.6-.4-.6 1-1.1 1.8-1.5 2.6zm-3.5-36.8c-.7-.6-1.5-1.3-2.2-1.9-.2.2-.3.3-.5.5.7.6 1.4 1.3 2.2 1.9.3-.1.4-.3.5-.5zm-7.1 16.5h1.4c0-.3 0-.5 0-.7-1 0-1.9.1-2.9.1 0 .3.1.4.1.7.5-.1.9-.1 1.4-.1zm36.2-9c-8.2 0-16.3 0-24.5 0 0-2.4 0-4.7 0-7h24.5c0 .4.1 5.7 0 7zm-6.8-1.6h2.3c.6 0 1.1-.3 1.5-.8.7-1.1.3-2.8-1.2-3.2-.7-.2-1.4-.1-2.1-.1-.1 0-.3 0-.4 0-.1 1.5-.1 2.8-.1 4.1zm-12.1-4v.6 1.7c0 .3-.1.5-.4.7-.7.4-1.5 0-1.5-.8 0-.6 0-1.1 0-1.7 0-.2 0-.4 0-.6-.4 0-.7-.1-1.1 0v2.1.4c.1.7.3 1.2 1 1.5.5.2 1 .2 1.6.1.9-.1 1.5-.8 1.5-1.8 0-.6 0-1.2 0-1.7 0-.2 0-.4 0-.6-.4.1-.7.1-1.1.1zm8.6 4.1c.4 0 .7 0 1.1-.1-.6-1.4-1.2-2.7-1.8-4-.4 0-.8 0-1.2 0-.5 1.3-1.1 2.7-1.6 4.1h1.1c.1-.3.2-.5.3-.7h.8.9c.1.2.2.4.4.7zm-6.8-.4c.7.5 1.5.5 2.2.3s1.1-1 .8-1.7c-.2-.4-.5-.6-.8-.7-.2-.1-.5-.2-.7-.3s-.4-.2-.3-.5c.2-.1.3-.1.5-.2.4.1.8.2 1.3.3 0-.3 0-.5 0-.8-1.2-.6-2.2-.4-2.8.4 0 .2-.1.4-.1.5.2.8.4.9 1.1 1.2.2.1.4.1.6.2s.3.2.5.4c-.8.6-1.4.1-2-.2-.3.5-.3.8-.3 1.1zm9.4-3.7c-.2 0-.4 0-.5 0-.2 0-.3 0-.5 0v4h1c0-1.3 0-2.6 0-4zm7.7 24.7c-8.2 0-16.3 0-24.4 0-.1-.4-.1-2.7-.1-3.8.5-.1 22.3-.1 24.4-.1.1.5.2 2.8.1 3.9zm-19.8-.8c.4-.2.6-.4.8-.6.3.2.5.3.8.5-.1-.4-.2-.7-.3-.9.2-.2.5-.3.7-.7-.3 0-.6 0-.9 0-.1-.3-.2-.6-.3-.9-.1.3-.2.6-.4.9-.3 0-.6 0-1 0 .3.3.5.5.8.7 0 .4-.1.6-.2 1zm16.4-1.6c.3.3.6.5.8.7-.1.3-.2.6-.3.9.3-.2.6-.4.8-.5.3.1.4.4.8.4-.1-.3-.2-.6-.2-.9.2-.2.5-.3.7-.6-.3 0-.6 0-.9 0-.1-.3-.2-.5-.3-.9-.1.3-.2.6-.3.9-.4 0-.7 0-1.1 0zm-6.6 0v.1c.2.2.5.4.7.5 0 .3-.3.6-.2.9.3-.2.5-.3.7-.5.3.2.5.3.8.5-.1-.4-.2-.7-.3-.9.2-.2.4-.4.7-.6-.4 0-.7-.1-1-.1-.1-.3-.2-.5-.3-.9-.1.4-.2.6-.3.9-.2.1-.5.1-.8.1zm-5.2 0c-.2-.3-.1-.6-.4-.8-.1.3-.2.5-.3.8-.3 0-.6 0-.9.1.3.3.5.4.7.6-.1.3-.1.6-.2.9.3-.2.6-.4.8-.5.2.2.5.3.8.5-.1-.4-.2-.7-.2-.9.2-.2.4-.4.7-.6-.5-.1-.7-.1-1-.1zm3-.9c-.1.4-.2.6-.4.9-.3.1-.6-.1-.9.1.3.2.5.4.7.6 0 .3-.3.5-.2.9.3-.2.5-.3.7-.5.3.2.5.4.8.5-.1-.3-.2-.6-.2-.9.1-.1.3-.2.4-.3s.2-.2.3-.3c-.4 0-.7 0-.9-.1-.1-.3-.2-.6-.3-.9zm-11.3.9v.1c.2.2.5.4.7.6-.1.3-.2.6-.3.9.3-.2.6-.4.8-.5.3.1.5.4.8.4-.1-.3-.2-.6-.2-.8.2-.3.5-.3.7-.7-.3 0-.6 0-.9 0-.1-.3-.2-.5-.3-.9-.1.3-.2.6-.3.9-.5 0-.8 0-1 0zm18.1-.9c-.1.4-.2.6-.4.9-.3 0-.6 0-1 0 .3.3.5.4.8.6-.1.3-.2.6-.3.9.3-.2.6-.4.8-.5.3.1.5.4.8.5-.1-.3-.2-.6-.3-.8.2-.2.5-.4.8-.7-.4 0-.7 0-1 0 0-.3-.1-.5-.2-.9zm-8.8-6.9c.1.3.4.2.5.4 0 .1.1.1.1.2h.3c0 .1-.1.1-.1.2h.4c0 .1-.1.2-.1.3h.3c0 .1 0 .2-.1.2.1 0 .3 0 .5-.1-.1.1-.2.2-.4.3.1.1.2.1.3.1-.1 0-.1.1-.2.1v.1c.2-.1.4-.1.7-.2v.2c.2 0 .4-.3.7-.1-.2.1-.5.3-.6.4-.2-.1-.4-.1-.5-.1.4.4.9.8 1.4.9.3-.1.5-.2.6-.5-.2-.2-.3-.4-.4-.5-.1 0-.2 0-.3.1 0-.1 0-.1.1-.2-.1 0-.2 0-.2 0 .1-.1.2-.2.2-.3-.5-.7-.9-.9-1.8-1.4 0 0 0-.1.1-.2-.1-.1-.3-.1-.5-.2.3-.2.4-.2.6-.4 0 .1 0 .2-.1.3.1 0 .1 0 .2.1 0 .1 0 .2-.1.3.5.4.9.7 1.4 1.1.4.3.7.6.9 1 .1.2.3.4.5.7.2-.3.4-.5.5-.7-.1 0-.1-.1-.2-.1.1-.1.1-.2.2-.4-.2 0-.2.1-.3.1 0-.1 0-.2.1-.3-.1 0-.2.1-.3.1v-.1c.3-.3.2-.7 0-1-.2-.2-.4-.4-.6-.6-.5-.4-1-.7-1.5-1.1-.2-.2-.4-.5-.5-.8.1-.1.1-.1.2-.2.2.3.4.6.8.6 0 0 .1 0 .1.1-.2.3.3.1.2.3 0 0 .1.2.2.3.1 0 .2 0 .3-.1-.1.1-.1.2-.2.3.3.2.7.4 1 .6.1-.1.2-.2.2-.3.1-.1.3-.2.4-.4 0 .2-.1.2-.1.3.1 0 .1.1.2.2-.2.1-.4.3-.6.4.1 0 .2.1.3.1 0 .1-.1.1-.1.2h.4c-.1.1-.1.2-.3.3.2 0 .3-.1.6-.1-.2.2-.3.2-.4.3v.1c.2-.1.3-.1.5-.2v.1c-.1.1-.3.2-.5.4.4 0 .6-.2.8-.5 0-.1 0-.3-.1-.4-.1-.4-.3-.8-.4-1.2-.1-.5-.4-.8-.8-1-.4-.3-.9-.5-1.4-.7-.4-.2-.7-.4-1.1-.7-.7-.5-1.5-.6-2.4-.4-.2.1-.4 0-.6.1-.2 0-.3.2-.6.1-.2 0-.5.2-.7.3.1-.1.1-.2.2-.3-.2.1-.3.1-.4.1 0-.1 0-.1 0-.2-.1 0-.2 0-.3.1 0-.1 0-.1 0-.2-.1 0-.2 0-.3 0 0 0 0-.1-.1-.2-.1.1-.3.1-.3.1-1.4 0-2.6-.1-3.8 0-.2 0-.4 0-.7 0s0 0 0-.1v-.1c-.2.1-.4.1-.6.2 0-.1 0-.1 0-.2-.1 0-.3.1-.4.1 0-.1-.1-.1-.1-.2-.1.1-.3.1-.5.2 0-.1-.1-.1-.1-.2-.2.1-.3.1-.5.2 0-.1 0-.1 0-.2-.1 0-.2 0-.4 0 0-.1 0-.2 0-.3h2.3.2c1.3 0 2.6.1 3.8.1.3 0 .7-.1 1-.2 0-.2 0-.3 0-.4.3-.1.7-.2 1-.3s.6-.3 1-.5c.5.1 1.1.1 1.6.2.4 0 .8.1 1.2.1.5 0 .9.1 1.3.3 1.3.6 2.8.9 4.2.9h3.3c1 0 2-.1 3-.1h.4v.4c-.1-.1-.1-.2-.2-.2s-.2.1-.2.1c-.9-.2-1.7-.2-2.5.2 0-.1-.1-.1-.1-.2h-.1c-.1 0-.3.1-.3.1-.2 0-.3 0-.5 0-.1 0-.3 0-.6 0-.1.1-.3.2-.6.3.1-.1.1-.2.2-.3-.3-.1-.5.2-.8.3 0-.1 0-.2 0-.4-.3.2-.5.3-.8.4 0-.1 0-.2 0-.3-.4 0-.8 0-1.3 0 0 .1.1.3.1.4 0 0 0 0-.1 0-.1-.2-.3-.4-.3-.4-.5-.2-.9-.4-1.3-.5-.2-.1-.4.1-.5-.1-.5 0-.8-.3-1.3-.5-.4-.1-.8-.2-1.2-.2-.7 0-1.5-.1-2.2-.3.5-.2.4-.2.2-.2-.3 0-.5.1-.6.4-.4-.1-.6.2-.9.2v.2c-.2 0-.4-.2-.6 0 0 .3.1.5.4.6.7.3 2.2.2 2.5-.8.1.1.1.2.2.2-.1.1-.1.2-.2.3.2 0 .3-.1.4-.1v.2h1v.1c.1 0 .2 0 .3-.1.1 0 .3.1.3.2.1.2.2 0 .3.1s.1.2.2.3c.3.2.5.5.8.4.2.2.5.3.7.3v.2c.1 0 .3-.1.4-.1 0 .1 0 .2-.1.3.2-.1.4-.1.6-.2-.1.1-.1.2-.2.2.2.1.5.3.7.4h.2c-.2.2 0 .3.1.5 0 .2.1.4.1.6s0 .4.1.6.2.4.3.6.1.4.2.5c0 .1-.1.1-.2.2h.2c.1-.2.3-.3.3-.5 0-.5-.4-.9-.3-1.4.2.4.4.6.6.9.1 0 .2-.1.3-.1-.1.1-.1.2-.2.3 0 0 .1.1.1.1.1-.1.3-.1.5-.2-.1.2-.3.3-.5.5.4-.1.6-.4 1-.5-.1.3-.5.4-.6.8.3-.1.5-.2.8-.4-.2.2-.2.3-.3.4 0 0 .1.1.1.1.5.1 1.1.1 1.6.1 1.2.1 2.4.1 3.5.1.3 0 .6.1.9.2-.1 0-.2.1-.2.1-.8-.1-1.6-.1-2.4-.2-.5 0-1.1-.1-1.6-.1-.9 0-1.8-.1-2.7-.1-.6 0-1 .3-1.4.6-.2.2-.5.4-.8.6-.1.1-.3.3-.4.5-.3 0-.5 0-.6 0-.3.2-.5.4-.8.6-.2 0-.3-.1-.5-.1-.1.6-.5.9-1.1.8-.2-.1-.4-.2-.5-.3-1.1.4-1.3.3-1.9-.4-.6.1-1.1 0-1.4-.6-.6 0-1.1-.2-1.4-.7-.3-.1-.6-.1-.8-.2-.2-.3-.3-.6-.5-.9-1.8 0-3.6.2-5.4.3 0-.1 0-.1-.1-.3 1-.1 1.9-.1 2.9-.2.4-.3.7-.6 1-1-.1.3-.4.5-.5.9.5-.5 1-.9 1.5-1.3 0 .3-.3.4-.4.6-.2.2-.3.4-.6.6.4-.1.5-.3.7-.4.2-.2.3-.3.5-.5.2-.1.4-.3.6-.4-.3.4-.7.7-1 1.1.4-.1.6-.4 1-.6 0 .1.1.1.1.2.2-.1.4-.3.6-.4h.1c-.1.1-.2.3-.3.4h.2c.3-.2.5-.5 1-.7-.2.2-.3.3-.4.5 0 0 0 0 .1.1.2-.1.4-.2.6-.4h.1c-.2.2-.4.4-.5.6 0 0 0 .1.1.1.4-.3.8-.6 1.2-1 0 0 0 0 .1.1-.4.3-.7.7-1.1 1 0 0 0 .1.1.1s.2-.1.3-.1c.3-.3.7-.6 1.1-.8-.2.2-.4.4-.7.6.5-.1.7-.4 1.1-.6-.1.1-.1.2-.3.4.4-.1.6-.5 1-.5.2.1.4.2.7.3-.4.6-.5.7-.7.7.1-.1.1-.2.1-.3-.1 0-.2 0-.3 0 0-.1 0-.1-.1-.2-.5.2-.5.2-.7.6.2-.1.4-.2.6-.2 0 .1-.1.1-.2.3.3 0 .4-.1.6-.2zm-2.5.7c-.1.1-.2.3-.3.5 0 .1.1.3.1.4-.1 0-.2.1-.3.1 0-.1 0-.2 0-.3-.2.1-.2.2-.3.3.1.5.2.7.5.7.4.1.7-.1 1-.6-.1 0-.3.2-.4 0 0-.3.3-.2.4-.5 0-.1 0-.2-.1-.2l.3.3c.1-.1.1-.3.2-.4-.1-.2-.3-.3-.4-.4-.2-.1-.5-.3-.7.1zm1.6.4c0 .1.1.3.2.4.1.2.4.2.6.1-.1.2-.3.2-.5.1-.4 0-.7.1-1 .3.1.1.1.1.2.1-.1.1-.1.2-.2.2.2 0 .3 0 .4.1-.1.1-.1.1-.2.2.2 0 .3 0 .5.1-.4.1-.6 0-1-.1.3.5.3.5 1 .4.2-.2.4-.4.6-.6s.4-.4.6-.7c.2.2-.3.3-.1.6h.3c.1-.2.2-.3.3-.5-.1-.1-.2-.2-.3-.2s-.2.1-.2.1c0-.3.3-.6 0-1-.1-.1-.3-.2-.6-.3-.2.1-.4.2-.6.3-.2.2-.4.4-.4.8.2-.2.3-.3.4-.4zm2.1 1.4c-.1.2-.2.5-.2.7.4.2.7.6 1.3.5l.4-.4c-.1 0-.1-.1-.2-.1 0-.1 0-.2 0-.3-.1.1-.2.1-.4.2.1-.2.2-.3.2-.3-.1 0-.1-.1-.2-.1 0-.1 0-.1 0-.2-.2 0-.3.1-.4.1 0-.1.1-.2.1-.4-.3.2-.5.2-.6.3 0-.2 0-.4.1-.6-.1-.3-.3-.6-.8-.6.2.3.3.4.5.7-.2.2-.4.5-.5.7-.5.1-.7.2-.7.4.1 0 .1.1.2.1-.1.1-.1.1-.2.2.2 0 .3.1.5.1-.2 0-.3.1-.5.1.5.4.5.4 1 .1-.1 0-.2-.1-.2-.1.1-.1.2-.3.3-.4 0-.4.1-.5.3-.7zm-4.3-1.6c-.3-.6-.6-.7-1.2-.3v.4h.2v.5h.4c.2-.3.4-.4.6-.6zm3.7 9.8v5.6c.5.5.9.9 1.4 1.3.4-.4.9-.8 1.3-1.3 0-1.8 0-3.8 0-5.7-.8 0-2.3 0-2.7.1zm3.9 5.2c.9-.2 1.8-.3 2.7-.5.1-1 .1-4.3 0-4.7-.9 0-1.8 0-2.7 0-.1 1.1-.1 4.8 0 5.2zm-7.8-.5c.9.2 1.8.3 2.7.5.1-1.1.1-4.7 0-5.2-.9 0-1.7 0-2.7 0zm14.4-2.9c0-.6 0-1.2 0-1.8-.5 0-1 0-1.4 0-.5 0-.9 0-1.3 0-.1 1.1-.1 4.1 0 4.5.9-.3 1.9-.5 2.7-1 0-.6 0-1.2 0-1.7zm-15.5 2.7c0-1.5 0-3 0-4.5-.5 0-.9 0-1.4 0s-.9 0-1.4 0v3.5c.9.5 1.8.7 2.8 1zm16.6-4.4v2.8c1-.5 1.7-1.6 2-2.8-.7-.2-1.6-.2-2 0zm-20.6-.1c-.4 0-.7 0-1 0s-.7 0-1 0c.2 1.2.9 2.1 2 2.9.1-1 .1-2 0-2.9zm9.6-12.5c-.1 0-.2 0-.3 0-.2-.1-.4-.2-.5-.3-.1.1-.2.2-.5.3.4-.1.5.2.7.2-.1.2-.1.3-.2.4.2-.1.3-.2.5-.3 0 .2 0 .3-.1.4.1 0 .2 0 .3-.1 0-.1.1-.3.2-.4-.4.1-.1 0-.1-.2zm5.2-.5v.2c0 .1 0 .1.1.2.3-.6.1-1.1-.3-1.5.1.2.1.4.2.6-.1.1-.1.2-.2.3.1.2.1.2.2.2zm-3.1 3.1c.1 0 .2 0 .3.1v.2c.1 0 .2.1.4.1.1 0 .2-.1.3-.2-.1 0-.1-.1-.1-.1 0-.1 0-.2 0-.3-.1.1-.3.1-.4.2 0-.1 0-.2 0-.3-.2.1-.3.2-.5.3zm-10.7-1.1c-.5.3-.8.6-1.2.9h.7c-.1-.5.4-.6.5-.9zm16.1.7c.2 0 .5.1.7.1.1-.1.2-.3.4-.5-.3.1-.5.2-.8.3.1-.2.2-.3.3-.4-.3.2-.4.3-.6.5zm-7.2-4c-.2-.1-.4-.2-.7-.1.4.1.6.5 1.2.5-.2-.1-.3-.3-.5-.4zm5.6 1.9c.5.3.8.2 1.2 0-.4 0-.7 0-1.2 0zm3 1.9c-.1.1-.2.2-.4.3h.8c.1-.1.2-.2.3-.3 0 0 0 0 0-.1-.2.1-.3.1-.5.2-.1.1-.2 0-.2-.1zm-17.8-.7c-.3.3-.7.4-.9.9zm-.7.1c-.3.2-.6.5-.9.7.4-.1.7-.3.9-.7zm21.3.3c-.3.2-.6.4-.8.6.4-.1.6-.3.8-.6zm-.3.7c.4 0 .7-.3.8-.6-.3.2-.6.4-.8.6zm-22.4-.1c.2-.2.4-.4.7-.6-.3.1-.6.2-.7.6zm19.9-12.2c.3-.4.3-1.1 0-1.5-.4-.6-1-.5-1.6-.4v2.4c.6 0 1.2 0 1.6-.5zm-7.5-1.7c-.2.5-.4.9-.5 1.4h1.1c-.2-.5-.4-.9-.6-1.4z" fill="#fff"/></svg>