<?xml version="1.0" encoding="utf-8"?>
<!-- Generator: Adobe Illustrator 22.0.0, SVG Export Plug-In . SVG Version: 6.00 Build 0)  -->
<svg version="1.1" id="Layer_1" xmlns="http://www.w3.org/2000/svg" xmlns:xlink="http://www.w3.org/1999/xlink" x="0px" y="0px"
	 viewBox="0 0 24 24" style="enable-background:new 0 0 24 24;" xml:space="preserve">
<style type="text/css">
	.st0{fill:#FFFFFF;}
</style>
<path class="st0" d="M8.6,21.4c0.1,0.4,0.2,0.8,0.3,1.3c0-0.5,0.1-0.9,0.2-1.3l0.7-2.8h1.1l-1.4,5.2H8.4l-0.9-3.3
	c-0.1-0.2-0.1-0.5-0.2-0.9c0,0.3-0.1,0.7-0.2,0.9l-0.9,3.3H5.1l-1.4-5.2h1.1l0.7,2.9c0.1,0.4,0.1,0.7,0.1,1.2
	c0.1-0.5,0.2-0.9,0.3-1.2l0.8-2.8h1.1L8.6,21.4z M14.1,19.4c-1.1,0-1.8,0.7-1.8,1.8c0,1.1,0.6,1.8,1.7,1.8c0.6,0,1.1-0.2,1.6-0.6
	l0,1.1c-0.5,0.3-1,0.4-1.6,0.4c-1.7,0-2.8-1.2-2.8-2.7c0-1.5,1.1-2.7,2.9-2.7c0.7,0,1.2,0.2,1.6,0.4l0,1.1
	C15.2,19.6,14.7,19.4,14.1,19.4z M17.1,22.4c0.2,0.4,0.5,0.6,1,0.6c0.5,0,0.8-0.3,0.8-0.7c0-0.5-0.4-0.6-1.1-0.9
	c-0.8-0.4-1.2-0.8-1.2-1.5c0-0.8,0.7-1.5,1.8-1.5c0.6,0,1.1,0.2,1.4,0.7l-0.7,0.6c-0.2-0.3-0.4-0.5-0.8-0.5c-0.5,0-0.7,0.3-0.7,0.6
	c0,0.5,0.5,0.6,1,0.9c0.9,0.4,1.3,0.9,1.3,1.5c0,0.9-0.7,1.6-1.8,1.6c-0.8,0-1.4-0.3-1.7-0.8L17.1,22.4z M8,3.1
	c0.2-0.4,0.3-0.7,0.5-0.9C9.1,1,10,0.3,11.3,0.1c1.2-0.2,2.4,0.1,3.3,1c0.4,0.4,0.7,0.9,1,1.4c0.1,0.2,0.2,0.4,0.3,0.6
	c0.2-0.4,0.4-0.7,0.6-1c0.5-1,1.4-1.7,2.5-1.9c1.1-0.2,2.1-0.1,3,0.5c0.9,0.6,1.4,1.5,1.6,2.5c0.2,0.9,0,1.7-0.4,2.5
	c-0.7,1.4-1.4,2.7-2.1,4.1c-0.3,0.5-0.5,1-0.8,1.5c-0.7,1.3-1.3,2.5-2,3.8c-0.2,0.3-0.3,0.6-0.5,0.9c-0.3,0.5-0.7,0.9-1.3,1.1
	c-1,0.3-2-0.3-2.4-1.1c-0.2-0.5-0.5-0.9-0.7-1.4c-0.4-0.7-0.7-1.4-1.1-2.1c-0.1-0.1-0.1-0.2-0.2-0.4c-0.1,0.1-0.2,0.2-0.2,0.3
	c-0.4,0.7-0.8,1.5-1.2,2.3c-0.3,0.5-0.5,1-0.8,1.4c-0.3,0.5-0.8,0.9-1.4,1c-0.9,0.2-1.5-0.2-2-0.8c0,0-0.1-0.1-0.1-0.1
	c-0.2-0.4-0.4-0.7-0.6-1.1c-0.5-0.9-1-1.8-1.4-2.8c-0.4-0.7-0.7-1.4-1.1-2.1C2.5,9,1.8,7.8,1.2,6.6C1,6.3,0.8,5.9,0.7,5.6
	C0.4,5.1,0.2,4.5,0.3,3.9c0-0.4,0-0.7,0.1-1.1c0.2-0.6,0.4-1.1,0.8-1.5c0.2-0.2,0.5-0.5,0.7-0.7C2.5,0.2,3.2,0,4,0
	c1.1,0,2,0.3,2.7,1C7,1.3,7.2,1.7,7.4,2C7.6,2.3,7.8,2.7,8,3.1z M11.6,11.3c-0.1-0.2-0.2-0.4-0.3-0.6c-0.5-0.9-1-1.8-1.4-2.7
	C9.4,7.3,9,6.5,8.7,5.8C8.5,5.4,8.3,5.1,8,4.7C8,4.8,7.9,4.8,7.9,4.9c-0.3,0.5-0.5,1-0.8,1.5C6.7,7.1,6.3,7.8,5.9,8.6
	C5.5,9.4,5,10.3,4.6,11.1c-0.1,0.2-0.1,0.3,0,0.5c0.1,0.2,0.2,0.4,0.3,0.5c0.5,0.9,0.9,1.8,1.4,2.7c0.1,0.2,0.2,0.5,0.4,0.7
	c0.2,0.5,0.6,0.7,1.1,0.9c0.2,0,0.3,0,0.5,0c0.6-0.1,0.9-0.5,1.1-1c0.3-0.7,0.7-1.3,1-2C10.8,12.7,11.2,12,11.6,11.3z M12.4,11.3
	c0.6,1.2,1.2,2.3,1.8,3.4c0.2,0.4,0.5,0.8,0.7,1.2c0.2,0.5,0.7,0.6,1.1,0.6c0.5,0,0.9-0.3,1.2-0.7c0.2-0.3,0.3-0.6,0.5-0.9
	c0.6-1.2,1.2-2.4,1.8-3.6c-0.4-0.8-0.9-1.7-1.4-2.5c-0.6-1.1-1.2-2.3-1.8-3.4c-0.1-0.2-0.3-0.5-0.4-0.7c-0.1,0.2-0.2,0.4-0.3,0.6
	c-0.4,0.8-0.9,1.7-1.3,2.5c0,0.1-0.1,0.2-0.1,0.2C13.6,9.1,13,10.2,12.4,11.3z M15.5,3.8c-0.2-0.4-0.5-0.9-0.7-1.3
	c-0.3-0.6-0.7-1-1.3-1.4c-0.7-0.4-1.4-0.5-2.2-0.4c-0.8,0.1-1.5,0.6-2,1.4c-0.3,0.5-0.5,1-0.8,1.5C8.5,3.8,8.5,3.9,8.5,4
	c0.2,0.4,0.4,0.8,0.6,1.2c0.6,1,1.1,2.1,1.7,3.1c0.4,0.7,0.8,1.5,1.2,2.2c0.1-0.1,0.1-0.2,0.1-0.2c0.2-0.4,0.5-0.9,0.7-1.3
	c0.5-0.9,0.9-1.7,1.4-2.6C14.7,5.5,15.1,4.7,15.5,3.8z M19.9,10.5c0.2-0.3,0.4-0.6,0.5-0.9c0.8-1.4,1.5-2.9,2.2-4.3
	c0.3-0.7,0.4-1.4,0.3-2.1c-0.2-1-0.8-1.6-1.6-2.1c-0.5-0.3-1-0.3-1.5-0.3c-0.8,0-1.5,0.3-2.1,0.9c-0.4,0.3-0.6,0.8-0.8,1.2
	c-0.2,0.3-0.4,0.7-0.5,1.1c0.4,0.8,0.8,1.5,1.3,2.3c0.6,1.2,1.3,2.4,1.9,3.5C19.6,10,19.7,10.2,19.9,10.5z M4.1,10.5
	C5.3,8.2,6.4,6,7.6,3.8C7.3,3.3,7.1,2.8,6.8,2.3C6.5,1.8,6.1,1.4,5.6,1.1C4.8,0.7,4,0.6,3.1,0.9c-0.9,0.3-1.6,0.9-2,1.8
	C1,3.1,1,3.6,1,4c0,0.4,0.1,0.8,0.3,1.2C1.5,5.6,1.7,6,1.9,6.4c0.5,1,1.1,2,1.6,3C3.7,9.8,3.9,10.1,4.1,10.5z"/>
</svg>
