<svg height="58" viewBox="0 0 223 58" width="223" xmlns="http://www.w3.org/2000/svg"><g fill="#fff" fill-rule="evenodd" transform=""><path d="m35.934 4.664h.548c.511 0 .894-.101 1.149-.304.254-.202.381-.497.381-.883 0-.39-.107-.678-.319-.865-.214-.186-.547-.28-1.002-.28h-.757zm3.76-1.246c0 .845-.265 1.491-.793 1.938-.528.449-1.279.672-2.253.672h-.714v2.793h-1.665v-7.852h2.508c.952 0 1.676.204 2.172.615.497.41.745 1.021.745 1.834zm-9.537 5.403h-1.638v-7.852h4.501v1.363h-2.863v2.026h2.664v1.359h-2.664zm-4.525 0h-1.896l-1.063-4.125c-.04-.147-.107-.45-.202-.91-.095-.461-.149-.77-.164-.927-.021.194-.075.505-.161.932-.086.428-.152.734-.198.916l-1.059 4.114h-1.89l-2.004-7.852h1.638l1.005 4.285c.175.792.302 1.478.381 2.058.022-.204.071-.52.148-.948.077-.429.149-.761.217-.996l1.145-4.399h1.573l1.144 4.399c.051.196.113.498.188.902.075.405.133.752.172 1.042.036-.28.093-.628.172-1.045s.15-.754.215-1.013l.999-4.285h1.638zm-4.073 27.313c-3.051 0-5.009.724-5.544.949-.031.014-.057-.031-.033-.056 3.353-3.485 7.278-3.293 8.223-3.293h11.161c.563 0 1.018.537 1.018 1.201 0 .662-.455 1.199-1.018 1.199 0 0-11.201 0-13.807 0zm2.515 3.085c-3.288 0-4.246-1.868-9.222-.635-.034.009-.057-.038-.028-.058 2.774-1.903 5.791-1.73 7.011-1.73h13.531c.563 0 1.018.537 1.018 1.199s-.455 1.199-1.018 1.199c0 0-8.689.025-11.292.025zm.233 3.037c-3.374 0-3.645-2.49-8.646-3.051-.035-.004-.039-.056-.005-.064 4.109-1.028 5.638.715 8.037.715h11.673c.563 0 1.018.537 1.018 1.2s-.455 1.2-1.018 1.2c0 0-8.453 0-11.059 0zm-.732-9.183c-2.717 0-4.968 1.185-5.496 1.484-.028.016-.058-.019-.039-.046.44-.649 2.82-3.837 6.91-3.837h10.416c.563 0 1.018.537 1.018 1.2 0 .662-.455 1.199-1.018 1.199 0 0-9.185 0-11.791 0zm14.941-6.625c-.105-.106-.263-.183-.444-.205-.134-.018-.254.003-.362.043.047-.099.087-.205.102-.33.027-.193-.01-.375-.084-.512-.336-.736.625-2.209.504-2.275-.115-.064-.661 1.56-1.191 2.216-.103.12-.176.292-.2.489-.018.194.013.377.087.513.073.132.186.226.317.234.037.005.074.002.108-.006-.008.019-.016.04-.018.059-.021.143.034.279.141.388.105.111.26.185.441.207.187.024.36-.013.494-.093.719-.393 2.209-.781 2.178-.919-.029-.138-1.483.715-2.073.191zm1.1-1.074c-.101-.108-.242-.183-.407-.199-.095-.005-.181.011-.268.043.013-.046.031-.085.037-.131.018-.175-.024-.337-.103-.462-.364-.677.588-1.956.465-2.019-.123-.064-.646 1.368-1.176 1.934-.105.101-.178.25-.197.425-.016.176.024.341.1.465.084.123.199.21.338.229.061.005.124-.006.179-.021-.003.007-.01.018-.008.026-.013.149.042.292.139.398.1.107.244.181.404.195.165.015.318-.03.434-.117.619-.447 2.036-.712 1.999-.856-.034-.138-1.391.611-1.936.09zm.962-.993c-.102-.077-.241-.12-.388-.104-.071.003-.137.024-.197.051.011-.03.029-.054.04-.083.039-.151.026-.306-.024-.43-.231-.665.792-1.648.693-1.728-.1-.074-.764 1.117-1.31 1.536-.105.078-.189.2-.231.354-.045.148-.031.305.021.428.055.125.144.217.265.255.092.029.184.01.27-.027-.017.05-.028.109-.023.17.013.136.079.25.186.33.103.079.242.119.386.109.15-.016.278-.08.367-.176.491-.497 1.714-.962 1.665-1.081-.053-.12-1.153.765-1.72.396zm1.895-2.134c-.102-.151-.958.787-1.59.877-.118.016-.25.074-.36.178-.118.106-.194.236-.22.361-.029.123-.011.242.055.324.071.086.178.123.299.109.121-.013.247-.071.365-.181.11-.103.186-.233.215-.356.192-.643 1.313-1.214 1.236-1.312zm-17.694 1.27c-.026.093-.209.816-.209.816-.053.029-.273-.019-.331-.024-.423-.04-.8-.407-.638-.845.133-.358.404-.396.748-.412.143-.006.4.028.529.117 0 0-.051.165-.099.348zm-.485 2.182c-.013.082-.026.164-.039.247-.263-.165-.418-.542-.292-.84.097-.226.338-.285.515-.295-.063.295-.126.59-.184.888zm-.378 2.696c-.033.185-.283.21-.454.261-.496.149-.966.085-1.118-.508-.165-.634.315-.901.83-1.025.28-.066.54-.011.731.226.049.059.105.112.119.168 0 0-.077.704-.108.878zm-1.561-3.122c.382-.092.779-.236 1.073.141.309.396.207 1.031-.292 1.199-.327.111-.724.207-1.004-.061-.368-.351-.342-1.148.223-1.279zm-.376-2.056c.404-.098.821-.247 1.132.149.322.414.214 1.084-.308 1.259-.346.114-.763.215-1.057-.067-.386-.366-.357-1.203.233-1.341zm-.375 4.445c-.105.37-.409.425-.73.502-.21-.257-.773-.909-.783-.986-.003-.025 0-.054.012-.09.026-.077.116-.151.181-.194.191-.125.601-.217.821-.172.397.085.604.568.499.94zm-2.005-1.899c-.289-1.024 1.428-1.47 1.693-.466.273 1.032-1.459 1.47-1.693.466zm-.252-2.044c-.294-1.017 1.43-1.464 1.695-.465.273 1.033-1.462 1.472-1.695.465zm-.241-2.009c-.281-.948 1.338-1.368 1.585-.433.254.962-1.365 1.377-1.585.433zm-.166 3.867c-.08.047-.109.072-.136.072l-.77-.838c.009-.024.247-.196.326-.242.641-.356 1.168.662.58 1.008zm-1.462-1.887c-.38-.84 1.006-1.751 1.426-.845.385.834-1 1.761-1.426.845zm1.166-2.66c.438.779-.882 1.648-1.26.81-.336-.722.837-1.565 1.26-.81zm-1.108-1.815c.195-.172.42-.265.651-.154.37.178.381.733.058.954-.147.101-.397.226-.578.181-.396-.101-.472-.68-.131-.981zm.05-1.669c.16-.108.373-.205.556-.13.335.137.323.622.053.816-.124.088-.347.197-.496.157-.339-.085-.422-.634-.113-.843zm.887-2.378c.199-.107.486-.152.664.048.21.235.142.593-.134.734-.212.106-.498.146-.666-.051-.184-.212-.147-.578.136-.731zm-.157 1.807c-.161-.595.842-.876 1.005-.271.181.587-.845.88-1.005.271zm1.616 1.039c.234.643-.855 1.007-1.068.372-.218-.643.877-1.01 1.068-.372zm.137-3.133c.208-.083.474-.173.706 0 .288.216.225.702-.105.853-.218.099-.496.165-.691-.008-.246-.22-.26-.705.09-.845zm-.192 5.381c-.294.069-.601.186-.845-.066-.312-.322-.223-.885.2-1.039.273-.104.619-.162.842.066.286.293.254.93-.197 1.039zm.006-3.284c-.189-.638.85-.965 1.049-.346.205.635-.871.973-1.049.346zm1.739 1.169c.244.728-.987 1.116-1.212.399-.229-.734 1.01-1.122 1.212-.399zm.066-1.95c.217-.058.446-.037.612.14.251.271.165.734-.208.803-.176.032-.446.019-.583-.101-.246-.218-.234-.731.179-.842zm1.049 1.528c.397 0 .596.582.366.871-.139.175-.439.186-.643.154-.378-.058-.62-.545-.365-.874.155-.199.419-.151.642-.151zm-1.902 2.396c-.244-.837 1.178-1.211 1.396-.38.221.845-1.21 1.217-1.396.38zm.871 1.071c.389-.04.793-.13 1.031.277.25.43.063 1.028-.44 1.129-.331.069-.732.101-.969-.192-.309-.387-.186-1.161.378-1.214zm1.975-1.864c.48.198.642.764.303 1.08-.181.165-.512.133-.734.088-.447-.088-.738-.758-.347-1.076.201-.163.56-.183.778-.092zm.755 2.018c.302.37.189 1.023-.339 1.055-.275.016-.635-.016-.821-.242-.299-.361-.186-1.039.341-1.057.275-.011.632.018.819.244zm2.039-6.664c-.029-.042-.081-.066-.134-.05-.063.021-.105.09-.082.151 1.205 3.237-.333 4.831-.976 7.097-.771-1.841 1.785-3.573.468-6.929-.019-.043-.053-.078-.1-.085-.066-.009-.129.018-.139.106-.034.236-.189 2.096-1.698 3.186-.155-.356-.384-.728-.703-1.021-.14-.627-.549-1.488-1.41-1.742-.128-.325-.388-.79-.887-1.04-.47-.234-1.013-.213-1.617.061-.729.085-1.23.37-1.496.845-.249.449-.204.938-.12 1.271-.614.656-.643 1.628-.628 2.009-.364.876-.159 1.899-.044 2.324-.436 1.191-.011 2.346.16 2.729 0 .104.005.202.01.3-1.427-1.562-4.676-3.497-5.918-4.235-.057-.035-.13-.027-.181.021-.063.059-.065.154-.008.218 2.77 2.7 5.239 6.032 7.611 12.946 1.184-1.231 3.323-2.849 6.367-2.849h3.561c-2.262-8.428 1.032-11.444-2.036-15.313zm16.835 4.358c-.651-.17-4.807-.906-9.466 7.663.68-3.191 2.745-7.052 3.312-8.173v-.008c.034-.064.016-.147-.042-.192-.058-.042-.144-.029-.189.035-3.078 5.133-4.16 8.091-4.797 11.63h1.929c.328-3.412 4.637-11.449 9.23-10.852h.005c.026.006.05-.016.053-.039.01-.03-.008-.059-.035-.064zm-9.261 28.232-1.042-4.355h-1.774c.281 1.105.682 2.229 1.202 3.215.034.058.097.093.16.083.084-.011.149-.099.134-.19-.121-.922-.265-1.811-.402-2.699.375 1.395.882 2.758 1.564 4.013.019.039.058.057.095.045.05-.011.076-.064.063-.112zm1.793-1.977c-.182-.728-.371-1.621-.533-2.378h-.675c.263.808.617 1.709.932 2.479.031.075.102.112.171.093.081-.024.125-.111.105-.194zm.225 2.561-.005-.01c-.218-.609-.52-1.154-.759-1.738-.254-.585-.501-1.159-.706-1.758-.17-.45-.351-.965-.49-1.433h-.651c.183.545.422 1.132.645 1.658.491 1.188 1.058 2.352 1.78 3.393.026.038.076.053.123.035.058-.022.084-.088.063-.147zm.974-20.9c-.05-.075-.171-.091-.229-.03-1.183 1.249-1.9 2.578-2.146 3.069h.703c.352-.826 1.144-2.285 1.653-2.811l.006-.005c.052-.059.063-.157.013-.223zm-5.354-6.045c.651-1.069 1.616-1.887 2.435-2.875.029-.038.027-.096-.008-.128-.031-.035-.084-.035-.118-.003-.186.199-.38.386-.58.571-.086-.042-.306.043-.53.218-.175.139-.301.293-.346.404-.113-.026-.325.106-.517.351-.157.205-.249.42-.247.553-.121.01-.296.164-.446.409-.097.162-.16.319-.181.449-.097.066-.207.191-.31.353-.134.224-.202.449-.181.579-.031.057-.063.11-.089.165.006-.045.01-.087.016-.132.191-1.513.469-3.011.892-4.456.425-1.441.934-2.894 1.808-4.061l.005-.005c.045-.064.04-.151-.015-.21-.055-.061-.147-.064-.205-.003-.302.322-.557.681-.785 1.05-.099-.053-.309.144-.469.452-.147.278-.2.536-.145.635 0 0-.002.008-.008.005-.105-.045-.299.189-.417.502-.115.295-.136.566-.058.657-.005.005-.005.008-.008.013-.118-.043-.309.226-.427.606-.098.321-.108.6-.037.712.005.005 0 .019-.005.016-.121-.043-.305.234-.412.611-.108.364-.1.686.002.749-.118-.013-.283.263-.37.638-.079.324-.07.603.005.715-.115.034-.243.305-.309.656-.063.343-.032.627.052.718-.108.055-.217.334-.257.68-.039.343.01.624.1.715-.09.1-.176.339-.213.627-.036.273-.013.51.039.643-.096.082-.17.359-.173.691-.007.265.032.491.1.621-.053.133-.089.327-.089.542-.006.279.039.518.11.643-.021.981-.008 2.025.045 3.008h2.118c.015-.765.065-1.6.141-2.357.15-1.35.373-2.721 1.048-3.874l.005-.008c.021-.042.018-.09-.014-.127-.039-.035-.094-.035-.131.008-.916 1.063-1.317 2.506-1.553 3.89-.042.271-.076.544-.108.816.058-1.111.16-2.217.415-3.269.291-1.281.874-2.5 1.984-3.183.034-.021.052-.066.039-.112-.013-.05-.065-.079-.11-.066-.071.021-.137.058-.205.088-.073-.091-.343-.024-.622.153-.265.173-.44.386-.423.503 0 .005-.012.013-.012.002-.003-.013-.005-.026-.013-.034-.1-.082-.368.104-.594.42-.228.316-.317.646-.22.731.005.002.003.01-.003.01-.118-.048-.315.221-.438.596-.089.262-.11.504-.079.643 0 .004-.005.01-.005.01-.092.303-.168.609-.239.919.026-.438.066-.879.129-1.315.186-1.254.564-2.482 1.236-3.528zm6.663-3.498c-.133-.063-.309-.079-.485-.037-.131.032-.236.096-.326.17.013-.111.013-.223-.018-.345-.042-.191-.137-.348-.252-.449-.572-.571-.178-2.291-.312-2.312-.132-.018-.084 1.696-.355 2.498-.054.149-.065.337-.018.529.047.189.142.348.26.451.113.099.249.144.378.104.034-.005.068-.021.097-.043 0 .022 0 .043.002.064.029.141.129.25.266.314.139.066.309.082.488.037.181-.043.33-.141.428-.26.538-.625 1.802-1.515 1.726-1.634-.076-.117-1.144 1.195-1.879.913zm2.446-2.165c-.081-.117-1.094 1.065-1.785.77-.13-.066-.29-.085-.451-.042-.089.027-.165.075-.236.133-.003-.048 0-.091-.01-.133-.042-.172-.137-.308-.255-.398-.577-.505-.123-2.041-.26-2.057-.139-.016-.136 1.512-.435 2.229-.064.133-.082.298-.037.468.042.17.136.311.254.401.119.085.258.125.394.093.06-.016.113-.048.16-.082 0 .008-.002.018 0 .026.042.147.142.261.27.327.132.061.291.082.446.037.16-.042.286-.14.366-.26.427-.64 1.661-1.39 1.579-1.512zm.25-1.48c-.09-.093-.817 1.124-1.475.978-.124-.035-.268-.027-.399.04-.066.026-.121.071-.168.117 0-.03.007-.059.007-.091-.015-.154-.078-.297-.17-.393-.443-.542.173-1.825.055-1.865-.12-.035-.33 1.315-.698 1.902-.073.112-.11.255-.094.412.01.157.076.298.168.396.094.098.21.152.336.144.094-.003.175-.054.243-.12 0 .053.011.111.037.167.058.123.161.207.287.242.123.04.27.029.401-.035.134-.066.231-.172.283-.292.289-.64 1.273-1.509 1.187-1.602zm-.436-1.69c-.15-.106-.625 1.076-1.189 1.384-.105.056-.204.157-.275.295-.072.141-.097.29-.079.415.013.125.07.231.163.284.094.056.207.053.314-.002.111-.056.208-.157.281-.298.068-.138.095-.287.079-.412-.042-.669.811-1.6.706-1.666zm-10.359 30.839h-5.944c-.404 0-.769-.032-1.105-.093.003 0 .003.002.003.002.976 1.451 2.506 2.552 4.057 3.29.239 1.323.538 2.548.646 2.644.11.095 1.632-.343 1.68-.484.044-.14-.622-2.407-.622-2.407.8-1.374 1.046-2.185 1.285-2.952zm14.954 10.169c-1.501.593-3.459.642-5.057.218-3.661-1.14-7.726-3.3-11.629-1.507-3.902-1.793-7.968.367-11.629 1.507-1.598.424-3.556.375-5.057-.218-.042-.016-.073.037-.036.066 2.159 1.671 5.186 2.44 7.91 1.456 2.616-.815 4.828-3.587 7.928-2.404-2.454.959-4.748 2.729-6.519 4.4l1.289 1.057c1.608-1.873 3.419-3.746 5.469-4.886.28-.165.449-.231.645-.242.197.011.365.077.643.242 2.053 1.14 3.864 3.013 5.472 4.886l1.289-1.057c-1.772-1.671-4.065-3.441-6.519-4.4 3.099-1.183 5.312 1.589 7.928 2.404 2.724.984 5.75.215 7.91-1.456.034-.029.005-.082-.037-.066zm-24.129-2.525c-3.826-.927-4.873-4.514-8.072-6.071-.035-.018-.071.022-.05.053 1.008 1.658 1.554 4.198 4.459 5.764.023.012.01.05-.016.042-4.167-.802-5.918.313-10.285-1.661-.037-.016-.076.024-.053.059 1.436 2.083 4.843 3.507 9.509 3.114 1.679-.143 2.897-.85 4.508-1.227.04-.011.04-.065 0-.073zm-8.014-2.2c-1.454-1.905-1.04-5.972-4.323-9.695-.026-.029-.073-.006-.065.031.627 2.742.441 5.857 2.157 8.139.015.024-.008.048-.031.032-3.386-2.665-6.866-3.468-8.415-5.625-.023-.029-.07-.014-.065.024.383 2.792 5.747 7.145 10.712 7.153.03 0 .048-.034.03-.059zm-5.084-5.064c-1.559-2.891.305-7.302-1.464-11.588-.019-.045-.087-.034-.087.014-.052 2.34-1.506 5.835-.627 8.473.01.024-.021.037-.034.016-2.239-3.271-4.016-3.954-5.496-6.948-.021-.045-.089-.033-.092.015-.094 2.035.806 3.694 1.822 5.235 1.624 2.086 3.716 3.736 5.928 4.836.034.016.066-.019.05-.053zm-1.057-17.606c-.003-.048-.066-.064-.09-.022-1.189 2.224-3.306 3.994-3.375 6.931-.003.029-.034.031-.039.004-.386-2.266-2.31-4.806-2.394-8.088 0-.05-.071-.063-.089-.016-1.582 4.268.693 8.314 3.116 11.657.025.034.078.014.078-.032-.099-3.542 2.971-6.186 2.793-10.434zm1.511-5.522c-1.123 1.56-3.651 2.663-4.574 4.913-.014.032-.053.024-.047-.013.367-2.522-.607-5.45.306-8.8.014-.048-.046-.08-.076-.043-1.38 1.698-1.847 3.688-1.923 5.838-.095 2.641.834 4.567 1.294 6.358.01.043.065.04.075-.003.662-2.348 3.982-3.762 5.021-8.213.013-.047-.047-.077-.076-.037zm3.047-5.245c-1.847 1.448-4.669 2.843-5.275 3.85-.01.021-.042.005-.037-.016l.685-3.287c.307-1.395.572-2.731 1.344-3.98.023-.037-.021-.08-.055-.053-3.517 2.785-3.003 6.812-3.157 10.11-.003.035.039.051.063.027 2.07-2.246 5.445-3.553 6.49-6.606.013-.037-.027-.069-.058-.045zm2.616-5.049c-3.107.099-5.39 2.716-6.369 6.048-.005.019.021.035.037.024 4.28-3.138 4.041-4.483 6.359-5.976.042-.027.023-.096-.027-.096zm35.829 38.813c-4.365 1.974-6.118.859-10.285 1.661-.027.008-.04-.03-.016-.042 2.906-1.566 3.452-4.106 4.459-5.764.021-.031-.016-.071-.05-.053-3.196 1.557-4.244 5.144-8.072 6.071-.04.008-.04.062 0 .073 1.611.377 2.829 1.084 4.508 1.227 4.666.393 8.076-1.031 9.508-3.114.024-.035-.015-.075-.052-.059zm4.727-7.445c-1.549 2.157-5.029 2.96-8.414 5.625-.021.016-.048-.008-.029-.032 1.714-2.282 1.527-5.397 2.155-8.139.007-.037-.04-.06-.066-.031-3.281 3.723-2.869 7.79-4.32 9.695-.018.025-.003.059.029.059 4.965-.008 10.327-4.361 10.71-7.153.005-.038-.042-.053-.065-.024zm2.207-7.964c-.003-.048-.071-.06-.092-.015-1.481 2.994-3.257 3.677-5.493 6.948-.016.021-.045.008-.037-.016.879-2.638-.572-6.133-.627-8.473 0-.048-.068-.059-.087-.014-1.768 4.286.095 8.697-1.462 11.588-.018.034.014.069.048.053 2.212-1.1 4.304-2.75 5.928-4.836 1.016-1.541 1.916-3.2 1.822-5.235zm-.756-8.779c-.019-.047-.09-.034-.09.016-.084 3.282-2.007 5.822-2.393 8.088-.005.027-.037.025-.037-.004-.068-2.937-2.188-4.707-3.377-6.931-.024-.042-.087-.026-.087.022-.178 4.248 2.89 6.892 2.79 10.434 0 .046.055.066.081.032 2.42-3.343 4.695-7.389 3.113-11.657zm-1.184-2.436c-.076-2.15-.543-4.14-1.924-5.838-.028-.037-.086-.005-.076.043.914 3.35-.06 6.278.31 8.8.005.037-.037.045-.05.013-.923-2.25-3.451-3.353-4.574-4.913-.027-.04-.087-.01-.076.037 1.039 4.451 4.359 5.865 5.02 8.213.011.043.066.046.076.003.46-1.791 1.388-3.717 1.294-6.358zm-6.023-10.626c-.034-.027-.078.016-.055.053.772 1.249 1.037 2.585 1.344 3.98l.685 3.287c.005.021-.027.037-.037.016-.606-1.007-3.425-2.402-5.275-3.85-.029-.024-.071.008-.058.045 1.045 3.053 4.42 4.36 6.49 6.606.024.024.066.008.063-.027-.154-3.298.36-7.325-3.157-10.11zm-5.955-1.563c-.05 0-.065.069-.026.096 2.318 1.493 2.079 2.838 6.359 5.976.019.011.042-.005.037-.024-.979-3.332-3.262-5.949-6.37-6.048z"/><path d="m72.363 34.983h-2.496l-1.399-5.427c-.052-.193-.141-.594-.265-1.199-.125-.606-.197-1.012-.215-1.219-.029.254-.099.664-.212 1.227-.114.562-.201.964-.262 1.205l-1.393 5.413h-2.488l-2.637-10.333h2.157l1.321 5.64c.231 1.041.398 1.943.502 2.707.028-.268.094-.684.194-1.248.102-.563.197-1 .287-1.311l1.505-5.788h2.071l1.506 5.788c.066.26.149.657.247 1.188.1.533.175.99.227 1.371.047-.367.122-.826.227-1.375.103-.549.197-.992.282-1.332l1.314-5.64h2.156z"/><path d="m77.197 31.018c0 .782.128 1.373.385 1.774.257.4.675.602 1.255.602.574 0 .988-.2 1.24-.598.252-.399.378-.99.378-1.778 0-.782-.127-1.368-.382-1.759-.253-.392-.67-.588-1.25-.588-.576 0-.99.196-1.245.584-.253.389-.381.977-.381 1.763zm5.463 0c0 1.288-.339 2.293-1.017 3.018-.679.727-1.623 1.09-2.834 1.09-.759 0-1.429-.166-2.008-.5-.58-.332-1.025-.809-1.336-1.43-.311-.623-.467-1.347-.467-2.178 0-1.29.337-2.294 1.011-3.011s1.621-1.074 2.842-1.074c.759 0 1.428.166 2.008.494.579.33 1.024.805 1.336 1.422.31.617.465 1.34.465 2.169z"/><path d="m88.386 26.933c.292 0 .534.021.728.064l-.163 2.022c-.174-.047-.386-.072-.636-.072-.688 0-1.224.177-1.609.531-.383.353-.575.848-.575 1.484v4.021h-2.156v-7.902h1.633l.318 1.329h.105c.246-.442.577-.799.994-1.071.417-.271.871-.406 1.361-.406"/><path d="m90.056 34.984h2.156v-10.998h-2.156z"/><path d="m97.327 33.407c.552 0 .956-.16 1.213-.48.257-.321.397-.865.42-1.633v-.233c0-.849-.131-1.456-.391-1.823-.262-.367-.688-.551-1.277-.551-.48 0-.854.203-1.12.611-.266.406-.399 1-.399 1.777s.133 1.362.402 1.75c.269.389.653.582 1.152.582zm-.755 1.719c-.929 0-1.659-.361-2.189-1.082-.529-.721-.795-1.721-.795-2.998 0-1.295.27-2.304.81-3.027.539-.725 1.283-1.086 2.23-1.086.994 0 1.753.387 2.276 1.16h.071c-.109-.59-.163-1.115-.163-1.576v-2.531h2.163v10.997h-1.654l-.417-1.025h-.092c-.49.779-1.237 1.168-2.24 1.168z"/><path d="m108.505 34.983h-2.155v-10.333h5.923v1.795h-3.768v2.666h3.506v1.786h-3.506z"/><path d="m115.352 31.018c0 .782.128 1.373.385 1.774.256.4.675.602 1.254.602.576 0 .989-.2 1.241-.598.252-.399.379-.99.379-1.778 0-.782-.128-1.368-.382-1.759-.255-.392-.672-.588-1.251-.588-.575 0-.99.196-1.244.584-.255.389-.382.977-.382 1.763zm5.464 0c0 1.288-.339 2.293-1.018 3.018-.679.727-1.624 1.09-2.835 1.09-.759 0-1.428-.166-2.008-.5-.579-.332-1.024-.809-1.336-1.43-.31-.623-.465-1.347-.465-2.178 0-1.29.336-2.294 1.01-3.011s1.621-1.074 2.842-1.074c.758 0 1.428.166 2.007.494.58.33 1.025.805 1.336 1.422s.467 1.34.467 2.169z"/><path d="m123.897 31.018c0 .782.128 1.373.384 1.774.257.4.676.602 1.255.602.576 0 .989-.2 1.241-.598.252-.399.379-.99.379-1.778 0-.782-.128-1.368-.382-1.759-.255-.392-.672-.588-1.251-.588-.575 0-.991.196-1.244.584-.255.389-.382.977-.382 1.763zm5.464 0c0 1.288-.339 2.293-1.018 3.018-.679.727-1.624 1.09-2.835 1.09-.759 0-1.428-.166-2.008-.5-.579-.332-1.024-.809-1.336-1.43-.31-.623-.466-1.347-.466-2.178 0-1.29.337-2.294 1.011-3.011s1.621-1.074 2.842-1.074c.758 0 1.428.166 2.007.494.58.33 1.025.805 1.336 1.422s.467 1.34.467 2.169z"/><path d="m134.016 33.407c.551 0 .955-.16 1.212-.48.257-.321.397-.865.421-1.633v-.233c0-.849-.131-1.456-.393-1.823s-.686-.551-1.275-.551c-.482 0-.855.203-1.121.611-.266.406-.4 1-.4 1.777s.135 1.362.404 1.75c.268.389.652.582 1.152.582zm-.757 1.719c-.928 0-1.657-.361-2.187-1.082-.531-.721-.795-1.721-.795-2.998 0-1.295.269-2.304.808-3.027.54-.725 1.283-1.086 2.231-1.086.994 0 1.753.387 2.276 1.16h.07c-.108-.59-.162-1.115-.162-1.576v-2.531h2.163v10.997h-1.654l-.417-1.025h-.092c-.49.779-1.237 1.168-2.241 1.168z"/><path d="m145.228 29.513h.721c.674 0 1.178-.133 1.513-.398.334-.268.502-.655.502-1.164 0-.514-.141-.893-.421-1.137-.28-.246-.72-.369-1.318-.369h-.997zm4.948-1.641c0 1.114-.348 1.963-1.042 2.553-.695.59-1.684.883-2.966.883h-.94v3.675h-2.191v-10.333h3.301c1.253 0 2.206.269 2.86.808.652.542.978 1.346.978 2.414z"/><path d="m155.804 26.933c.292 0 .535.021.728.064l-.163 2.022c-.173-.047-.386-.072-.635-.072-.689 0-1.225.177-1.609.531-.384.353-.576.848-.576 1.484v4.021h-2.156v-7.902h1.633l.318 1.329h.106c.246-.442.577-.799.994-1.071.417-.271.87-.406 1.36-.406"/><path d="m159.214 31.018c0 .782.129 1.373.386 1.774.257.4.675.602 1.255.602.574 0 .988-.2 1.24-.598.252-.399.378-.99.378-1.778 0-.782-.127-1.368-.382-1.759-.254-.392-.671-.588-1.251-.588-.575 0-.989.196-1.244.584-.254.389-.382.977-.382 1.763zm5.464 0c0 1.288-.339 2.293-1.018 3.018-.678.727-1.623 1.09-2.834 1.09-.758 0-1.428-.166-2.007-.5-.58-.332-1.026-.809-1.336-1.43-.312-.623-.467-1.347-.467-2.178 0-1.29.337-2.294 1.011-3.011.673-.717 1.621-1.074 2.841-1.074.759 0 1.428.166 2.008.494.579.33 1.025.805 1.336 1.422s.466 1.34.466 2.169z"/><path d="m167.595 29.669c0 .428.098.767.293 1.017s.493.375.894.375c.406 0 .703-.125.891-.375.189-.25.282-.589.282-1.017 0-.953-.39-1.427-1.173-1.427-.792 0-1.187.474-1.187 1.427zm-.785 6.431c0 .297.142.532.428.7.285.17.684.256 1.198.256.772 0 1.378-.108 1.816-.319.439-.213.657-.502.657-.869 0-.297-.128-.502-.388-.615-.259-.113-.659-.17-1.201-.17h-1.118c-.395 0-.726.094-.993.279-.266.186-.399.432-.399.738zm6.1-9.019v1.096l-1.237.319c.227.353.339.75.339 1.187 0 .847-.295 1.509-.887 1.982-.592.475-1.412.711-2.463.711l-.389-.022-.318-.035c-.221.17-.333.358-.333.565 0 .312.397.466 1.189.466h1.343c.867 0 1.527.188 1.982.559.455.373.683.92.683 1.641 0 .924-.386 1.638-1.157 2.148-.77.51-1.877.764-3.318.764-1.103 0-1.945-.192-2.527-.576-.582-.385-.873-.922-.873-1.616 0-.476.148-.875.445-1.195s.732-.549 1.308-.685c-.222-.094-.415-.249-.58-.463-.165-.215-.248-.442-.248-.682 0-.301.088-.553.262-.752.175-.201.427-.398.757-.592-.415-.177-.744-.467-.986-.861-.244-.397-.365-.863-.365-1.4 0-.861.281-1.529.842-2s1.361-.707 2.403-.707c.221 0 .484.02.789.061.303.039.498.068.583.087z"/><path d="m178.195 26.933c.292 0 .535.021.728.064l-.163 2.022c-.174-.047-.387-.072-.636-.072-.688 0-1.224.177-1.608.531-.384.353-.576.848-.576 1.484v4.021h-2.157v-7.902h1.633l.319 1.329h.106c.245-.442.576-.799.993-1.071.417-.271.87-.406 1.361-.406"/><path d="m184.125 31.323-.834.027c-.627.02-1.093.133-1.4.34-.306.207-.459.524-.459.948 0 .607.349.912 1.046.912.5 0 .898-.145 1.198-.432.299-.287.449-.67.449-1.146zm.636 3.66-.417-1.074h-.057c-.363.457-.736.774-1.12.951-.385.176-.885.266-1.502.266-.759 0-1.356-.217-1.792-.651-.436-.433-.654-1.05-.654-1.853 0-.838.294-1.457.88-1.856.587-.396 1.472-.616 2.654-.659l1.372-.043v-.346c0-.801-.41-1.201-1.23-1.201-.632 0-1.374.189-2.227.572l-.714-1.457c.91-.474 1.918-.713 3.026-.713 1.06 0 1.873.231 2.438.692.566.463.849 1.164.849 2.107v5.265z"/><path d="m195.045 34.983h-2.156v-4.614c0-.571-.095-.999-.286-1.284s-.491-.427-.902-.427c-.55 0-.952.203-1.201.607-.25.406-.375 1.072-.375 2.001v3.717h-2.156v-7.902h1.647l.29 1.012h.121c.212-.363.517-.648.919-.853.4-.203.859-.307 1.377-.307 1.183 0 1.985.387 2.404 1.16h.191c.212-.369.524-.654.937-.855.412-.203.877-.305 1.395-.305.896 0 1.573.231 2.032.689.46.46.69 1.196.69 2.209v5.152h-2.163v-4.614c0-.571-.096-.999-.286-1.284-.192-.285-.492-.427-.902-.427-.527 0-.923.189-1.183.566-.262.377-.393.975-.393 1.794z"/><path d="m208.75 34.983h-2.155v-4.614c0-.571-.096-.999-.286-1.284-.192-.285-.491-.427-.902-.427-.551 0-.952.203-1.202.607-.25.406-.374 1.072-.374 2.001v3.717h-2.156v-7.902h1.647l.29 1.012h.12c.212-.363.518-.648.919-.853.4-.203.86-.307 1.379-.307 1.182 0 1.983.387 2.403 1.16h.19c.212-.369.525-.654.937-.855.412-.203.878-.305 1.396-.305.896 0 1.573.231 2.033.689.459.46.689 1.196.689 2.209v5.152h-2.163v-4.614c0-.571-.096-.999-.287-1.284s-.491-.427-.901-.427c-.528 0-.922.189-1.184.566s-.393.975-.393 1.794z"/><path d="m218.701 28.466c-.457 0-.815.147-1.075.436-.259.289-.407.701-.445 1.234h3.025c-.008-.533-.148-.945-.417-1.234-.268-.289-.631-.436-1.088-.436zm.304 6.66c-1.272 0-2.266-.352-2.983-1.055-.716-.701-1.074-1.695-1.074-2.982 0-1.324.331-2.347.993-3.07.662-.725 1.577-1.086 2.746-1.086 1.117 0 1.986.318 2.608.955.622.635.934 1.514.934 2.636v1.045h-5.097c.024.614.205 1.092.544 1.436.34.344.815.515 1.428.515.476 0 .927-.048 1.35-.148.424-.1.868-.256 1.329-.473v1.668c-.377.188-.78.328-1.209.42-.428.092-.952.139-1.569.139z"/></g></svg>