<svg enable-background="new 0 0 262 92.3" viewBox="0 0 262 92.3" xmlns="http://www.w3.org/2000/svg"><path d="m261 52c-.1 0-.2.1-.2.1-.9 2.1-2.5 2.8-4.6 2.8-1.7 0-2.1-.1-3.2-.7-.5-1.2.1-2.3.2-3.5.1.2.3.4.3.6.1.4.2.8.3 1.1.7 1.6 3.4 2 4.5.6.6-.7.6-1.4.3-2.2s-.8-1.4-1.4-1.9c-.5-.4-1.1-.9-1.7-1.3-.8-.6-1.5-1.4-1.9-2.3-1.1-2.2-.1-4.5 2.2-5.2 1.5-.5 3-.4 4.5.1.1 0 .2.2.3.2-.1 1-.1 2-.2 3-.4-.1-.5-.4-.5-.7-.2-1.6-2.3-2.2-3.6-1.6-.6.3-.9.7-1 1.3v1c.5 1.1 1.4 1.6 2.1 2.2.8.7 1.6 1.4 2.3 2.1.5.5.8 1.2 1.2 1.9.1.8.1 1.6.1 2.4zm-227.3 27.4 11.5 11.5c8.4-8.4 16.9-16.9 25.2-25.2-1.4-1.5-2.9-3.1-4.4-4.6-7 6.9-13.9 13.9-20.9 20.8-2.4-2.4-4.8-4.8-7-7-1.5 1.6-3 3.1-4.4 4.5zm11.6-78c-8.3 8.3-16.7 16.7-25 25l4.5 4.5 20.3-20.3c2.4 2.3 4.6 4.6 6.9 6.8h.1s.1 0-.1 0c1.7-1.7 3.2-3.2 4.7-4.7-3.8-3.7-7.6-7.5-11.4-11.3zm19.6 20.6c-1.5 1.5-3.1 3.1-4.7 4.7l20 20c-2.1 2.2-4.2 4.3-6.3 6.3 1.6 1.6 3.1 3.1 4.6 4.6 3.7-3.7 7.4-7.4 11-11-8.2-8.2-16.5-16.5-24.6-24.6zm-63.9 23.8c8.1 8.1 16.3 16.3 24.6 24.6.7-.7 1.5-1.4 2.2-2.2s1.6-1.4 2.1-2.3c-6.7-6.7-13.3-13.3-20-20 2.4-2.4 4.7-4.7 7-7-1.6-1.6-3.1-3.1-4.5-4.5-3.9 3.9-7.6 7.7-11.4 11.4zm24.3 12.4c3.6-3.3 18.2-18.1 18.8-18.9-1.8-1.8-3.5-3.5-5.1-5.2-6.2 6.2-12.5 12.5-18.8 18.8 1.6 1.7 3.4 3.5 5.1 5.3zm44.7-18.8c-1.1-1.3-4.4-4.6-5.3-5.1-2.8 2.5-17.8 17.7-18.3 18.5 1.7 1.7 3.4 3.5 5.1 5.1 6.2-6.2 12.4-12.4 18.5-18.5zm-50 39.8 5.2 5.2c6.1-6.1 12.2-12.3 18.3-18.3-1.7-1.6-3.4-3.4-5.2-5.1-6 5.9-12.2 12.1-18.3 18.2zm49.3-65.2c-1.7-1.7-3.5-3.5-5.1-5.1-5.7 5.7-11.4 11.4-17.1 17.1l5.1 5.1c5.8-5.7 11.5-11.4 17.1-17.1zm14.7 52.4c-6.2-6.2-12.5-12.5-18.7-18.7-1.6 1.6-3.2 3.2-4.7 4.7l18.6 18.6c1.6-1.5 3.2-3.1 4.8-4.6zm-31.5 4.9c1.6-1.6 3.2-3.2 4.8-4.8-4.6-4.9-17.7-17.9-18.6-18.4-1.6 1.6-3.1 3.1-4.7 4.7 6.2 6.2 12.4 12.4 18.5 18.5zm-18.9-46.1c6.2 6.2 12.4 12.4 18.5 18.5 1.5-1.5 3.1-3.1 4.7-4.6-6.2-6.1-12.4-12.3-18.5-18.5-1.6 1.6-3.2 3.1-4.7 4.6zm-22.3-4.2c-1.5 1.5-3.1 3-4.6 4.6 1 1.3 17.9 18.1 18.7 18.6 1.5-1.5 3.1-3.1 4.6-4.6-6.3-6.2-12.6-12.5-18.7-18.6zm120.6-10.4c-.9 2.9-1.7 5.8-2.7 8.8-.5-1.1-.8-2-1.2-2.9-.9-2.2-1.8-4.3-2.7-6.5-.2-.4-.2-.9-.8-1.1-.2.3-.4.7-.5 1-.9 2.4-1.8 4.9-2.7 7.3-.3.7-.6 1.4-.9 2.3-1-3.5-2.1-6.6-2.8-9.8.3-.5.9-.2.9-.8-1.7 0-3.3 0-4.9 0-.1 0-.1.2-.3.3.4.1.8.2 1.2.3.2.5.5 1.1.6 1.6 1.3 3.7 2.5 7.5 3.8 11.2.2.5.1 1.1.7 1.3.1 0 .2-.1.2-.1 1.4-3.4 2.8-6.7 4.2-10.1.5 1.2 1 2.3 1.5 3.5.5 1.1.9 2.3 1.4 3.4s.7 2.4 1.7 3.5c.3-.6.5-1 .7-1.4.9-2.6 1.7-5.2 2.5-7.8.6-1.7 1.2-3.3 1.9-4.9 0-.1.2-.2.4-.5.1-.1.7.3.8-.3-.1-.1-.2-.1-.4-.1-1.2 0-2.5 0-3.7.1 0 0-.1.1-.2.3.3.1.6.2 1 .4.3.5.3.8.3 1zm59.7 13h1.1c1.2 0 2.5-.1 3.7.1 1.5.2 2.9.2 4.3-.1 2.1-.4 3.9-1.3 5.1-3.2.9-1.4 1.2-3 1.1-4.7-.1-2.5-1.3-4.4-3.5-5.7-1.3-.7-2.7-.9-4.1-1-2.5-.1-5 0-7.6 0-.2 0-.3.1-.5.2v.2c.4.1.9.2 1.2.2.6.4.6 1 .6 1.5v9.9c0 .7 0 1.3-.4 1.9-.4.1-.7.2-1.1.3.1.1.1.3.1.4zm9.5-12.6c1.9 1 2.9 2.7 3.1 4.7.1 1.1.1 2.3-.2 3.4-.5 1.9-1.7 3-3.6 3.4-.8.2-1.7.2-2.5.2-.7 0-1.5-.1-2.1-.9 0-3.8 0-7.7 0-11.7 2-.1 3.7 0 5.3.9zm-30.9 43.9c2-.2 3.7-1 5-2.4 1.8-2.1 2.4-4.7 1.8-7.4-.6-2.4-2.1-4-4.5-4.8-1.6-.5-3.2-.6-4.9-.3-2.8.5-4.7 2-5.6 4.6-1 2.8-.6 5.5 1.3 7.8 1.5 1.9 3.6 2.6 6 2.5zm-5.3-11.8c1-2.1 3.3-2.6 4.9-2.2 2.3.6 3.6 2.1 4.2 4.3.5 1.7.4 3.4 0 5.1-1 3.9-4.6 4.1-6.8 2.8-1.9-1.1-2.7-3-2.9-5.1-.1-.5 0-1 0-1.5-.1-1.1.1-2.2.6-3.4zm-18.2-19.2c3.1-.2 5.4-1.5 6.8-4.4.6-1.3.8-2.7.7-4.1-.1-1.7-.7-3.2-1.8-4.4-1.2-1.3-2.7-1.9-4.4-2.1-2-.3-4.1-.1-5.9 1-2.5 1.5-3.7 3.8-3.6 6.7.1 3 1.4 5.3 4.2 6.6 1.1.5 2.2.7 3.4.7zm-4.6-11.9c1.1-2 3.1-2.4 5-2 1.8.4 3.1 1.6 3.7 3.4.8 2.1.8 4.2.2 6.3-.9 3.3-4.2 3.8-6.6 2.5-1.3-.7-2.2-1.9-2.7-3.3-.3-1-.5-2.1-.6-2.9.2-1.6.3-2.9 1-4zm-1.4 72.7c0-3.1 0-6.2.1-9.3 0-1.2.2-2.3.3-3.5.5-.2 1-.3 1.5-.4-.7-.6-1.3-.3-2-.3-.3 0-.6.1-.9.1-.7 0-1.3-.1-2-.1-.2 0-.3.2-.6.4.8.2 1.6 0 1.9.8.3 2.5.4 8.1.2 9.5-.9-.9-1.7-1.9-2.6-2.8s-1.8-1.8-2.7-2.7-1.8-1.9-2.8-2.8c-.9-.9-1.5-2-2.8-2.7 0 .4-.1.6-.1.9-.1 2.9-.1 5.7-.2 8.6v3.3c0 .5-.1.9-.1 1.4-.5.2-1 .4-1.6.6 2 .3 4.5.2 5.2-.1-.5-.2-1-.3-1.6-.5-.6-3.2-.3-6.4-.4-9.7.8.9 1.5 1.7 2.2 2.4s1.4 1.5 2.1 2.2 1.4 1.4 2.1 2.1 1.4 1.5 2.2 2.1c.7.7 1.3 1.6 2.5 2 0-.8.1-1.1.1-1.5zm27.8-68.9c.6-.6 1.1-1.3 1.3-2.1.4-1.7-.1-3.6-2.1-4.3-.6-.2-1.2-.4-1.8-.4-2 0-4.1 0-6.1 0-.2 0-.3.1-.5.2v.3c.7.1 1.5-.1 1.8.8v11.5c0 .4-.2.7-.3 1.1-.5.1-.9.2-1.4.4.9.3 4.9.4 6.1.2-.3-.7-1.2-.1-1.6-.7-.4-1.3-.5-3.7-.2-5h1.9c.2.3.4.6.6.9.7 1 1.4 2 2.2 3 .6.8 1.3 1.5 2.3 1.9.6.2 2.7.2 3.6-.1v-.1c-.1-.1-.3-.2-.4-.2-1.1-.1-1.9-.8-2.6-1.6-.3-.3-.5-.6-.8-.9-1-1.2-2-2.5-3.1-3.8.4-.5.7-.8 1.1-1.1zm-3.8-5.7c.7 0 1.3.3 1.8.8 1.3 1.1 1.1 4.1.3 5-.4.5-.9.8-1.6.8-.6 0-1.1-.2-1.7-.2 0-2.1 0-4.1 0-6.3.5-.1.9-.1 1.2-.1zm-34.7 44.3c-.1-.1-.3-.2-.4-.2-1.1-.1-1.9-.7-2.6-1.5-1.3-1.5-2.6-3.1-3.9-4.7.4-.4.7-.7 1-1 .6-.6 1-1.3 1.3-2.1.4-1.4.2-2.6-.8-3.6-.9-.9-2.1-1.1-3.3-1.2-1.9-.1-3.9 0-5.8 0-.2 0-.3.1-.6.3.7.5 1.7 0 2 1.2v11.1c0 .5-.2.9-.3 1.2-.5.4-1.1.1-1.2.7h5.9c-.2-.3-.5-.4-.8-.4-.3-.1-.6-.1-.9-.2-.5-1.7-.2-3.4-.3-5.1h2c.3.5.6.9.9 1.3.9 1.2 1.9 2.4 2.9 3.6.4.5 1 .9 1.7.9h3.3c-.1-.2-.1-.3-.1-.3zm-10.8-13.1c1.9-.5 3.3.2 3.7 2 .2.7.3 1.6.1 2.3-.5 1.7-1.2 2.2-2.9 2-.3 0-.6-.2-.9-.3 0-2 0-4 0-6zm84.3 11.6c0 .4-.2.7-.3 1.1-.5.2-.9.3-1.5.5 1.6.3 5.3.2 6.3-.1-.3-.1-.6-.2-.8-.3-.3-.1-.6-.1-.9-.2-.6-1.7-.3-3.4-.4-5.1h2c.4.5.7 1 1.1 1.5.8 1.1 1.6 2.1 2.4 3.1.7.9 1.7 1.3 2.8 1.2h2c.2 0 .3-.1.5-.1 0-.2 0-.2-.1-.2-.1-.1-.1-.1-.2-.1-1.2 0-2-.7-2.7-1.5-1.3-1.5-2.6-3.1-3.9-4.7.5-.6 1-1 1.5-1.6 1.5-1.8 1.3-4.2-.4-5.5-.8-.6-1.9-.8-2.9-.8-1.9-.1-3.9 0-5.8 0-.2 0-.3.1-.7.2.6.5 1.5 0 1.9 1.2.1 3.6.1 7.5.1 11.4zm6.4-8.7c.1 1.4-.1 2.6-1.5 3.4-1.5.1-1.5.1-2.4-.3 0-2 0-3.9 0-6 2.3-.5 3.8.7 3.9 2.9zm-13.5-4.2c-1.4 0-2.8 0-4.2 0-.2 0-.4.2-.7.4.8.2 1.5-.1 1.9 1v2.3c0 2.2 0 4.3-.1 6.5 0 .6-.2 1.2-.5 1.8-.5 1.1-1.9 1.9-3.7 1.7-1.3-.1-2.5-1.2-2.9-2.6-.2-.7-.3-1.4-.3-2.1 0-2.4 0-4.8 0-7.2 0-.5.1-1 .4-1.2.4-.1.8-.2 1.3-.4-.8-.3-4.8-.4-6-.3-.1 0-.2.1-.4.1 0 .1 0 .2.1.3.6.2 1.5-.1 1.9.9v6.4c0 1 .1 1.9.3 2.9.4 2.1 1.6 3.5 3.7 4 1 .2 2 .2 3 .2 2.1-.2 3.6-1.3 4.4-3.3.4-1 .5-2 .5-3.1 0-2.1 0-4.2 0-6.2 0-1.4 0-1.4 1.4-1.8.1 0 .1-.1.2-.3 0 .2-.1 0-.3 0zm21.4 38.6v2.4c-.1 1.1-.3 2.1-1.1 2.9-1.8 1.6-5.1 1.4-6-1.6-.1-.4-.2-.8-.2-1.2 0-3 0-6 0-9.1.5-.2 1-.4 1.6-.7-.3-.1-.5-.3-.7-.3-1.6.1-3.2 0-4.8 0-.1 0-.3 0-.4.1-.1 0-.1.1-.1.3.6.2 1.3.1 1.8.9v1.3c0 2.2 0 4.4.1 6.6 0 .9.2 1.8.5 2.7.5 1.3 1.4 2.2 2.8 2.7 1.1.4 2.2.3 3.3.3 2.4.1 4.8-2.1 5.1-4.6.3-2.1.2-4.2.2-6.3 0-1 0-1.9 0-3 .6-.2 1-.4 1.7-.7-.4-.1-.6-.3-.9-.3-1.3.2-2.5 0-3.8 0h-.1c-.2.1-.4.2-.7.4 1.2.2 1.2.2 1.9.8-.2 2.2-.2 4.3-.2 6.4zm-205.5-7.3c.9-.9 1.8-1.8 2.7-2.7s1.8-1.9 2.7-2.8c-1.9-2.2-4.7-4.8-5.4-5.2-1.8 1.8-3.6 3.6-5.5 5.5 1.9 2 4.7 4.7 5.5 5.2zm219.2-19.4c-.4.8-1 1.4-1.9 1.5s-1.9.3-2.9.1c-2.5-.5-4.5-2.6-5-5.2-.2-1.1-.1-2.3 0-3.4.3-1.8 1.7-3.6 3.7-4 1.5-.3 2.9-.1 4.3.4.9.3 1.5.9 1.7 1.9.1.3.2.6.3 1 .4-.9.5-2.7.2-3.9-.4-.1-.9-.2-1.3-.3-1.8-.2-3.6-.4-5.5-.2-3.6.5-6.5 3.6-6.4 7.6.1 3.3 2.1 5.7 5 6.8 2 .8 4.2.7 6.3.4.6-.1 1.4 0 1.8-.9.1-.8.6-1.8.2-3.2-.3.8-.4 1.1-.5 1.4zm11.4 33.8h1.4c1.6.1 3.2.2 4.7.2.9 0 1.9.2 2.9-.3.3-.9.5-1.8.2-3-.2.5-.3.8-.4 1-.2.3-.4.7-.6.8-1.2.4-2.4.4-3.6 0-.2-.1-.3-.3-.4-.4 0-1.8 0-3.6 0-5.4 1.2.1 2.4-.3 3.5.3.2.5.4.8.6 1.3.4-1.2.4-2.2.3-3.3-1.2.5-3 .7-4.4.3 0-1.6 0-3.2 0-4.8 1.3 0 2.6-.2 3.8.3.2.4.3.8.5 1.2.5-.8.6-1.6.3-2.9-.1 0-.3 0-.4 0-1.9.4-3.8.1-5.7.2-.8 0-1.6-.1-2.4-.1-.2 0-.4.2-.8.3.7.2 1.3.3 1.9.5v12.9c-.5.2-1 .4-1.4.6zm-101.1-33.9c-.1.3-.2.7-.4.9-.2.3-.5.6-.7.7-1.2.2-2.4.4-3.5-.2-.4-1.2-.5-4.2-.2-5.7h2.6c1.2.2.9 1.1 1.5 1.8.2-1.4.1-2.4.2-3.6-1.5.9-3 .6-4.6.6 0-.9 0-1.7 0-2.5s0-1.7 0-2.5h3.7c.3.5.5 1 .8 1.6.4-.6.2-1.1.3-1.5 0-.5.1-.9.1-1.4-3.1 0-6 0-9 0 0 0-.1.1-.2.3.5.1.9.2 1.3.3.6.5.5 1.1.5 1.7v9.7c0 .6-.2 1.2-.3 1.8-.3.4-1.1-.1-1.3.7h8.9c.6-.9.4-1.8.4-2.8.1.1 0 .1-.1.1zm104.6.7c-.1.4-.4.8-.9.9-1.2.2-2.3.3-3.4-.2-.4-1.2-.5-4.4-.2-5.7h2.8c1 .3.8 1 1.1 1.6.4-.8.5-1.9.3-3.2-1.3.5-2.5.6-4.3.3 0-1.6 0-3.2 0-4.8h3.6c.2.5.5 1 .7 1.4.4-.5.4-.5.4-2.8-1.3 0-2.6 0-3.8 0-1.5 0-3.1 0-4.6 0-.2 0-.4.1-.6.2v.2c.5.1.9.2 1.3.3.5.5.5 1 .5 1.5v9.7c0 .7-.2 1.4-.3 2-.5.2-.9.3-1.2.5 0 .1 0 .2.1.3 3 0 5.9.1 8.9 0 .5-1 .5-1.9.3-3.2-.5.5-.6.7-.7 1zm-216.5-39.2c-1.7-1.7-3.5-3.5-5.3-5.3-1.7 1.3-3.2 2.9-4.6 4.4 1.9 1.9 3.7 3.8 5.5 5.5 1.4-1.6 3-3.2 4.4-4.6zm30.3 65.9c1.6 1.9 4.7 4.8 5.6 5.4.7-.8 1.5-1.6 2.3-2.4s1.7-1.5 2.3-2.4c-1.8-1.8-3.6-3.6-5.4-5.4-1.6 1.6-3.2 3.2-4.8 4.8zm139.9-6.8c.8.1 1.5.5 1.6 1.4 0 0 .1 0 .3.1.3-.9.1-1.9.1-2.9-4.2.3-8.3.4-12.4-.1-.6 1.4-.6 1.8-.4 3 .3-.5.6-.8.8-1.2 1.1-.4 3-.5 4.3-.2v11.5c0 .3-.2.7-.3 1-.5.2-.8.3-1.5.5.4.1.6.1.7.1 1.9 0 3.7 0 5.6-.1 0 0 .1-.1.1-.1v-.1c-.6-.1-1.2-.3-1.7-.4-.3-1.2-.4-10.5-.2-12.6 1.1.1 2 .1 3 .1zm-122.6-50.6c-1.5 1.5-3.1 3.1-4.6 4.6 1.7 1.7 3.4 3.4 5.2 5.2 1.5-1.5 3.1-3.1 4.6-4.6-1.8-1.8-3.6-3.6-5.2-5.2zm71.2 32.8c1 .4 2.1.3 3.1.3 1.8-.1 3.2-.9 3.9-2.5s.4-3.1-.6-4.5c-.7-.9-1.6-1.6-2.5-2.3-.7-.6-1.4-1.3-2-1.8-.4-1.5-.1-2.4 1.3-2.9h.5c1.7 0 2.2.4 2.7 2.1 0 .2.2.3.4.5.1-1.2.2-2.2.2-3.2-.7-.2-1.3-.3-1.9-.4-1.3-.2-2.6 0-3.8.7-1.1.7-1.7 1.7-1.7 2.9 0 1.7.9 3 2.1 4.1.6.5 1.2.9 1.8 1.4.7.5 1.2 1.1 1.5 2 .4 1.1 0 2.2-1 2.7-1.7.9-3.6 0-4.1-1.8-.1-.2 0-.4-.1-.7 0-.2-.2-.3-.4-.7-.1 1.4-.2 2.5-.4 3.6.5.2.7.4 1 .5zm5.3 16.3c-1.3-.3-2.4 0-3.6.6s-1.8 1.6-1.8 3c-.1 1.3.5 2.4 1.4 3.3.8.8 1.8 1.5 2.6 2.3.5.5 1.1 1.1 1.4 1.7.6 1.2 0 2.6-1.2 3-1.9.6-3.4-.4-3.8-2.3-.1-.3-.1-.6-.5-.7-.1 1.2-.5 2.3-.1 3.5.2.1.4.3.7.4 1.3.5 2.7.5 4 .2 1.7-.4 2.9-1.5 3.3-3.3.3-1.5-.2-2.9-1.3-4-.9-.9-1.8-1.7-2.8-2.4-.9-.6-1.5-1.4-1.6-2.5.2-.6.4-1.2 1.1-1.5 1.4-.7 3.2 0 3.6 1.5.1.3.2.5.3.7.1 0 .1 0 .2-.1.1-1 .1-1.9.2-3.1-.8-.1-1.5-.1-2.1-.3zm76.2 13.8c0 .1-.1.2-.2.3-.4.2-.8.3-1.3.5 1.1.3 5.3.2 6.2-.1-.6-.2-1.2-.3-1.8-.5-.1-.6-.2-1.3-.2-1.9 0-3.3 0-6.5 0-9.8 0-.3.1-.6.1-.9 1.5.3 3-.3 4.3.7.2.2-.1.8.7.9-.1-1 .2-1.9-.1-2.8-4.2.3-8.2.3-12.4-.1-.2.8-.3 1.6-.5 2.4 0 .1.1.2.3.4.3-.4.5-.7.7-1.1.3-.1.6-.3.9-.3h3.5c.2 2.3.1 10-.2 12.3zm-61.2-12.4c1.4.2 2.9-.4 4.2.7.3.2-.1.9.6.9.2-.9.1-1.9.1-2.9-4.2.3-8.3.3-12.5-.1-.2.8-.4 1.6-.5 2.3 0 .1.2.3.3.6.3-.8.7-1.3 1.5-1.4 1.2-.1 2.4-.1 3.7 0v9.7c0 .9-.2 1.8-.3 2.7-.5.2-.9.4-1.4.6 1.1.3 5.3.3 6.3 0-.6-.2-1.2-.3-1.8-.4-.4-1.2-.6-10.9-.2-12.7zm9.6-61.3v10.2c0 .6-.2 1.2-.2 1.6-.5.4-1.1.1-1.3.7h9.5c.5-1 .5-2 .3-3.3-.2.5-.3.8-.4 1.1-.2.6-.7 1-1.2 1.1-1.2.1-2.5.3-3.7-.4 0-.4-.1-.7-.1-1.1 0-3.4 0-6.8 0-10.2 0-.3.1-.7.2-1 .6-.1 1-.2 1.6-.4-.3-.2-.4-.3-.5-.3-1.8 0-3.6 0-5.4 0-.1 0-.2.2-.4.4.6.1 1 .1 1.2.2.4.4.4.9.4 1.4zm5.2 60.1c-1.4.1-2.9.1-4.3 0-.1 0-.2 0-.3 0-.2.1-.4.2-.6.4.6.2 1 .3 1.4.4.5 2.6.5 10.5 0 13.1-.4.2-.9.4-1.4.6 1.3.2 5.3.2 6.4 0-.7-.2-1.3-.3-1.9-.5-.1-.3-.3-.5-.3-.8 0-4 0-8 0-11.7.3-1 1-.8 1.7-1.1-.3-.3-.5-.4-.7-.4zm-67 1.4v.8 10.5c0 .4-.2.8-.3 1.2-.5.2-.9.3-1.4.5 1.5.2 5.2.2 6.2 0-.6-.2-1.2-.4-1.7-.5-.5-2.5-.5-11 0-13.1.4-.1.8-.2 1.2-.4-.1-.2-.2-.3-.3-.3-.5 0-1.1-.1-1.6 0-.7.2-1.3.1-1.9 0s-1.2-.2-2.1.2c.9.3 1.6.1 1.9 1.1z" fill="#fff"/></svg>